# T127: rotated in place (169.89 deg, x@R convention) then shifted by -[0.04219600558280945, 0.05817648768424988, -0.007244497537612915]
# template for this set: data/rabbit/T90_centered.obj
v -0.362070 0.322354 -0.674509
v -0.426060 0.253096 -0.684162
v -0.469618 0.339819 -0.600101
v -0.349245 0.185414 -0.626435
v -0.432764 0.164801 -0.583894
v -0.295887 0.264234 -0.615821
v -0.500386 0.192421 -0.488279
v -0.399040 0.367153 -0.535353
v -0.263295 0.313800 -0.516170
v -0.528198 0.253981 -0.483207
v -0.366048 0.377155 -0.415713
v -0.315731 0.356943 -0.536287
v -0.254735 0.139922 -0.498127
v -0.239118 0.197019 -0.505594
v -0.442265 0.384304 -0.472174
v -0.572034 0.213364 -0.312613
v -0.808777 0.321789 -0.235817
v -0.518719 0.209245 -0.335893
v -0.749263 0.284845 -0.263123
v -0.702624 0.328779 -0.299088
v -0.642159 0.539288 -0.255398
v -0.556194 0.473490 -0.322729
v -0.521685 0.408288 -0.309569
v -0.487095 0.227081 -0.368340
v -0.455413 0.108912 -0.422548
v -0.332625 0.378424 -0.388822
v -0.217590 0.274712 -0.430701
v -0.430911 0.457972 -0.268497
v -0.389761 0.077413 -0.421971
v -0.537871 0.444386 -0.254898
v -0.681398 0.194956 -0.287262
v -0.458596 0.286726 -0.361523
v -0.409425 0.377256 -0.316378
v -0.572616 0.538708 -0.236049
v -0.623738 0.287197 -0.281302
v -0.417890 0.352599 -0.318563
v -0.742377 0.260615 -0.232047
v -0.796637 0.248158 -0.247323
v -0.612092 0.569778 -0.195824
v -0.532109 0.565888 -0.213163
v -0.499137 0.228053 -0.338073
v -0.587550 0.203729 -0.276781
v -0.351218 0.305757 -0.304214
v -0.466250 0.179107 -0.333978
v -0.453279 0.440008 -0.246798
v -0.304445 0.347313 -0.336420
v -0.308212 0.020229 -0.408909
v -0.481220 0.154065 -0.376181
v -0.259547 0.351385 -0.388389
v -0.223734 -0.012463 -0.372110
v -0.098157 0.285882 -0.306171
v 0.001819 -0.228529 -0.496234
v -0.059821 0.067549 -0.350623
v -0.091798 0.178833 -0.378874
v 0.228464 0.130906 -0.487770
v -0.445385 0.123756 -0.351577
v -0.092751 -0.280938 -0.459978
v -0.293356 -0.060652 -0.336335
v -0.137895 0.040487 -0.391214
v -0.065886 -0.202193 -0.477509
v -0.076040 -0.281639 -0.507099
v -0.248147 0.316063 -0.263928
v -0.408761 0.108420 -0.251786
v -0.286192 0.294895 -0.165425
v -0.173041 -0.052861 -0.379005
v 0.290494 0.123936 -0.440404
v 0.269513 0.082337 -0.489396
v -0.020389 0.102933 -0.351121
v -0.065388 -0.102099 -0.375485
v 0.233281 0.053529 -0.448281
v 0.012695 -0.294834 -0.454491
v 0.193283 0.110744 -0.395725
v -0.012446 0.218443 -0.315551
v 0.167049 0.084841 -0.376837
v 0.030290 -0.226088 -0.393226
v -0.088098 -0.012228 -0.359752
v -0.068569 -0.209002 -0.366423
v 0.199979 0.038268 -0.349161
v 0.017935 0.037522 -0.298366
v 0.094487 0.125253 -0.343828
v -0.367446 0.047360 -0.110510
v -0.075379 -0.240872 -0.429778
v -0.371351 0.192735 -0.251624
v -0.406624 0.105805 -0.181753
v 0.032012 -0.177974 -0.315717
v -0.132483 -0.198381 -0.362073
v 0.015679 0.219662 -0.230180
v -0.062474 -0.239573 -0.308371
v -0.030283 -0.191242 -0.371786
v 0.310687 0.065175 -0.390012
v 0.117486 0.030283 -0.309984
v -0.035066 -0.058733 -0.312717
v -0.391196 0.045352 -0.292145
v 0.232021 0.081932 -0.327682
v 0.175644 0.142231 -0.308432
v -0.258163 0.235283 0.019535
v 0.160700 0.019149 -0.281356
v -0.201074 -0.138313 -0.293820
v -0.054557 0.227106 -0.131074
v 0.028789 -0.219544 -0.277983
v -0.361616 0.200635 -0.122846
v -0.015574 -0.292280 -0.415009
v 0.127951 0.090659 -0.201085
v -0.173432 0.282454 -0.118949
v 0.074967 0.035989 -0.194083
v -0.075368 -0.165348 -0.230244
v -0.030437 -0.108340 -0.233605
v -0.242922 -0.092646 -0.176300
v 0.040303 -0.096043 -0.193655
v -0.051566 -0.125622 -0.132750
v -0.025195 0.192932 -0.036446
v 0.064300 -0.007891 -0.237635
v 0.025314 0.125781 -0.112428
v -0.360407 0.065082 0.010778
v -0.336554 0.169716 0.033387
v -0.187668 0.264972 0.124053
v -0.143934 0.267529 -0.003278
v -0.337242 -0.035036 -0.062973
v -0.379975 0.083219 0.076250
v -0.322676 -0.096807 0.018312
v 0.099216 -0.047031 -0.122009
v -0.008713 0.226191 0.051712
v -0.373216 -0.004867 0.101496
v 0.089273 -0.132246 -0.064279
v -0.050169 -0.176027 -0.058091
v 0.146135 0.151151 0.077069
v -0.251815 -0.124086 -0.016138
v 0.105030 0.050726 -0.037754
v -0.042492 0.269677 0.118093
v 0.166520 0.066469 0.035129
v -0.350642 -0.150790 0.276210
v 0.123649 0.211012 0.122914
v -0.384773 0.102878 0.165788
v -0.342322 0.186754 0.160567
v -0.122534 -0.284039 0.042462
v 0.181452 0.016768 0.070162
v -0.289604 0.220656 0.233994
v 0.271177 0.099593 0.108070
v -0.346917 0.121488 0.340461
v 0.029999 0.257937 0.181050
v -0.293902 -0.197223 0.109507
v -0.361548 -0.059551 0.326229
v -0.036880 -0.262308 0.019155
v -0.013548 -0.333309 0.053519
v -0.198379 -0.273851 0.070168
v 0.110604 -0.189391 0.024374
v 0.308177 0.035475 0.126474
v -0.097361 -0.340442 0.057546
v 0.039605 -0.296978 0.110316
v 0.164676 -0.103617 0.007912
v 0.247503 0.139646 0.168772
v -0.322040 -0.017670 0.405801
v -0.194203 0.252357 0.241060
v 0.003836 -0.398198 0.097340
v 0.174255 -0.051708 0.168117
v -0.215103 0.180423 0.412310
v -0.167714 0.234149 0.365303
v 0.153938 0.195053 0.231725
v 0.231959 0.014301 0.119548
v 0.198575 -0.149412 0.181411
v 0.219890 0.131756 0.352795
v 0.158314 -0.212946 0.176164
v 0.253571 -0.072915 0.307706
v 0.049443 -0.375756 0.088878
v 0.388227 0.023286 0.262482
v -0.077248 0.273978 0.327044
v 0.078512 -0.460527 0.210804
v 0.070343 -0.227675 0.172688
v -0.286202 0.093604 0.436684
v 0.082397 -0.345029 0.119079
v 0.326793 -0.043781 0.204310
v -0.121255 -0.360920 0.186108
v -0.319134 -0.193796 0.231520
v -0.005656 -0.413323 0.246997
v 0.091868 -0.277881 0.313346
v 0.311689 -0.104457 0.373639
v -0.199957 0.027287 0.523671
v -0.073814 -0.362531 0.409154
v 0.193748 -0.433482 0.232877
v -0.258749 -0.085771 0.487190
v 0.310958 0.059621 0.311644
v -0.109684 0.121220 0.522650
v 0.431210 -0.094938 0.281993
v 0.201424 -0.091748 0.302785
v -0.257267 -0.173569 0.468216
v 0.121567 -0.368418 0.248562
v 0.065344 -0.465682 0.295454
v 0.366778 -0.543951 0.198599
v 0.148087 -0.487495 0.231946
v 0.262617 -0.526918 0.216589
v 0.321528 -0.609329 0.156731
v 0.182104 -0.206447 0.422839
v 0.238732 -0.563480 0.237765
v 0.379935 0.021125 0.343705
v 0.292411 -0.489813 0.243427
v -0.036463 0.174398 0.495889
v 0.459889 -0.028370 0.293650
v 0.389277 -0.632105 0.180820
v 0.551641 -0.064666 0.325108
v 0.222665 -0.429987 0.330097
v 0.256571 -0.583067 0.286121
v 0.133008 0.073789 0.540298
v 0.537058 -0.158964 0.307654
v 0.294250 0.028852 0.418584
v 0.347973 -0.020641 0.413144
v -0.095738 -0.041805 0.583426
v 0.215639 0.088172 0.453074
v 0.245083 -0.102375 0.403250
v 0.615721 -0.118514 0.290328
v 0.083485 -0.431619 0.374469
v 0.142961 -0.510215 0.331012
v 0.698651 -0.156707 0.292810
v 0.329210 -0.659477 0.219866
v 0.013413 -0.403486 0.373132
v 0.401320 -0.602076 0.226637
v 0.192261 -0.422781 0.389791
v 0.394837 -0.117587 0.416958
v 0.317306 -0.100393 0.435868
v -0.143019 -0.132592 0.560962
v -0.024973 0.070030 0.569837
v 0.271822 -0.565022 0.320080
v 0.282921 -0.480500 0.348323
v 0.109607 -0.321865 0.359329
v 0.473381 -0.041567 0.392008
v 0.153513 -0.481286 0.383857
v -0.176704 -0.202821 0.530002
v 0.418883 -0.140131 0.377544
v 0.394269 -0.060862 0.434850
v -0.039633 -0.362372 0.470836
v 0.587765 -0.089353 0.379602
v 0.098453 -0.348898 0.418446
v 0.633339 -0.200656 0.305410
v 0.213374 0.029469 0.540158
v -0.028553 -0.276959 0.553160
v -0.018927 -0.185303 0.578800
v 0.470713 -0.161751 0.412736
v 0.574107 -0.124059 0.411070
v 0.693534 -0.204576 0.346287
v 0.657936 -0.089873 0.329161
v 0.107841 -0.012581 0.585570
v 0.070981 -0.246887 0.562573
v 0.006663 -0.104299 0.600576
v 0.249889 -0.080891 0.482353
v 0.159819 -0.096584 0.575249
v 0.091876 -0.073137 0.600105
v 0.184136 -0.144479 0.605703
v 0.052224 -0.091450 0.650975
v 0.157182 -0.207291 0.548601
v 0.169425 -0.153949 0.657862
v 0.155594 -0.251557 0.624793
v 0.081057 -0.167747 0.699267
v 0.075257 -0.252811 0.639630
f 98 106 108
f 125 143 135
f 29 47 58
f 118 93 108
f 52 60 75
f 60 82 89
f 89 82 77
f 82 88 77
f 88 102 100
f 164 170 167
f 167 170 179
f 170 186 179
f 179 186 200
f 216 225 222
f 221 222 225
f 86 65 69
f 86 69 77
f 86 77 88
f 98 86 88
f 88 100 106
f 144 149 170
f 164 144 170
f 210 211 225
f 210 225 231
f 216 231 225
f 106 98 88
f 135 143 144
f 231 214 210
f 65 86 58
f 58 86 98
f 214 231 229
f 229 231 241
f 125 145 127
f 145 125 135
f 234 229 241
f 93 58 108
f 58 98 108
f 209 203 199
f 197 199 203
f 183 197 203
f 67 66 90
f 67 55 66
f 237 232 238
f 203 209 232
f 209 212 232
f 232 212 238
f 132 140 158
f 151 132 158
f 204 181 161
f 181 151 161
f 151 158 161
f 151 138 132
f 165 194 197
f 165 181 194
f 165 151 181
f 138 151 165
f 197 194 224
f 224 237 230
f 199 224 230
f 199 197 224
f 239 199 230
f 209 199 239
f 239 230 237
f 209 239 212
f 238 239 237
f 238 212 239
f 149 146 168
f 143 146 149
f 144 143 149
f 223 231 216
f 200 223 216
f 186 223 200
f 186 175 223
f 186 149 175
f 170 149 186
f 77 69 89
f 200 216 222
f 89 85 75
f 75 60 89
f 75 100 102
f 75 85 100
f 18 16 20
f 16 19 20
f 139 152 169
f 142 152 139
f 139 133 142
f 42 41 35
f 152 180 177
f 169 152 177
f 41 42 44
f 35 41 32
f 32 20 35
f 18 20 32
f 32 24 18
f 177 180 219
f 115 114 119
f 115 84 114
f 106 107 110
f 100 107 106
f 69 85 89
f 115 119 133
f 166 153 157
f 166 116 153
f 60 57 82
f 88 82 102
f 178 214 229
f 141 127 145
f 60 52 61
f 60 61 57
f 57 102 82
f 167 189 187
f 167 179 189
f 189 211 187
f 225 211 221
f 148 144 154
f 144 164 154
f 167 154 164
f 154 167 174
f 167 187 174
f 187 211 210
f 144 148 135
f 172 148 154
f 172 154 174
f 214 174 187
f 214 187 210
f 214 172 174
f 172 214 178
f 135 148 145
f 141 145 172
f 145 148 172
f 173 172 178
f 173 141 172
f 141 173 131
f 131 173 185
f 140 129 166
f 129 116 166
f 207 196 202
f 207 161 196
f 158 166 161
f 122 117 129
f 132 122 129
f 204 207 233
f 233 207 202
f 126 122 132
f 161 207 204
f 194 204 205
f 181 204 194
f 147 136 138
f 136 126 138
f 224 205 228
f 138 165 147
f 228 236 237
f 228 217 236
f 224 228 237
f 66 95 94
f 66 72 95
f 165 197 183
f 90 66 94
f 55 72 66
f 140 166 158
f 132 129 140
f 126 132 138
f 194 205 224
f 196 157 156
f 196 156 182
f 157 196 166
f 116 137 153
f 196 220 202
f 117 116 129
f 96 116 117
f 220 240 202
f 99 104 117
f 51 104 99
f 51 62 104
f 51 49 62
f 111 117 122
f 99 117 111
f 27 49 51
f 233 240 244
f 111 122 126
f 87 51 99
f 73 51 87
f 54 51 73
f 243 204 233
f 128 111 126
f 95 87 113
f 113 87 99
f 73 87 95
f 143 124 146
f 125 124 143
f 109 124 110
f 109 110 107
f 85 107 100
f 85 92 107
f 118 108 127
f 118 127 120
f 141 120 127
f 185 178 229
f 226 185 229
f 226 229 234
f 123 118 120
f 131 123 120
f 120 141 131
f 185 173 178
f 123 131 142
f 142 131 185
f 37 31 42
f 38 19 31
f 38 31 37
f 17 38 37
f 17 19 38
f 213 191 198
f 213 198 215
f 201 213 221
f 213 215 221
f 193 190 191
f 191 213 193
f 193 213 201
f 211 201 221
f 57 61 102
f 102 61 71
f 189 179 190
f 189 190 193
f 211 189 193
f 211 193 201
f 85 69 92
f 134 133 139
f 115 133 134
f 15 10 32
f 177 219 206
f 101 84 115
f 83 84 101
f 43 44 83
f 32 44 43
f 44 32 41
f 32 10 24
f 15 3 10
f 3 1 2
f 247 235 251
f 2 1 4
f 251 235 252
f 4 14 13
f 6 14 4
f 1 6 4
f 252 250 251
f 250 249 251
f 250 248 249
f 223 192 248
f 65 59 76
f 53 76 59
f 13 53 59
f 107 112 109
f 134 139 137
f 96 101 115
f 64 83 101
f 195 179 200
f 190 179 195
f 71 75 102
f 71 52 75
f 61 52 71
f 195 200 222
f 188 195 222
f 215 222 221
f 188 222 215
f 188 190 195
f 188 191 190
f 198 188 215
f 191 188 198
f 35 17 37
f 20 19 17
f 35 37 42
f 31 19 16
f 16 48 42
f 31 16 42
f 180 152 185
f 152 142 185
f 133 123 142
f 133 119 123
f 48 44 42
f 16 18 48
f 180 185 226
f 35 20 17
f 219 180 226
f 83 63 84
f 24 48 18
f 10 7 24
f 10 5 7
f 137 96 134
f 124 121 150
f 76 68 79
f 240 242 245
f 1 8 12
f 1 12 9
f 240 206 242
f 245 242 247
f 1 3 8
f 64 62 83
f 220 206 240
f 8 3 15
f 15 32 11
f 32 33 11
f 36 32 43
f 62 43 83
f 96 64 101
f 182 177 220
f 220 177 206
f 22 33 32
f 22 32 23
f 23 32 36
f 96 115 134
f 156 169 177
f 23 36 30
f 137 139 156
f 156 139 169
f 107 92 112
f 109 112 121
f 109 121 124
f 124 150 146
f 162 146 150
f 162 150 160
f 76 79 92
f 162 160 192
f 175 192 223
f 10 3 5
f 206 219 242
f 44 56 83
f 3 2 5
f 219 235 242
f 2 4 5
f 235 241 252
f 235 234 241
f 4 13 29
f 252 248 250
f 241 248 252
f 50 13 59
f 175 162 192
f 175 168 162
f 110 124 125
f 69 76 92
f 65 76 69
f 146 162 168
f 50 59 65
f 114 123 119
f 114 118 123
f 114 81 118
f 44 48 56
f 24 7 48
f 81 93 118
f 63 93 81
f 63 81 84
f 63 56 93
f 56 25 93
f 48 25 56
f 7 25 48
f 25 5 29
f 7 5 25
f 235 219 234
f 93 29 58
f 25 29 93
f 5 4 29
f 219 226 234
f 13 47 29
f 127 110 125
f 127 108 110
f 47 50 58
f 47 13 50
f 231 248 241
f 231 223 248
f 108 106 110
f 50 65 58
f 114 84 81
f 83 56 63
f 149 168 175
f 218 205 243
f 208 218 243
f 205 204 243
f 136 147 159
f 130 126 136
f 128 126 130
f 95 113 103
f 80 73 95
f 192 208 243
f 240 245 244
f 33 22 34
f 21 22 23
f 21 23 30
f 30 45 39
f 22 21 34
f 21 30 39
f 79 91 97
f 79 112 92
f 112 79 97
f 112 97 105
f 112 105 121
f 121 128 150
f 150 155 160
f 76 53 68
f 79 68 91
f 105 113 121
f 160 184 192
f 192 184 208
f 248 192 243
f 243 244 248
f 249 248 246
f 13 14 54
f 54 14 27
f 54 53 13
f 244 245 246
f 244 246 248
f 1 9 6
f 14 6 9
f 246 245 249
f 249 245 247
f 249 247 251
f 68 73 80
f 218 217 228
f 176 217 218
f 205 218 228
f 171 176 163
f 163 159 171
f 94 95 103
f 72 74 80
f 217 227 236
f 176 227 217
f 176 183 227
f 171 183 176
f 171 165 183
f 159 147 171
f 72 80 95
f 227 183 203
f 78 94 97
f 74 70 78
f 72 70 74
f 55 70 72
f 236 227 232
f 227 203 232
f 90 94 78
f 70 90 78
f 70 67 90
f 70 55 67
f 34 40 28
f 161 166 196
f 171 147 165
f 236 232 237
f 30 36 45
f 33 34 28
f 156 177 182
f 156 153 137
f 45 36 46
f 28 45 46
f 26 28 46
f 220 196 182
f 116 96 137
f 104 64 96
f 46 36 43
f 28 26 33
f 26 11 33
f 8 15 11
f 117 104 96
f 62 64 104
f 46 43 62
f 49 46 62
f 49 26 46
f 12 11 26
f 12 8 11
f 9 49 27
f 9 12 49
f 14 9 27
f 153 156 157
f 49 12 26
f 99 111 113
f 27 51 54
f 243 233 244
f 113 111 128
f 73 68 53
f 54 73 53
f 218 163 176
f 163 218 208
f 233 202 240
f 45 40 39
f 74 78 91
f 97 91 78
f 97 94 103
f 97 103 105
f 68 80 91
f 80 74 91
f 150 136 155
f 105 103 113
f 113 128 121
f 150 128 130
f 150 130 136
f 155 136 159
f 155 159 163
f 160 155 184
f 155 163 184
f 184 163 208
f 247 242 235
f 40 34 39
f 28 40 45
f 21 39 34
