# T365: rotated in place (85.54 deg, x@R convention) then shifted by -[0.04219600558280945, 0.05817648768424988, -0.007244497537612915]
# template for this set: data/rabbit/T90_centered.obj
v 0.014103 -0.434494 -0.698880
v -0.008177 -0.658292 -0.523048
v -0.010700 -0.642281 -0.465016
v 0.038482 -0.484092 -0.652493
v 0.040815 -0.437892 -0.659176
v 0.358100 -0.476540 -0.354290
v 0.069129 -0.578484 -0.443377
v 0.330892 -0.452808 -0.403319
v 0.394621 -0.459821 -0.291760
v 0.265700 -0.475954 -0.265324
v 0.108865 -0.421219 -0.547052
v -0.049189 -0.682846 -0.478691
v 0.228391 -0.419415 -0.432135
v 0.129468 -0.410266 -0.475831
v 0.419712 -0.390049 -0.347769
v 0.018570 -0.414832 -0.633432
v 0.207559 -0.496761 -0.357377
v 0.069837 -0.551441 -0.446923
v 0.083390 -0.484355 -0.401228
v -0.032667 -0.636510 -0.418389
v 0.058620 -0.340610 -0.521248
v 0.046231 -0.414056 -0.548477
v 0.366700 -0.319505 -0.293716
v 0.053679 -0.356894 -0.623554
v 0.094352 -0.428618 -0.502632
v 0.108852 -0.491930 -0.393734
v -0.018268 -0.581529 -0.428638
v 0.181345 -0.485991 -0.292126
v 0.163412 -0.383619 -0.425111
v 0.246337 -0.345436 -0.439082
v 0.016048 -0.531025 -0.341713
v 0.022103 -0.541799 -0.437050
v 0.104247 -0.327924 -0.459382
v 0.257591 -0.424364 -0.204649
v 0.091879 -0.460634 -0.324060
v 0.015075 -0.560644 -0.388137
v 0.075169 -0.451882 -0.321199
v 0.358467 -0.318680 -0.358890
v 0.128231 -0.414497 -0.380427
v 0.108967 -0.463727 -0.273817
v 0.151724 -0.469634 -0.232553
v 0.147778 -0.298764 -0.428934
v 0.103562 -0.329044 -0.435254
v 0.374316 -0.409919 -0.241594
v 0.259024 -0.280246 -0.203000
v 0.099191 -0.360116 -0.348623
v 0.094695 -0.297829 -0.382068
v 0.076766 -0.433966 -0.260359
v 0.021689 -0.387183 -0.215236
v 0.443622 -0.111742 -0.121458
v 0.222791 -0.302779 -0.170631
v 0.391300 -0.100266 -0.141670
v 0.050391 -0.392438 -0.161538
v 0.186137 -0.223840 -0.381293
v 0.241999 -0.234794 -0.244409
v 0.056808 -0.220878 -0.364603
v 0.159188 -0.388180 -0.164248
v 0.119221 -0.338859 -0.083682
v -0.002342 -0.301680 -0.309437
v 0.434434 -0.082595 -0.189222
v 0.183192 -0.147619 -0.293888
v 0.149641 -0.288073 -0.065072
v -0.086882 -0.154970 -0.304091
v 0.104352 -0.177440 -0.358143
v 0.210371 -0.190895 -0.112531
v 0.308660 0.007686 -0.147623
v -0.053588 -0.343957 -0.210538
v 0.392284 -0.050070 -0.064757
v 0.085953 -0.346257 -0.050643
v 0.456169 -0.029541 -0.113528
v 0.337950 -0.045391 -0.151941
v 0.189745 -0.109608 -0.219824
v -0.023261 -0.073900 -0.290852
v 0.345115 -0.015330 -0.069629
v -0.043653 -0.330768 -0.111804
v 0.344890 -0.060801 -0.082037
v 0.175937 -0.015052 -0.230381
v 0.220649 -0.057032 -0.190787
v 0.148938 -0.086209 -0.296091
v -0.098863 -0.247216 -0.264506
v 0.214247 -0.113311 -0.107154
v 0.263594 -0.060807 -0.137626
v 0.219032 -0.191589 0.005031
v 0.043489 -0.012391 -0.227640
v 0.304250 0.015811 -0.105663
v 0.190057 -0.141864 -0.001584
v 0.192190 0.043806 -0.138301
v 0.279554 0.008761 -0.041945
v 0.177396 -0.033463 0.006269
v -0.154486 -0.261622 -0.052671
v 0.289418 -0.023522 -0.033964
v 0.199530 -0.247397 0.102879
v -0.012314 -0.267578 -0.008069
v 0.227232 0.046072 -0.067049
v -0.281714 -0.193677 -0.136304
v 0.235607 -0.143896 0.168333
v 0.175474 -0.163679 0.172501
v 0.199833 -0.061805 -0.048108
v 0.091806 -0.266101 0.056460
v 0.227966 -0.142010 0.129213
v -0.170199 -0.251029 -0.155896
v 0.132906 -0.086062 0.087157
v 0.328888 -0.076559 0.199435
v -0.129479 -0.001096 -0.259529
v 0.324476 -0.136715 0.241092
v 0.196304 -0.102844 0.089637
v -0.107303 -0.205419 0.030759
v 0.058955 -0.170657 0.087670
v 0.130696 0.030893 -0.026473
v 0.103732 -0.052156 0.089234
v -0.055673 0.026402 -0.212526
v 0.320553 -0.077864 0.268704
v 0.234315 -0.114145 0.240428
v 0.156887 -0.084054 0.168311
v -0.017083 -0.177394 0.053158
v -0.179882 -0.096001 -0.257062
v 0.035744 0.037674 -0.125894
v 0.261103 -0.034564 0.218118
v -0.172537 -0.188988 -0.238475
v 0.183380 -0.052790 0.173720
v 0.000059 -0.082945 0.106226
v 0.236655 -0.052044 0.264438
v -0.361261 -0.095700 -0.183444
v -0.235428 -0.225412 -0.043995
v -0.309360 -0.033985 -0.226459
v -0.251800 0.029229 -0.236661
v 0.038741 0.097404 -0.027514
v -0.166946 -0.185680 0.089569
v 0.041755 0.139264 0.040753
v -0.235418 -0.210852 0.055176
v -0.032965 -0.082776 0.169173
v 0.064165 -0.001941 0.108091
v -0.377096 -0.139276 -0.092182
v -0.096089 0.115907 -0.178666
v -0.280580 0.169675 -0.196811
v -0.403535 -0.134219 0.006320
v -0.422827 -0.076124 -0.135899
v 0.077352 0.054327 0.076449
v -0.368463 0.118417 -0.183657
v -0.026541 0.236966 -0.079655
v -0.101134 0.225250 -0.149889
v -0.172177 -0.156895 0.204431
v -0.179026 0.158937 -0.205333
v -0.014807 -0.024784 0.191412
v -0.435574 0.016545 -0.155615
v -0.130073 -0.114225 0.281555
v -0.001411 0.278407 -0.057313
v -0.237631 -0.170359 0.175554
v -0.001116 0.215433 0.019673
v -0.064443 -0.016551 0.253956
v 0.012618 0.253218 0.034340
v -0.489436 -0.030164 -0.042628
v -0.054381 -0.021945 0.332239
v -0.380994 -0.143074 0.142738
v 0.013967 0.354777 0.045357
v -0.453570 -0.099531 0.125533
v -0.011730 0.171662 0.182613
v -0.002665 0.106386 0.205587
v -0.079680 -0.028935 0.368807
v -0.073232 0.326594 -0.053385
v -0.065041 0.220922 0.115689
v -0.263170 0.235652 -0.165843
v 0.004598 0.300082 0.107948
v 0.021477 0.330474 0.076356
v -0.115719 0.086178 0.309386
v -0.077852 0.303787 0.136123
v -0.104213 0.057568 0.447927
v -0.094272 0.070589 0.240068
v -0.504073 0.032643 -0.079629
v -0.071443 0.093206 0.388122
v -0.105686 0.226372 0.251362
v -0.074767 0.366866 0.179560
v -0.460295 0.155763 -0.105532
v -0.007235 0.393893 0.215840
v -0.068360 0.389117 0.042247
v -0.230308 -0.055707 0.338886
v 0.006643 0.438873 0.185686
v -0.194200 0.009941 0.393267
v -0.372747 0.225853 -0.151580
v -0.508438 0.027103 0.203625
v -0.534311 0.127477 0.025009
v 0.176274 0.454152 0.292435
v -0.063754 0.474774 0.157790
v -0.471595 0.276504 -0.024346
v 0.073878 0.449441 0.259351
v -0.240691 0.432825 0.064817
v -0.048255 0.177447 0.460977
v -0.142829 0.373336 -0.015210
v 0.053603 0.166017 0.602832
v 0.190160 0.516080 0.339335
v -0.080036 0.109534 0.472797
v 0.037035 0.431063 0.314533
v 0.147013 0.522396 0.282242
v 0.076667 0.228526 0.525951
v -0.528397 0.047848 0.114393
v -0.009309 0.156434 0.552163
v 0.146808 0.440755 0.349689
v -0.159097 0.155126 0.283094
v 0.102448 0.182935 0.570610
v 0.067457 0.490085 0.243158
v -0.124732 0.269631 0.174103
v 0.086284 0.215636 0.637499
v -0.193348 0.371533 0.224324
v -0.164334 0.383422 0.216446
v 0.077915 0.267020 0.592100
v -0.070769 0.436146 0.287583
v -0.172640 0.098690 0.481994
v -0.152921 0.472421 0.201993
v -0.534954 0.119624 0.155532
v -0.260536 0.234848 0.387522
v -0.356333 0.074695 0.386705
v 0.107306 0.519848 0.336269
v -0.069161 0.261589 0.509472
v -0.363911 0.407072 0.071883
v -0.440362 0.066013 0.305226
v 0.037660 0.474836 0.357450
v -0.208241 0.196382 0.393543
v -0.026475 0.237642 0.590058
v -0.506618 0.157978 0.261007
v -0.046255 0.197027 0.586111
v 0.002024 0.519551 0.256778
v -0.024724 0.521882 0.286542
v -0.525200 0.214750 0.106257
v -0.127088 0.161451 0.543881
v -0.191711 0.285898 0.300616
v -0.267045 0.204660 0.411534
v -0.161303 0.202226 0.539668
v -0.182015 0.459712 0.131729
v -0.222411 0.419462 0.220593
v -0.107333 0.508022 0.240308
v -0.278210 0.111347 0.441413
v -0.152716 0.248028 0.494490
v -0.217262 0.168903 0.486969
v -0.463432 0.336508 0.126679
v -0.450265 0.172044 0.333747
v -0.129037 0.461684 0.279922
v -0.298964 0.457716 0.157458
v -0.433086 0.371505 0.084552
v -0.387830 0.138472 0.408647
v -0.498271 0.266089 0.193247
v -0.371993 0.195617 0.404331
v -0.271464 0.347075 0.334578
v -0.356339 0.277415 0.365697
v -0.369463 0.378738 0.241500
v -0.290989 0.366242 0.389074
v -0.407778 0.408263 0.298291
v -0.314752 0.429493 0.304723
v -0.424016 0.275409 0.297213
v -0.428254 0.319015 0.261227
v -0.352549 0.343439 0.411258
v -0.430843 0.350968 0.358547
v -0.352006 0.415553 0.382507
f 207 227 233
f 189 202 220
f 196 189 220
f 191 196 224
f 224 196 220
f 167 191 224
f 207 167 224
f 207 224 227
f 159 153 167
f 167 153 191
f 178 167 207
f 176 146 159
f 178 159 167
f 178 207 231
f 231 207 233
f 146 153 159
f 176 159 178
f 142 131 146
f 176 178 211
f 211 178 231
f 142 176 148
f 176 142 146
f 128 142 148
f 148 176 154
f 154 176 215
f 215 176 211
f 130 128 148
f 154 130 148
f 154 215 156
f 216 190 212
f 197 182 190
f 162 135 179
f 162 143 135
f 162 179 186
f 143 162 141
f 188 162 186
f 160 162 188
f 160 141 162
f 134 141 140
f 175 188 186
f 160 188 175
f 147 141 160
f 140 141 147
f 175 186 228
f 183 228 208
f 183 175 228
f 155 160 175
f 147 160 155
f 164 151 155
f 151 147 155
f 183 208 230
f 221 183 230
f 177 155 183
f 164 155 177
f 155 175 183
f 200 183 221
f 200 177 183
f 193 200 221
f 182 200 193
f 212 190 193
f 190 182 193
f 115 110 121
f 115 108 110
f 115 99 108
f 232 226 233
f 170 165 217
f 168 165 150
f 144 158 168
f 102 108 114
f 108 99 114
f 62 83 92
f 226 232 217
f 213 187 217
f 187 170 217
f 99 97 114
f 92 83 100
f 213 217 232
f 97 113 114
f 120 114 122
f 114 113 122
f 96 105 113
f 105 96 103
f 213 232 218
f 213 194 187
f 113 112 122
f 205 213 218
f 205 194 213
f 105 103 112
f 199 194 205
f 133 136 152
f 137 133 152
f 103 96 100
f 143 104 126
f 186 179 214
f 134 143 141
f 134 111 143
f 111 104 143
f 237 214 238
f 144 150 131
f 93 115 107
f 90 75 93
f 195 156 180
f 69 62 92
f 131 150 146
f 153 146 150
f 231 233 226
f 93 69 99
f 128 121 131
f 128 131 142
f 211 231 239
f 231 226 241
f 239 231 241
f 53 58 69
f 69 93 75
f 93 99 115
f 235 239 241
f 90 93 107
f 130 90 107
f 130 107 128
f 211 239 215
f 219 215 235
f 215 239 235
f 124 90 130
f 124 130 154
f 219 180 215
f 136 124 154
f 136 154 156
f 156 215 180
f 20 3 36
f 20 36 31
f 12 3 20
f 186 214 237
f 228 186 237
f 229 228 237
f 127 134 140
f 228 229 208
f 140 147 151
f 149 140 151
f 87 77 84
f 78 79 77
f 66 77 87
f 66 78 77
f 163 164 174
f 163 151 164
f 85 66 87
f 236 222 230
f 174 177 185
f 185 177 200
f 221 222 212
f 212 193 221
f 200 182 185
f 174 164 177
f 221 230 222
f 172 174 206
f 74 85 88
f 74 70 85
f 70 66 85
f 71 52 82
f 60 71 66
f 60 52 71
f 236 216 222
f 206 216 236
f 206 192 216
f 174 192 206
f 174 185 192
f 70 74 68
f 50 60 70
f 60 50 52
f 212 222 216
f 192 197 216
f 182 197 192
f 50 70 68
f 197 190 216
f 214 179 184
f 135 139 179
f 143 126 135
f 5 24 33
f 184 238 214
f 70 60 66
f 185 182 192
f 123 133 137
f 2 27 32
f 181 195 209
f 95 133 123
f 95 124 133
f 18 2 32
f 7 2 18
f 121 132 144
f 198 210 217
f 150 144 168
f 217 210 226
f 131 121 144
f 165 198 217
f 226 210 243
f 226 243 241
f 58 62 69
f 115 121 107
f 28 10 41
f 57 41 34
f 41 57 58
f 107 121 128
f 248 235 243
f 243 235 241
f 48 40 41
f 48 41 53
f 53 41 58
f 53 69 75
f 49 48 53
f 67 49 53
f 67 53 75
f 67 75 101
f 101 75 90
f 248 219 235
f 36 35 40
f 36 40 31
f 31 40 48
f 37 31 48
f 124 101 90
f 180 219 209
f 37 27 31
f 195 180 209
f 3 7 36
f 101 124 95
f 32 27 37
f 19 32 37
f 36 7 35
f 18 32 19
f 80 67 101
f 59 49 67
f 2 3 12
f 35 7 26
f 26 18 19
f 7 18 26
f 219 248 240
f 28 41 40
f 35 28 40
f 39 28 35
f 17 28 39
f 10 28 17
f 248 243 251
f 8 10 17
f 243 250 251
f 57 62 58
f 57 51 62
f 57 34 51
f 10 34 41
f 243 245 250
f 80 59 67
f 210 242 243
f 198 225 210
f 165 168 198
f 110 132 121
f 10 44 34
f 6 9 10
f 9 44 10
f 168 158 198
f 144 132 158
f 108 102 110
f 86 110 102
f 83 62 81
f 120 102 114
f 106 86 102
f 100 83 106
f 83 86 106
f 120 106 102
f 118 106 120
f 100 106 118
f 103 100 118
f 122 118 120
f 112 118 122
f 112 103 118
f 169 195 181
f 169 152 195
f 137 152 169
f 181 209 223
f 119 95 123
f 223 209 219
f 119 101 95
f 80 101 119
f 34 44 51
f 68 74 91
f 76 50 68
f 52 50 76
f 5 4 1
f 3 2 7
f 227 232 233
f 27 20 31
f 133 124 136
f 136 156 152
f 12 20 27
f 195 152 156
f 27 2 12
f 189 199 202
f 199 205 202
f 220 202 218
f 202 205 218
f 105 112 113
f 194 199 196
f 194 196 187
f 196 199 189
f 191 187 196
f 220 218 227
f 224 220 227
f 227 218 232
f 100 96 92
f 92 96 97
f 97 96 113
f 170 187 191
f 99 92 97
f 153 150 165
f 153 165 170
f 153 170 191
f 99 69 92
f 1 4 16
f 184 179 173
f 139 169 173
f 139 173 179
f 126 139 135
f 126 125 139
f 24 16 21
f 21 16 22
f 11 5 33
f 104 125 126
f 104 116 125
f 42 33 21
f 33 24 21
f 104 63 116
f 73 63 104
f 21 43 42
f 73 104 111
f 64 63 73
f 64 56 63
f 64 47 56
f 47 64 42
f 43 47 42
f 238 234 237
f 84 73 111
f 79 73 84
f 24 1 16
f 79 64 73
f 64 54 42
f 54 30 42
f 117 111 134
f 84 111 117
f 79 61 64
f 61 54 64
f 55 54 61
f 38 30 54
f 87 84 117
f 72 79 78
f 72 61 79
f 203 204 229
f 203 166 204
f 129 140 149
f 129 127 140
f 204 236 208
f 204 208 229
f 166 172 204
f 163 172 166
f 161 151 166
f 166 151 163
f 149 151 161
f 157 149 161
f 157 129 149
f 94 87 117
f 82 78 66
f 204 206 236
f 204 172 206
f 172 163 174
f 88 85 94
f 85 87 94
f 71 82 66
f 77 79 84
f 230 208 236
f 223 219 240
f 39 19 37
f 26 19 39
f 240 248 249
f 46 49 59
f 46 48 49
f 37 48 46
f 39 37 46
f 14 11 33
f 25 43 22
f 56 59 63
f 25 11 14
f 21 22 43
f 63 80 116
f 238 184 223
f 238 223 234
f 4 5 25
f 5 11 25
f 4 25 22
f 4 22 16
f 116 119 125
f 173 169 184
f 125 123 145
f 139 125 145
f 139 145 169
f 89 138 110
f 158 138 157
f 86 81 98
f 86 98 89
f 138 89 109
f 157 161 171
f 35 26 39
f 39 29 17
f 248 251 249
f 8 17 13
f 8 6 10
f 251 250 252
f 250 245 252
f 243 242 245
f 210 225 242
f 62 65 81
f 62 51 65
f 45 65 51
f 44 45 51
f 9 15 44
f 6 15 9
f 198 171 225
f 198 158 171
f 158 157 171
f 132 138 158
f 110 138 132
f 110 86 89
f 83 81 86
f 251 252 246
f 225 203 242
f 6 8 15
f 184 169 181
f 137 169 145
f 123 137 145
f 184 181 223
f 125 119 123
f 234 223 240
f 63 59 80
f 56 46 59
f 25 39 43
f 25 14 39
f 47 46 56
f 47 43 46
f 43 39 46
f 14 29 39
f 13 17 29
f 234 240 249
f 246 249 251
f 247 246 252
f 245 247 252
f 245 242 247
f 203 229 242
f 81 65 72
f 45 55 65
f 45 23 55
f 171 201 225
f 44 23 45
f 15 23 44
f 15 38 23
f 80 119 116
f 55 72 65
f 42 29 33
f 29 14 33
f 30 29 42
f 30 13 29
f 8 13 30
f 247 244 246
f 244 249 246
f 244 234 249
f 94 117 109
f 117 134 127
f 55 38 54
f 237 234 244
f 76 68 91
f 82 52 76
f 98 76 91
f 91 74 88
f 82 76 98
f 98 91 88
f 88 94 109
f 81 78 82
f 81 82 98
f 98 88 109
f 98 109 89
f 138 127 129
f 129 157 138
f 81 72 78
f 109 117 138
f 127 138 117
f 161 166 201
f 161 201 171
f 203 201 166
f 201 203 225
f 242 229 237
f 8 38 15
f 38 55 23
f 72 55 61
f 242 237 244
f 242 244 247
f 38 8 30
f 5 1 24
