# T127 rotated in place about its centroid; R below is in the x@R convention
# R = [[-0.539515495300293, 0.41814035177230835, -0.7308087944984436], [0.6536939740180969, -0.3390309810638428, -0.6765664219856262], [-0.5306666493415833, -0.842743456363678, -0.09042322635650635]]
v -0.319874 0.380531 -0.681753
v -0.383864 0.311273 -0.691407
v -0.427422 0.397996 -0.607346
v -0.307049 0.243591 -0.633680
v -0.390568 0.222977 -0.591139
v -0.253691 0.322411 -0.623065
v -0.458190 0.250598 -0.495523
v -0.356844 0.425329 -0.542598
v -0.221099 0.371976 -0.523414
v -0.486002 0.312158 -0.490451
v -0.323852 0.435332 -0.422957
v -0.273535 0.415120 -0.543532
v -0.212539 0.198098 -0.505372
v -0.196922 0.255195 -0.512839
v -0.400069 0.442480 -0.479419
v -0.529837 0.271541 -0.319858
v -0.766581 0.379965 -0.243061
v -0.476523 0.267422 -0.343138
v -0.707067 0.343021 -0.270368
v -0.660428 0.386956 -0.306333
v -0.599963 0.597464 -0.262642
v -0.513998 0.531667 -0.329973
v -0.479489 0.466464 -0.316814
v -0.444899 0.285258 -0.375584
v -0.413217 0.167089 -0.429793
v -0.290429 0.436600 -0.396066
v -0.175394 0.332888 -0.437945
v -0.388715 0.516149 -0.275742
v -0.347565 0.135589 -0.429216
v -0.495675 0.502563 -0.262142
v -0.639202 0.253133 -0.294507
v -0.416400 0.344903 -0.368768
v -0.367229 0.435432 -0.323623
v -0.530420 0.596884 -0.243294
v -0.581542 0.345374 -0.288546
v -0.375694 0.410776 -0.325808
v -0.700181 0.318792 -0.239292
v -0.754441 0.306334 -0.254568
v -0.569896 0.627954 -0.203068
v -0.489913 0.624064 -0.220407
v -0.456941 0.286230 -0.345317
v -0.545354 0.261906 -0.284025
v -0.309022 0.363934 -0.311459
v -0.424054 0.237284 -0.341222
v -0.411083 0.498185 -0.254043
v -0.262249 0.405489 -0.343664
v -0.266016 0.078405 -0.416154
v -0.439024 0.212241 -0.383425
v -0.217351 0.409561 -0.395633
v -0.181538 0.045714 -0.379354
v -0.055961 0.344059 -0.313416
v 0.044015 -0.170352 -0.503479
v -0.017625 0.125725 -0.357868
v -0.049602 0.237009 -0.386118
v 0.270660 0.189083 -0.495014
v -0.403189 0.181932 -0.358821
v -0.050555 -0.222762 -0.467222
v -0.251160 -0.002476 -0.343580
v -0.095699 0.098663 -0.398459
v -0.023690 -0.144017 -0.484753
v -0.033844 -0.223463 -0.514344
v -0.205951 0.374240 -0.271173
v -0.366565 0.166596 -0.259030
v -0.243996 0.353071 -0.172670
v -0.130845 0.005316 -0.386250
v 0.332690 0.182112 -0.447649
v 0.311709 0.140513 -0.496641
v 0.021807 0.161109 -0.358366
v -0.023192 -0.043923 -0.382730
v 0.275477 0.111706 -0.455526
v 0.054891 -0.236657 -0.461735
v 0.235479 0.168920 -0.402970
v 0.029750 0.276619 -0.322796
v 0.209245 0.143018 -0.384082
v 0.072486 -0.167912 -0.400470
v -0.045902 0.045949 -0.366996
v -0.026373 -0.150825 -0.373668
v 0.242175 0.096444 -0.356405
v 0.060131 0.095699 -0.305610
v 0.136683 0.183429 -0.351073
v -0.325250 0.105537 -0.117755
v -0.033183 -0.182695 -0.437023
v -0.329155 0.250911 -0.258868
v -0.364428 0.163981 -0.188997
v 0.074208 -0.119798 -0.322962
v -0.090287 -0.140204 -0.369317
v 0.057875 0.277838 -0.237424
v -0.020278 -0.181396 -0.315615
v 0.011913 -0.133065 -0.379030
v 0.352883 0.123351 -0.397256
v 0.159682 0.088459 -0.317228
v 0.007130 -0.000556 -0.319962
v -0.349000 0.103528 -0.299390
v 0.274217 0.140109 -0.334926
v 0.217840 0.200407 -0.315677
v -0.215967 0.293459 0.012290
v 0.202896 0.077325 -0.288600
v -0.158878 -0.080136 -0.301065
v -0.012361 0.285282 -0.138319
v 0.070985 -0.161368 -0.285228
v -0.319420 0.258811 -0.130090
v 0.026622 -0.234104 -0.422254
v 0.170147 0.148836 -0.208330
v -0.131236 0.340630 -0.126194
v 0.117163 0.094165 -0.201327
v -0.033172 -0.107171 -0.237488
v 0.011759 -0.050164 -0.240850
v -0.200726 -0.034470 -0.183544
v 0.082499 -0.037867 -0.200899
v -0.009370 -0.067446 -0.139995
v 0.017001 0.251109 -0.043691
v 0.106496 0.050285 -0.244879
v 0.067510 0.183958 -0.119672
v -0.318211 0.123258 0.003533
v -0.294358 0.227892 0.026143
v -0.145472 0.323149 0.116808
v -0.101738 0.325706 -0.010522
v -0.295046 0.023140 -0.070218
v -0.337779 0.141395 0.069005
v -0.280480 -0.038631 0.011068
v 0.141412 0.011145 -0.129253
v 0.033483 0.284367 0.044468
v -0.331020 0.053310 0.094252
v 0.131469 -0.074069 -0.071523
v -0.007973 -0.117850 -0.065336
v 0.188331 0.209328 0.069824
v -0.209619 -0.065909 -0.023383
v 0.147226 0.108903 -0.044998
v -0.000296 0.327854 0.110848
v 0.208716 0.124646 0.027885
v -0.308446 -0.092613 0.268966
v 0.165845 0.269189 0.115669
v -0.342577 0.161054 0.158544
v -0.300126 0.244930 0.153322
v -0.080338 -0.225863 0.035218
v 0.223648 0.074944 0.062918
v -0.247408 0.278833 0.226749
v 0.313373 0.157769 0.100825
v -0.304721 0.179665 0.333216
v 0.072195 0.316114 0.173806
v -0.251706 -0.139046 0.102263
v -0.319352 -0.001375 0.318984
v 0.005316 -0.204132 0.011911
v 0.028648 -0.275132 0.046274
v -0.156183 -0.215674 0.062924
v 0.152800 -0.131214 0.017130
v 0.350373 0.093651 0.119229
v -0.055165 -0.282266 0.050301
v 0.081801 -0.238802 0.103071
v 0.206872 -0.045441 0.000668
v 0.289699 0.197823 0.161527
v -0.279844 0.040506 0.398557
v -0.152007 0.310534 0.233815
v 0.046032 -0.340021 0.090096
v 0.216451 0.006469 0.160873
v -0.172907 0.238599 0.405065
v -0.125518 0.292326 0.358059
v 0.196134 0.253229 0.224480
v 0.274155 0.072477 0.112304
v 0.240771 -0.091235 0.174167
v 0.262086 0.189933 0.345551
v 0.200510 -0.154769 0.168919
v 0.295767 -0.014738 0.300461
v 0.091639 -0.317579 0.081634
v 0.430423 0.081462 0.255237
v -0.035052 0.332154 0.319799
v 0.120708 -0.402351 0.203560
v 0.112539 -0.169499 0.165443
v -0.244006 0.151781 0.429439
v 0.124593 -0.286853 0.111835
v 0.368989 0.014396 0.197065
v -0.079059 -0.302743 0.178863
v -0.276938 -0.135619 0.224276
v 0.036540 -0.355147 0.239752
v 0.134064 -0.219705 0.306102
v 0.353885 -0.046281 0.366394
v -0.157761 0.085464 0.516426
v -0.031618 -0.304355 0.401910
v 0.235944 -0.375306 0.225632
v -0.216553 -0.027595 0.479945
v 0.353154 0.117797 0.304400
v -0.067488 0.179397 0.515405
v 0.473406 -0.036762 0.274748
v 0.243620 -0.033572 0.295541
v -0.215071 -0.115392 0.460972
v 0.163763 -0.310241 0.241318
v 0.107540 -0.407505 0.288209
v 0.408974 -0.485774 0.191354
v 0.190283 -0.429319 0.224702
v 0.304813 -0.468742 0.209345
v 0.363724 -0.551152 0.149487
v 0.224300 -0.148271 0.415594
v 0.280928 -0.505303 0.230521
v 0.422131 0.079302 0.336460
v 0.334607 -0.431637 0.236183
v 0.005733 0.232574 0.488645
v 0.502085 0.029806 0.286405
v 0.431473 -0.573929 0.173575
v 0.593837 -0.006490 0.317864
v 0.264861 -0.371811 0.322852
v 0.298767 -0.524891 0.278877
v 0.175204 0.131965 0.533053
v 0.579254 -0.100788 0.300410
v 0.336446 0.087029 0.411340
v 0.390169 0.037536 0.405899
v -0.053542 0.016372 0.576181
v 0.257835 0.146348 0.445830
v 0.287279 -0.044198 0.396006
v 0.657917 -0.060338 0.283084
v 0.125681 -0.373442 0.367225
v 0.185157 -0.452038 0.323768
v 0.740847 -0.098531 0.285566
v 0.371406 -0.601301 0.212622
v 0.055609 -0.345309 0.365887
v 0.443516 -0.543900 0.219392
v 0.234457 -0.364605 0.382546
v 0.437033 -0.059411 0.409713
v 0.359502 -0.042217 0.428623
v -0.100823 -0.074415 0.553718
v 0.017223 0.128207 0.562592
v 0.314018 -0.506846 0.312836
v 0.325117 -0.422324 0.341078
v 0.151803 -0.263689 0.352084
v 0.515577 0.016609 0.384763
v 0.195709 -0.423109 0.376613
v -0.134508 -0.144644 0.522757
v 0.461079 -0.081954 0.370299
v 0.436465 -0.002686 0.427605
v 0.002563 -0.304196 0.463592
v 0.629961 -0.031176 0.372358
v 0.140649 -0.290721 0.411202
v 0.675535 -0.142479 0.298165
v 0.255570 0.087645 0.532913
v 0.013643 -0.218783 0.545915
v 0.023269 -0.127126 0.571555
v 0.512909 -0.103575 0.405492
v 0.616303 -0.065882 0.403825
v 0.735730 -0.146400 0.339043
v 0.700132 -0.031697 0.321916
v 0.150037 0.045596 0.578325
v 0.113177 -0.188711 0.555328
v 0.048859 -0.046123 0.593332
v 0.292085 -0.022714 0.475109
v 0.202015 -0.038408 0.568004
v 0.134072 -0.014960 0.592861
v 0.226332 -0.086302 0.598459
v 0.094420 -0.033274 0.643731
v 0.199378 -0.149114 0.541357
v 0.211621 -0.095772 0.650618
v 0.197790 -0.193380 0.617549
v 0.123253 -0.109571 0.692023
v 0.117453 -0.194635 0.632385
f 98 106 108
f 125 143 135
f 29 47 58
f 118 93 108
f 52 60 75
f 60 82 89
f 89 82 77
f 82 88 77
f 88 102 100
f 164 170 167
f 167 170 179
f 170 186 179
f 179 186 200
f 216 225 222
f 221 222 225
f 86 65 69
f 86 69 77
f 86 77 88
f 98 86 88
f 88 100 106
f 144 149 170
f 164 144 170
f 210 211 225
f 210 225 231
f 216 231 225
f 106 98 88
f 135 143 144
f 231 214 210
f 65 86 58
f 58 86 98
f 214 231 229
f 229 231 241
f 125 145 127
f 145 125 135
f 234 229 241
f 93 58 108
f 58 98 108
f 209 203 199
f 197 199 203
f 183 197 203
f 67 66 90
f 67 55 66
f 237 232 238
f 203 209 232
f 209 212 232
f 232 212 238
f 132 140 158
f 151 132 158
f 204 181 161
f 181 151 161
f 151 158 161
f 151 138 132
f 165 194 197
f 165 181 194
f 165 151 181
f 138 151 165
f 197 194 224
f 224 237 230
f 199 224 230
f 199 197 224
f 239 199 230
f 209 199 239
f 239 230 237
f 209 239 212
f 238 239 237
f 238 212 239
f 149 146 168
f 143 146 149
f 144 143 149
f 223 231 216
f 200 223 216
f 186 223 200
f 186 175 223
f 186 149 175
f 170 149 186
f 77 69 89
f 200 216 222
f 89 85 75
f 75 60 89
f 75 100 102
f 75 85 100
f 18 16 20
f 16 19 20
f 139 152 169
f 142 152 139
f 139 133 142
f 42 41 35
f 152 180 177
f 169 152 177
f 41 42 44
f 35 41 32
f 32 20 35
f 18 20 32
f 32 24 18
f 177 180 219
f 115 114 119
f 115 84 114
f 106 107 110
f 100 107 106
f 69 85 89
f 115 119 133
f 166 153 157
f 166 116 153
f 60 57 82
f 88 82 102
f 178 214 229
f 141 127 145
f 60 52 61
f 60 61 57
f 57 102 82
f 167 189 187
f 167 179 189
f 189 211 187
f 225 211 221
f 148 144 154
f 144 164 154
f 167 154 164
f 154 167 174
f 167 187 174
f 187 211 210
f 144 148 135
f 172 148 154
f 172 154 174
f 214 174 187
f 214 187 210
f 214 172 174
f 172 214 178
f 135 148 145
f 141 145 172
f 145 148 172
f 173 172 178
f 173 141 172
f 141 173 131
f 131 173 185
f 140 129 166
f 129 116 166
f 207 196 202
f 207 161 196
f 158 166 161
f 122 117 129
f 132 122 129
f 204 207 233
f 233 207 202
f 126 122 132
f 161 207 204
f 194 204 205
f 181 204 194
f 147 136 138
f 136 126 138
f 224 205 228
f 138 165 147
f 228 236 237
f 228 217 236
f 224 228 237
f 66 95 94
f 66 72 95
f 165 197 183
f 90 66 94
f 55 72 66
f 140 166 158
f 132 129 140
f 126 132 138
f 194 205 224
f 196 157 156
f 196 156 182
f 157 196 166
f 116 137 153
f 196 220 202
f 117 116 129
f 96 116 117
f 220 240 202
f 99 104 117
f 51 104 99
f 51 62 104
f 51 49 62
f 111 117 122
f 99 117 111
f 27 49 51
f 233 240 244
f 111 122 126
f 87 51 99
f 73 51 87
f 54 51 73
f 243 204 233
f 128 111 126
f 95 87 113
f 113 87 99
f 73 87 95
f 143 124 146
f 125 124 143
f 109 124 110
f 109 110 107
f 85 107 100
f 85 92 107
f 118 108 127
f 118 127 120
f 141 120 127
f 185 178 229
f 226 185 229
f 226 229 234
f 123 118 120
f 131 123 120
f 120 141 131
f 185 173 178
f 123 131 142
f 142 131 185
f 37 31 42
f 38 19 31
f 38 31 37
f 17 38 37
f 17 19 38
f 213 191 198
f 213 198 215
f 201 213 221
f 213 215 221
f 193 190 191
f 191 213 193
f 193 213 201
f 211 201 221
f 57 61 102
f 102 61 71
f 189 179 190
f 189 190 193
f 211 189 193
f 211 193 201
f 85 69 92
f 134 133 139
f 115 133 134
f 15 10 32
f 177 219 206
f 101 84 115
f 83 84 101
f 43 44 83
f 32 44 43
f 44 32 41
f 32 10 24
f 15 3 10
f 3 1 2
f 247 235 251
f 2 1 4
f 251 235 252
f 4 14 13
f 6 14 4
f 1 6 4
f 252 250 251
f 250 249 251
f 250 248 249
f 223 192 248
f 65 59 76
f 53 76 59
f 13 53 59
f 107 112 109
f 134 139 137
f 96 101 115
f 64 83 101
f 195 179 200
f 190 179 195
f 71 75 102
f 71 52 75
f 61 52 71
f 195 200 222
f 188 195 222
f 215 222 221
f 188 222 215
f 188 190 195
f 188 191 190
f 198 188 215
f 191 188 198
f 35 17 37
f 20 19 17
f 35 37 42
f 31 19 16
f 16 48 42
f 31 16 42
f 180 152 185
f 152 142 185
f 133 123 142
f 133 119 123
f 48 44 42
f 16 18 48
f 180 185 226
f 35 20 17
f 219 180 226
f 83 63 84
f 24 48 18
f 10 7 24
f 10 5 7
f 137 96 134
f 124 121 150
f 76 68 79
f 240 242 245
f 1 8 12
f 1 12 9
f 240 206 242
f 245 242 247
f 1 3 8
f 64 62 83
f 220 206 240
f 8 3 15
f 15 32 11
f 32 33 11
f 36 32 43
f 62 43 83
f 96 64 101
f 182 177 220
f 220 177 206
f 22 33 32
f 22 32 23
f 23 32 36
f 96 115 134
f 156 169 177
f 23 36 30
f 137 139 156
f 156 139 169
f 107 92 112
f 109 112 121
f 109 121 124
f 124 150 146
f 162 146 150
f 162 150 160
f 76 79 92
f 162 160 192
f 175 192 223
f 10 3 5
f 206 219 242
f 44 56 83
f 3 2 5
f 219 235 242
f 2 4 5
f 235 241 252
f 235 234 241
f 4 13 29
f 252 248 250
f 241 248 252
f 50 13 59
f 175 162 192
f 175 168 162
f 110 124 125
f 69 76 92
f 65 76 69
f 146 162 168
f 50 59 65
f 114 123 119
f 114 118 123
f 114 81 118
f 44 48 56
f 24 7 48
f 81 93 118
f 63 93 81
f 63 81 84
f 63 56 93
f 56 25 93
f 48 25 56
f 7 25 48
f 25 5 29
f 7 5 25
f 235 219 234
f 93 29 58
f 25 29 93
f 5 4 29
f 219 226 234
f 13 47 29
f 127 110 125
f 127 108 110
f 47 50 58
f 47 13 50
f 231 248 241
f 231 223 248
f 108 106 110
f 50 65 58
f 114 84 81
f 83 56 63
f 149 168 175
f 218 205 243
f 208 218 243
f 205 204 243
f 136 147 159
f 130 126 136
f 128 126 130
f 95 113 103
f 80 73 95
f 192 208 243
f 240 245 244
f 33 22 34
f 21 22 23
f 21 23 30
f 30 45 39
f 22 21 34
f 21 30 39
f 79 91 97
f 79 112 92
f 112 79 97
f 112 97 105
f 112 105 121
f 121 128 150
f 150 155 160
f 76 53 68
f 79 68 91
f 105 113 121
f 160 184 192
f 192 184 208
f 248 192 243
f 243 244 248
f 249 248 246
f 13 14 54
f 54 14 27
f 54 53 13
f 244 245 246
f 244 246 248
f 1 9 6
f 14 6 9
f 246 245 249
f 249 245 247
f 249 247 251
f 68 73 80
f 218 217 228
f 176 217 218
f 205 218 228
f 171 176 163
f 163 159 171
f 94 95 103
f 72 74 80
f 217 227 236
f 176 227 217
f 176 183 227
f 171 183 176
f 171 165 183
f 159 147 171
f 72 80 95
f 227 183 203
f 78 94 97
f 74 70 78
f 72 70 74
f 55 70 72
f 236 227 232
f 227 203 232
f 90 94 78
f 70 90 78
f 70 67 90
f 70 55 67
f 34 40 28
f 161 166 196
f 171 147 165
f 236 232 237
f 30 36 45
f 33 34 28
f 156 177 182
f 156 153 137
f 45 36 46
f 28 45 46
f 26 28 46
f 220 196 182
f 116 96 137
f 104 64 96
f 46 36 43
f 28 26 33
f 26 11 33
f 8 15 11
f 117 104 96
f 62 64 104
f 46 43 62
f 49 46 62
f 49 26 46
f 12 11 26
f 12 8 11
f 9 49 27
f 9 12 49
f 14 9 27
f 153 156 157
f 49 12 26
f 99 111 113
f 27 51 54
f 243 233 244
f 113 111 128
f 73 68 53
f 54 73 53
f 218 163 176
f 163 218 208
f 233 202 240
f 45 40 39
f 74 78 91
f 97 91 78
f 97 94 103
f 97 103 105
f 68 80 91
f 80 74 91
f 150 136 155
f 105 103 113
f 113 128 121
f 150 128 130
f 150 130 136
f 155 136 159
f 155 159 163
f 160 155 184
f 155 163 184
f 184 163 208
f 247 242 235
f 40 34 39
f 28 40 45
f 21 39 34
