# T365 rotated in place about its centroid; R below is in the x@R convention
# R = [[0.37970709800720215, -0.6656255722045898, -0.6424680948257446], [0.9055798053741455, 0.12550091743469238, 0.4051850438117981], [-0.1890711486339569, -0.7356577515602112, 0.6504305005073547]]
v 0.056299 -0.376318 -0.706125
v 0.034019 -0.600115 -0.530293
v 0.031496 -0.584105 -0.472260
v 0.080678 -0.425915 -0.659737
v 0.083011 -0.379716 -0.666421
v 0.400296 -0.418364 -0.361535
v 0.111325 -0.520307 -0.450621
v 0.373088 -0.394632 -0.410563
v 0.436817 -0.401645 -0.299005
v 0.307896 -0.417778 -0.272568
v 0.151061 -0.363043 -0.554296
v -0.006993 -0.624669 -0.485935
v 0.270587 -0.361239 -0.439380
v 0.171664 -0.352090 -0.483075
v 0.461908 -0.331873 -0.355013
v 0.060766 -0.356655 -0.640676
v 0.249755 -0.438584 -0.364621
v 0.112033 -0.493265 -0.454167
v 0.125586 -0.426178 -0.408472
v 0.009529 -0.578334 -0.425634
v 0.100816 -0.282434 -0.528492
v 0.088427 -0.355879 -0.555722
v 0.408896 -0.261328 -0.300961
v 0.095875 -0.298717 -0.630798
v 0.136548 -0.370442 -0.509877
v 0.151048 -0.433754 -0.400978
v 0.023928 -0.523353 -0.435883
v 0.223541 -0.427815 -0.299370
v 0.205608 -0.325443 -0.432355
v 0.288533 -0.287260 -0.446327
v 0.058244 -0.472849 -0.348958
v 0.064299 -0.483622 -0.444294
v 0.146443 -0.269748 -0.466626
v 0.299787 -0.366188 -0.211894
v 0.134075 -0.402458 -0.331305
v 0.057271 -0.502468 -0.395381
v 0.117365 -0.393706 -0.328443
v 0.400663 -0.260504 -0.366134
v 0.170427 -0.356321 -0.387672
v 0.151163 -0.405550 -0.281061
v 0.193920 -0.411457 -0.239797
v 0.189974 -0.240587 -0.436178
v 0.145758 -0.270868 -0.442499
v 0.416512 -0.351743 -0.248838
v 0.301220 -0.222070 -0.210245
v 0.141387 -0.301939 -0.355867
v 0.136891 -0.239652 -0.389313
v 0.118962 -0.375789 -0.267603
v 0.063885 -0.329006 -0.222481
v 0.485818 -0.053565 -0.128702
v 0.264987 -0.244602 -0.177875
v 0.433496 -0.042090 -0.148914
v 0.092587 -0.334262 -0.168782
v 0.228333 -0.165663 -0.388537
v 0.284195 -0.176617 -0.251653
v 0.099004 -0.162702 -0.371848
v 0.201384 -0.330004 -0.171493
v 0.161417 -0.280683 -0.090927
v 0.039854 -0.243504 -0.316682
v 0.476630 -0.024418 -0.196466
v 0.225388 -0.089443 -0.301133
v 0.191837 -0.229897 -0.072317
v -0.044686 -0.096794 -0.311336
v 0.146548 -0.119264 -0.365388
v 0.252567 -0.132719 -0.119775
v 0.350856 0.065862 -0.154868
v -0.011392 -0.285781 -0.217782
v 0.434480 0.008107 -0.072001
v 0.128149 -0.288080 -0.057887
v 0.498365 0.028636 -0.120772
v 0.380146 0.012785 -0.159185
v 0.231941 -0.051432 -0.227068
v 0.018935 -0.015723 -0.298097
v 0.387311 0.042846 -0.076873
v -0.001457 -0.272592 -0.119049
v 0.387086 -0.002625 -0.089282
v 0.218133 0.043124 -0.237626
v 0.262845 0.001145 -0.198032
v 0.191134 -0.028032 -0.303335
v -0.056667 -0.189039 -0.271750
v 0.256443 -0.055134 -0.114398
v 0.305790 -0.002630 -0.144871
v 0.261228 -0.133413 -0.002214
v 0.085685 0.045785 -0.234885
v 0.346446 0.073988 -0.112908
v 0.232253 -0.083688 -0.008829
v 0.234386 0.101983 -0.145546
v 0.321750 0.066938 -0.049190
v 0.219592 0.024713 -0.000975
v -0.112290 -0.203446 -0.059915
v 0.331614 0.034655 -0.041209
v 0.241726 -0.189221 0.095634
v 0.029882 -0.209402 -0.015314
v 0.269428 0.104249 -0.074293
v -0.239518 -0.135501 -0.143548
v 0.277803 -0.085719 0.161089
v 0.217670 -0.105503 0.165257
v 0.242029 -0.003628 -0.055352
v 0.134002 -0.207925 0.049216
v 0.270162 -0.083833 0.121968
v -0.128003 -0.192853 -0.163140
v 0.175102 -0.027885 0.079913
v 0.371084 -0.018383 0.192190
v -0.087283 0.057080 -0.266773
v 0.366672 -0.078538 0.233848
v 0.238500 -0.044667 0.082393
v -0.065107 -0.147242 0.023515
v 0.101151 -0.112481 0.080425
v 0.172892 0.089069 -0.033718
v 0.145928 0.006020 0.081989
v -0.013477 0.084579 -0.219770
v 0.362749 -0.019687 0.261459
v 0.276511 -0.055968 0.233183
v 0.199083 -0.025877 0.161067
v 0.025113 -0.119218 0.045913
v -0.137686 -0.037825 -0.264306
v 0.077940 0.095851 -0.133139
v 0.303299 0.023613 0.210873
v -0.130341 -0.130812 -0.245720
v 0.225576 0.005387 0.166475
v 0.042255 -0.024768 0.098982
v 0.278851 0.006133 0.257193
v -0.319065 -0.037523 -0.190688
v -0.193232 -0.167235 -0.051239
v -0.267164 0.024191 -0.233703
v -0.209604 0.087406 -0.243906
v 0.080937 0.155580 -0.034758
v -0.124750 -0.127503 0.082324
v 0.083951 0.197440 0.033509
v -0.193222 -0.152676 0.047931
v 0.009231 -0.024599 0.161929
v 0.106361 0.056235 0.100846
v -0.334900 -0.081100 -0.099426
v -0.053893 0.174084 -0.185910
v -0.238384 0.227852 -0.204056
v -0.361339 -0.076042 -0.000924
v -0.380631 -0.017948 -0.143143
v 0.119548 0.112504 0.069205
v -0.326267 0.176593 -0.190901
v 0.015655 0.295142 -0.086899
v -0.058938 0.283426 -0.157133
v -0.129981 -0.098718 0.197187
v -0.136830 0.217113 -0.212578
v 0.027389 0.033392 0.184168
v -0.393378 0.074722 -0.162860
v -0.087877 -0.056049 0.274310
v 0.040785 0.336583 -0.064558
v -0.195435 -0.112183 0.168309
v 0.041080 0.273610 0.012428
v -0.022247 0.041626 0.246712
v 0.054814 0.311395 0.027095
v -0.447240 0.028013 -0.049873
v -0.012185 0.036232 0.324994
v -0.338798 -0.084898 0.135493
v 0.056163 0.412953 0.038113
v -0.411374 -0.041355 0.118289
v 0.030466 0.229838 0.175368
v 0.039531 0.164562 0.198343
v -0.037484 0.029241 0.361562
v -0.031036 0.384770 -0.060629
v -0.022845 0.279099 0.108445
v -0.220974 0.293828 -0.173087
v 0.046794 0.358259 0.100704
v 0.063673 0.388651 0.069112
v -0.073523 0.144355 0.302142
v -0.035656 0.361964 0.128879
v -0.062017 0.115744 0.440682
v -0.052076 0.128765 0.232824
v -0.461877 0.090820 -0.086873
v -0.029247 0.151382 0.380878
v -0.063490 0.284548 0.244118
v -0.032571 0.425043 0.172316
v -0.418099 0.213939 -0.112777
v 0.034961 0.452069 0.208595
v -0.026164 0.447294 0.035003
v -0.188112 0.002469 0.331641
v 0.048839 0.497050 0.178442
v -0.152004 0.068118 0.386022
v -0.330551 0.284029 -0.158825
v -0.466242 0.085279 0.196381
v -0.492115 0.185653 0.017764
v 0.218470 0.512328 0.285190
v -0.021558 0.532950 0.150546
v -0.429399 0.334681 -0.031591
v 0.116074 0.507617 0.252106
v -0.198495 0.491002 0.057573
v -0.006059 0.235624 0.453733
v -0.100633 0.431512 -0.022454
v 0.095799 0.224194 0.595588
v 0.232356 0.574256 0.332090
v -0.037840 0.167710 0.465552
v 0.079231 0.489240 0.307288
v 0.189209 0.580572 0.274998
v 0.118863 0.286703 0.518706
v -0.486201 0.106024 0.107148
v 0.032887 0.214611 0.544919
v 0.189004 0.498931 0.342444
v -0.116901 0.213302 0.275849
v 0.144644 0.241111 0.563365
v 0.109653 0.548261 0.235914
v -0.082536 0.327808 0.166858
v 0.128480 0.273812 0.630254
v -0.151152 0.429709 0.217080
v -0.122138 0.441599 0.209202
v 0.120111 0.325197 0.584855
v -0.028573 0.494323 0.280338
v -0.130444 0.156866 0.474749
v -0.110725 0.530598 0.194748
v -0.492758 0.177801 0.148288
v -0.218340 0.293025 0.380277
v -0.314137 0.132872 0.379460
v 0.149502 0.578025 0.329025
v -0.026965 0.319765 0.502227
v -0.321715 0.465249 0.064638
v -0.398166 0.124190 0.297981
v 0.079856 0.533013 0.350205
v -0.166045 0.254559 0.386299
v 0.015721 0.295819 0.582813
v -0.464422 0.216155 0.253763
v -0.004059 0.255204 0.578867
v 0.044220 0.577728 0.249534
v 0.017472 0.580058 0.279297
v -0.483004 0.272926 0.099012
v -0.084892 0.219628 0.536637
v -0.149515 0.344075 0.293372
v -0.224849 0.262837 0.404289
v -0.119107 0.260403 0.532423
v -0.139819 0.517889 0.124485
v -0.180215 0.477638 0.213349
v -0.065137 0.566199 0.233063
v -0.236014 0.169523 0.434169
v -0.110520 0.306205 0.487246
v -0.175066 0.227080 0.479725
v -0.421236 0.394684 0.119434
v -0.408069 0.230221 0.326502
v -0.086841 0.519860 0.272677
v -0.256768 0.515892 0.150213
v -0.390890 0.429682 0.077308
v -0.345634 0.196648 0.401402
v -0.456075 0.324266 0.186002
v -0.329797 0.253794 0.397086
v -0.229268 0.405251 0.327334
v -0.314143 0.335591 0.358453
v -0.327267 0.436914 0.234256
v -0.248793 0.424418 0.381830
v -0.365582 0.466440 0.291047
v -0.272556 0.487669 0.297478
v -0.381820 0.333586 0.289969
v -0.386058 0.377191 0.253983
v -0.310353 0.401616 0.404013
v -0.388647 0.409144 0.351303
v -0.309810 0.473730 0.375263
f 207 227 233
f 189 202 220
f 196 189 220
f 191 196 224
f 224 196 220
f 167 191 224
f 207 167 224
f 207 224 227
f 159 153 167
f 167 153 191
f 178 167 207
f 176 146 159
f 178 159 167
f 178 207 231
f 231 207 233
f 146 153 159
f 176 159 178
f 142 131 146
f 176 178 211
f 211 178 231
f 142 176 148
f 176 142 146
f 128 142 148
f 148 176 154
f 154 176 215
f 215 176 211
f 130 128 148
f 154 130 148
f 154 215 156
f 216 190 212
f 197 182 190
f 162 135 179
f 162 143 135
f 162 179 186
f 143 162 141
f 188 162 186
f 160 162 188
f 160 141 162
f 134 141 140
f 175 188 186
f 160 188 175
f 147 141 160
f 140 141 147
f 175 186 228
f 183 228 208
f 183 175 228
f 155 160 175
f 147 160 155
f 164 151 155
f 151 147 155
f 183 208 230
f 221 183 230
f 177 155 183
f 164 155 177
f 155 175 183
f 200 183 221
f 200 177 183
f 193 200 221
f 182 200 193
f 212 190 193
f 190 182 193
f 115 110 121
f 115 108 110
f 115 99 108
f 232 226 233
f 170 165 217
f 168 165 150
f 144 158 168
f 102 108 114
f 108 99 114
f 62 83 92
f 226 232 217
f 213 187 217
f 187 170 217
f 99 97 114
f 92 83 100
f 213 217 232
f 97 113 114
f 120 114 122
f 114 113 122
f 96 105 113
f 105 96 103
f 213 232 218
f 213 194 187
f 113 112 122
f 205 213 218
f 205 194 213
f 105 103 112
f 199 194 205
f 133 136 152
f 137 133 152
f 103 96 100
f 143 104 126
f 186 179 214
f 134 143 141
f 134 111 143
f 111 104 143
f 237 214 238
f 144 150 131
f 93 115 107
f 90 75 93
f 195 156 180
f 69 62 92
f 131 150 146
f 153 146 150
f 231 233 226
f 93 69 99
f 128 121 131
f 128 131 142
f 211 231 239
f 231 226 241
f 239 231 241
f 53 58 69
f 69 93 75
f 93 99 115
f 235 239 241
f 90 93 107
f 130 90 107
f 130 107 128
f 211 239 215
f 219 215 235
f 215 239 235
f 124 90 130
f 124 130 154
f 219 180 215
f 136 124 154
f 136 154 156
f 156 215 180
f 20 3 36
f 20 36 31
f 12 3 20
f 186 214 237
f 228 186 237
f 229 228 237
f 127 134 140
f 228 229 208
f 140 147 151
f 149 140 151
f 87 77 84
f 78 79 77
f 66 77 87
f 66 78 77
f 163 164 174
f 163 151 164
f 85 66 87
f 236 222 230
f 174 177 185
f 185 177 200
f 221 222 212
f 212 193 221
f 200 182 185
f 174 164 177
f 221 230 222
f 172 174 206
f 74 85 88
f 74 70 85
f 70 66 85
f 71 52 82
f 60 71 66
f 60 52 71
f 236 216 222
f 206 216 236
f 206 192 216
f 174 192 206
f 174 185 192
f 70 74 68
f 50 60 70
f 60 50 52
f 212 222 216
f 192 197 216
f 182 197 192
f 50 70 68
f 197 190 216
f 214 179 184
f 135 139 179
f 143 126 135
f 5 24 33
f 184 238 214
f 70 60 66
f 185 182 192
f 123 133 137
f 2 27 32
f 181 195 209
f 95 133 123
f 95 124 133
f 18 2 32
f 7 2 18
f 121 132 144
f 198 210 217
f 150 144 168
f 217 210 226
f 131 121 144
f 165 198 217
f 226 210 243
f 226 243 241
f 58 62 69
f 115 121 107
f 28 10 41
f 57 41 34
f 41 57 58
f 107 121 128
f 248 235 243
f 243 235 241
f 48 40 41
f 48 41 53
f 53 41 58
f 53 69 75
f 49 48 53
f 67 49 53
f 67 53 75
f 67 75 101
f 101 75 90
f 248 219 235
f 36 35 40
f 36 40 31
f 31 40 48
f 37 31 48
f 124 101 90
f 180 219 209
f 37 27 31
f 195 180 209
f 3 7 36
f 101 124 95
f 32 27 37
f 19 32 37
f 36 7 35
f 18 32 19
f 80 67 101
f 59 49 67
f 2 3 12
f 35 7 26
f 26 18 19
f 7 18 26
f 219 248 240
f 28 41 40
f 35 28 40
f 39 28 35
f 17 28 39
f 10 28 17
f 248 243 251
f 8 10 17
f 243 250 251
f 57 62 58
f 57 51 62
f 57 34 51
f 10 34 41
f 243 245 250
f 80 59 67
f 210 242 243
f 198 225 210
f 165 168 198
f 110 132 121
f 10 44 34
f 6 9 10
f 9 44 10
f 168 158 198
f 144 132 158
f 108 102 110
f 86 110 102
f 83 62 81
f 120 102 114
f 106 86 102
f 100 83 106
f 83 86 106
f 120 106 102
f 118 106 120
f 100 106 118
f 103 100 118
f 122 118 120
f 112 118 122
f 112 103 118
f 169 195 181
f 169 152 195
f 137 152 169
f 181 209 223
f 119 95 123
f 223 209 219
f 119 101 95
f 80 101 119
f 34 44 51
f 68 74 91
f 76 50 68
f 52 50 76
f 5 4 1
f 3 2 7
f 227 232 233
f 27 20 31
f 133 124 136
f 136 156 152
f 12 20 27
f 195 152 156
f 27 2 12
f 189 199 202
f 199 205 202
f 220 202 218
f 202 205 218
f 105 112 113
f 194 199 196
f 194 196 187
f 196 199 189
f 191 187 196
f 220 218 227
f 224 220 227
f 227 218 232
f 100 96 92
f 92 96 97
f 97 96 113
f 170 187 191
f 99 92 97
f 153 150 165
f 153 165 170
f 153 170 191
f 99 69 92
f 1 4 16
f 184 179 173
f 139 169 173
f 139 173 179
f 126 139 135
f 126 125 139
f 24 16 21
f 21 16 22
f 11 5 33
f 104 125 126
f 104 116 125
f 42 33 21
f 33 24 21
f 104 63 116
f 73 63 104
f 21 43 42
f 73 104 111
f 64 63 73
f 64 56 63
f 64 47 56
f 47 64 42
f 43 47 42
f 238 234 237
f 84 73 111
f 79 73 84
f 24 1 16
f 79 64 73
f 64 54 42
f 54 30 42
f 117 111 134
f 84 111 117
f 79 61 64
f 61 54 64
f 55 54 61
f 38 30 54
f 87 84 117
f 72 79 78
f 72 61 79
f 203 204 229
f 203 166 204
f 129 140 149
f 129 127 140
f 204 236 208
f 204 208 229
f 166 172 204
f 163 172 166
f 161 151 166
f 166 151 163
f 149 151 161
f 157 149 161
f 157 129 149
f 94 87 117
f 82 78 66
f 204 206 236
f 204 172 206
f 172 163 174
f 88 85 94
f 85 87 94
f 71 82 66
f 77 79 84
f 230 208 236
f 223 219 240
f 39 19 37
f 26 19 39
f 240 248 249
f 46 49 59
f 46 48 49
f 37 48 46
f 39 37 46
f 14 11 33
f 25 43 22
f 56 59 63
f 25 11 14
f 21 22 43
f 63 80 116
f 238 184 223
f 238 223 234
f 4 5 25
f 5 11 25
f 4 25 22
f 4 22 16
f 116 119 125
f 173 169 184
f 125 123 145
f 139 125 145
f 139 145 169
f 89 138 110
f 158 138 157
f 86 81 98
f 86 98 89
f 138 89 109
f 157 161 171
f 35 26 39
f 39 29 17
f 248 251 249
f 8 17 13
f 8 6 10
f 251 250 252
f 250 245 252
f 243 242 245
f 210 225 242
f 62 65 81
f 62 51 65
f 45 65 51
f 44 45 51
f 9 15 44
f 6 15 9
f 198 171 225
f 198 158 171
f 158 157 171
f 132 138 158
f 110 138 132
f 110 86 89
f 83 81 86
f 251 252 246
f 225 203 242
f 6 8 15
f 184 169 181
f 137 169 145
f 123 137 145
f 184 181 223
f 125 119 123
f 234 223 240
f 63 59 80
f 56 46 59
f 25 39 43
f 25 14 39
f 47 46 56
f 47 43 46
f 43 39 46
f 14 29 39
f 13 17 29
f 234 240 249
f 246 249 251
f 247 246 252
f 245 247 252
f 245 242 247
f 203 229 242
f 81 65 72
f 45 55 65
f 45 23 55
f 171 201 225
f 44 23 45
f 15 23 44
f 15 38 23
f 80 119 116
f 55 72 65
f 42 29 33
f 29 14 33
f 30 29 42
f 30 13 29
f 8 13 30
f 247 244 246
f 244 249 246
f 244 234 249
f 94 117 109
f 117 134 127
f 55 38 54
f 237 234 244
f 76 68 91
f 82 52 76
f 98 76 91
f 91 74 88
f 82 76 98
f 98 91 88
f 88 94 109
f 81 78 82
f 81 82 98
f 98 88 109
f 98 109 89
f 138 127 129
f 129 157 138
f 81 72 78
f 109 117 138
f 127 138 117
f 161 166 201
f 161 201 171
f 203 201 166
f 201 203 225
f 242 229 237
f 8 38 15
f 38 55 23
f 72 55 61
f 242 237 244
f 242 244 247
f 38 8 30
f 5 1 24
