v -0.442078 0.140380 -0.248556
v -0.381590 0.079010 -0.205162
v -0.425740 0.130323 -0.274478
v -0.423508 0.109464 -0.262137
v -0.402723 0.148834 -0.220880
v -0.390760 0.147980 -0.262814
v -0.378429 0.080967 -0.229272
v -0.391465 0.111663 -0.193147
v -0.339457 0.112869 -0.230089
v -0.353563 0.097672 -0.244577
v -0.327788 0.047417 -0.149620
v -0.350118 0.161170 0.231211
v -0.350495 0.109383 0.199603
v -0.304379 0.038227 -0.202317
v -0.327286 0.173491 0.240385
v -0.345432 0.153457 0.277283
v -0.312316 0.128624 0.269919
v -0.330835 0.097548 0.227913
v -0.287456 0.079381 -0.217490
v -0.322844 0.012333 -0.122223
v -0.306181 0.071325 0.113195
v -0.316351 0.078979 -0.160965
v -0.327220 0.113457 -0.187898
v -0.291279 0.102514 0.218442
v -0.311644 0.038812 0.140976
v -0.300777 0.132131 0.188954
v -0.312135 0.155248 0.270366
v -0.322498 -0.127667 -0.010785
v -0.305047 -0.069884 -0.003268
v -0.287490 0.112206 0.146118
v -0.278469 -0.055985 -0.121556
v -0.290673 0.103218 -0.190496
v -0.304627 -0.155092 -0.014812
v -0.273031 0.042380 0.159559
v -0.256053 -0.015198 -0.156690
v -0.285203 0.021737 0.129836
v -0.289215 -0.079696 -0.045483
v -0.303428 -0.141893 0.034208
v -0.302894 0.021823 0.090475
v -0.294365 -0.085157 0.033943
v -0.259441 -0.018009 0.057806
v -0.252645 0.094620 0.122011
v -0.292985 -0.129197 -0.042412
v -0.269299 -0.030277 0.077529
v -0.273594 -0.035322 -0.073454
v -0.232904 -0.145632 0.028552
v -0.245426 -0.138544 -0.036026
v -0.236487 0.012034 -0.064048
v -0.245453 0.100859 0.168255
v -0.292174 0.045514 -0.121689
v -0.240627 0.061377 -0.128566
v -0.267264 -0.167541 -0.008434
v -0.230449 -0.071443 -0.157233
v -0.245140 -0.000713 -0.010319
v -0.223343 0.016093 0.037352
v -0.234958 0.049237 0.074101
v -0.216993 0.027457 -0.063449
v -0.257813 -0.115947 -0.109386
v -0.250598 0.087429 0.175472
v -0.229918 -0.094152 0.109617
v -0.238675 -0.007561 0.125639
v -0.227872 0.079258 -0.177401
v -0.193432 0.093402 0.137354
v -0.223027 0.039412 -0.184042
v -0.210344 -0.026546 -0.176108
v -0.189532 0.110309 -0.147645
v -0.209286 0.034687 0.138968
v -0.158686 0.120007 0.128455
v -0.161550 0.091635 0.057832
v -0.204040 0.079416 -0.025344
v -0.223965 -0.131118 -0.133056
v -0.181307 -0.173952 0.033154
v -0.202558 0.108209 0.094781
v -0.194419 -0.097107 0.125271
v -0.204661 -0.167875 -0.064740
v -0.141279 0.078855 -0.192545
v -0.187095 0.104244 -0.177238
v -0.146003 -0.163932 0.080863
v -0.165496 0.088432 -0.080677
v -0.151105 0.105111 -0.122802
v -0.118774 -0.156207 -0.131970
v -0.120410 -0.090137 -0.166865
v -0.144814 0.100864 0.032554
v -0.182463 -0.173161 -0.097483
v -0.134212 -0.192830 -0.036069
v -0.107319 0.124778 0.072045
v -0.148342 -0.031072 -0.186738
v -0.167321 -0.017182 0.142258
v -0.121588 0.106539 -0.171961
v -0.127192 -0.112557 0.114353
v -0.139659 0.029268 -0.197233
v -0.135199 0.155279 -0.055607
v -0.062333 -0.076523 0.117201
v -0.092546 0.143589 -0.121255
v -0.079947 0.113869 0.113557
v -0.071860 0.099367 -0.194853
v -0.079230 0.175986 -0.015859
v -0.051569 0.137382 -0.139903
v -0.082552 -0.164818 0.075594
v -0.111083 0.057501 0.142393
v -0.073915 0.133975 0.062061
v -0.054944 0.084668 0.127699
v -0.062959 0.187754 -0.058476
v -0.009601 0.125441 0.054843
v -0.086472 -0.194632 -0.004360
v 0.005646 -0.173836 -0.053541
v -0.038627 0.165128 -0.116973
v 0.008547 -0.124348 0.081619
v -0.061020 -0.011882 0.134958
v -0.082589 -0.183421 -0.093034
v -0.013021 -0.061359 -0.184823
v -0.006833 -0.004362 -0.193380
v 0.009756 -0.090667 0.101640
v 0.000910 -0.168015 0.023572
v 0.017040 0.151766 -0.121817
v 0.031588 0.208876 -0.005160
v -0.005532 -0.152216 -0.121341
v 0.021717 0.048355 0.094550
v 0.044980 0.016608 -0.170522
v 0.005191 -0.109412 -0.161102
v -0.003538 0.096219 -0.154872
v 0.018722 0.220136 -0.040871
v 0.032193 0.185535 -0.079248
v 0.061555 0.173424 0.012764
v 0.016902 -0.004427 0.113459
v 0.084551 0.196739 -0.076893
v 0.052934 0.111765 0.054511
v 0.106079 0.155192 -0.100638
v 0.048972 -0.071951 0.091556
v 0.090581 0.029041 0.071016
v 0.098965 -0.016364 -0.127475
v 0.068624 -0.021628 0.074650
v 0.086893 -0.113845 -0.068510
v 0.073763 -0.134089 -0.012336
v 0.082548 0.046400 -0.139443
v 0.102382 0.135430 0.035386
v 0.092693 -0.021766 0.057340
v 0.117904 -0.077899 -0.033299
v 0.116270 0.073606 0.065694
v 0.118137 -0.063005 -0.084889
v 0.101549 0.099082 -0.124253
v 0.107663 -0.067416 0.008053
v 0.142963 0.155125 0.047500
v 0.147028 0.190433 -0.063481
v 0.140505 0.133780 -0.136116
v 0.150685 0.249893 0.062167
v 0.142614 0.030890 0.070633
v 0.160643 0.190388 -0.133692
v 0.127347 -0.213949 -0.090132
v 0.135121 -0.272177 -0.100157
v 0.136698 0.181912 0.011771
v 0.161988 0.175634 -0.086945
v 0.138517 -0.150994 0.058028
v 0.130367 -0.182158 -0.111882
v 0.205432 -0.012700 0.066929
v 0.136088 -0.216833 0.054327
v 0.140805 0.047228 -0.139306
v 0.127159 -0.232437 0.091691
v 0.188046 0.269256 0.052770
v 0.141743 -0.222270 -0.120436
v 0.147483 -0.146480 0.063809
v 0.175804 0.309637 0.102712
v 0.136004 -0.286602 0.078839
v 0.152272 -0.243618 0.047123
v 0.142703 -0.237756 0.079049
v 0.153490 -0.266191 -0.085313
v 0.160677 0.198058 0.004573
v 0.163111 -0.136405 0.013592
v 0.185857 0.223207 0.023085
v 0.159213 -0.178370 -0.064305
v 0.164618 -0.122119 0.030261
v 0.160259 -0.155577 -0.058062
v 0.168293 -0.292623 -0.106078
v 0.174465 0.311920 0.068587
v 0.184418 0.199375 0.083336
v 0.127900 -0.207156 -0.132287
v 0.161282 -0.173968 -0.113335
v 0.172340 -0.203225 0.033737
v 0.176847 -0.057715 0.039645
v 0.165448 -0.266127 0.063664
v 0.230275 0.321160 0.068919
v 0.179497 -0.138182 0.005849
v 0.167600 -0.191227 0.046696
v 0.187021 -0.108386 -0.020230
v 0.152095 -0.274624 -0.131561
v 0.194238 0.169225 -0.038865
v 0.187401 0.136574 0.071767
v 0.182862 0.226859 -0.108606
v 0.164792 -0.210879 -0.144549
v 0.193166 -0.132865 -0.074866
v 0.196970 0.242955 0.086167
v 0.207892 0.265275 0.068448
v 0.228861 0.042120 -0.131270
v 0.207215 0.059177 0.081613
v 0.235329 0.300384 0.112479
v 0.230390 0.256343 -0.116310
v 0.212084 0.212584 0.043543
v 0.191016 -0.108793 -0.061326
v 0.199634 0.185191 -0.085829
v 0.242482 -0.030061 -0.113490
v 0.192748 -0.135192 -0.005464
v 0.206923 0.246650 -0.124114
v 0.228462 0.327042 0.100914
v 0.196114 -0.133515 -0.028459
v 0.182079 0.090214 -0.159475
v 0.187987 -0.093105 0.058234
v 0.217624 0.177774 0.078540
v 0.176653 -0.146989 -0.119054
v 0.221623 -0.121524 -0.078051
v 0.203512 0.183134 -0.161817
v 0.226162 -0.170712 -0.023091
v 0.226227 0.174309 -0.102649
v 0.233279 0.179503 0.010601
v 0.228041 0.173853 -0.161478
v 0.216381 -0.169232 0.044368
v 0.233467 0.132097 -0.074325
v 0.235422 0.169475 -0.130518
v 0.236345 0.125553 -0.022517
v 0.244702 0.150009 0.039342
v 0.266040 0.290153 -0.128670
v 0.251166 -0.121864 0.078477
v 0.241244 0.033460 0.073690
v 0.259566 0.228268 -0.132954
v 0.227529 0.081834 -0.140224
v 0.225718 -0.110729 -0.085423
v 0.248047 -0.180131 -0.038292
v 0.234671 0.077575 0.060548
v 0.240558 -0.041590 0.069193
v 0.257078 0.287484 -0.162261
v 0.290645 0.079283 -0.017391
v 0.257103 0.242666 -0.160794
v 0.310986 0.247041 -0.155066
v 0.244366 0.084260 -0.112197
v 0.305695 0.025113 0.035044
v 0.297245 0.259821 -0.124524
v 0.269863 -0.092682 -0.088268
v 0.310627 0.274554 -0.155768
v 0.291710 -0.002868 -0.109777
v 0.316176 -0.045868 0.024543
v 0.283809 -0.205042 0.040910
v 0.284821 -0.158120 -0.048914
v 0.322642 0.019844 -0.052340
v 0.303982 -0.055366 -0.052489
v 0.319406 -0.151869 0.078706
v 0.341326 -0.153126 -0.018565
v 0.321458 -0.057849 -0.017745
v 0.334366 -0.118948 0.062086
v 0.321420 -0.210016 0.028767
v 0.356395 -0.136842 0.019121
v 0.350664 -0.195932 0.049999
v 0.171859 -0.072938 0.010893
v 0.194283 -0.082969 -0.065525
f 146 167 151
f 227 218 219
f 151 136 143
f 239 247 249
f 69 73 86
f 113 108 129
f 158 156 163
f 36 44 61
f 169 197 213
f 197 207 219
f 197 219 213
f 146 151 143
f 143 175 146
f 207 227 219
f 175 143 187
f 143 139 187
f 136 139 143
f 222 234 227
f 187 147 194
f 194 147 155
f 227 194 222
f 194 155 222
f 234 222 228
f 234 228 239
f 136 127 139
f 127 130 139
f 139 147 187
f 139 130 147
f 155 228 222
f 239 228 247
f 247 250 249
f 101 102 104
f 104 102 118
f 104 118 127
f 127 118 130
f 147 130 155
f 130 137 155
f 155 137 179
f 228 155 221
f 155 206 221
f 179 206 155
f 247 228 244
f 228 221 244
f 247 244 250
f 101 95 102
f 101 86 95
f 68 95 86
f 118 125 130
f 130 125 132
f 132 137 130
f 125 129 132
f 206 215 221
f 221 240 244
f 221 215 240
f 250 240 248
f 244 240 250
f 73 68 86
f 42 49 73
f 73 63 68
f 42 73 56
f 125 109 113
f 125 113 129
f 153 158 161
f 161 158 165
f 30 26 42
f 21 30 42
f 67 88 63
f 109 88 93
f 109 93 113
f 113 93 108
f 13 21 25
f 21 39 25
f 34 61 67
f 36 61 34
f 67 61 88
f 61 74 88
f 88 90 93
f 88 74 90
f 158 163 165
f 61 60 74
f 165 163 180
f 174 162 203
f 181 203 195
f 174 203 181
f 192 181 195
f 159 174 181
f 146 162 174
f 192 159 181
f 195 191 192
f 162 175 191
f 162 146 175
f 192 191 197
f 197 191 207
f 175 207 191
f 175 187 207
f 207 187 227
f 227 187 194
f 95 68 100
f 95 100 102
f 118 102 125
f 102 109 125
f 100 109 102
f 49 63 73
f 49 59 63
f 63 100 68
f 30 12 26
f 21 12 30
f 42 26 49
f 26 59 49
f 59 67 63
f 34 67 59
f 88 100 63
f 109 100 88
f 13 12 21
f 18 13 25
f 18 25 34
f 25 36 34
f 162 195 203
f 195 162 191
f 12 15 26
f 24 59 26
f 24 34 59
f 17 18 24
f 18 34 24
f 12 16 15
f 16 27 15
f 15 27 26
f 26 27 24
f 16 17 27
f 27 17 24
f 16 12 13
f 16 18 17
f 16 13 18
f 50 48 51
f 160 173 189
f 154 176 149
f 117 120 133
f 51 48 57
f 80 51 57
f 176 154 208
f 177 160 189
f 185 176 189
f 176 208 189
f 189 208 177
f 66 51 80
f 120 131 133
f 133 131 140
f 80 79 94
f 200 131 157
f 131 135 157
f 121 98 107
f 98 94 107
f 135 141 157
f 121 141 135
f 121 115 141
f 121 107 115
f 193 205 224
f 193 157 205
f 224 205 214
f 205 210 214
f 145 210 205
f 84 71 81
f 31 53 58
f 110 81 117
f 81 71 82
f 117 81 120
f 81 82 120
f 50 11 20
f 22 11 50
f 22 50 51
f 120 111 131
f 51 66 62
f 62 66 77
f 111 112 131
f 131 112 119
f 77 66 89
f 89 66 80
f 119 96 121
f 96 98 121
f 89 80 94
f 89 94 96
f 119 121 135
f 96 94 98
f 58 53 71
f 71 53 82
f 31 35 53
f 31 20 35
f 35 20 14
f 14 20 11
f 11 2 14
f 53 65 82
f 82 65 87
f 53 35 65
f 14 64 35
f 8 2 11
f 8 11 22
f 5 8 22
f 82 111 120
f 82 87 111
f 87 65 91
f 35 64 65
f 65 64 91
f 19 62 64
f 32 22 51
f 23 22 32
f 62 32 51
f 19 32 62
f 23 5 22
f 87 91 111
f 64 62 76
f 64 76 91
f 62 77 76
f 111 91 112
f 91 96 112
f 91 76 96
f 77 89 76
f 112 96 119
f 76 89 96
f 2 7 14
f 7 10 14
f 14 19 64
f 14 10 19
f 10 9 19
f 9 32 19
f 9 23 32
f 6 5 23
f 9 6 23
f 4 7 2
f 7 4 10
f 4 3 10
f 1 3 4
f 1 4 2
f 8 1 2
f 1 8 5
f 10 3 6
f 10 6 9
f 3 1 6
f 1 5 6
f 167 146 174
f 167 174 159
f 169 167 159
f 197 169 192
f 169 159 192
f 60 72 78
f 74 60 78
f 90 99 108
f 90 78 99
f 74 78 90
f 44 60 61
f 39 44 36
f 36 25 39
f 163 164 180
f 99 114 108
f 93 90 108
f 55 39 56
f 39 21 56
f 183 165 180
f 164 178 180
f 163 156 164
f 108 114 134
f 55 56 69
f 56 21 42
f 180 178 183
f 156 168 164
f 156 158 153
f 156 153 168
f 161 165 183
f 108 134 129
f 69 56 73
f 161 183 171
f 153 251 168
f 182 171 183
f 179 153 161
f 179 161 171
f 129 137 132
f 83 69 86
f 201 215 206
f 206 171 201
f 251 153 179
f 179 171 206
f 137 142 179
f 83 86 101
f 245 249 250
f 245 246 249
f 249 246 239
f 242 239 246
f 124 127 136
f 124 104 127
f 239 242 234
f 124 136 151
f 116 124 151
f 230 234 242
f 230 227 234
f 218 227 230
f 218 213 219
f 186 213 218
f 186 167 169
f 186 169 213
f 60 46 72
f 40 38 46
f 40 46 60
f 44 40 60
f 99 105 114
f 78 105 99
f 40 44 41
f 54 41 55
f 44 39 41
f 164 168 178
f 70 55 83
f 83 55 69
f 215 226 240
f 183 178 182
f 168 182 178
f 182 168 184
f 129 134 137
f 137 134 142
f 134 138 142
f 240 226 248
f 248 226 241
f 215 211 226
f 215 201 211
f 201 204 211
f 171 182 201
f 168 251 184
f 182 184 201
f 179 142 251
f 142 138 251
f 250 248 245
f 248 241 245
f 92 83 97
f 97 83 101
f 243 246 245
f 97 101 104
f 246 243 242
f 97 104 124
f 97 124 116
f 122 97 116
f 233 230 242
f 233 218 230
f 216 186 218
f 144 151 186
f 151 167 186
f 122 116 151
f 122 151 144
f 28 33 38
f 38 52 46
f 40 28 38
f 72 85 78
f 29 28 40
f 78 85 105
f 29 40 41
f 144 186 152
f 126 122 144
f 45 29 54
f 54 29 41
f 105 106 114
f 114 106 134
f 54 55 70
f 58 71 75
f 141 145 157
f 157 145 205
f 157 193 200
f 79 92 94
f 149 176 150
f 50 20 48
f 150 176 185
f 166 173 160
f 173 185 189
f 20 45 48
f 110 117 106
f 45 20 31
f 37 45 31
f 37 31 58
f 84 81 110
f 85 84 110
f 47 37 58
f 47 58 75
f 84 75 71
f 75 84 85
f 229 220 237
f 232 229 237
f 231 229 232
f 223 231 232
f 235 223 232
f 235 232 237
f 202 220 229
f 210 202 229
f 214 231 223
f 231 210 229
f 148 202 210
f 148 188 202
f 217 214 223
f 210 231 214
f 148 152 188
f 148 144 152
f 210 145 148
f 217 233 214
f 148 128 144
f 224 214 233
f 193 224 233
f 115 123 128
f 128 123 126
f 145 128 148
f 141 128 145
f 193 233 238
f 107 103 115
f 141 115 128
f 238 200 193
f 236 200 238
f 92 103 94
f 94 103 107
f 252 200 225
f 225 200 236
f 140 131 200
f 198 252 225
f 208 198 225
f 138 133 140
f 209 208 225
f 177 209 190
f 177 208 209
f 208 154 198
f 70 92 79
f 57 79 80
f 57 70 79
f 170 177 190
f 54 70 57
f 134 106 133
f 106 117 133
f 170 160 177
f 154 149 172
f 172 149 170
f 170 149 160
f 160 149 166
f 48 54 57
f 149 150 166
f 166 150 173
f 48 45 54
f 110 106 105
f 37 29 45
f 105 85 110
f 28 29 37
f 43 28 37
f 43 37 47
f 47 75 46
f 52 47 46
f 72 75 85
f 46 75 72
f 33 43 47
f 33 47 52
f 33 28 43
f 38 33 52
f 220 235 237
f 220 196 235
f 202 196 220
f 196 223 235
f 188 196 202
f 188 199 196
f 196 212 223
f 223 212 217
f 196 199 212
f 152 199 188
f 199 216 212
f 199 186 216
f 152 186 199
f 217 212 233
f 212 216 233
f 128 126 144
f 233 216 218
f 238 233 242
f 123 122 126
f 243 238 242
f 123 103 122
f 103 97 122
f 115 103 123
f 236 238 243
f 245 236 243
f 103 92 97
f 140 252 138
f 226 236 241
f 226 225 236
f 226 209 225
f 241 236 245
f 70 83 92
f 198 201 184
f 154 172 198
f 204 209 226
f 190 209 204
f 198 204 201
f 172 204 198
f 211 204 226
f 134 133 138
f 170 204 172
f 170 190 204
f 41 39 55
f 150 185 173
f 135 131 119
f 198 184 252
f 138 252 251
f 200 252 140
f 184 251 252
