v -0.459025 0.196239 0.094938
v -0.449965 0.196968 0.048966
v -0.428857 0.129319 0.070769
v -0.423225 0.215122 0.091669
v -0.404705 0.188948 0.052617
v -0.403126 0.100847 0.116325
v -0.418196 0.145123 0.048775
v -0.342421 0.042091 0.091402
v -0.393886 0.054404 -0.146146
v -0.360311 0.131728 0.070457
v -0.383158 0.159217 0.118083
v -0.351538 0.038981 0.129129
v -0.359805 0.050987 -0.104077
v -0.391092 0.028492 -0.111302
v -0.372267 0.115621 -0.121011
v -0.378345 -0.081632 -0.051153
v -0.394419 -0.062194 0.013657
v -0.371433 -0.132006 0.033282
v -0.343317 -0.038461 0.004078
v -0.343474 0.063245 -0.177671
v -0.332570 0.153658 -0.165129
v -0.345657 -0.055416 -0.046791
v -0.310581 0.132180 0.115971
v -0.307500 0.194229 -0.123863
v -0.306710 0.017045 -0.100324
v -0.328088 -0.018672 -0.100041
v -0.322520 -0.036255 -0.139379
v -0.332696 -0.075720 0.041147
v -0.321020 -0.095566 -0.132641
v -0.345142 -0.002217 -0.136164
v -0.312354 -0.013704 0.053304
v -0.349308 0.016731 0.111032
v -0.335531 0.126553 -0.105493
v -0.308118 0.105213 -0.174716
v -0.383762 -0.143894 -0.020857
v -0.309805 0.100718 0.093685
v -0.294747 0.019560 0.079220
v -0.348374 0.084882 0.153880
v -0.287802 -0.112087 -0.158927
v -0.249490 -0.180034 -0.116143
v -0.307560 -0.003078 -0.175659
v -0.311811 -0.120731 0.044332
v -0.315183 -0.130925 -0.057060
v -0.305285 -0.020128 0.110694
v -0.302586 0.092027 -0.127256
v -0.296177 0.151217 -0.177416
v -0.305065 -0.000236 -0.084144
v -0.279013 0.236212 -0.180133
v -0.286881 0.134453 0.135120
v -0.305709 0.009741 0.138232
v -0.283854 0.247350 -0.150285
v -0.277138 0.153319 -0.115453
v -0.251301 0.173838 -0.152205
v -0.286538 0.018751 -0.014523
v -0.255218 -0.093677 0.141066
v -0.258018 0.199486 -0.180640
v -0.265360 0.214895 -0.120108
v -0.296180 -0.096815 0.114176
v -0.253083 0.236069 -0.154181
v -0.290840 0.089484 0.158630
v -0.277099 0.104681 -0.182243
v -0.249134 -0.026296 0.154377
v -0.267388 0.108797 -0.148258
v -0.299178 -0.156652 -0.007088
v -0.230323 0.117437 0.147008
v -0.236351 -0.170341 0.087967
v -0.237971 0.112486 0.104433
v -0.240278 0.037640 0.042338
v -0.175834 -0.176745 -0.150622
v -0.245638 -0.188665 0.025459
v -0.186180 0.105976 -0.130845
v -0.195423 0.092091 0.075595
v -0.197149 0.125364 -0.194051
v -0.238141 -0.036038 -0.196780
v -0.131072 -0.089642 -0.196075
v -0.239061 0.053321 -0.102882
v -0.146888 0.074547 -0.216516
v -0.211569 0.031404 -0.210514
v -0.215107 -0.210506 -0.052309
v -0.180635 -0.215567 0.025967
v -0.220635 0.090106 -0.006572
v -0.115816 -0.027622 -0.215422
v -0.192297 0.132133 0.111368
v -0.157764 0.133586 0.119639
v -0.144110 -0.212200 -0.110525
v -0.187503 -0.007332 0.163270
v -0.121743 0.040794 0.164725
v -0.191333 0.118762 -0.045068
v -0.141237 -0.203724 0.074925
v -0.160093 -0.176189 0.107448
v -0.152939 0.147955 0.005784
v -0.157713 0.120110 0.152776
v -0.065728 -0.222739 0.014470
v -0.127230 0.109394 -0.189058
v -0.132347 0.129253 -0.101460
v -0.093320 -0.059907 0.150717
v -0.145583 0.109598 0.053047
v -0.141335 -0.229351 -0.041644
v -0.097295 0.120895 0.112671
v -0.096969 0.176904 -0.043985
v -0.142307 0.119086 -0.156035
v -0.080588 0.119836 -0.199035
v -0.057411 0.146530 -0.134222
v -0.029766 0.089218 0.112943
v -0.023974 0.188269 -0.041426
v -0.053424 0.132230 0.082732
v -0.024887 -0.138201 -0.185736
v -0.036996 -0.220327 -0.072286
v -0.051062 0.031026 0.154344
v -0.058010 -0.177879 -0.156818
v -0.046638 0.060988 -0.213085
v -0.038600 -0.138299 0.117815
v -0.077164 0.182278 -0.000596
v -0.026992 0.114635 -0.161181
v 0.015374 -0.113960 0.118496
v -0.025310 -0.171943 0.092602
v -0.017647 0.121571 0.074092
v -0.011244 -0.032401 -0.207430
v -0.001689 0.158992 -0.088787
v -0.008234 0.190397 -0.000438
v 0.019227 0.198487 -0.047090
v 0.016053 0.127011 -0.122744
v 0.020165 0.049777 -0.169086
v -0.007820 -0.198740 0.045916
v 0.026254 -0.177551 -0.103972
v 0.056844 -0.079275 0.086990
v 0.025613 0.006382 0.111521
v 0.068991 -0.152440 0.009315
v 0.064446 0.140053 0.046434
v 0.074305 0.029555 0.087881
v 0.083735 0.058001 -0.139306
v 0.106853 -0.036750 0.082475
v 0.050162 -0.191880 -0.039584
v 0.053498 0.207014 0.007556
v 0.063935 -0.074868 -0.152757
v 0.086939 0.122159 -0.111238
v 0.107720 0.194504 -0.073614
v 0.092968 0.124547 0.057822
v 0.102561 0.002133 -0.149841
v 0.112111 0.182986 0.038054
v 0.137167 -0.089303 -0.087819
v 0.121261 -0.287505 0.049487
v 0.124316 0.194154 -0.103231
v 0.142839 0.064071 -0.141191
v 0.136015 -0.107510 -0.027447
v 0.158834 0.194594 -0.049718
v 0.187034 0.188232 0.000874
v 0.132203 -0.231795 -0.159562
v 0.142384 -0.255065 0.062524
v 0.155886 -0.200781 -0.177686
v 0.118123 0.123517 -0.125324
v 0.156243 0.268730 -0.097517
v 0.166360 0.205284 -0.060812
v 0.119792 -0.091095 0.032960
v 0.131611 -0.229700 0.074468
v 0.119918 -0.035666 -0.138137
v 0.136425 0.054418 0.088450
v 0.145345 -0.246480 -0.163794
v 0.163956 -0.206227 0.033037
v 0.141929 -0.307358 0.058502
v 0.152191 0.219293 0.089591
v 0.156773 0.259602 0.033452
v 0.179714 -0.152253 0.056608
v 0.166122 0.279989 0.065830
v 0.152012 0.231540 -0.125780
v 0.193581 -0.198245 -0.095253
v 0.189499 0.131871 0.110412
v 0.197663 0.280326 0.045523
v 0.183939 -0.191930 -0.182110
v 0.265564 -0.046265 -0.100395
v 0.216866 -0.134930 0.045178
v 0.182358 0.282869 -0.083499
v 0.199750 0.337961 -0.126927
v 0.233707 -0.106834 0.031187
v 0.217265 0.353604 0.052178
v 0.238341 -0.075796 -0.052316
v 0.189733 -0.232871 0.026716
v 0.208776 0.137341 -0.157563
v 0.191822 0.222791 -0.150484
v 0.201445 0.346764 -0.099548
v 0.214676 0.237994 -0.089817
v 0.193166 0.269991 -0.136152
v 0.231684 0.174705 -0.061790
v 0.220862 0.269227 0.063656
v 0.217995 0.080226 -0.148802
v 0.202079 0.339015 0.094920
v 0.225209 0.188704 -0.149759
v 0.199769 0.242755 0.101346
v 0.226674 0.293588 -0.095728
v 0.204467 0.223154 0.035360
v 0.235789 0.161705 0.017767
v 0.229452 0.303010 0.093515
v 0.225088 0.104539 0.104270
v 0.221967 0.232261 -0.128586
v 0.187259 -0.189677 -0.149425
v 0.240695 0.039897 0.093489
v 0.216548 0.221200 0.082633
v 0.190126 -0.246045 0.044699
v 0.204381 0.357492 0.074950
v 0.243576 0.309420 -0.133803
v 0.252385 0.360657 -0.135318
v 0.230414 -0.070412 0.034959
v 0.258663 0.348547 -0.087914
v 0.226839 -0.012620 -0.128860
v 0.233763 -0.177678 0.025719
v 0.251440 0.127274 0.065701
v 0.260230 0.122242 -0.103632
v 0.214512 -0.196503 -0.096449
v 0.240579 -0.151140 0.014010
v 0.242118 0.156438 -0.019787
v 0.258122 -0.126425 -0.047693
v 0.281661 -0.135128 -0.031890
v 0.253567 0.007715 -0.133925
v 0.270629 0.097225 0.072915
v 0.277100 -0.118931 -0.083684
v 0.248275 -0.090691 0.061988
v 0.261387 -0.118075 0.039084
v 0.200775 -0.155789 -0.122541
v 0.263861 -0.087745 -0.068564
v 0.290257 0.336358 -0.115219
v 0.266353 0.326111 0.057482
v 0.284864 -0.093111 -0.088549
v 0.267388 0.353622 0.089028
v 0.265653 -0.125007 -0.013550
v 0.252421 -0.010375 0.076937
v 0.299031 0.100418 -0.102636
v 0.311045 0.128747 -0.011195
v 0.298671 -0.018979 0.080037
v 0.273080 -0.134125 0.007788
v 0.319599 -0.162587 0.053256
v 0.327970 -0.096517 -0.092961
v 0.293344 -0.090589 0.086139
v 0.318935 -0.158494 -0.034016
v 0.361793 0.073298 -0.060366
v 0.328543 -0.034305 -0.106898
v 0.326329 0.070226 0.058934
v 0.352877 -0.169028 -0.040556
v 0.334299 0.025451 -0.122085
v 0.367476 -0.179375 0.006883
v 0.369575 0.071887 -0.009459
v 0.394860 -0.173138 0.048739
v 0.373780 -0.008522 -0.048434
v 0.383193 -0.132086 -0.053524
v 0.407381 -0.086902 -0.050395
v 0.417733 -0.109247 0.084326
v 0.385958 0.000543 0.011048
v 0.366367 0.005542 0.036137
v 0.462322 -0.120782 -0.003394
v 0.440522 -0.172431 0.030204
v 0.435652 -0.079106 0.066511
v 0.458137 -0.140771 0.059338
v 0.448511 -0.076463 0.001235
f 67 83 72
f 1 6 11
f 32 12 8
f 236 228 247
f 247 250 246
f 252 246 250
f 252 250 248
f 248 250 251
f 228 250 247
f 251 249 248
f 140 138 161
f 138 157 161
f 241 249 251
f 241 239 249
f 138 130 157
f 157 132 196
f 132 225 196
f 225 216 232
f 225 202 216
f 230 239 241
f 129 130 138
f 130 132 157
f 132 202 225
f 132 154 202
f 202 174 216
f 216 171 217
f 216 217 232
f 232 217 230
f 106 104 117
f 117 127 129
f 129 127 130
f 163 216 174
f 106 99 104
f 104 127 117
f 130 127 132
f 126 154 132
f 163 171 216
f 84 92 99
f 127 126 132
f 163 155 171
f 155 149 171
f 84 72 83
f 67 49 65
f 67 65 83
f 155 142 149
f 23 11 60
f 36 23 67
f 23 49 67
f 23 60 49
f 112 116 115
f 142 160 149
f 6 38 11
f 11 38 60
f 96 90 112
f 90 116 112
f 38 6 12
f 12 50 38
f 12 32 50
f 50 32 44
f 50 55 62
f 50 44 55
f 55 90 96
f 90 89 116
f 44 58 55
f 55 66 90
f 55 58 66
f 175 223 221
f 175 199 223
f 199 186 223
f 186 192 223
f 223 192 221
f 186 188 192
f 192 184 221
f 192 197 184
f 186 164 188
f 164 161 188
f 188 197 192
f 161 167 188
f 197 188 206
f 206 188 193
f 188 167 193
f 193 214 206
f 214 193 196
f 214 228 236
f 214 196 228
f 196 225 228
f 228 245 250
f 250 245 251
f 161 157 167
f 167 196 193
f 228 232 245
f 241 245 232
f 251 245 241
f 157 196 167
f 225 232 228
f 232 230 241
f 104 109 127
f 99 109 104
f 92 109 99
f 127 115 126
f 127 109 115
f 83 65 92
f 83 92 84
f 92 87 109
f 65 60 92
f 92 86 87
f 87 86 96
f 87 96 109
f 109 96 115
f 49 60 65
f 60 86 92
f 86 55 96
f 96 112 115
f 38 62 60
f 60 62 86
f 62 55 86
f 38 50 62
f 15 33 24
f 110 107 125
f 57 33 52
f 125 107 135
f 76 95 71
f 24 33 57
f 52 53 57
f 166 148 158
f 218 148 166
f 101 71 95
f 148 218 150
f 195 169 222
f 169 150 222
f 150 218 222
f 141 135 156
f 135 139 156
f 101 95 103
f 102 101 103
f 139 123 131
f 123 122 131
f 123 114 122
f 114 119 122
f 114 103 119
f 139 144 156
f 139 131 144
f 131 136 144
f 122 136 131
f 156 185 204
f 204 185 213
f 156 144 185
f 144 178 185
f 144 151 179
f 144 179 178
f 178 179 187
f 40 69 85
f 40 39 69
f 29 39 40
f 39 29 27
f 26 30 27
f 14 30 25
f 14 9 30
f 15 9 14
f 15 14 13
f 69 110 85
f 110 69 107
f 63 76 71
f 61 34 63
f 34 45 63
f 45 76 63
f 34 46 45
f 45 46 53
f 52 45 53
f 21 15 24
f 63 71 73
f 46 56 53
f 48 21 51
f 21 24 51
f 158 169 195
f 107 118 135
f 71 101 73
f 94 73 101
f 56 59 53
f 59 57 53
f 56 48 59
f 51 24 57
f 51 57 59
f 48 51 59
f 94 101 102
f 135 118 139
f 118 111 123
f 118 123 139
f 111 114 123
f 102 114 111
f 102 103 114
f 39 75 69
f 27 41 39
f 27 30 41
f 39 74 75
f 39 41 74
f 41 78 74
f 41 20 78
f 9 20 41
f 9 21 20
f 9 15 21
f 69 75 107
f 75 74 82
f 74 78 82
f 20 21 34
f 61 20 34
f 21 46 34
f 20 61 78
f 78 61 73
f 158 148 150
f 75 118 107
f 118 75 82
f 78 77 82
f 78 73 77
f 61 63 73
f 21 48 46
f 46 48 56
f 150 169 158
f 82 111 118
f 82 77 111
f 111 77 102
f 102 77 94
f 214 236 227
f 210 206 214
f 191 206 210
f 191 197 206
f 140 161 164
f 162 140 164
f 240 236 247
f 191 190 197
f 190 184 197
f 190 168 184
f 162 164 175
f 162 175 168
f 184 168 221
f 164 186 175
f 175 186 199
f 175 221 168
f 58 42 66
f 66 80 90
f 90 80 89
f 28 58 44
f 89 93 124
f 32 37 44
f 31 44 37
f 32 8 37
f 6 8 12
f 6 3 8
f 1 3 6
f 116 89 124
f 37 67 72
f 8 36 37
f 8 10 36
f 5 11 10
f 5 4 11
f 10 11 23
f 1 11 4
f 68 37 72
f 36 67 37
f 10 23 36
f 115 116 124
f 149 160 198
f 142 177 160
f 198 160 177
f 142 155 159
f 177 142 159
f 115 124 128
f 126 115 128
f 97 72 84
f 159 155 163
f 126 128 154
f 97 84 99
f 177 205 198
f 159 209 177
f 149 198 171
f 159 163 174
f 159 174 209
f 97 99 106
f 113 97 106
f 205 177 209
f 171 205 229
f 120 106 117
f 217 229 230
f 229 233 230
f 230 233 239
f 217 171 229
f 205 209 229
f 229 209 224
f 209 174 224
f 174 202 224
f 120 117 129
f 113 106 120
f 239 233 237
f 120 129 134
f 239 243 249
f 134 129 138
f 134 138 140
f 243 248 249
f 252 242 246
f 210 214 227
f 147 190 191
f 140 162 147
f 147 162 190
f 240 247 246
f 240 246 242
f 227 236 240
f 234 227 240
f 162 168 190
f 80 66 70
f 64 70 42
f 66 42 70
f 28 18 42
f 17 18 28
f 19 17 28
f 28 42 58
f 89 80 93
f 31 28 44
f 19 28 31
f 3 7 8
f 7 10 8
f 1 2 3
f 31 68 54
f 31 37 68
f 3 2 7
f 2 5 7
f 7 5 10
f 2 1 4
f 2 4 5
f 108 124 93
f 81 68 97
f 68 72 97
f 124 133 128
f 91 81 97
f 91 97 113
f 128 133 145
f 154 128 145
f 202 145 176
f 154 145 202
f 229 212 233
f 224 211 212
f 229 224 212
f 219 211 224
f 239 237 243
f 202 219 224
f 176 170 202
f 105 120 121
f 121 134 137
f 121 120 134
f 243 244 248
f 134 140 147
f 146 134 147
f 137 134 146
f 248 244 252
f 244 242 252
f 147 191 210
f 153 146 147
f 153 147 183
f 234 240 242
f 226 227 234
f 183 210 207
f 183 147 210
f 54 68 81
f 88 81 91
f 233 212 215
f 207 210 227
f 207 227 226
f 35 64 18
f 42 18 64
f 17 35 18
f 64 79 70
f 52 33 45
f 15 13 33
f 13 14 25
f 25 30 26
f 22 27 29
f 29 40 43
f 187 179 194
f 187 207 178
f 151 165 179
f 144 136 151
f 76 45 25
f 25 47 76
f 108 110 125
f 33 13 45
f 13 25 45
f 108 85 110
f 25 26 47
f 26 27 22
f 79 40 85
f 43 22 29
f 43 40 64
f 79 64 40
f 201 220 200
f 173 180 201
f 200 173 201
f 182 173 200
f 189 194 200
f 152 173 182
f 179 182 200
f 179 200 194
f 152 182 165
f 165 182 179
f 194 181 207
f 187 194 207
f 165 143 152
f 178 207 226
f 178 226 238
f 185 178 238
f 151 143 165
f 151 137 143
f 213 185 238
f 235 213 238
f 136 121 137
f 136 137 151
f 170 213 235
f 204 213 170
f 222 170 235
f 122 121 136
f 119 121 122
f 215 222 231
f 218 211 222
f 100 105 103
f 103 105 119
f 170 156 204
f 170 141 156
f 141 170 176
f 195 222 215
f 195 215 208
f 103 95 100
f 88 100 95
f 125 135 141
f 208 158 195
f 166 158 208
f 76 88 95
f 108 125 133
f 76 54 88
f 47 54 76
f 47 19 54
f 26 22 47
f 98 85 108
f 16 19 22
f 98 79 85
f 16 17 19
f 16 22 43
f 64 35 43
f 35 17 16
f 35 16 43
f 203 220 201
f 201 180 203
f 203 189 220
f 189 200 220
f 180 172 203
f 203 172 189
f 173 172 180
f 152 172 173
f 189 181 194
f 172 181 189
f 152 153 172
f 172 153 181
f 153 183 181
f 181 183 207
f 238 226 234
f 242 238 234
f 143 153 152
f 235 238 242
f 153 143 146
f 143 137 146
f 244 235 242
f 235 244 243
f 231 235 243
f 231 222 235
f 231 243 237
f 119 105 121
f 219 170 222
f 202 170 219
f 211 219 222
f 233 231 237
f 215 231 233
f 105 113 120
f 176 145 141
f 166 212 211
f 218 166 211
f 100 113 105
f 212 208 215
f 166 208 212
f 100 91 113
f 100 88 91
f 133 141 145
f 141 133 125
f 54 81 88
f 124 108 133
f 93 98 108
f 19 31 54
f 22 19 47
f 80 79 98
f 70 79 80
f 80 98 93
f 9 41 30
f 73 94 77
f 198 205 171
