v -0.450221 0.157693 0.139378
v -0.450812 0.112743 0.085681
v -0.446794 0.165491 0.109160
v -0.487502 0.139040 0.106248
v -0.469137 0.137377 0.141414
v -0.421769 0.074315 0.158454
v -0.433961 0.137305 0.083859
v -0.384894 0.107933 0.126226
v -0.385287 0.072662 -0.113522
v -0.402301 0.072817 0.098837
v -0.374884 -0.129014 0.012011
v -0.383570 -0.029524 -0.060598
v -0.407202 0.044629 0.115730
v -0.378822 -0.175254 0.027508
v -0.392665 -0.014630 -0.098081
v -0.387915 0.066558 -0.071764
v -0.358278 -0.098609 0.043410
v -0.406973 0.109020 0.158205
v -0.360875 0.170736 -0.109597
v -0.371255 0.053554 0.189775
v -0.375164 -0.125987 0.088579
v -0.360119 0.011839 -0.129176
v -0.376097 0.013466 0.167999
v -0.325509 0.094158 0.160889
v -0.368374 0.074821 -0.059969
v -0.330578 0.093703 -0.068691
v -0.340650 0.009016 0.134123
v -0.344921 0.087240 -0.131329
v -0.328059 -0.071791 -0.056255
v -0.335489 -0.115663 0.000430
v -0.312249 0.082227 0.139595
v -0.308004 -0.005789 0.197809
v -0.325624 0.173556 -0.140540
v -0.286567 -0.188973 0.007046
v -0.318672 0.050210 -0.130379
v -0.348159 0.032655 -0.064793
v -0.310388 -0.051870 -0.028435
v -0.313056 -0.060218 -0.119046
v -0.330149 -0.106219 0.083685
v -0.311395 0.078528 -0.107430
v -0.301618 0.103329 0.166498
v -0.309378 -0.051720 0.137377
v -0.340493 -0.190588 0.078946
v -0.310447 0.171325 -0.081367
v -0.285905 -0.007322 0.125277
v -0.308599 -0.147034 -0.078202
v -0.327351 0.059890 0.199124
v -0.288048 0.049534 -0.090130
v -0.303156 -0.044039 0.078322
v -0.249510 0.076441 0.143745
v -0.290658 -0.043543 0.183319
v -0.286025 -0.095047 -0.126699
v -0.298340 -0.158226 0.098157
v -0.281511 -0.126486 0.171940
v -0.260690 0.073819 -0.133262
v -0.299869 -0.028870 -0.053143
v -0.282704 -0.189690 0.065477
v -0.277219 0.000091 -0.148246
v -0.284805 -0.018292 0.033269
v -0.214596 0.066501 -0.158287
v -0.264381 -0.166895 -0.102907
v -0.235818 -0.055173 0.205342
v -0.250433 -0.112221 0.192346
v -0.233824 0.015442 -0.033467
v -0.228261 0.069158 -0.092107
v -0.142423 0.009086 0.211034
v -0.233469 0.063261 0.023361
v -0.245190 0.092199 0.179669
v -0.231414 -0.217549 -0.056815
v -0.214135 0.042141 0.104806
v -0.208724 0.103716 0.147049
v -0.235982 0.010392 0.084164
v -0.199166 -0.165728 0.179556
v -0.186190 0.110258 0.173431
v -0.223234 -0.075694 -0.149590
v -0.199841 -0.241561 0.024836
v -0.245877 0.066932 0.199636
v -0.151580 -0.215232 -0.090477
v -0.110310 -0.139728 -0.136215
v -0.201633 -0.214008 0.133116
v -0.134400 -0.251308 0.047055
v -0.207833 0.048592 -0.069383
v -0.200092 0.087316 -0.140583
v -0.173111 0.122799 0.028095
v -0.171606 -0.013078 -0.172458
v -0.164275 0.083802 -0.110335
v -0.148059 0.103621 0.133990
v -0.160154 0.089709 -0.057405
v -0.144692 0.060770 -0.167665
v -0.131518 0.144674 -0.027076
v -0.127092 -0.203203 0.155012
v -0.099631 0.156975 0.024597
v -0.115438 0.094266 0.189097
v -0.094728 0.101770 -0.138534
v -0.136924 -0.239574 -0.057515
v -0.151858 0.090318 0.087428
v -0.083098 0.109978 0.132103
v -0.106055 0.038468 -0.169479
v -0.070937 0.045292 0.197918
v -0.077270 -0.075180 -0.162287
v -0.013821 -0.180631 0.146493
v -0.044650 -0.130305 0.176533
v -0.087043 -0.076576 0.196791
v -0.105174 0.121927 -0.082206
v -0.094173 -0.230405 0.105899
v -0.060525 0.047784 -0.166736
v -0.037422 -0.214953 -0.077431
v -0.038379 0.112093 0.099323
v -0.018095 -0.146767 -0.137748
v -0.027305 0.104714 -0.102150
v 0.009313 0.044308 0.143938
v -0.019850 -0.028719 0.189540
v -0.029951 0.132209 -0.092639
v -0.033947 -0.242129 -0.000842
v 0.011920 -0.158811 -0.112217
v 0.020203 -0.107977 0.171845
v 0.046486 0.150719 0.075445
v -0.016948 -0.230665 0.068691
v 0.039181 -0.139980 0.140188
v 0.065521 0.189796 0.061111
v -0.014405 0.189840 0.032457
v -0.001038 -0.050202 -0.155798
v -0.032280 0.177866 -0.007344
v 0.042757 0.078803 0.115875
v 0.084701 0.007519 0.133926
v 0.087344 -0.005224 -0.105674
v 0.067219 -0.170391 0.069015
v 0.030039 -0.195099 -0.051658
v 0.078335 -0.126288 -0.065632
v 0.026811 0.139621 -0.057030
v 0.056765 0.070125 -0.091905
v 0.039726 0.205086 0.003917
v 0.046842 -0.037027 0.158014
v 0.088637 0.109989 -0.078278
v 0.096149 -0.152498 -0.015495
v 0.099204 -0.043957 -0.099469
v 0.085264 0.184654 -0.040524
v 0.061701 -0.198884 0.018126
v 0.083325 0.346370 0.152509
v 0.100081 -0.038385 0.129216
v 0.076865 0.256150 0.127689
v 0.089301 0.320908 0.188964
v 0.084994 0.262964 0.111239
v 0.099241 0.087256 0.119006
v 0.099424 0.164426 -0.085601
v 0.134197 -0.108752 0.028289
v 0.105354 0.201498 -0.045096
v 0.127411 0.217252 0.060143
v 0.124380 0.041564 0.132021
v 0.119234 0.201740 0.015614
v 0.112114 0.242672 -0.078875
v 0.089857 0.163077 0.095182
v 0.175977 0.162740 0.142912
v 0.108976 0.230585 0.152435
v 0.125924 0.366852 0.185645
v 0.129918 -0.080893 0.086152
v 0.127246 0.279086 0.165597
v 0.126513 0.274589 -0.054893
v 0.128054 0.253142 0.102261
v 0.150245 0.200571 -0.021873
v 0.135716 0.350740 0.149000
v 0.142453 -0.078840 -0.048723
v 0.151834 0.249741 0.123673
v 0.150404 0.152560 -0.116012
v 0.143728 0.290022 -0.097150
v 0.144194 0.339144 0.196502
v 0.158445 0.357506 -0.091726
v 0.177958 0.281097 -0.070546
v 0.160176 0.247663 -0.115654
v 0.141841 0.036340 -0.098638
v 0.188226 0.201281 0.146311
v 0.188328 0.214600 -0.049922
v 0.161322 0.331433 -0.064803
v 0.194277 0.213492 -0.102650
v 0.147942 0.201584 0.025847
v 0.187598 0.294008 -0.098919
v 0.204920 -0.078922 0.029155
v 0.197235 0.144079 -0.120771
v 0.203436 0.198370 0.053720
v 0.214238 0.199207 0.105346
v 0.214231 0.172966 0.010169
v 0.206432 0.358625 -0.125166
v 0.165372 -0.019566 0.122235
v 0.158674 -0.028851 -0.084519
v 0.208406 0.107441 0.141183
v 0.239242 -0.051099 -0.038769
v 0.222082 0.361097 -0.072849
v 0.239455 -0.095793 0.081864
v 0.231117 0.334762 -0.113337
v 0.240908 -0.151311 0.131727
v 0.258067 0.008796 -0.083162
v 0.237073 -0.190967 -0.049241
v 0.243337 -0.225090 -0.084243
v 0.255673 -0.076145 0.106198
v 0.252274 -0.253729 -0.045361
v 0.233149 -0.055507 0.069040
v 0.239022 -0.032162 0.100834
v 0.243682 0.101632 -0.098213
v 0.271258 -0.078666 -0.017112
v 0.260536 -0.227011 -0.030072
v 0.266506 -0.104638 0.045719
v 0.261551 -0.199375 0.164575
v 0.259832 -0.155631 -0.080795
v 0.259217 -0.136522 0.001105
v 0.265093 -0.209440 0.119596
v 0.275854 0.158164 0.019017
v 0.256668 -0.198742 -0.075803
v 0.267536 -0.144091 0.076525
v 0.278108 -0.215569 -0.104740
v 0.236541 0.137408 -0.058507
v 0.268380 -0.108260 0.066413
v 0.276580 -0.117099 -0.005079
v 0.253817 -0.137164 0.113775
v 0.261345 0.026969 0.126520
v 0.296842 -0.095664 -0.023261
v 0.306759 -0.204370 0.115223
v 0.241821 0.128931 0.106656
v 0.306467 -0.272928 0.178677
v 0.280682 -0.220322 0.146148
v 0.335858 -0.097759 0.127022
v 0.307935 0.044396 -0.083399
v 0.283147 -0.270087 0.176510
v 0.303784 -0.227493 0.111410
v 0.278072 -0.108024 0.031536
v 0.295420 -0.052988 -0.050014
v 0.303828 -0.101739 0.115509
v 0.348699 0.095572 -0.028775
v 0.287006 -0.043781 0.134132
v 0.281101 -0.273688 -0.079817
v 0.270359 -0.239043 -0.072117
v 0.292741 -0.273374 0.143508
v 0.297661 -0.298607 -0.045211
v 0.290595 0.112734 -0.063800
v 0.332771 -0.077180 -0.042622
v 0.309382 0.101744 0.101417
v 0.340919 -0.013856 -0.050685
v 0.357313 0.096337 0.019402
v 0.328702 -0.137074 0.089803
v 0.353969 0.001469 -0.033322
v 0.360360 -0.141178 0.015141
v 0.302125 0.010792 0.121534
v 0.430630 -0.029120 0.107370
v 0.363382 0.039441 0.073010
v 0.415521 -0.062903 0.134620
v 0.408344 -0.078892 -0.004118
v 0.381161 0.035981 0.040105
v 0.412961 -0.133294 0.099914
v 0.457654 -0.070407 0.035950
v 0.425013 -0.140778 0.076869
v 0.464275 -0.115196 0.074003
v 0.457040 -0.085785 0.119231
v 0.463302 -0.050004 0.061695
f 133 119 127
f 32 23 51
f 159 143 161
f 241 244 242
f 251 250 252
f 152 144 153
f 214 228 241
f 251 244 247
f 185 144 149
f 214 197 228
f 220 247 244
f 251 247 250
f 247 249 250
f 238 249 247
f 117 124 144
f 124 149 144
f 185 149 183
f 183 197 214
f 183 156 197
f 197 194 228
f 228 194 220
f 194 226 220
f 194 211 226
f 220 238 247
f 220 226 238
f 124 125 149
f 149 125 183
f 125 140 183
f 197 188 194
f 213 211 194
f 188 190 194
f 194 190 213
f 111 108 97
f 97 99 111
f 108 111 124
f 124 111 125
f 125 111 133
f 125 133 140
f 190 188 205
f 190 202 213
f 202 190 205
f 213 219 216
f 87 93 97
f 111 112 133
f 112 116 133
f 133 127 140
f 231 205 223
f 222 202 205
f 223 216 218
f 219 218 216
f 231 223 218
f 71 74 87
f 87 74 93
f 116 119 133
f 41 68 50
f 71 68 74
f 68 71 50
f 31 41 50
f 24 41 31
f 24 47 41
f 41 77 68
f 41 47 77
f 116 101 119
f 116 102 101
f 24 18 47
f 18 20 47
f 73 102 103
f 102 91 101
f 6 20 18
f 20 32 47
f 20 23 32
f 20 6 23
f 32 51 62
f 62 51 63
f 62 73 103
f 62 63 73
f 51 54 63
f 91 102 73
f 54 80 73
f 63 54 73
f 143 139 161
f 141 139 143
f 161 157 163
f 159 161 163
f 157 171 163
f 163 171 180
f 142 139 141
f 142 141 154
f 157 153 171
f 157 154 153
f 171 217 180
f 171 153 217
f 217 153 185
f 244 251 242
f 144 185 153
f 185 214 235
f 214 241 235
f 228 244 241
f 185 183 214
f 228 220 244
f 219 213 202
f 97 93 99
f 99 112 111
f 219 202 218
f 202 222 218
f 222 205 231
f 77 93 74
f 93 66 99
f 218 222 231
f 68 77 74
f 77 66 93
f 66 112 99
f 103 116 112
f 103 102 116
f 77 62 66
f 66 62 103
f 66 103 112
f 47 32 77
f 77 32 62
f 155 166 161
f 139 155 161
f 157 161 166
f 155 142 166
f 139 142 155
f 166 142 157
f 142 154 157
f 65 56 64
f 48 56 65
f 26 25 36
f 128 107 115
f 65 64 82
f 25 26 44
f 128 115 129
f 82 64 88
f 193 229 195
f 115 122 129
f 122 136 129
f 86 82 88
f 86 88 104
f 229 193 209
f 192 203 193
f 209 193 203
f 230 209 207
f 209 203 207
f 136 184 162
f 136 126 184
f 126 110 131
f 104 113 110
f 126 170 184
f 126 131 170
f 131 134 170
f 110 130 131
f 130 110 113
f 184 170 191
f 170 178 191
f 178 198 191
f 134 164 170
f 170 164 178
f 164 134 145
f 178 164 169
f 169 174 178
f 145 169 164
f 69 78 95
f 69 61 78
f 46 61 69
f 46 29 38
f 12 15 29
f 29 15 38
f 16 15 12
f 25 12 36
f 95 78 107
f 78 61 79
f 16 12 25
f 79 109 78
f 107 78 109
f 40 36 48
f 26 36 40
f 35 40 55
f 107 109 115
f 48 65 55
f 55 40 48
f 44 26 40
f 9 16 19
f 19 16 25
f 55 65 83
f 65 82 86
f 83 65 86
f 40 33 44
f 44 19 25
f 33 19 44
f 115 109 122
f 94 86 104
f 122 106 126
f 89 86 94
f 122 126 136
f 106 110 126
f 106 94 110
f 94 104 110
f 46 52 61
f 52 75 61
f 46 38 52
f 52 38 58
f 15 22 38
f 61 75 79
f 52 58 75
f 38 22 58
f 15 16 9
f 22 15 9
f 22 9 28
f 79 100 109
f 79 75 85
f 22 35 58
f 28 35 22
f 35 28 40
f 79 85 100
f 75 58 85
f 60 58 35
f 35 55 60
f 28 33 40
f 28 9 19
f 28 19 33
f 109 100 122
f 100 85 98
f 58 60 85
f 60 55 83
f 100 98 122
f 122 98 106
f 98 85 89
f 85 60 89
f 60 83 89
f 89 83 86
f 89 94 98
f 98 94 106
f 154 152 153
f 141 152 154
f 141 143 152
f 242 251 252
f 246 242 252
f 243 242 246
f 243 241 242
f 235 241 243
f 217 185 235
f 179 180 217
f 179 163 180
f 159 163 179
f 54 53 80
f 54 39 53
f 91 80 105
f 73 80 91
f 42 39 54
f 51 42 54
f 23 42 51
f 23 27 42
f 91 105 101
f 42 27 45
f 23 13 27
f 6 13 23
f 6 4 13
f 5 4 6
f 1 5 6
f 4 5 1
f 27 31 45
f 45 31 50
f 10 31 27
f 10 8 31
f 8 18 24
f 31 8 24
f 1 6 18
f 1 18 8
f 3 1 8
f 101 118 119
f 118 127 119
f 72 45 70
f 45 50 70
f 50 71 70
f 70 87 96
f 70 71 87
f 140 127 156
f 96 87 97
f 205 188 208
f 208 223 205
f 183 140 156
f 216 223 211
f 213 216 211
f 188 201 208
f 223 208 211
f 208 201 211
f 188 224 201
f 156 177 196
f 108 124 117
f 92 97 108
f 226 201 238
f 226 211 201
f 197 196 188
f 156 196 197
f 121 108 117
f 238 240 249
f 249 240 250
f 152 117 144
f 120 117 152
f 250 245 248
f 150 120 148
f 120 152 148
f 152 143 148
f 250 248 252
f 239 252 248
f 179 217 181
f 148 143 159
f 148 159 175
f 237 243 246
f 237 235 243
f 237 206 235
f 206 217 235
f 181 217 206
f 175 159 179
f 21 43 53
f 80 76 81
f 53 57 80
f 43 57 53
f 21 53 39
f 80 81 105
f 49 39 42
f 49 42 72
f 72 42 45
f 27 13 10
f 13 2 10
f 4 2 13
f 101 105 118
f 59 49 72
f 10 7 8
f 10 2 7
f 2 4 7
f 4 3 7
f 4 1 3
f 7 3 8
f 118 138 127
f 67 72 96
f 96 72 70
f 146 127 138
f 67 96 84
f 156 127 146
f 84 96 92
f 156 146 177
f 96 97 92
f 204 212 224
f 201 224 238
f 224 240 238
f 240 224 215
f 188 196 224
f 196 177 186
f 196 199 224
f 121 92 108
f 121 117 120
f 121 120 132
f 123 92 121
f 240 245 250
f 132 120 150
f 245 239 248
f 239 246 252
f 239 227 246
f 160 150 175
f 150 148 175
f 227 237 246
f 237 227 206
f 233 206 227
f 181 175 179
f 43 34 57
f 105 81 118
f 199 204 224
f 132 123 121
f 181 160 175
f 21 14 43
f 57 76 80
f 17 21 39
f 145 151 169
f 195 229 232
f 114 107 128
f 48 36 56
f 56 37 64
f 12 56 36
f 12 29 56
f 56 29 37
f 95 107 114
f 30 29 46
f 69 95 76
f 34 30 46
f 34 46 69
f 167 187 182
f 189 182 187
f 187 176 189
f 182 189 176
f 167 173 187
f 165 167 182
f 158 173 167
f 165 182 169
f 165 158 167
f 168 176 187
f 176 169 182
f 174 169 176
f 176 172 174
f 151 158 165
f 169 151 165
f 198 210 233
f 174 210 198
f 198 178 174
f 221 233 227
f 221 198 233
f 221 227 236
f 151 147 158
f 147 151 145
f 191 198 221
f 225 221 236
f 145 137 147
f 191 221 225
f 234 225 236
f 134 137 145
f 130 137 134
f 131 130 134
f 199 191 225
f 215 225 234
f 113 123 130
f 104 123 113
f 186 184 191
f 186 162 184
f 203 225 215
f 203 199 225
f 207 203 215
f 212 207 215
f 104 90 123
f 192 199 203
f 104 88 90
f 129 136 162
f 135 129 162
f 200 207 212
f 192 195 200
f 207 200 230
f 192 193 195
f 200 195 232
f 230 200 232
f 67 84 88
f 64 67 88
f 128 129 135
f 138 128 135
f 59 67 64
f 114 128 138
f 37 59 64
f 59 37 49
f 81 95 114
f 17 49 37
f 30 17 37
f 29 30 37
f 81 76 95
f 11 17 30
f 14 11 30
f 14 30 34
f 57 34 76
f 34 69 76
f 14 17 11
f 21 17 14
f 43 14 34
f 173 168 187
f 173 158 168
f 168 158 160
f 176 168 172
f 168 160 172
f 172 160 181
f 174 172 210
f 172 181 210
f 206 233 210
f 210 181 206
f 158 147 160
f 147 137 160
f 137 150 160
f 236 227 239
f 236 239 245
f 123 132 137
f 137 132 150
f 234 236 245
f 130 123 137
f 196 191 199
f 215 234 240
f 240 234 245
f 229 209 230
f 224 212 215
f 90 92 123
f 146 186 177
f 146 162 186
f 192 204 199
f 212 204 200
f 90 84 92
f 135 162 146
f 204 192 200
f 88 84 90
f 138 135 146
f 67 59 72
f 118 114 138
f 118 81 114
f 17 39 49
f 232 229 230
f 196 186 191
