v 0.490632 0.045075 0.110522
v 0.492075 0.044906 0.047758
v 0.498473 0.094095 0.054807
v 0.489058 0.009313 0.072718
v 0.482181 0.044220 0.084480
v 0.459873 0.053531 0.117970
v 0.450606 0.002234 0.090512
v 0.464969 -0.073937 -0.084342
v 0.485652 -0.017110 -0.099607
v 0.486662 -0.005117 -0.069987
v 0.438379 -0.096851 -0.047726
v 0.468116 -0.031350 -0.077479
v 0.451304 -0.029313 0.102538
v 0.449634 -0.015044 0.128632
v 0.473566 -0.049120 -0.037112
v 0.433387 -0.046848 -0.037379
v 0.462577 0.005787 -0.064014
v 0.449721 -0.037987 -0.111044
v 0.377273 -0.024614 0.120909
v 0.392656 -0.052667 0.002693
v 0.428836 -0.080965 -0.022385
v 0.405754 0.024334 0.030709
v 0.418800 0.086726 -0.015738
v 0.377576 -0.022262 0.105594
v 0.358125 -0.039066 0.005639
v 0.395369 -0.036679 0.060430
v 0.361985 -0.027875 0.045418
v 0.391057 0.011314 -0.053433
v 0.377543 0.151618 -0.014649
v 0.406972 -0.096624 -0.054059
v 0.366359 -0.081916 -0.016407
v 0.403509 0.076351 -0.044780
v 0.319454 -0.071226 -0.028191
v 0.350424 0.025209 0.089874
v 0.319300 -0.035613 0.079357
v 0.393521 -0.005078 -0.033299
v 0.309542 -0.022305 -0.065674
v 0.365757 0.122621 -0.072901
v 0.327871 -0.038452 0.037216
v 0.343697 0.113541 0.044946
v 0.326404 0.043494 0.101330
v 0.355439 0.144756 -0.043124
v 0.337448 0.076200 -0.079455
v 0.298624 -0.008563 0.108992
v 0.243868 -0.015610 0.136546
v 0.302923 -0.065411 0.006776
v 0.253352 -0.097303 0.056958
v 0.319477 0.137748 -0.004051
v 0.261359 0.065374 0.073477
v 0.269409 0.011008 -0.059474
v 0.290372 -0.052314 -0.045681
v 0.244157 -0.094354 -0.013642
v 0.270248 -0.074877 0.051149
v 0.244156 -0.073863 0.122123
v 0.248836 0.039287 0.119110
v 0.313463 0.115178 -0.057154
v 0.218875 0.141563 0.152262
v 0.193159 -0.048703 0.152512
v 0.234720 0.164733 0.097165
v 0.182723 -0.147147 0.075917
v 0.195932 0.041330 0.145521
v 0.233697 -0.029054 -0.060187
v 0.249704 0.081571 0.009910
v 0.139032 -0.112443 0.144670
v 0.209555 0.199683 0.141783
v 0.176223 0.067275 0.086614
v 0.187068 0.207143 0.107827
v 0.208650 0.141107 0.104956
v 0.254508 0.127226 -0.092735
v 0.239872 0.053679 -0.026245
v 0.186493 -0.142428 0.007210
v 0.125073 0.068044 0.166690
v 0.189337 0.155014 0.137612
v 0.177512 0.008456 -0.054610
v 0.223822 0.115742 -0.098540
v 0.106911 -0.026956 0.164313
v 0.204152 0.190399 -0.071087
v 0.120616 0.194293 0.121311
v 0.180893 -0.092183 -0.041361
v 0.213606 0.148620 -0.063256
v 0.127585 0.182810 0.093805
v 0.143543 -0.157486 0.015484
v 0.157037 0.071476 0.151715
v 0.154002 0.116617 0.137701
v 0.095810 -0.176913 0.089768
v 0.157501 -0.131135 0.133826
v 0.216528 0.176822 -0.112553
v 0.162060 0.061877 0.006933
v 0.146200 0.159418 0.102495
v 0.164298 0.121627 -0.063220
v 0.175544 -0.027139 -0.074521
v 0.145221 0.094852 0.073272
v 0.126890 0.154613 0.158598
v 0.143019 0.033779 -0.074067
v 0.134515 0.079690 -0.023464
v 0.062126 -0.110770 0.172421
v 0.073596 0.095463 0.134525
v 0.181352 0.137739 -0.101723
v 0.105572 0.107469 0.070127
v 0.110127 0.053530 0.164987
v 0.052050 -0.057409 0.170155
v 0.100811 -0.037002 -0.057308
v 0.064861 -0.136617 -0.037694
v 0.037778 -0.160111 0.140554
v 0.098628 0.185106 0.089602
v 0.129455 0.107717 -0.098882
v 0.057812 0.027722 0.138989
v 0.137641 0.150650 -0.044568
v 0.083217 0.162512 0.115942
v 0.160601 0.158566 -0.093319
v 0.067172 -0.178785 0.016502
v 0.054195 -0.202391 0.072561
v 0.056551 0.083484 0.104695
v 0.109215 0.165079 -0.052606
v 0.112900 0.013315 -0.080964
v 0.089151 0.102156 -0.005401
v -0.030042 -0.047625 0.182424
v 0.011288 0.103359 0.057969
v 0.023004 0.040591 0.120611
v 0.049758 -0.042941 -0.047702
v 0.036915 0.043242 -0.023886
v -0.031823 -0.166982 0.163436
v 0.066417 0.083764 -0.060383
v -0.007980 -0.188408 -0.035090
v 0.036182 0.101391 0.018230
v -0.032453 -0.231269 0.014051
v -0.055799 -0.247641 0.057048
v 0.015508 -0.133198 -0.066461
v 0.017310 -0.061115 -0.059562
v -0.004310 -0.205393 0.125722
v 0.006667 0.036873 -0.030926
v -0.068406 -0.094640 0.202273
v -0.015256 0.102715 0.055208
v -0.024154 0.056147 0.124976
v 0.011263 0.067119 -0.006264
v -0.070403 -0.226765 0.116118
v -0.027347 0.046480 -0.073162
v -0.049460 0.101665 -0.005066
v -0.037944 -0.008118 -0.118779
v 0.002379 0.206570 -0.106105
v -0.019130 0.175160 -0.134667
v -0.040462 -0.053308 -0.127475
v -0.034995 0.029474 -0.133462
v -0.073681 0.067319 -0.076649
v -0.119929 -0.260030 0.050757
v -0.150116 -0.191367 0.151429
v -0.094750 0.080252 0.133211
v -0.098654 0.042512 0.192744
v -0.051477 0.069923 -0.119696
v -0.073254 0.117224 0.040575
v -0.089602 0.002988 -0.154870
v -0.097210 -0.006864 0.209808
v -0.121500 0.124119 0.148459
v -0.111452 0.070679 -0.045698
v -0.035579 0.191614 -0.087622
v -0.120777 -0.215459 -0.056742
v -0.083064 0.172757 -0.124902
v -0.051649 0.227063 -0.090484
v -0.096338 0.181596 -0.094459
v -0.018479 0.224798 -0.135759
v -0.037683 0.202841 -0.154497
v -0.094096 0.216757 -0.145682
v -0.146869 0.127621 0.176101
v -0.203898 0.040423 0.191751
v -0.105398 -0.169272 -0.109904
v -0.170976 -0.129673 0.194802
v -0.073632 0.092402 -0.134836
v -0.129718 0.288693 0.148501
v -0.124718 0.097707 -0.161140
v -0.080220 0.188956 -0.148359
v -0.153041 0.290218 0.166301
v -0.128448 0.111919 0.039131
v -0.182824 0.102259 0.091799
v -0.150648 0.068359 0.197695
v -0.143056 0.080068 0.073558
v -0.218301 0.104669 0.000868
v -0.181789 -0.177889 -0.101628
v -0.206913 0.155467 0.162365
v -0.186605 -0.221830 0.102293
v -0.135563 0.115756 -0.111155
v -0.197914 -0.244067 0.040641
v -0.161691 0.257636 0.105806
v -0.126053 0.111288 -0.004044
v -0.225120 -0.198294 0.109776
v -0.143151 0.248194 0.157890
v -0.194601 0.274778 0.092767
v -0.198577 -0.217140 -0.037133
v -0.243603 0.083385 0.042715
v -0.124094 0.227445 -0.132567
v -0.176165 0.186003 -0.157591
v -0.158733 0.210900 -0.086823
v -0.160537 0.077980 -0.077939
v -0.210931 0.177708 0.104446
v -0.206495 0.273877 0.157406
v -0.222111 0.189334 0.149422
v -0.192548 0.237061 0.134748
v -0.208843 -0.151779 0.173484
v -0.192221 0.157301 0.114040
v -0.225466 -0.029394 0.180142
v -0.231737 0.277312 0.105904
v -0.130437 -0.073451 -0.142721
v -0.179338 0.128905 -0.167371
v -0.185769 0.301401 0.129470
v -0.213866 0.131875 -0.090360
v -0.146680 0.001616 -0.162382
v -0.210054 0.068664 -0.060546
v -0.249070 -0.156531 -0.101585
v -0.222491 0.182478 -0.133454
v -0.224970 0.091515 0.170241
v -0.296558 -0.121757 0.130842
v -0.273954 0.173066 0.145152
v -0.285277 -0.162477 0.095055
v -0.249035 0.268126 0.131282
v -0.305855 0.045143 0.148239
v -0.243445 0.000975 -0.162342
v -0.262075 0.242420 0.075139
v -0.301279 0.107638 0.123891
v -0.205838 0.188033 -0.102944
v -0.299402 -0.128293 -0.084823
v -0.276631 -0.168432 -0.049213
v -0.272684 0.113366 0.065082
v -0.261325 0.205915 0.075559
v -0.292729 0.082343 -0.020555
v -0.242671 0.097635 -0.155474
v -0.242150 0.145897 -0.102163
v -0.284806 -0.181823 0.017474
v -0.323022 0.067047 0.117998
v -0.272983 0.073104 -0.108972
v -0.312578 0.097403 0.074875
v -0.319141 -0.013023 -0.131443
v -0.311074 0.191251 0.111046
v -0.268951 0.041730 -0.145517
v -0.332082 -0.127626 0.012869
v -0.250550 0.078586 -0.081669
v -0.297973 0.191982 0.073952
v -0.340103 -0.081840 0.103874
v -0.309375 0.140820 0.070038
v -0.295980 -0.016419 -0.145789
v -0.347734 0.046741 -0.047230
v -0.334221 -0.063236 -0.067725
v -0.357030 -0.055294 0.013118
v -0.345939 0.037239 0.121355
v -0.355011 0.052387 -0.011639
v -0.366241 -0.002791 0.073971
v -0.382099 0.006255 0.026971
v -0.351970 -0.031043 -0.063350
v -0.405469 0.060640 -0.044915
v -0.389105 0.018088 -0.076683
v -0.396321 0.055499 -0.005700
v -0.383878 -0.052113 -0.036803
v -0.425938 -0.001646 -0.011616
v -0.408797 -0.014788 -0.059298
f 214 217 227
f 185 171 194
f 196 185 194
f 196 194 195
f 213 195 194
f 211 195 213
f 211 213 231
f 178 198 193
f 195 178 193
f 178 195 211
f 163 153 178
f 209 163 178
f 217 211 231
f 148 153 163
f 148 163 174
f 174 163 209
f 209 178 211
f 209 211 217
f 209 217 214
f 152 148 174
f 164 174 209
f 164 209 214
f 152 174 164
f 214 227 242
f 117 152 132
f 166 152 164
f 166 164 199
f 164 214 199
f 132 152 166
f 197 166 199
f 11 15 21
f 205 224 202
f 205 215 224
f 169 205 202
f 169 151 205
f 143 151 169
f 37 36 33
f 28 36 37
f 15 16 20
f 15 17 16
f 190 202 224
f 167 143 169
f 149 143 167
f 106 94 115
f 50 43 37
f 28 37 43
f 23 36 28
f 90 94 106
f 43 50 56
f 32 28 43
f 38 32 43
f 32 23 28
f 162 170 202
f 98 106 110
f 87 75 98
f 38 43 56
f 161 170 162
f 161 141 170
f 160 141 161
f 87 98 110
f 69 87 77
f 42 38 56
f 29 38 42
f 29 32 38
f 23 32 29
f 12 30 16
f 17 12 16
f 10 15 11
f 15 10 17
f 87 69 75
f 8 30 18
f 8 11 30
f 9 8 18
f 9 11 8
f 9 10 11
f 18 12 17
f 10 9 17
f 140 141 160
f 108 80 77
f 77 110 114
f 80 69 77
f 29 42 48
f 42 56 48
f 190 162 202
f 98 90 106
f 50 62 70
f 74 91 94
f 94 91 115
f 160 161 162
f 140 155 141
f 189 162 190
f 189 190 208
f 48 56 63
f 69 80 75
f 80 90 75
f 98 75 90
f 90 80 108
f 114 110 106
f 114 106 123
f 141 155 159
f 170 141 157
f 141 159 157
f 170 157 202
f 56 50 70
f 94 90 95
f 202 157 180
f 202 180 169
f 190 224 208
f 208 224 225
f 23 22 36
f 88 70 74
f 144 149 167
f 144 167 180
f 180 167 169
f 70 62 74
f 106 115 123
f 137 139 144
f 143 149 139
f 139 149 144
f 224 215 232
f 21 15 20
f 160 162 189
f 158 160 189
f 140 160 158
f 201 165 177
f 142 165 201
f 128 165 142
f 201 177 215
f 205 201 215
f 151 201 205
f 151 142 201
f 139 142 151
f 33 30 31
f 30 21 31
f 143 139 151
f 30 12 18
f 74 62 91
f 62 79 91
f 51 79 62
f 37 33 51
f 50 37 51
f 50 51 62
f 77 87 110
f 11 21 30
f 41 34 40
f 5 7 6
f 99 125 118
f 116 125 99
f 99 92 95
f 41 40 49
f 18 17 9
f 145 181 187
f 156 145 187
f 156 126 145
f 187 226 220
f 124 111 126
f 111 112 126
f 230 219 240
f 111 82 112
f 82 60 85
f 71 60 82
f 47 60 71
f 248 246 252
f 239 246 248
f 230 246 239
f 230 240 246
f 234 228 239
f 39 35 53
f 26 35 39
f 4 1 14
f 99 95 116
f 49 63 66
f 187 220 207
f 95 74 94
f 88 74 95
f 2 4 7
f 5 2 7
f 63 88 66
f 126 112 127
f 125 135 138
f 133 125 138
f 150 138 183
f 154 183 138
f 14 7 24
f 19 13 14
f 19 14 24
f 19 44 35
f 19 24 44
f 44 24 34
f 44 34 41
f 44 41 55
f 176 183 154
f 154 206 176
f 176 206 223
f 35 44 53
f 234 239 223
f 223 239 243
f 53 44 54
f 53 54 47
f 247 239 248
f 247 248 252
f 246 240 250
f 240 241 250
f 246 250 252
f 219 233 240
f 240 233 241
f 82 85 112
f 219 226 233
f 218 208 225
f 204 218 225
f 180 191 204
f 114 123 121
f 63 70 88
f 63 56 70
f 40 22 23
f 3 1 2
f 2 1 4
f 204 191 218
f 180 159 191
f 157 159 180
f 116 108 114
f 95 90 108
f 23 29 40
f 218 191 208
f 191 189 208
f 158 189 191
f 159 158 191
f 155 158 159
f 140 158 155
f 108 77 114
f 40 29 48
f 192 144 180
f 153 173 198
f 133 150 147
f 100 72 97
f 83 84 72
f 235 221 237
f 222 221 235
f 222 198 221
f 193 198 222
f 72 93 97
f 72 84 93
f 216 222 235
f 97 93 109
f 93 78 109
f 73 93 84
f 73 65 93
f 182 216 186
f 182 222 216
f 93 65 78
f 181 184 226
f 179 184 181
f 181 145 179
f 136 179 145
f 226 212 233
f 226 184 212
f 146 179 136
f 136 122 146
f 130 122 136
f 130 104 122
f 85 104 130
f 104 64 96
f 86 64 104
f 241 245 251
f 241 244 245
f 64 58 96
f 245 249 251
f 243 249 245
f 245 244 243
f 58 76 96
f 45 72 58
f 221 223 229
f 86 104 85
f 250 241 251
f 252 251 247
f 54 64 86
f 54 86 60
f 47 54 60
f 251 249 247
f 64 54 58
f 54 45 58
f 44 45 54
f 182 193 222
f 231 235 237
f 117 134 152
f 203 200 213
f 182 185 196
f 182 196 193
f 200 186 216
f 213 200 216
f 193 196 195
f 213 216 231
f 231 216 235
f 178 153 198
f 217 231 237
f 134 147 148
f 153 148 147
f 217 229 227
f 152 134 148
f 227 229 242
f 210 199 214
f 210 214 242
f 210 242 236
f 242 244 236
f 122 132 166
f 197 210 184
f 197 199 210
f 146 166 197
f 146 197 184
f 185 168 171
f 168 203 171
f 194 171 203
f 194 203 213
f 243 247 249
f 243 239 247
f 229 223 243
f 188 223 221
f 188 176 223
f 44 55 45
f 172 183 176
f 150 183 172
f 133 138 150
f 99 118 113
f 84 66 92
f 55 66 61
f 55 49 66
f 118 125 133
f 92 99 105
f 81 92 105
f 89 92 81
f 81 59 89
f 59 68 89
f 187 181 226
f 126 127 145
f 220 226 219
f 55 41 49
f 173 188 221
f 175 176 188
f 175 147 172
f 134 118 133
f 119 118 134
f 107 113 119
f 61 83 72
f 45 61 72
f 150 172 147
f 119 113 118
f 107 97 113
f 83 66 84
f 61 66 83
f 99 113 105
f 97 109 113
f 109 105 113
f 89 84 92
f 89 73 84
f 68 73 89
f 68 57 73
f 57 65 73
f 68 59 57
f 59 65 57
f 78 105 109
f 78 81 105
f 67 81 78
f 59 81 67
f 78 65 67
f 59 67 65
f 145 127 136
f 127 130 136
f 127 112 130
f 85 130 112
f 85 60 86
f 252 250 251
f 45 55 61
f 175 172 176
f 1 3 5
f 156 187 177
f 219 207 220
f 124 156 165
f 124 126 156
f 36 25 33
f 25 30 33
f 224 232 228
f 20 16 25
f 25 16 30
f 21 20 31
f 20 25 31
f 33 46 51
f 91 79 102
f 91 102 115
f 115 102 123
f 31 46 33
f 51 46 52
f 79 51 52
f 102 103 120
f 215 238 232
f 102 79 103
f 120 103 128
f 120 128 129
f 129 128 142
f 129 142 139
f 79 82 103
f 215 177 207
f 215 207 238
f 238 207 230
f 103 124 128
f 128 124 165
f 230 207 219
f 165 156 177
f 177 187 207
f 103 111 124
f 82 111 103
f 79 52 71
f 52 47 71
f 53 47 52
f 232 238 230
f 46 53 52
f 46 39 53
f 239 232 230
f 137 131 139
f 131 129 139
f 120 129 131
f 121 120 131
f 123 102 121
f 102 120 121
f 31 39 46
f 25 27 39
f 31 25 39
f 27 26 39
f 228 232 239
f 154 144 192
f 137 144 154
f 131 137 135
f 27 7 26
f 4 26 7
f 225 224 228
f 234 225 228
f 192 180 204
f 71 82 79
f 36 27 25
f 36 22 27
f 206 234 223
f 206 204 234
f 154 192 206
f 135 121 131
f 24 27 34
f 27 22 34
f 13 19 35
f 26 13 35
f 24 7 27
f 13 26 4
f 138 137 154
f 125 121 135
f 116 121 125
f 88 95 92
f 66 88 92
f 14 6 7
f 13 4 14
f 121 116 114
f 95 108 116
f 22 40 34
f 49 40 48
f 6 1 5
f 206 192 204
f 204 225 234
f 135 137 138
f 49 48 63
f 203 186 200
f 168 186 203
f 182 186 168
f 168 185 182
f 198 173 221
f 107 76 100
f 100 97 107
f 134 133 147
f 153 147 175
f 173 153 175
f 188 173 175
f 237 221 229
f 217 237 229
f 76 58 72
f 76 72 100
f 101 107 119
f 119 134 117
f 242 229 243
f 76 107 101
f 101 119 117
f 242 243 244
f 101 96 76
f 132 101 117
f 101 132 96
f 236 244 241
f 96 122 104
f 122 96 132
f 233 236 241
f 146 122 166
f 184 210 212
f 212 210 236
f 233 212 236
f 179 146 184
f 3 2 5
f 1 6 14
