v 0.453912 0.086611 -0.070951
v 0.461664 0.085670 -0.018153
v 0.459688 0.017910 -0.043274
v 0.398909 0.106111 -0.013290
v 0.401963 0.066896 0.023762
v 0.396167 0.100776 -0.066882
v 0.389079 0.001088 0.033436
v 0.417504 0.010380 -0.079456
v 0.356089 0.061782 -0.100608
v 0.409425 -0.025228 0.014770
v 0.360006 -0.026409 -0.095444
v 0.390215 0.041249 -0.102612
v 0.306472 0.100276 -0.024658
v 0.317797 0.094420 -0.055739
v 0.408298 -0.032344 -0.073052
v 0.342630 -0.094848 0.047183
v 0.407406 -0.230127 0.076689
v 0.335143 -0.067067 0.031353
v 0.392246 -0.190714 0.073695
v 0.402983 -0.172097 0.038342
v 0.414255 -0.219769 -0.077479
v 0.401124 -0.149211 -0.076058
v 0.370334 -0.126677 -0.058042
v 0.343056 -0.048462 0.012834
v 0.329093 0.011645 0.056070
v 0.338944 -0.025690 -0.107268
v 0.297770 0.054239 -0.098441
v 0.336922 -0.123880 -0.111013
v 0.301712 0.041201 0.048456
v 0.360739 -0.161703 -0.069221
v 0.361197 -0.136766 0.091921
v 0.345102 -0.056034 -0.023753
v 0.331943 -0.078753 -0.081388
v 0.384913 -0.203586 -0.100486
v 0.362130 -0.142164 0.030823
v 0.329825 -0.074748 -0.067372
v 0.371728 -0.194284 0.082274
v 0.391762 -0.203690 0.106081
v 0.387269 -0.239730 -0.101560
v 0.369247 -0.205292 -0.126412
v 0.334362 -0.064246 0.016298
v 0.330269 -0.111324 0.056597
v 0.292923 -0.046333 -0.068418
v 0.311527 -0.042786 0.027515
v 0.330630 -0.135258 -0.095483
v 0.301516 -0.028517 -0.102751
v 0.258467 0.077635 0.047144
v 0.327935 -0.025675 0.044025
v 0.310376 0.005328 -0.119382
v 0.210029 0.100056 0.033656
v 0.212194 0.044382 -0.143811
v 0.143871 0.275838 0.056887
v 0.169389 0.127485 -0.057396
v 0.216152 0.100281 -0.097103
v 0.153045 0.261067 -0.181792
v 0.299914 -0.015564 0.045728
v 0.145676 0.243059 0.112072
v 0.205400 0.074820 0.078607
v 0.203875 0.123252 -0.018926
v 0.162680 0.239521 0.067456
v 0.160017 0.266749 0.106991
v 0.247147 -0.029483 -0.107625
v 0.243803 -0.037403 0.040097
v 0.212974 -0.074524 -0.085697
v 0.188286 0.129593 0.035096
v 0.112893 0.265643 -0.199498
v 0.130189 0.287355 -0.173448
v 0.165634 0.132296 -0.086598
v 0.142867 0.176491 0.021507
v 0.117582 0.266587 -0.148447
v 0.108143 0.279835 0.083180
v 0.120912 0.219198 -0.161252
v 0.174680 0.093245 -0.141777
v 0.115160 0.209526 -0.140822
v 0.092943 0.245693 0.045900
v 0.163662 0.140926 -0.011742
v 0.115776 0.198088 0.071027
v 0.083050 0.221465 -0.130783
v 0.117178 0.141123 -0.069907
v 0.132709 0.162712 -0.135070
v 0.158631 -0.062254 0.053487
v 0.136941 0.227645 0.087991
v 0.251508 -0.045475 -0.010629
v 0.213449 -0.062647 0.040310
v 0.071136 0.205081 0.023213
v 0.135835 0.172344 0.087513
v 0.130911 0.069980 -0.152028
v 0.082844 0.185555 0.082646
v 0.110388 0.208665 0.050220
v 0.072448 0.267646 -0.179767
v 0.090061 0.180788 -0.099789
v 0.117402 0.152257 -0.008512
v 0.240901 -0.000762 0.062996
v 0.074292 0.213419 -0.161358
v 0.097153 0.172419 -0.169975
v 0.114017 -0.120789 -0.068693
v 0.062478 0.187169 -0.109260
v 0.141993 0.108679 0.082893
v 0.112787 0.006896 -0.132344
v 0.046986 0.199818 0.043004
v 0.196813 -0.093044 -0.017938
v 0.100917 0.254707 0.091305
v 0.055331 0.128199 -0.131071
v 0.156507 -0.051211 -0.117841
v 0.056124 0.121071 -0.088624
v 0.071162 0.133415 0.052987
v 0.071837 0.135881 0.012153
v 0.116260 0.038812 0.075701
v 0.036494 0.141497 -0.017171
v 0.032420 0.094688 0.026665
v 0.056752 -0.010824 -0.126988
v 0.067502 0.144743 -0.064999
v 0.057701 0.051425 -0.113095
v 0.110101 -0.110283 0.042650
v 0.117220 -0.136404 -0.012854
v 0.055863 -0.144029 -0.106065
v 0.096058 -0.081580 -0.121340
v 0.110955 -0.050027 0.080612
v 0.092965 -0.146163 0.040707
v 0.058698 -0.060915 0.103470
v -0.000080 0.122128 -0.059322
v 0.022650 -0.046888 -0.147900
v 0.060398 -0.131965 0.078316
v -0.040413 0.117669 -0.017565
v -0.010491 0.079111 0.048786
v -0.052074 0.013891 -0.165610
v 0.045250 -0.017333 0.092334
v -0.014657 0.068206 -0.105918
v 0.015221 -0.094084 -0.156605
v -0.060089 0.057360 -0.133842
v -0.052253 -0.155094 0.136328
v -0.050683 -0.025705 -0.185433
v 0.061675 -0.186587 0.033058
v 0.069985 -0.190811 -0.019131
v -0.054805 0.042959 0.121548
v -0.090490 0.061215 -0.116408
v 0.031122 -0.209250 -0.052367
v -0.114736 0.056767 -0.184049
v -0.018221 -0.244745 0.011339
v -0.035679 -0.090747 -0.175695
v -0.010784 -0.061350 0.139083
v -0.048992 -0.200044 0.098394
v -0.066250 0.075313 0.083204
v -0.103769 0.087450 0.107500
v -0.040921 0.004437 0.142123
v -0.096740 0.105128 0.000911
v -0.148217 0.077881 -0.167375
v -0.081554 0.059472 0.138679
v -0.135300 0.074882 0.073079
v -0.086865 0.108619 -0.055973
v -0.123659 0.015965 -0.194546
v -0.084575 -0.227208 0.065922
v 0.006351 -0.187588 -0.098597
v -0.142020 0.092501 0.130973
v -0.144575 0.038312 -0.083310
v -0.074815 -0.242094 -0.059631
v -0.057491 -0.221422 -0.099636
v -0.108756 -0.052949 -0.188702
v -0.126951 0.060047 -0.132320
v -0.179705 0.065306 -0.047152
v -0.193537 -0.061293 -0.182439
v -0.179707 0.069275 -0.004883
v -0.231556 0.017150 -0.100666
v -0.147285 0.105574 0.105611
v -0.231885 0.056123 -0.189055
v -0.060074 -0.186190 -0.147738
v -0.226076 0.089745 0.133914
v -0.154833 0.044603 0.031157
v -0.083033 -0.254062 0.003377
v -0.162886 0.097682 0.080568
v -0.204246 0.073935 -0.137923
v -0.132371 0.007605 0.155461
v -0.053041 -0.117018 0.145492
v -0.204774 0.036159 0.140444
v -0.231259 0.010680 0.046228
v -0.283819 0.019359 -0.105990
v -0.160511 -0.241896 0.004366
v -0.239888 -0.060763 0.139538
v -0.264180 0.113515 0.083124
v -0.153144 -0.220201 0.075398
v -0.220544 0.002586 -0.179944
v -0.166218 -0.234087 -0.068352
v -0.279943 0.092045 -0.149838
v -0.217919 0.006079 -0.074710
v -0.165659 -0.191052 0.114800
v -0.233944 0.067388 0.077630
v -0.258424 0.054422 0.140330
v -0.327701 0.211714 0.075642
v -0.262168 0.111702 0.122860
v -0.299604 0.165686 0.102595
v -0.311381 0.228364 0.120548
v -0.288003 -0.018004 -0.016683
v -0.309444 0.158539 0.127068
v -0.263612 0.023011 -0.185610
v -0.311396 0.156451 0.075725
v -0.165298 -0.212283 -0.116799
v -0.278390 0.081005 -0.189644
v -0.347191 0.247565 0.108190
v -0.327641 0.108781 -0.203903
v -0.312597 0.085461 0.071531
v -0.339424 0.150956 0.129823
v -0.258201 -0.147576 -0.127859
v -0.337375 0.133537 -0.156199
v -0.266900 -0.036137 -0.160811
v -0.292238 -0.003913 -0.156261
v -0.232770 -0.212663 0.000720
v -0.243829 -0.090166 -0.161623
v -0.275381 -0.014800 -0.084827
v -0.344925 0.156697 -0.200723
v -0.289048 0.022193 0.118534
v -0.306948 0.077899 0.134508
v -0.379878 0.192975 -0.211072
v -0.351358 0.219216 0.140498
v -0.260771 -0.007739 0.129152
v -0.363077 0.226879 0.090381
v -0.326517 0.050801 0.078183
v -0.330117 0.034079 -0.127932
v -0.310471 -0.003381 -0.109939
v -0.229672 -0.197861 0.057757
v -0.223248 -0.211014 -0.073565
v -0.354081 0.138780 0.116424
v -0.349991 0.111142 0.074277
v -0.265766 0.009923 0.060091
v -0.326379 0.051407 -0.188523
v -0.325552 0.054311 0.117669
v -0.222509 -0.180278 0.100965
v -0.326176 0.062643 -0.125581
v -0.324491 0.013238 -0.153540
v -0.275894 -0.072733 0.127835
v -0.366897 0.106263 -0.204957
v -0.293086 -0.009680 0.075855
v -0.375222 0.176956 -0.169396
v -0.292676 -0.109667 -0.134563
v -0.294076 -0.121136 0.085089
v -0.286835 -0.150023 0.040206
v -0.361493 0.071990 -0.133194
v -0.383706 0.098193 -0.184775
v -0.411426 0.182634 -0.187850
v -0.367407 0.149151 -0.227942
v -0.288985 -0.152142 -0.080454
v -0.321450 -0.098578 0.038210
v -0.285269 -0.169472 -0.005155
v -0.304842 -0.048476 -0.096469
v -0.319605 -0.110222 -0.059650
v -0.303928 -0.148242 -0.047714
v -0.350548 -0.101913 -0.046149
v -0.317165 -0.176428 -0.026368
v -0.332883 -0.073949 -0.008454
v -0.369903 -0.124359 -0.037140
v -0.374128 -0.092611 0.011872
v -0.363351 -0.166438 -0.001557
v -0.356127 -0.124962 0.039185
f 98 106 108
f 125 143 135
f 29 47 58
f 118 93 108
f 52 60 75
f 60 82 89
f 89 82 77
f 82 88 77
f 88 102 100
f 164 170 167
f 167 170 179
f 170 186 179
f 179 186 200
f 216 225 222
f 221 222 225
f 86 65 69
f 86 69 77
f 86 77 88
f 98 86 88
f 88 100 106
f 144 149 170
f 164 144 170
f 210 211 225
f 210 225 231
f 216 231 225
f 106 98 88
f 135 143 144
f 231 214 210
f 65 86 58
f 58 86 98
f 214 231 229
f 229 231 241
f 125 145 127
f 145 125 135
f 234 229 241
f 93 58 108
f 58 98 108
f 209 203 199
f 197 199 203
f 183 197 203
f 67 66 90
f 67 55 66
f 237 232 238
f 203 209 232
f 209 212 232
f 232 212 238
f 132 140 158
f 151 132 158
f 204 181 161
f 181 151 161
f 151 158 161
f 151 138 132
f 165 194 197
f 165 181 194
f 165 151 181
f 138 151 165
f 197 194 224
f 224 237 230
f 199 224 230
f 199 197 224
f 239 199 230
f 209 199 239
f 239 230 237
f 209 239 212
f 238 239 237
f 238 212 239
f 149 146 168
f 143 146 149
f 144 143 149
f 223 231 216
f 200 223 216
f 186 223 200
f 186 175 223
f 186 149 175
f 170 149 186
f 77 69 89
f 200 216 222
f 89 85 75
f 75 60 89
f 75 100 102
f 75 85 100
f 18 16 20
f 16 19 20
f 139 152 169
f 142 152 139
f 139 133 142
f 42 41 35
f 152 180 177
f 169 152 177
f 41 42 44
f 35 41 32
f 32 20 35
f 18 20 32
f 32 24 18
f 177 180 219
f 115 114 119
f 115 84 114
f 106 107 110
f 100 107 106
f 69 85 89
f 115 119 133
f 166 153 157
f 166 116 153
f 60 57 82
f 88 82 102
f 178 214 229
f 141 127 145
f 60 52 61
f 60 61 57
f 57 102 82
f 167 189 187
f 167 179 189
f 189 211 187
f 225 211 221
f 148 144 154
f 144 164 154
f 167 154 164
f 154 167 174
f 167 187 174
f 187 211 210
f 144 148 135
f 172 148 154
f 172 154 174
f 214 174 187
f 214 187 210
f 214 172 174
f 172 214 178
f 135 148 145
f 141 145 172
f 145 148 172
f 173 172 178
f 173 141 172
f 141 173 131
f 131 173 185
f 140 129 166
f 129 116 166
f 207 196 202
f 207 161 196
f 158 166 161
f 122 117 129
f 132 122 129
f 204 207 233
f 233 207 202
f 126 122 132
f 161 207 204
f 194 204 205
f 181 204 194
f 147 136 138
f 136 126 138
f 224 205 228
f 138 165 147
f 228 236 237
f 228 217 236
f 224 228 237
f 66 95 94
f 66 72 95
f 165 197 183
f 90 66 94
f 55 72 66
f 140 166 158
f 132 129 140
f 126 132 138
f 194 205 224
f 196 157 156
f 196 156 182
f 157 196 166
f 116 137 153
f 196 220 202
f 117 116 129
f 96 116 117
f 220 240 202
f 99 104 117
f 51 104 99
f 51 62 104
f 51 49 62
f 111 117 122
f 99 117 111
f 27 49 51
f 233 240 244
f 111 122 126
f 87 51 99
f 73 51 87
f 54 51 73
f 243 204 233
f 128 111 126
f 95 87 113
f 113 87 99
f 73 87 95
f 143 124 146
f 125 124 143
f 109 124 110
f 109 110 107
f 85 107 100
f 85 92 107
f 118 108 127
f 118 127 120
f 141 120 127
f 185 178 229
f 226 185 229
f 226 229 234
f 123 118 120
f 131 123 120
f 120 141 131
f 185 173 178
f 123 131 142
f 142 131 185
f 37 31 42
f 38 19 31
f 38 31 37
f 17 38 37
f 17 19 38
f 213 191 198
f 213 198 215
f 201 213 221
f 213 215 221
f 193 190 191
f 191 213 193
f 193 213 201
f 211 201 221
f 57 61 102
f 102 61 71
f 189 179 190
f 189 190 193
f 211 189 193
f 211 193 201
f 85 69 92
f 134 133 139
f 115 133 134
f 15 10 32
f 177 219 206
f 101 84 115
f 83 84 101
f 43 44 83
f 32 44 43
f 44 32 41
f 32 10 24
f 15 3 10
f 3 1 2
f 247 235 251
f 2 1 4
f 251 235 252
f 4 14 13
f 6 14 4
f 1 6 4
f 252 250 251
f 250 249 251
f 250 248 249
f 223 192 248
f 65 59 76
f 53 76 59
f 13 53 59
f 107 112 109
f 134 139 137
f 96 101 115
f 64 83 101
f 195 179 200
f 190 179 195
f 71 75 102
f 71 52 75
f 61 52 71
f 195 200 222
f 188 195 222
f 215 222 221
f 188 222 215
f 188 190 195
f 188 191 190
f 198 188 215
f 191 188 198
f 35 17 37
f 20 19 17
f 35 37 42
f 31 19 16
f 16 48 42
f 31 16 42
f 180 152 185
f 152 142 185
f 133 123 142
f 133 119 123
f 48 44 42
f 16 18 48
f 180 185 226
f 35 20 17
f 219 180 226
f 83 63 84
f 24 48 18
f 10 7 24
f 10 5 7
f 137 96 134
f 124 121 150
f 76 68 79
f 240 242 245
f 1 8 12
f 1 12 9
f 240 206 242
f 245 242 247
f 1 3 8
f 64 62 83
f 220 206 240
f 8 3 15
f 15 32 11
f 32 33 11
f 36 32 43
f 62 43 83
f 96 64 101
f 182 177 220
f 220 177 206
f 22 33 32
f 22 32 23
f 23 32 36
f 96 115 134
f 156 169 177
f 23 36 30
f 137 139 156
f 156 139 169
f 107 92 112
f 109 112 121
f 109 121 124
f 124 150 146
f 162 146 150
f 162 150 160
f 76 79 92
f 162 160 192
f 175 192 223
f 10 3 5
f 206 219 242
f 44 56 83
f 3 2 5
f 219 235 242
f 2 4 5
f 235 241 252
f 235 234 241
f 4 13 29
f 252 248 250
f 241 248 252
f 50 13 59
f 175 162 192
f 175 168 162
f 110 124 125
f 69 76 92
f 65 76 69
f 146 162 168
f 50 59 65
f 114 123 119
f 114 118 123
f 114 81 118
f 44 48 56
f 24 7 48
f 81 93 118
f 63 93 81
f 63 81 84
f 63 56 93
f 56 25 93
f 48 25 56
f 7 25 48
f 25 5 29
f 7 5 25
f 235 219 234
f 93 29 58
f 25 29 93
f 5 4 29
f 219 226 234
f 13 47 29
f 127 110 125
f 127 108 110
f 47 50 58
f 47 13 50
f 231 248 241
f 231 223 248
f 108 106 110
f 50 65 58
f 114 84 81
f 83 56 63
f 149 168 175
f 218 205 243
f 208 218 243
f 205 204 243
f 136 147 159
f 130 126 136
f 128 126 130
f 95 113 103
f 80 73 95
f 192 208 243
f 240 245 244
f 33 22 34
f 21 22 23
f 21 23 30
f 30 45 39
f 22 21 34
f 21 30 39
f 79 91 97
f 79 112 92
f 112 79 97
f 112 97 105
f 112 105 121
f 121 128 150
f 150 155 160
f 76 53 68
f 79 68 91
f 105 113 121
f 160 184 192
f 192 184 208
f 248 192 243
f 243 244 248
f 249 248 246
f 13 14 54
f 54 14 27
f 54 53 13
f 244 245 246
f 244 246 248
f 1 9 6
f 14 6 9
f 246 245 249
f 249 245 247
f 249 247 251
f 68 73 80
f 218 217 228
f 176 217 218
f 205 218 228
f 171 176 163
f 163 159 171
f 94 95 103
f 72 74 80
f 217 227 236
f 176 227 217
f 176 183 227
f 171 183 176
f 171 165 183
f 159 147 171
f 72 80 95
f 227 183 203
f 78 94 97
f 74 70 78
f 72 70 74
f 55 70 72
f 236 227 232
f 227 203 232
f 90 94 78
f 70 90 78
f 70 67 90
f 70 55 67
f 34 40 28
f 161 166 196
f 171 147 165
f 236 232 237
f 30 36 45
f 33 34 28
f 156 177 182
f 156 153 137
f 45 36 46
f 28 45 46
f 26 28 46
f 220 196 182
f 116 96 137
f 104 64 96
f 46 36 43
f 28 26 33
f 26 11 33
f 8 15 11
f 117 104 96
f 62 64 104
f 46 43 62
f 49 46 62
f 49 26 46
f 12 11 26
f 12 8 11
f 9 49 27
f 9 12 49
f 14 9 27
f 153 156 157
f 49 12 26
f 99 111 113
f 27 51 54
f 243 233 244
f 113 111 128
f 73 68 53
f 54 73 53
f 218 163 176
f 163 218 208
f 233 202 240
f 45 40 39
f 74 78 91
f 97 91 78
f 97 94 103
f 97 103 105
f 68 80 91
f 80 74 91
f 150 136 155
f 105 103 113
f 113 128 121
f 150 128 130
f 150 130 136
f 155 136 159
f 155 159 163
f 160 155 184
f 155 163 184
f 184 163 208
f 247 242 235
f 40 34 39
f 28 40 45
f 21 39 34
