v 0.441646 -0.167223 -0.232174
v 0.381230 -0.101397 -0.195774
v 0.425261 -0.160112 -0.259025
v 0.423048 -0.138009 -0.249079
v 0.402342 -0.172539 -0.203658
v 0.390303 -0.176358 -0.245405
v 0.378026 -0.106026 -0.219510
v 0.391130 -0.132511 -0.180216
v 0.339056 -0.137817 -0.216701
v 0.353134 -0.124328 -0.232816
v 0.327524 -0.063811 -0.143997
v 0.350547 -0.134463 0.247089
v 0.350863 -0.086517 0.209912
v 0.304020 -0.060543 -0.197348
v 0.327734 -0.145683 0.257618
v 0.345943 -0.121669 0.292025
v 0.312811 -0.097806 0.282001
v 0.331253 -0.071602 0.236763
v 0.287074 -0.103129 -0.207815
v 0.322626 -0.025895 -0.120668
v 0.306390 -0.058311 0.119884
v 0.316070 -0.096440 -0.151738
v 0.326894 -0.133703 -0.174685
v 0.291680 -0.077587 0.227975
v 0.311899 -0.022907 0.143862
v 0.301128 -0.110304 0.201950
v 0.312634 -0.124215 0.285410
v 0.322465 0.125640 -0.025508
v 0.305034 0.069055 -0.011574
v 0.287763 -0.095270 0.157186
v 0.278246 0.042077 -0.127532
v 0.290341 -0.123813 -0.178341
v 0.304585 0.152449 -0.032531
v 0.273320 -0.024380 0.162796
v 0.255770 -0.002366 -0.157867
v 0.285437 -0.007176 0.130938
v 0.289125 0.074108 -0.054591
v 0.303474 0.144789 0.017655
v 0.303058 -0.011645 0.091800
v 0.294417 0.088377 0.023724
v 0.259542 0.024307 0.054977
v 0.252873 -0.080474 0.131334
v 0.292896 0.123643 -0.057056
v 0.269435 0.038693 0.073194
v 0.273459 0.026898 -0.077419
v 0.232941 0.147882 0.011745
v 0.245347 0.133647 -0.051665
v 0.236374 -0.019113 -0.062734
v 0.245764 -0.081525 0.177997
v 0.291960 -0.058808 -0.116388
v 0.240402 -0.075333 -0.121365
v 0.267232 0.165533 -0.027512
v 0.230160 0.053472 -0.164622
v 0.245121 -0.000465 -0.010774
v 0.223411 -0.011857 0.038511
v 0.235095 -0.040705 0.078701
v 0.216882 -0.034372 -0.060386
v 0.257605 0.103023 -0.122076
v 0.250920 -0.067376 0.183665
v 0.230105 0.105747 0.098042
v 0.238899 0.021477 0.123589
v 0.227562 -0.098538 -0.167882
v 0.193687 -0.077549 0.146552
v 0.222701 -0.059678 -0.178909
v 0.210025 0.006755 -0.178345
v 0.189279 -0.126079 -0.134786
v 0.209538 -0.019021 0.141590
v 0.158928 -0.104976 0.140732
v 0.161663 -0.084643 0.067385
v 0.204002 -0.081764 -0.016711
v 0.223713 0.115467 -0.147227
v 0.181348 0.176544 0.013258
v 0.202738 -0.097005 0.105876
v 0.194634 0.110430 0.113333
v 0.204528 0.159604 -0.083393
v 0.140942 -0.099814 -0.182822
v 0.186787 -0.123346 -0.164866
v 0.146131 0.171900 0.061848
v 0.165360 -0.096880 -0.070627
v 0.150895 -0.118144 -0.110607
v 0.118522 0.140532 -0.148752
v 0.120102 0.070988 -0.176078
v 0.144883 -0.096627 0.043321
v 0.182271 0.161214 -0.116481
v 0.134128 0.187603 -0.057553
v 0.107460 -0.115992 0.085296
v 0.148004 0.010075 -0.189302
v 0.167574 0.032895 0.139161
v 0.121290 -0.125033 -0.159249
v 0.127385 0.124575 0.100884
v 0.139309 -0.051057 -0.192998
v 0.135115 -0.160518 -0.038217
v 0.062535 0.089089 0.107842
v 0.092343 -0.156204 -0.104681
v 0.080162 -0.100527 0.125384
v 0.071521 -0.120449 -0.182707
v 0.079219 -0.176665 0.003690
v 0.051333 -0.152108 -0.123831
v 0.082671 0.172201 0.056627
v 0.111344 -0.041302 0.147710
v 0.074040 -0.126240 0.076458
v 0.055181 -0.069931 0.136233
v 0.062873 -0.193103 -0.037323
v 0.009712 -0.118557 0.068450
v 0.086444 0.192928 -0.026155
v -0.005759 0.166796 -0.072550
v 0.038434 -0.177128 -0.097931
v -0.008413 0.132662 0.067284
v 0.061260 0.026827 0.132687
v 0.082404 0.171916 -0.113024
v 0.012684 0.040401 -0.190528
v 0.006486 -0.017195 -0.192675
v -0.009583 0.101420 0.090932
v -0.000884 0.169595 0.004722
v -0.017243 -0.164382 -0.104134
v -0.031576 -0.208149 0.018182
v 0.005299 0.137761 -0.137542
v -0.021543 -0.037526 0.099384
v -0.045284 -0.035484 -0.167533
v -0.005490 0.090797 -0.172271
v 0.003270 -0.112863 -0.143204
v -0.018773 -0.223315 -0.016076
v -0.032316 -0.193201 -0.058042
v -0.061515 -0.170919 0.032102
v -0.016699 0.017033 0.112291
v -0.084668 -0.204068 -0.054361
v -0.052825 -0.104996 0.066709
v -0.106244 -0.165420 -0.082545
v -0.048815 0.081701 0.083064
v -0.090451 -0.020945 0.073969
v -0.099195 0.002081 -0.128327
v -0.068493 0.029811 0.071901
v -0.087027 0.105519 -0.080603
v -0.073798 0.131889 -0.027055
v -0.082793 -0.061627 -0.133263
v -0.102305 -0.130639 0.050426
v -0.092593 0.028024 0.054726
v -0.117971 0.073720 -0.041553
v -0.116145 -0.065823 0.073688
v -0.118295 0.053175 -0.091164
v -0.101762 -0.112289 -0.112268
v -0.107656 0.067904 0.000691
v -0.142862 -0.148859 0.064730
v -0.147122 -0.196302 -0.041622
v -0.140735 -0.148087 -0.120125
v -0.150549 -0.241404 0.089870
v -0.142484 -0.022821 0.073889
v -0.160863 -0.204072 -0.111377
v -0.127530 0.202597 -0.113162
v -0.135327 0.259348 -0.129593
v -0.136658 -0.179457 0.032194
v -0.162125 -0.184205 -0.066562
v -0.138428 0.156529 0.041105
v -0.130585 0.168583 -0.131232
v -0.205313 0.020093 0.065467
v -0.136012 0.221547 0.030093
v -0.141050 -0.062429 -0.132930
v -0.127018 0.241213 0.065472
v -0.187924 -0.261689 0.082755
v -0.141981 0.207494 -0.144179
v -0.147383 0.152688 0.047369
v -0.175588 -0.296260 0.136859
v -0.135891 0.293611 0.046686
v -0.152211 0.247365 0.019981
v -0.142585 0.245093 0.052344
v -0.153669 0.255054 -0.114142
v -0.160649 -0.196302 0.026882
v -0.163100 0.137086 -0.001386
v -0.185793 -0.219231 0.048124
v -0.159346 0.170118 -0.083478
v -0.164575 0.124745 0.016772
v -0.160378 0.148162 -0.074734
v -0.168512 0.279012 -0.137694
v -0.174311 -0.302328 0.103198
v -0.184249 -0.188839 0.105344
v -0.128157 0.191154 -0.154298
v -0.161502 0.160286 -0.131709
v -0.172300 0.205735 0.011211
v -0.176781 0.061787 0.033290
v -0.165360 0.271576 0.033937
v -0.230119 -0.311468 0.104657
v -0.179500 0.137992 -0.009249
v -0.167535 0.195253 0.025417
v -0.187068 0.105479 -0.031835
v -0.152357 0.258286 -0.161044
v -0.194290 -0.172480 -0.019436
v -0.187258 -0.127717 0.086861
v -0.183034 -0.237522 -0.082347
v -0.165071 0.193492 -0.166831
v -0.193314 0.123724 -0.088846
v -0.196791 -0.231832 0.113032
v -0.207743 -0.255985 0.097927
v -0.229092 -0.056449 -0.125355
v -0.207063 -0.049702 0.088064
v -0.235097 -0.285971 0.145642
v -0.230572 -0.267675 -0.086636
v -0.211985 -0.206394 0.067318
v -0.191136 0.101309 -0.072714
v -0.199769 -0.193575 -0.064321
v -0.242687 0.017264 -0.115697
v -0.192771 0.133763 -0.020136
v -0.207121 -0.258913 -0.095513
v -0.228248 -0.313752 0.137105
v -0.196178 0.129536 -0.042795
v -0.182355 -0.107389 -0.148114
v -0.187892 0.099028 0.047843
v -0.217465 -0.167904 0.098232
v -0.176881 0.132839 -0.134361
v -0.221775 0.112102 -0.090697
v -0.203784 -0.199990 -0.140058
v -0.226220 0.167103 -0.041547
v -0.226393 -0.184631 -0.082200
v -0.233242 -0.177183 0.030936
v -0.228312 -0.190726 -0.140711
v -0.216318 0.173141 0.025639
v -0.233587 -0.139527 -0.058739
v -0.235639 -0.182929 -0.110418
v -0.236372 -0.127256 -0.007976
v -0.244616 -0.144672 0.056235
v -0.266241 -0.302647 -0.095092
v -0.251038 0.129868 0.064872
v -0.241108 -0.025025 0.077389
v -0.259781 -0.241624 -0.106250
v -0.227772 -0.096913 -0.129834
v -0.225881 0.100553 -0.096815
v -0.248133 0.174773 -0.057664
v -0.234555 -0.070328 0.069228
v -0.240438 0.049059 0.064564
v -0.257339 -0.303735 -0.128787
v -0.290668 -0.080697 -0.007936
v -0.257366 -0.259032 -0.132319
v -0.311238 -0.262737 -0.126042
v -0.244558 -0.096202 -0.101682
v -0.305629 -0.021025 0.038169
v -0.297441 -0.272039 -0.094293
v -0.270030 0.082307 -0.097554
v -0.310878 -0.290157 -0.123677
v -0.291906 -0.009342 -0.108891
v -0.316136 0.048347 0.019850
v -0.283756 0.208351 0.018337
v -0.284924 0.151720 -0.065703
v -0.322733 -0.025515 -0.049227
v -0.304081 0.049209 -0.057782
v -0.319280 0.159720 0.061882
v -0.341374 0.150141 -0.034885
v -0.321495 0.055546 -0.023499
v -0.334266 0.125154 0.049057
v -0.321389 0.211945 0.005783
v -0.356374 0.138156 0.004406
v -0.350594 0.200316 0.028503
v -0.171846 0.073715 0.003013
v -0.194409 0.075178 -0.074006
f 146 167 151
f 227 218 219
f 151 136 143
f 239 247 249
f 69 73 86
f 113 108 129
f 158 156 163
f 36 44 61
f 169 197 213
f 197 207 219
f 197 219 213
f 146 151 143
f 143 175 146
f 207 227 219
f 175 143 187
f 143 139 187
f 136 139 143
f 222 234 227
f 187 147 194
f 194 147 155
f 227 194 222
f 194 155 222
f 234 222 228
f 234 228 239
f 136 127 139
f 127 130 139
f 139 147 187
f 139 130 147
f 155 228 222
f 239 228 247
f 247 250 249
f 101 102 104
f 104 102 118
f 104 118 127
f 127 118 130
f 147 130 155
f 130 137 155
f 155 137 179
f 228 155 221
f 155 206 221
f 179 206 155
f 247 228 244
f 228 221 244
f 247 244 250
f 101 95 102
f 101 86 95
f 68 95 86
f 118 125 130
f 130 125 132
f 132 137 130
f 125 129 132
f 206 215 221
f 221 240 244
f 221 215 240
f 250 240 248
f 244 240 250
f 73 68 86
f 42 49 73
f 73 63 68
f 42 73 56
f 125 109 113
f 125 113 129
f 153 158 161
f 161 158 165
f 30 26 42
f 21 30 42
f 67 88 63
f 109 88 93
f 109 93 113
f 113 93 108
f 13 21 25
f 21 39 25
f 34 61 67
f 36 61 34
f 67 61 88
f 61 74 88
f 88 90 93
f 88 74 90
f 158 163 165
f 61 60 74
f 165 163 180
f 174 162 203
f 181 203 195
f 174 203 181
f 192 181 195
f 159 174 181
f 146 162 174
f 192 159 181
f 195 191 192
f 162 175 191
f 162 146 175
f 192 191 197
f 197 191 207
f 175 207 191
f 175 187 207
f 207 187 227
f 227 187 194
f 95 68 100
f 95 100 102
f 118 102 125
f 102 109 125
f 100 109 102
f 49 63 73
f 49 59 63
f 63 100 68
f 30 12 26
f 21 12 30
f 42 26 49
f 26 59 49
f 59 67 63
f 34 67 59
f 88 100 63
f 109 100 88
f 13 12 21
f 18 13 25
f 18 25 34
f 25 36 34
f 162 195 203
f 195 162 191
f 12 15 26
f 24 59 26
f 24 34 59
f 17 18 24
f 18 34 24
f 12 16 15
f 16 27 15
f 15 27 26
f 26 27 24
f 16 17 27
f 27 17 24
f 16 12 13
f 16 18 17
f 16 13 18
f 50 48 51
f 160 173 189
f 154 176 149
f 117 120 133
f 51 48 57
f 80 51 57
f 176 154 208
f 177 160 189
f 185 176 189
f 176 208 189
f 189 208 177
f 66 51 80
f 120 131 133
f 133 131 140
f 80 79 94
f 200 131 157
f 131 135 157
f 121 98 107
f 98 94 107
f 135 141 157
f 121 141 135
f 121 115 141
f 121 107 115
f 193 205 224
f 193 157 205
f 224 205 214
f 205 210 214
f 145 210 205
f 84 71 81
f 31 53 58
f 110 81 117
f 81 71 82
f 117 81 120
f 81 82 120
f 50 11 20
f 22 11 50
f 22 50 51
f 120 111 131
f 51 66 62
f 62 66 77
f 111 112 131
f 131 112 119
f 77 66 89
f 89 66 80
f 119 96 121
f 96 98 121
f 89 80 94
f 89 94 96
f 119 121 135
f 96 94 98
f 58 53 71
f 71 53 82
f 31 35 53
f 31 20 35
f 35 20 14
f 14 20 11
f 11 2 14
f 53 65 82
f 82 65 87
f 53 35 65
f 14 64 35
f 8 2 11
f 8 11 22
f 5 8 22
f 82 111 120
f 82 87 111
f 87 65 91
f 35 64 65
f 65 64 91
f 19 62 64
f 32 22 51
f 23 22 32
f 62 32 51
f 19 32 62
f 23 5 22
f 87 91 111
f 64 62 76
f 64 76 91
f 62 77 76
f 111 91 112
f 91 96 112
f 91 76 96
f 77 89 76
f 112 96 119
f 76 89 96
f 2 7 14
f 7 10 14
f 14 19 64
f 14 10 19
f 10 9 19
f 9 32 19
f 9 23 32
f 6 5 23
f 9 6 23
f 4 7 2
f 7 4 10
f 4 3 10
f 1 3 4
f 1 4 2
f 8 1 2
f 1 8 5
f 10 3 6
f 10 6 9
f 3 1 6
f 1 5 6
f 167 146 174
f 167 174 159
f 169 167 159
f 197 169 192
f 169 159 192
f 60 72 78
f 74 60 78
f 90 99 108
f 90 78 99
f 74 78 90
f 44 60 61
f 39 44 36
f 36 25 39
f 163 164 180
f 99 114 108
f 93 90 108
f 55 39 56
f 39 21 56
f 183 165 180
f 164 178 180
f 163 156 164
f 108 114 134
f 55 56 69
f 56 21 42
f 180 178 183
f 156 168 164
f 156 158 153
f 156 153 168
f 161 165 183
f 108 134 129
f 69 56 73
f 161 183 171
f 153 251 168
f 182 171 183
f 179 153 161
f 179 161 171
f 129 137 132
f 83 69 86
f 201 215 206
f 206 171 201
f 251 153 179
f 179 171 206
f 137 142 179
f 83 86 101
f 245 249 250
f 245 246 249
f 249 246 239
f 242 239 246
f 124 127 136
f 124 104 127
f 239 242 234
f 124 136 151
f 116 124 151
f 230 234 242
f 230 227 234
f 218 227 230
f 218 213 219
f 186 213 218
f 186 167 169
f 186 169 213
f 60 46 72
f 40 38 46
f 40 46 60
f 44 40 60
f 99 105 114
f 78 105 99
f 40 44 41
f 54 41 55
f 44 39 41
f 164 168 178
f 70 55 83
f 83 55 69
f 215 226 240
f 183 178 182
f 168 182 178
f 182 168 184
f 129 134 137
f 137 134 142
f 134 138 142
f 240 226 248
f 248 226 241
f 215 211 226
f 215 201 211
f 201 204 211
f 171 182 201
f 168 251 184
f 182 184 201
f 179 142 251
f 142 138 251
f 250 248 245
f 248 241 245
f 92 83 97
f 97 83 101
f 243 246 245
f 97 101 104
f 246 243 242
f 97 104 124
f 97 124 116
f 122 97 116
f 233 230 242
f 233 218 230
f 216 186 218
f 144 151 186
f 151 167 186
f 122 116 151
f 122 151 144
f 28 33 38
f 38 52 46
f 40 28 38
f 72 85 78
f 29 28 40
f 78 85 105
f 29 40 41
f 144 186 152
f 126 122 144
f 45 29 54
f 54 29 41
f 105 106 114
f 114 106 134
f 54 55 70
f 58 71 75
f 141 145 157
f 157 145 205
f 157 193 200
f 79 92 94
f 149 176 150
f 50 20 48
f 150 176 185
f 166 173 160
f 173 185 189
f 20 45 48
f 110 117 106
f 45 20 31
f 37 45 31
f 37 31 58
f 84 81 110
f 85 84 110
f 47 37 58
f 47 58 75
f 84 75 71
f 75 84 85
f 229 220 237
f 232 229 237
f 231 229 232
f 223 231 232
f 235 223 232
f 235 232 237
f 202 220 229
f 210 202 229
f 214 231 223
f 231 210 229
f 148 202 210
f 148 188 202
f 217 214 223
f 210 231 214
f 148 152 188
f 148 144 152
f 210 145 148
f 217 233 214
f 148 128 144
f 224 214 233
f 193 224 233
f 115 123 128
f 128 123 126
f 145 128 148
f 141 128 145
f 193 233 238
f 107 103 115
f 141 115 128
f 238 200 193
f 236 200 238
f 92 103 94
f 94 103 107
f 252 200 225
f 225 200 236
f 140 131 200
f 198 252 225
f 208 198 225
f 138 133 140
f 209 208 225
f 177 209 190
f 177 208 209
f 208 154 198
f 70 92 79
f 57 79 80
f 57 70 79
f 170 177 190
f 54 70 57
f 134 106 133
f 106 117 133
f 170 160 177
f 154 149 172
f 172 149 170
f 170 149 160
f 160 149 166
f 48 54 57
f 149 150 166
f 166 150 173
f 48 45 54
f 110 106 105
f 37 29 45
f 105 85 110
f 28 29 37
f 43 28 37
f 43 37 47
f 47 75 46
f 52 47 46
f 72 75 85
f 46 75 72
f 33 43 47
f 33 47 52
f 33 28 43
f 38 33 52
f 220 235 237
f 220 196 235
f 202 196 220
f 196 223 235
f 188 196 202
f 188 199 196
f 196 212 223
f 223 212 217
f 196 199 212
f 152 199 188
f 199 216 212
f 199 186 216
f 152 186 199
f 217 212 233
f 212 216 233
f 128 126 144
f 233 216 218
f 238 233 242
f 123 122 126
f 243 238 242
f 123 103 122
f 103 97 122
f 115 103 123
f 236 238 243
f 245 236 243
f 103 92 97
f 140 252 138
f 226 236 241
f 226 225 236
f 226 209 225
f 241 236 245
f 70 83 92
f 198 201 184
f 154 172 198
f 204 209 226
f 190 209 204
f 198 204 201
f 172 204 198
f 211 204 226
f 134 133 138
f 170 204 172
f 170 190 204
f 41 39 55
f 150 185 173
f 135 131 119
f 198 184 252
f 138 252 251
f 200 252 140
f 184 251 252
