v 0.454704 -0.110947 -0.083954
v 0.436193 -0.100872 -0.097649
v 0.432656 -0.078613 -0.067573
v 0.417949 -0.149719 0.018174
v 0.429786 -0.118295 -0.103553
v 0.394680 -0.117900 0.002807
v 0.368317 -0.110194 0.030648
v 0.392456 -0.179969 0.025261
v 0.352303 -0.049183 -0.082512
v 0.361870 -0.035561 -0.048275
v 0.376347 0.103826 -0.036494
v 0.357450 0.151112 -0.039903
v 0.365887 0.047674 -0.062668
v 0.363069 -0.033982 0.009423
v 0.390569 -0.077493 -0.064358
v 0.365753 0.062046 0.013208
v 0.367893 0.137587 -0.011024
v 0.373661 0.059002 -0.025254
v 0.391261 -0.158454 0.062577
v 0.366689 -0.068228 -0.106416
v 0.363779 -0.105200 0.014685
v 0.353543 0.021074 0.017834
v 0.347955 0.014555 -0.054917
v 0.359505 -0.075832 -0.091367
v 0.315175 0.112522 0.030460
v 0.362415 -0.123431 0.056661
v 0.402661 -0.044955 -0.067866
v 0.321391 -0.010703 -0.059410
v 0.345462 -0.094749 0.033777
v 0.311031 0.012292 -0.086895
v 0.333926 -0.001491 -0.008639
v 0.322983 -0.038100 0.032656
v 0.316485 0.114287 -0.077237
v 0.342302 -0.036732 0.004220
v 0.293391 0.030742 0.055694
v 0.322963 -0.011877 -0.027516
v 0.315049 0.023799 0.042147
v 0.289444 0.029211 -0.099601
v 0.324494 -0.013644 -0.008766
v 0.281536 -0.023220 0.017959
v 0.313027 -0.028386 -0.068820
v 0.315349 0.154220 -0.019277
v 0.279528 -0.003817 0.044647
v 0.283845 -0.024474 -0.058181
v 0.240489 0.046572 -0.088064
v 0.266051 0.032674 0.055989
v 0.284038 -0.006384 -0.085531
v 0.292852 0.136432 -0.049273
v 0.274612 0.103089 0.023756
v 0.239379 0.056033 0.035082
v 0.239677 -0.064457 -0.039420
v 0.224269 -0.068540 -0.075887
v 0.255957 -0.049147 -0.016646
v 0.200872 -0.086420 0.037950
v 0.241658 -0.033938 0.042428
v 0.223278 0.089097 -0.033998
v 0.231952 -0.011089 -0.103230
v 0.205385 0.038728 0.056671
v 0.218966 0.082341 -0.001704
v 0.222724 -0.020858 0.060596
v 0.165215 0.063530 0.029480
v 0.136772 -0.032062 0.071055
v 0.146179 -0.072412 -0.104674
v 0.144171 0.060029 0.077747
v 0.162552 0.059083 -0.081801
v 0.145193 0.176760 0.072814
v 0.187774 -0.099123 -0.073359
v 0.114835 0.210101 0.075769
v 0.142830 0.057795 -0.120842
v 0.151619 0.077159 -0.018817
v 0.137499 0.218209 -0.132029
v 0.115476 0.150743 0.082657
v 0.178219 0.024871 0.077453
v 0.190474 -0.109585 -0.017630
v 0.141548 0.088733 0.008196
v 0.177009 0.019590 -0.122599
v 0.125874 0.108662 0.081937
v 0.122796 0.098136 -0.132829
v 0.103847 0.141807 0.064759
v 0.111263 0.178657 -0.110876
v 0.117156 0.190518 -0.155050
v 0.137842 0.185427 0.111358
v 0.112416 -0.152449 -0.021943
v 0.115606 0.125602 -0.099896
v 0.155473 -0.071023 0.058385
v 0.102592 0.144320 -0.139554
v 0.099578 0.098448 0.003522
v 0.113524 0.217958 -0.161166
v 0.130080 0.086696 -0.050392
v 0.100563 0.194292 0.101450
v 0.115572 0.040695 -0.130225
v 0.077843 0.218102 -0.118985
v 0.079831 0.129531 0.092769
v 0.059481 -0.048718 0.074416
v 0.087465 -0.139127 -0.074329
v 0.082923 0.154123 0.052623
v 0.084868 0.117635 -0.134641
v 0.122570 0.041837 0.082642
v 0.077399 0.204143 -0.147811
v 0.065975 0.144516 -0.085752
v 0.063643 0.155612 -0.113814
v 0.056753 0.127867 0.031364
v 0.097016 -0.138380 0.030983
v 0.114042 -0.025464 -0.115520
v 0.020735 0.090628 -0.033130
v 0.047910 0.158175 0.042756
v 0.064943 0.076934 0.059147
v 0.052637 0.090422 -0.107513
v 0.077001 -0.001966 -0.107417
v 0.058901 -0.174419 0.025813
v 0.043598 0.134067 0.053266
v 0.088754 -0.004255 0.069066
v 0.051486 0.131067 -0.089457
v 0.063320 -0.111361 0.074727
v 0.063883 -0.056124 -0.116315
v 0.059205 0.076573 0.024842
v 0.060479 0.088676 -0.064148
v 0.043351 0.029129 -0.087757
v 0.042268 0.037052 0.040039
v 0.070253 -0.114465 -0.112185
v 0.006258 0.031751 -0.091945
v 0.024576 -0.209678 -0.017485
v 0.029893 -0.191144 -0.065983
v 0.021640 -0.067050 -0.130981
v 0.037738 -0.095330 0.088952
v 0.018474 0.030425 0.040920
v 0.002687 0.067753 -0.057748
v -0.005028 -0.099935 0.107635
v -0.010694 -0.209045 0.026596
v 0.018501 -0.169995 -0.095601
v -0.024535 0.056204 0.046270
v -0.002726 0.081788 -0.009778
v -0.048137 0.002754 -0.164039
v -0.041054 -0.029493 -0.169424
v -0.086164 -0.162520 0.108264
v 0.021526 -0.154445 0.067251
v -0.034844 0.043593 -0.112059
v 0.003099 -0.108132 -0.143852
v 0.009745 -0.047771 0.088791
v -0.026321 -0.221626 -0.053724
v -0.038344 0.009570 0.105786
v -0.062064 0.045747 0.076216
v -0.097289 0.000784 -0.179057
v -0.074654 -0.146800 -0.155015
v -0.038823 -0.092341 -0.163137
v -0.066565 0.044083 -0.113167
v -0.097066 0.074609 -0.147658
v -0.060300 0.082704 -0.047087
v -0.049752 -0.186983 0.071421
v -0.111204 -0.086177 -0.167254
v -0.085927 0.069806 0.096109
v -0.063444 0.034919 0.123554
v -0.130262 0.075154 -0.009710
v -0.120983 0.038563 -0.073433
v -0.058940 0.083170 -0.001619
v -0.074266 0.051210 0.049676
v -0.043530 -0.026599 0.125902
v -0.090984 -0.219077 0.037923
v -0.077375 -0.127556 0.119778
v -0.065714 -0.239561 -0.019440
v -0.160378 0.082467 0.119013
v -0.110920 0.042563 0.029498
v -0.098949 -0.176721 -0.140176
v -0.145099 -0.001315 0.132654
v -0.133941 0.075981 -0.120083
v -0.109952 0.066345 -0.168766
v -0.097167 -0.212471 -0.091296
v -0.131914 0.084777 0.070729
v -0.167981 0.041363 -0.099102
v -0.136417 0.071022 -0.042374
v -0.160935 0.085925 -0.144338
v -0.137961 -0.229296 -0.019376
v -0.181194 0.030463 0.021908
v -0.181572 0.023798 -0.168429
v -0.140423 -0.209261 0.039009
v -0.132678 0.090620 0.095721
v -0.153364 -0.016740 -0.176057
v -0.095876 -0.201171 0.068181
v -0.157646 -0.055877 0.122785
v -0.225051 0.047171 -0.100920
v -0.233670 0.047622 0.050771
v -0.156190 0.047156 0.050313
v -0.172280 0.035898 0.121141
v -0.176977 0.076389 -0.171630
v -0.208664 0.115781 0.109777
v -0.222597 -0.044928 -0.158396
v -0.229112 0.003919 -0.155740
v -0.207134 0.117556 0.073695
v -0.196177 -0.189119 0.040781
v -0.187015 -0.193106 -0.087087
v -0.229185 0.169087 0.093566
v -0.259644 0.103627 0.114068
v -0.187827 -0.171233 -0.122165
v -0.240065 0.022762 0.030256
v -0.239025 0.168276 0.116147
v -0.253009 -0.053118 0.101960
v -0.248273 0.171358 0.065046
v -0.215339 0.111176 -0.170915
v -0.257665 0.096293 -0.117843
v -0.248968 0.228056 0.074207
v -0.227359 0.230511 0.111780
v -0.235630 -0.156860 0.049853
v -0.177487 -0.168240 0.086750
v -0.243266 -0.168534 -0.017889
v -0.209459 0.110394 -0.134423
v -0.230649 0.008434 0.110170
v -0.253012 0.093843 0.058461
v -0.251946 0.155579 -0.179221
v -0.251471 0.208235 0.129615
v -0.268837 0.240268 0.118801
v -0.261379 0.202014 -0.179148
v -0.185015 0.025581 -0.069609
v -0.267028 0.161256 0.115010
v -0.242305 0.017491 -0.081051
v -0.246696 0.034971 -0.146550
v -0.226664 0.057072 0.117565
v -0.283936 0.146920 0.064578
v -0.278053 0.089144 0.101012
v -0.273691 0.064980 -0.151435
v -0.262169 -0.074067 -0.135973
v -0.260303 0.016069 0.055406
v -0.284349 0.160687 0.100662
v -0.275067 0.080443 0.064872
v -0.260503 0.038013 0.075762
v -0.238020 0.027382 -0.025018
v -0.236831 -0.156632 -0.094849
v -0.304857 0.218245 -0.181961
v -0.280097 0.206981 -0.150166
v -0.273949 0.076140 -0.120342
v -0.269720 -0.025810 0.083811
v -0.262818 0.088322 -0.172880
v -0.286769 0.146566 -0.184967
v -0.277570 -0.086318 0.068056
v -0.283747 0.196914 -0.205614
v -0.282556 -0.115451 -0.027733
v -0.261494 0.014017 -0.105404
v -0.286776 -0.067978 -0.109527
v -0.302255 -0.023879 -0.015478
v -0.303934 0.148807 -0.170817
v -0.299865 0.134285 -0.129873
v -0.301900 -0.056020 0.017596
v -0.288040 -0.092852 -0.062173
v -0.301771 -0.067860 -0.069795
v -0.302004 -0.026584 -0.036268
v -0.282557 -0.105423 0.012915
v -0.317437 -0.112662 -0.040965
v -0.318628 -0.061359 0.022512
v -0.334658 -0.027068 -0.007908
v -0.336296 -0.032941 -0.046435
v -0.350831 -0.081309 0.000730
v -0.355894 -0.053077 -0.017083
v -0.351584 -0.080866 -0.040301
f 72 82 93
f 176 168 161
f 93 82 90
f 185 188 195
f 195 188 191
f 192 195 213
f 192 213 222
f 161 188 185
f 185 195 192
f 218 192 222
f 161 151 176
f 216 161 185
f 183 161 216
f 185 192 216
f 216 192 218
f 164 161 183
f 206 183 216
f 152 141 142
f 141 152 157
f 157 152 164
f 164 152 161
f 139 141 157
f 164 183 206
f 196 164 206
f 196 206 230
f 159 157 164
f 159 164 179
f 164 196 179
f 179 196 203
f 159 128 157
f 159 179 203
f 135 128 159
f 205 198 208
f 205 208 228
f 99 81 86
f 88 81 99
f 81 71 80
f 71 81 88
f 240 227 239
f 208 211 228
f 88 99 92
f 228 227 240
f 134 150 143
f 150 134 145
f 177 150 186
f 143 150 177
f 133 134 143
f 174 177 187
f 174 143 177
f 166 143 174
f 166 174 184
f 198 174 231
f 184 174 198
f 232 231 239
f 208 231 232
f 208 198 231
f 234 239 227
f 232 239 234
f 234 208 232
f 234 211 208
f 211 234 227
f 228 211 227
f 138 120 130
f 130 120 95
f 20 2 5
f 115 124 121
f 220 193 226
f 220 186 193
f 115 138 124
f 115 120 138
f 63 120 115
f 20 24 47
f 20 5 24
f 152 151 161
f 237 220 226
f 104 63 115
f 57 52 63
f 118 115 121
f 109 104 115
f 76 63 104
f 76 57 63
f 236 220 237
f 121 134 133
f 91 104 109
f 76 104 91
f 45 38 57
f 215 187 236
f 121 133 137
f 97 109 118
f 57 76 45
f 121 124 134
f 187 220 236
f 10 31 36
f 27 9 28
f 27 28 31
f 249 244 243
f 244 249 238
f 60 58 73
f 136 135 149
f 210 217 222
f 64 98 73
f 206 221 230
f 221 206 224
f 233 196 230
f 60 73 62
f 62 73 98
f 62 98 112
f 94 62 112
f 125 94 139
f 125 139 128
f 139 157 128
f 114 94 125
f 136 125 128
f 203 196 233
f 114 125 136
f 136 128 135
f 135 159 203
f 202 203 233
f 149 135 178
f 178 135 203
f 209 201 210
f 201 200 210
f 195 201 209
f 209 210 213
f 213 210 222
f 68 90 82
f 191 201 195
f 195 209 213
f 66 82 72
f 238 214 244
f 238 225 214
f 212 214 225
f 18 13 11
f 153 170 225
f 170 212 225
f 170 154 212
f 127 118 121
f 105 118 127
f 117 118 105
f 56 65 70
f 48 45 56
f 12 11 33
f 153 148 170
f 148 154 170
f 127 137 148
f 132 127 148
f 105 127 132
f 89 100 117
f 12 33 42
f 160 172 167
f 140 160 167
f 130 140 167
f 130 123 140
f 193 190 226
f 130 95 123
f 95 83 123
f 111 90 106
f 96 102 106
f 68 96 106
f 160 129 158
f 172 175 189
f 172 158 175
f 110 136 129
f 110 129 122
f 4 8 6
f 21 8 29
f 6 8 21
f 204 202 245
f 83 54 103
f 74 54 83
f 7 6 14
f 4 6 7
f 53 54 74
f 34 21 29
f 6 21 34
f 34 14 6
f 32 7 14
f 245 247 250
f 245 241 247
f 245 233 241
f 202 233 245
f 55 54 53
f 51 53 74
f 55 43 60
f 43 46 60
f 37 35 43
f 109 115 118
f 236 237 243
f 20 47 9
f 2 20 9
f 63 95 120
f 30 38 33
f 214 236 244
f 13 23 30
f 236 243 244
f 28 9 30
f 30 9 47
f 41 44 47
f 38 30 47
f 38 47 57
f 47 52 57
f 237 242 243
f 24 41 47
f 47 44 51
f 47 51 52
f 237 226 242
f 3 2 27
f 3 10 15
f 27 2 9
f 5 15 24
f 24 15 41
f 63 52 67
f 1 2 3
f 15 1 3
f 1 15 5
f 63 67 95
f 67 83 95
f 241 230 238
f 94 126 139
f 112 119 94
f 60 46 58
f 46 50 58
f 43 35 46
f 230 221 238
f 141 126 131
f 139 126 141
f 119 126 94
f 112 107 119
f 73 61 64
f 58 61 73
f 50 61 58
f 46 49 50
f 35 49 46
f 37 25 35
f 181 221 224
f 181 224 223
f 194 221 181
f 181 182 194
f 162 173 182
f 182 156 162
f 151 156 182
f 151 142 156
f 142 131 156
f 119 107 116
f 35 25 49
f 207 181 223
f 181 168 182
f 116 107 111
f 102 116 111
f 77 75 79
f 61 75 77
f 106 102 111
f 197 207 217
f 40 43 55
f 34 29 43
f 42 33 48
f 39 43 40
f 39 34 43
f 31 37 32
f 31 22 37
f 14 31 32
f 250 248 251
f 247 248 250
f 238 248 247
f 241 238 247
f 18 16 22
f 221 194 238
f 194 225 238
f 194 173 225
f 182 173 194
f 50 59 61
f 16 37 22
f 16 25 37
f 162 153 173
f 126 132 131
f 126 119 132
f 119 116 132
f 61 70 75
f 61 59 70
f 49 56 59
f 50 49 59
f 16 17 25
f 162 155 153
f 156 155 162
f 131 155 156
f 131 132 155
f 87 105 116
f 79 75 87
f 31 14 34
f 116 105 132
f 25 42 49
f 96 87 102
f 79 87 96
f 23 28 30
f 3 27 10
f 15 10 41
f 249 243 252
f 10 27 31
f 23 31 28
f 41 36 44
f 252 243 246
f 10 36 41
f 44 53 51
f 226 235 242
f 242 235 246
f 243 242 246
f 52 51 67
f 67 74 83
f 226 204 235
f 190 172 204
f 190 204 226
f 83 122 123
f 123 122 140
f 167 172 190
f 17 12 42
f 11 12 17
f 49 42 56
f 42 48 56
f 87 89 117
f 87 117 105
f 155 132 148
f 155 148 153
f 11 17 16
f 172 160 158
f 122 129 160
f 122 160 140
f 83 110 122
f 172 189 204
f 83 103 110
f 204 189 202
f 67 51 74
f 235 245 246
f 204 245 235
f 252 246 250
f 246 245 250
f 53 40 55
f 252 250 251
f 44 40 53
f 36 40 44
f 36 39 40
f 31 39 36
f 31 34 39
f 23 22 31
f 251 249 252
f 248 249 251
f 238 249 248
f 18 22 23
f 13 18 23
f 173 153 225
f 75 89 87
f 75 70 89
f 70 65 89
f 59 56 70
f 18 11 16
f 56 45 65
f 33 13 30
f 11 13 33
f 214 180 236
f 212 180 214
f 212 169 180
f 154 169 212
f 146 169 154
f 148 146 154
f 148 137 146
f 127 121 137
f 117 108 118
f 45 33 38
f 113 108 117
f 117 100 113
f 89 84 100
f 78 84 89
f 89 65 78
f 33 45 48
f 80 100 84
f 100 101 113
f 130 167 163
f 167 190 193
f 193 163 167
f 138 130 144
f 1 5 2
f 65 45 76
f 130 163 144
f 191 197 200
f 201 191 200
f 200 217 210
f 68 106 90
f 64 61 77
f 200 197 217
f 82 66 68
f 66 96 68
f 66 72 96
f 96 72 79
f 93 90 111
f 188 197 191
f 188 207 197
f 79 72 93
f 161 168 188
f 188 168 181
f 217 207 223
f 218 222 223
f 223 222 217
f 77 79 93
f 107 93 111
f 151 168 176
f 188 181 207
f 216 218 224
f 224 218 223
f 64 77 93
f 64 93 98
f 98 93 107
f 152 142 151
f 168 151 182
f 206 216 224
f 98 107 112
f 141 131 142
f 4 7 19
f 178 175 158
f 158 149 178
f 136 149 158
f 129 136 158
f 8 19 26
f 189 203 202
f 189 178 203
f 175 178 189
f 110 114 136
f 103 114 110
f 29 8 26
f 19 7 26
f 103 85 114
f 54 85 103
f 26 32 29
f 7 32 26
f 85 94 114
f 85 62 94
f 54 60 85
f 54 55 60
f 29 32 43
f 32 37 43
f 85 60 62
f 230 241 233
f 150 163 193
f 150 144 163
f 186 150 193
f 145 138 144
f 134 138 145
f 124 138 134
f 186 220 187
f 187 177 186
f 137 133 146
f 174 215 231
f 147 133 166
f 146 133 147
f 231 215 219
f 166 184 171
f 147 166 171
f 239 219 240
f 231 219 239
f 205 184 198
f 205 171 184
f 86 78 97
f 150 145 144
f 187 215 174
f 133 143 166
f 91 109 97
f 91 69 76
f 65 76 69
f 80 86 81
f 71 88 92
f 80 71 92
f 80 92 100
f 92 99 101
f 100 92 101
f 199 205 228
f 199 228 240
f 86 80 84
f 99 86 97
f 99 97 101
f 101 97 108
f 113 101 108
f 180 205 199
f 199 240 229
f 219 229 240
f 86 84 78
f 146 147 165
f 165 147 171
f 165 171 205
f 169 165 180
f 165 205 180
f 180 199 229
f 236 180 229
f 65 69 78
f 69 91 78
f 97 78 91
f 108 97 118
f 169 146 165
f 215 236 219
f 219 236 229
f 102 87 116
f 17 42 25
f 8 4 19
