v 0.463682 -0.138257 -0.111196
v 0.462745 -0.098386 -0.090995
v 0.486969 -0.097738 -0.130530
v 0.458498 -0.114638 -0.150476
v 0.408375 -0.187260 0.139388
v 0.391536 -0.122514 -0.131283
v 0.425784 -0.073022 -0.120951
v 0.405202 -0.089948 -0.152729
v 0.385525 -0.165708 0.193545
v 0.379043 -0.097997 0.103884
v 0.423073 -0.172439 0.178223
v 0.382828 -0.185862 0.136561
v 0.317903 -0.086733 -0.177904
v 0.335585 -0.112784 -0.161209
v 0.374907 -0.052908 -0.101624
v 0.383088 -0.197058 0.175609
v 0.353629 -0.123391 0.165112
v 0.370544 -0.092566 0.144793
v 0.353142 -0.147273 0.114691
v 0.390970 -0.104700 -0.096896
v 0.340008 -0.143693 0.144329
v 0.374182 -0.050556 -0.149360
v 0.361508 -0.101648 0.092599
v 0.311500 -0.027408 0.097419
v 0.317854 -0.096310 -0.117096
v 0.345276 0.109425 -0.023714
v 0.300504 0.036813 -0.025217
v 0.314033 -0.037743 0.070677
v 0.340620 0.067502 -0.033621
v 0.289188 -0.121248 0.093146
v 0.329189 -0.028941 -0.146890
v 0.326110 0.078632 0.029498
v 0.330674 0.128726 0.001675
v 0.314398 -0.047846 -0.113523
v 0.302162 -0.052288 -0.176425
v 0.319330 -0.116161 -0.132535
v 0.246186 -0.010735 -0.185307
v 0.291323 -0.061469 0.133935
v 0.287345 0.010870 -0.118990
v 0.292971 0.086708 -0.066956
v 0.305420 0.136408 -0.037605
v 0.296646 -0.078665 0.072360
v 0.270858 0.004082 0.023381
v 0.275090 0.004934 -0.161102
v 0.270189 0.003613 0.059207
v 0.256176 -0.002710 0.120799
v 0.267989 0.087963 -0.143895
v 0.294333 0.052169 0.015742
v 0.272451 0.110439 -0.066272
v 0.260603 0.115528 0.028438
v 0.281893 -0.118266 0.135690
v 0.260060 -0.014463 -0.021094
v 0.287816 0.144872 0.002705
v 0.233746 -0.081407 -0.191303
v 0.260461 0.077589 0.085683
v 0.242970 -0.036332 0.058820
v 0.237350 -0.114284 -0.174337
v 0.251484 0.137593 -0.031651
v 0.209785 0.033902 0.131434
v 0.214686 0.150000 -0.099524
v 0.249729 -0.022886 -0.101235
v 0.194052 -0.119565 0.131079
v 0.248093 -0.045108 -0.112355
v 0.219109 -0.119954 0.094926
v 0.228210 -0.104589 -0.138078
v 0.207242 -0.096034 0.072811
v 0.146783 0.011874 -0.200919
v 0.206026 0.128095 -0.144371
v 0.188237 -0.134388 -0.149529
v 0.180677 0.007585 0.139396
v 0.231527 -0.086566 0.135254
v 0.187186 -0.070774 0.031347
v 0.204550 -0.099622 -0.032801
v 0.199625 0.147700 0.055443
v 0.146416 -0.125642 0.066736
v 0.228023 0.036257 -0.183693
v 0.171192 -0.100100 -0.114187
v 0.231989 0.089046 0.109504
v 0.186197 -0.082233 -0.080511
v 0.185537 0.174357 -0.040614
v 0.175542 -0.130988 -0.188164
v 0.139502 -0.127820 0.019755
v 0.134178 0.186104 -0.066922
v 0.127474 -0.133578 -0.140946
v 0.120287 0.164525 -0.133276
v 0.128413 -0.175040 -0.050425
v 0.135023 0.183629 0.006932
v 0.120806 -0.043885 -0.209380
v 0.113325 -0.180195 -0.066718
v 0.097357 -0.137859 0.057120
v 0.111843 -0.115570 -0.197778
v 0.111512 -0.108174 0.137444
v 0.097375 -0.015691 0.140795
v 0.159472 -0.141351 0.107265
v 0.153418 0.155739 0.077052
v 0.095426 0.093697 0.109878
v 0.078737 -0.162886 -0.120480
v 0.117651 0.143387 0.090027
v 0.076689 -0.188581 -0.014562
v 0.055798 -0.173148 0.016864
v 0.038690 -0.118633 0.099868
v 0.012571 0.023563 -0.201258
v 0.055658 -0.121463 -0.195053
v 0.030900 -0.079632 -0.204663
v 0.115506 0.134783 -0.155017
v 0.055031 -0.084708 0.133288
v 0.081319 0.067717 -0.187940
v 0.086251 0.160032 0.068710
v 0.015578 0.174533 0.006521
v 0.015628 -0.175071 -0.124808
v 0.043715 -0.204300 -0.056617
v 0.035968 -0.195713 -0.007919
v -0.017248 -0.088113 0.083050
v -0.029484 -0.149324 0.046630
v 0.049691 0.057408 0.122433
v 0.053401 0.187119 -0.057164
v -0.022845 -0.193355 -0.076560
v -0.005477 0.092388 -0.179095
v -0.032194 0.085732 0.097936
v -0.001883 -0.007741 0.122125
v -0.036792 -0.225515 -0.010343
v -0.088137 -0.048377 -0.142386
v -0.055732 -0.222368 -0.048434
v 0.002752 0.147336 -0.131469
v -0.053575 -0.154865 -0.120951
v -0.074181 -0.014548 -0.164617
v -0.043251 -0.027145 0.096868
v -0.008476 -0.106669 -0.156375
v -0.106453 -0.198837 0.010585
v -0.084788 0.017555 0.067372
v -0.053424 -0.117819 0.060802
v -0.078777 0.129113 -0.064029
v -0.012901 0.171854 -0.032274
v -0.072643 -0.175892 0.022618
v -0.013835 0.145505 0.047610
v -0.079201 0.124151 -0.010759
v -0.095654 0.068419 0.022398
v -0.090858 -0.092757 -0.132780
v -0.169826 -0.192530 -0.020934
v -0.130279 -0.032548 0.078225
v -0.131810 -0.122135 -0.115519
v -0.114259 0.068167 -0.087547
v -0.115497 0.085685 -0.030346
v -0.118551 -0.155098 0.033333
v -0.111309 0.019788 -0.127061
v -0.171983 -0.250082 0.075191
v -0.148471 -0.183567 -0.078840
v -0.126890 0.176780 0.057768
v -0.175209 0.058194 -0.102175
v -0.137008 0.167202 0.068345
v -0.148084 -0.173948 0.037108
v -0.200120 -0.127354 0.086833
v -0.120572 0.225240 -0.139316
v -0.106626 -0.073819 0.068859
v -0.124880 0.220887 -0.093796
v -0.108754 0.281411 0.091900
v -0.127411 0.278181 0.080607
v -0.203307 -0.193708 0.010959
v -0.155322 -0.150666 0.058923
v -0.160617 0.159716 -0.057535
v -0.147144 0.281697 -0.119732
v -0.145594 0.177196 -0.126776
v -0.125709 0.219272 0.046836
v -0.214356 -0.320733 0.094990
v -0.164194 0.135807 0.003270
v -0.120292 0.300942 0.063619
v -0.157237 0.224317 -0.161613
v -0.169071 0.077368 0.033723
v -0.138502 0.216245 -0.135279
v -0.185532 0.149865 -0.057293
v -0.151046 -0.046137 -0.135802
v -0.185609 -0.251807 0.059821
v -0.208585 -0.267580 0.121495
v -0.227957 -0.219935 -0.135235
v -0.194912 -0.308892 0.106545
v -0.162570 0.139209 0.028644
v -0.166529 0.232657 0.042013
v -0.181039 -0.197642 -0.110089
v -0.172446 0.171130 -0.117691
v -0.126123 0.283065 -0.105493
v -0.156909 0.202801 0.022419
v -0.176325 0.085421 0.001372
v -0.179920 -0.105852 -0.146991
v -0.216364 -0.077160 -0.151369
v -0.155877 0.302523 -0.132054
v -0.246773 -0.315057 0.135572
v -0.214044 -0.249868 0.068804
v -0.203119 0.120517 0.073228
v -0.207524 -0.025613 0.093358
v -0.240578 -0.241245 -0.095639
v -0.190128 0.040019 0.066167
v -0.191377 -0.205677 0.101564
v -0.220050 -0.210970 0.101122
v -0.200452 0.013541 -0.123143
v -0.229672 -0.210156 0.070049
v -0.239644 -0.267060 0.103003
v -0.175881 0.109726 0.054056
v -0.188773 0.131584 -0.022807
v -0.190998 0.154938 -0.003809
v -0.235823 -0.105494 0.085373
v -0.205804 -0.170325 -0.064988
v -0.253667 -0.171973 0.027721
v -0.197435 0.120126 -0.065650
v -0.221866 0.113005 -0.085655
v -0.199136 0.082087 -0.062519
v -0.266877 -0.309848 0.094571
v -0.249956 -0.183963 -0.092007
v -0.206129 0.152805 -0.044501
v -0.216208 0.188928 0.051000
v -0.249507 -0.074266 -0.130900
v -0.258704 -0.153907 -0.147933
v -0.233870 0.130859 -0.082866
v -0.233971 0.058900 -0.098901
v -0.249864 -0.127480 -0.017344
v -0.266913 -0.289742 0.131779
v -0.207034 0.188081 0.027528
v -0.261262 -0.098731 -0.052387
v -0.238520 -0.192965 -0.150620
v -0.262133 -0.134207 0.063172
v -0.291701 -0.292236 -0.130926
v -0.263632 -0.180488 -0.130198
v -0.251965 -0.071719 0.057906
v -0.220383 -0.040256 -0.131947
v -0.300866 -0.247284 -0.104821
v -0.277761 -0.013833 0.076136
v -0.277911 0.159892 0.087099
v -0.251552 -0.042954 0.077919
v -0.247112 0.199807 -0.038695
v -0.214063 0.071530 0.080614
v -0.245451 0.059684 0.076627
v -0.289334 -0.055808 -0.081787
v -0.290697 -0.082752 -0.009574
v -0.334684 0.150742 0.073601
v -0.299125 0.009410 -0.106452
v -0.299277 -0.286244 -0.105146
v -0.302382 -0.231791 -0.132596
v -0.308175 -0.274816 -0.153225
v -0.347774 -0.270622 -0.136369
v -0.339576 -0.011792 -0.007911
v -0.279497 0.075894 -0.091589
v -0.344032 -0.242585 -0.146525
v -0.333635 0.006991 -0.055310
v -0.321819 -0.011743 0.038222
v -0.300306 0.084561 -0.066043
v -0.350181 0.147532 0.000683
v -0.323018 0.060349 0.034232
v -0.326759 0.067331 -0.011186
v -0.310694 0.168062 -0.044176
v -0.331639 0.212833 0.074082
v -0.287193 0.234414 0.018577
v -0.356736 0.176495 0.046615
v -0.352546 0.217757 0.030338
f 168 150 197
f 209 188 216
f 150 157 176
f 42 30 64
f 156 163 166
f 151 192 146
f 222 200 227
f 140 191 189
f 130 191 140
f 189 191 230
f 230 191 229
f 230 233 246
f 230 229 233
f 246 233 251
f 90 101 100
f 131 127 154
f 113 127 131
f 130 168 191
f 229 191 168
f 229 168 197
f 229 197 188
f 233 229 226
f 229 188 226
f 233 226 249
f 249 251 233
f 249 252 251
f 75 94 90
f 90 94 101
f 127 130 154
f 127 120 130
f 188 209 226
f 226 209 249
f 75 64 94
f 130 120 119
f 168 148 150
f 64 51 62
f 66 64 75
f 64 62 94
f 64 30 51
f 115 96 119
f 156 148 163
f 148 156 150
f 150 156 157
f 12 21 19
f 5 12 19
f 23 5 19
f 19 21 30
f 23 19 30
f 30 21 51
f 96 98 108
f 96 108 119
f 10 11 5
f 10 5 23
f 18 11 10
f 18 24 38
f 10 24 18
f 38 24 46
f 46 59 70
f 169 161 167
f 55 78 46
f 46 78 59
f 96 59 78
f 78 95 96
f 96 95 98
f 187 164 206
f 187 172 164
f 187 206 196
f 195 187 196
f 164 146 175
f 172 146 164
f 146 173 175
f 193 195 196
f 195 193 219
f 146 192 173
f 173 192 193
f 193 200 219
f 193 192 200
f 192 152 200
f 192 159 152
f 219 200 222
f 152 189 200
f 189 227 200
f 152 140 189
f 227 189 225
f 189 230 225
f 94 92 101
f 101 92 106
f 101 106 113
f 106 120 113
f 113 120 127
f 94 62 92
f 92 93 106
f 93 120 106
f 62 71 92
f 120 93 115
f 120 115 119
f 51 71 62
f 51 38 71
f 92 70 93
f 71 70 92
f 93 96 115
f 5 16 12
f 5 11 16
f 12 16 21
f 16 9 21
f 21 9 17
f 21 17 51
f 17 38 51
f 38 70 71
f 38 46 70
f 70 59 96
f 93 70 96
f 11 18 9
f 9 18 17
f 17 18 38
f 206 186 215
f 164 186 206
f 175 186 164
f 186 173 215
f 175 173 186
f 215 173 196
f 196 206 215
f 173 193 196
f 16 11 9
f 153 155 162
f 124 142 132
f 77 63 79
f 65 63 77
f 167 179 169
f 167 162 179
f 124 118 142
f 77 79 84
f 179 162 212
f 142 126 145
f 84 79 97
f 126 122 145
f 145 194 149
f 145 122 194
f 122 171 194
f 128 138 122
f 103 97 110
f 194 171 223
f 122 138 171
f 128 110 125
f 110 117 125
f 171 184 223
f 183 184 171
f 171 141 183
f 171 138 141
f 223 184 210
f 184 211 210
f 184 183 211
f 183 218 211
f 183 174 218
f 211 218 221
f 60 85 83
f 60 68 85
f 68 105 85
f 60 47 68
f 47 39 44
f 2 7 15
f 1 3 2
f 2 3 7
f 39 31 44
f 34 31 39
f 34 39 61
f 15 31 34
f 15 7 22
f 22 31 15
f 25 15 34
f 1 20 6
f 85 105 124
f 63 34 61
f 25 34 63
f 6 20 36
f 36 20 25
f 14 6 36
f 153 167 185
f 185 167 161
f 105 118 124
f 25 63 65
f 36 25 65
f 57 65 69
f 36 65 57
f 153 162 167
f 69 77 84
f 69 65 77
f 118 126 142
f 102 126 118
f 81 69 84
f 126 104 122
f 91 84 97
f 104 128 122
f 128 125 138
f 91 97 103
f 105 68 76
f 3 4 8
f 7 3 8
f 3 1 4
f 105 76 107
f 68 47 76
f 47 44 76
f 44 37 76
f 22 35 31
f 7 8 22
f 4 14 8
f 4 6 14
f 4 1 6
f 31 35 44
f 44 35 37
f 35 13 54
f 8 13 22
f 22 13 35
f 13 8 14
f 105 107 118
f 107 76 67
f 76 37 67
f 37 35 54
f 118 107 102
f 107 67 102
f 37 54 88
f 14 36 57
f 54 13 57
f 13 14 57
f 67 88 102
f 102 88 104
f 54 91 88
f 54 81 91
f 54 57 81
f 81 57 69
f 91 103 88
f 88 103 104
f 81 84 91
f 102 104 126
f 103 128 104
f 225 230 246
f 225 246 243
f 140 152 154
f 144 154 159
f 131 154 144
f 159 154 152
f 151 144 159
f 222 227 225
f 222 225 243
f 222 214 219
f 192 151 159
f 151 146 158
f 158 146 172
f 195 219 202
f 158 187 195
f 158 172 187
f 95 78 74
f 78 55 74
f 98 95 108
f 46 48 55
f 46 45 48
f 24 28 45
f 24 45 46
f 45 28 56
f 28 42 56
f 28 23 42
f 10 28 24
f 10 23 28
f 23 30 42
f 166 177 157
f 166 181 177
f 166 163 181
f 176 157 177
f 108 135 119
f 56 66 72
f 56 42 66
f 42 64 66
f 163 148 181
f 119 136 137
f 72 66 75
f 209 250 249
f 209 216 250
f 181 176 177
f 148 168 165
f 197 150 176
f 119 137 130
f 72 75 82
f 249 250 252
f 199 216 188
f 197 176 199
f 197 199 188
f 168 182 165
f 130 137 168
f 250 248 252
f 100 101 114
f 82 90 100
f 252 245 251
f 245 246 251
f 247 246 245
f 134 131 144
f 114 131 134
f 112 114 134
f 246 247 239
f 239 243 246
f 247 242 239
f 121 134 129
f 232 222 243
f 214 222 232
f 129 144 139
f 144 151 139
f 134 144 129
f 214 202 219
f 151 158 139
f 158 202 214
f 158 195 202
f 74 87 95
f 50 74 55
f 48 32 50
f 55 48 50
f 108 87 109
f 108 95 87
f 43 48 45
f 43 45 56
f 108 109 135
f 52 43 72
f 43 56 72
f 135 133 136
f 135 109 133
f 119 135 136
f 73 72 82
f 250 216 228
f 199 208 216
f 181 148 165
f 181 199 176
f 181 165 199
f 137 136 143
f 75 90 82
f 216 208 228
f 165 198 199
f 165 182 198
f 168 143 182
f 143 205 182
f 137 143 168
f 198 182 205
f 99 86 82
f 99 82 100
f 252 248 245
f 248 244 245
f 112 99 100
f 244 247 245
f 112 100 114
f 244 242 247
f 121 112 134
f 111 112 121
f 231 239 242
f 121 129 139
f 123 121 139
f 231 232 239
f 217 232 231
f 232 217 214
f 139 214 201
f 139 158 214
f 53 58 50
f 32 33 53
f 32 53 50
f 32 26 33
f 29 26 32
f 87 80 83
f 74 80 87
f 50 58 74
f 58 80 74
f 29 32 27
f 109 87 116
f 111 99 112
f 217 201 214
f 27 32 48
f 87 83 116
f 27 48 43
f 109 116 133
f 236 237 241
f 162 204 212
f 63 61 79
f 133 124 132
f 155 153 180
f 156 166 157
f 27 52 61
f 116 85 124
f 180 153 185
f 161 180 185
f 1 2 20
f 20 15 25
f 39 27 61
f 83 85 116
f 20 2 15
f 40 39 47
f 27 39 40
f 49 40 47
f 41 40 49
f 49 47 60
f 58 49 60
f 80 60 83
f 237 220 238
f 220 235 238
f 241 237 238
f 238 224 241
f 224 236 241
f 237 174 220
f 174 235 220
f 174 190 235
f 218 237 236
f 218 174 237
f 174 178 190
f 221 218 236
f 224 207 236
f 190 207 224
f 236 207 221
f 221 207 211
f 183 178 174
f 211 217 210
f 141 147 178
f 183 141 178
f 210 217 231
f 210 231 234
f 125 117 147
f 138 147 141
f 138 125 147
f 210 234 223
f 194 223 234
f 110 111 117
f 194 234 240
f 213 194 240
f 97 89 111
f 110 97 111
f 149 194 213
f 240 204 213
f 205 213 204
f 204 240 212
f 248 212 240
f 79 89 97
f 79 86 89
f 142 145 149
f 142 149 205
f 162 203 204
f 160 203 162
f 179 212 170
f 73 86 79
f 169 179 170
f 162 155 160
f 160 155 170
f 155 169 170
f 155 161 169
f 52 73 79
f 155 180 161
f 61 52 79
f 133 116 124
f 43 52 27
f 29 27 40
f 26 29 40
f 41 49 58
f 80 58 60
f 26 40 41
f 33 26 41
f 33 41 53
f 53 41 58
f 235 224 238
f 190 224 235
f 178 201 190
f 190 201 207
f 147 201 178
f 201 217 207
f 207 217 211
f 147 123 139
f 201 147 139
f 234 231 242
f 111 121 123
f 117 111 123
f 117 123 147
f 244 234 242
f 240 234 244
f 89 99 111
f 248 240 244
f 89 86 99
f 203 205 204
f 228 212 248
f 143 132 142
f 143 142 205
f 160 198 203
f 160 199 198
f 228 208 212
f 170 212 208
f 199 170 208
f 250 228 248
f 73 82 86
f 136 132 143
f 199 160 170
f 136 133 132
f 52 72 73
f 67 37 88
f 239 232 243
f 205 149 213
f 140 154 130
f 103 110 128
f 114 113 131
f 101 113 114
f 198 205 203
