v 0.473479 0.010258 0.088690
v 0.443212 0.012481 0.073981
v 0.432780 0.004408 0.094986
v 0.451758 0.011946 0.044706
v 0.416328 0.021038 0.034756
v 0.365438 -0.019691 0.010939
v 0.416797 -0.012081 0.058179
v 0.373926 -0.012572 0.056586
v 0.371170 -0.042404 -0.069599
v 0.398919 -0.048413 -0.106268
v 0.373073 -0.019472 0.072800
v 0.363232 -0.073022 -0.105772
v 0.406787 -0.002946 -0.087321
v 0.410583 -0.015065 -0.141904
v 0.326985 -0.029679 0.052780
v 0.335506 -0.040122 0.049501
v 0.404341 0.036690 -0.105453
v 0.384967 -0.001898 -0.088461
v 0.402123 -0.003338 -0.124079
v 0.328710 -0.034569 -0.054090
v 0.411742 0.036820 -0.130755
v 0.309173 -0.074849 -0.087659
v 0.335921 0.018124 -0.022840
v 0.310341 -0.031552 0.006365
v 0.323645 -0.042229 -0.041602
v 0.321754 -0.022740 -0.007742
v 0.306093 -0.050283 0.013081
v 0.322735 -0.064946 -0.065241
v 0.321597 -0.017111 -0.073300
v 0.285917 -0.062418 -0.035993
v 0.324833 -0.069514 -0.081824
v 0.275260 -0.060480 0.018483
v 0.331853 0.025140 -0.083854
v 0.282885 -0.018296 0.039998
v 0.281618 -0.045984 -0.099626
v 0.312777 0.043653 0.010177
v 0.249371 -0.094019 -0.070816
v 0.323944 0.079524 -0.073179
v 0.241926 -0.128390 -0.004878
v 0.274017 -0.029872 -0.111001
v 0.293538 0.021121 -0.106001
v 0.113153 -0.159618 0.057748
v 0.300191 0.083263 -0.022369
v 0.251916 0.071911 0.006703
v 0.220000 -0.129444 0.045635
v 0.150440 -0.182452 -0.007956
v 0.238797 -0.007513 0.050686
v 0.220753 -0.080247 0.065753
v 0.228462 -0.140105 -0.037691
v 0.252484 0.108317 -0.022574
v 0.257962 0.093457 -0.105984
v 0.272336 0.128228 -0.044804
v 0.287515 0.129603 -0.070499
v 0.148775 -0.117658 0.079310
v 0.229979 -0.038177 -0.106628
v 0.222167 0.063250 -0.086772
v 0.200443 -0.112634 -0.097154
v 0.202830 0.009347 0.016736
v 0.142819 -0.037479 0.098639
v 0.167008 -0.163677 0.048256
v 0.107067 -0.134486 -0.095508
v 0.227209 0.101949 -0.063302
v 0.180865 0.013635 -0.056691
v 0.188336 -0.028464 0.066157
v 0.071944 -0.201560 -0.013565
v 0.203097 0.034384 -0.002823
v 0.164723 -0.066123 -0.116308
v 0.041111 -0.195348 0.033177
v 0.163096 0.011638 0.055610
v 0.156360 -0.006036 0.091154
v 0.158414 0.010120 -0.015083
v 0.125847 0.064947 0.116148
v 0.100238 -0.022423 -0.116091
v 0.146394 0.027212 0.023738
v 0.188514 0.112904 -0.131916
v 0.116964 0.002130 0.109221
v 0.160409 -0.047959 -0.109292
v 0.148292 0.149793 -0.157841
v 0.220438 0.142618 -0.131394
v 0.136873 0.017694 -0.123410
v 0.153797 -0.168015 -0.067927
v 0.148692 0.119284 -0.111321
v 0.165655 0.094897 -0.112127
v 0.139640 0.020118 -0.083203
v 0.149703 0.065548 -0.134991
v 0.091276 -0.079615 0.090275
v 0.136709 0.027768 -0.048190
v 0.070858 0.080016 0.105733
v 0.129671 0.082353 -0.082723
v 0.082570 -0.066041 -0.102822
v 0.037371 -0.179287 -0.070861
v 0.019115 -0.090476 -0.110876
v 0.159143 0.123944 -0.158223
v 0.064110 -0.034293 0.083651
v 0.155210 0.158961 -0.128003
v 0.125211 0.080363 -0.131500
v 0.027848 -0.083241 0.088403
v 0.072422 0.040593 0.049299
v 0.046746 -0.209679 -0.016418
v 0.078041 0.057776 -0.057293
v 0.068945 0.035800 0.089030
v -0.024771 -0.219690 0.024673
v 0.114910 0.027105 -0.126388
v 0.119589 0.041492 0.028100
v 0.067231 0.099452 0.073863
v 0.108662 0.108811 -0.104842
v 0.033181 -0.011979 0.066483
v 0.075288 0.143108 0.096797
v 0.018082 -0.151446 0.090223
v 0.028555 0.135271 0.113373
v 0.056786 0.055902 -0.020324
v 0.080547 0.065719 -0.109370
v 0.048042 0.095094 0.082502
v 0.119987 0.084687 0.087039
v 0.044857 0.053745 0.029782
v -0.025572 -0.214504 -0.072266
v -0.051916 -0.192268 0.064023
v -0.021326 -0.178663 -0.107417
v 0.033072 0.003432 -0.064574
v -0.059292 -0.236098 -0.030532
v -0.003265 -0.000441 0.071448
v -0.034896 -0.093866 0.105197
v 0.068306 0.128149 0.071416
v 0.007392 0.043964 0.035124
v 0.011998 0.061708 -0.005187
v 0.002682 -0.013058 -0.094843
v 0.048588 0.165406 0.105580
v 0.022537 0.154654 0.075184
v 0.007416 -0.131052 -0.124273
v -0.007573 0.044308 -0.075551
v -0.085349 -0.039798 0.136347
v -0.167481 -0.153662 0.098093
v -0.044062 -0.057331 -0.166205
v -0.096771 -0.231343 0.007679
v -0.071627 0.000131 0.116665
v -0.028274 0.007925 -0.146716
v -0.062614 0.152467 0.161701
v -0.040592 -0.020109 -0.164997
v -0.051028 0.174603 0.133362
v -0.103410 0.054745 0.136762
v -0.064639 0.081270 0.020337
v -0.044307 0.035870 0.075265
v 0.017282 0.132134 -0.116878
v -0.147416 -0.195278 -0.108854
v -0.071943 0.115054 0.151396
v 0.030750 0.159159 -0.085794
v -0.042891 0.050747 -0.088836
v -0.020864 0.033986 -0.154267
v -0.111110 -0.184884 -0.126535
v 0.004545 0.164217 -0.135448
v -0.085198 0.058006 0.118423
v -0.080385 0.034477 0.081093
v -0.138617 -0.205106 0.032114
v -0.137691 -0.236949 -0.020769
v -0.111946 -0.226996 -0.073269
v -0.043013 0.076758 -0.117431
v -0.043765 0.119697 0.118836
v -0.089966 -0.105974 0.124541
v -0.021176 0.140982 -0.085204
v -0.093444 0.062077 0.088722
v -0.138316 -0.019527 0.137162
v -0.071233 0.093964 -0.163285
v -0.163144 -0.194013 0.054019
v -0.085977 0.135335 0.094077
v -0.039874 0.161148 -0.133606
v -0.077145 0.178999 0.081736
v -0.117578 -0.134595 -0.171596
v -0.077384 0.140281 -0.137282
v -0.039012 0.188754 -0.128215
v -0.081435 0.023485 -0.179925
v -0.147011 0.069831 0.058333
v -0.016833 0.193970 -0.105282
v -0.134164 0.125379 0.118361
v -0.058045 0.098362 -0.138586
v -0.108968 0.036602 0.038007
v -0.096821 0.153066 0.139113
v -0.195672 -0.216784 -0.052471
v -0.125278 0.178488 -0.149860
v -0.095843 0.112149 -0.116629
v -0.051535 0.181813 -0.074987
v -0.128385 0.099717 0.084588
v -0.071513 0.089472 -0.024045
v -0.145860 0.096522 0.125798
v -0.111733 0.064896 -0.067375
v -0.183066 -0.127331 -0.164184
v -0.107226 0.194974 -0.088543
v -0.223595 -0.117127 -0.155111
v -0.170666 0.006152 0.131672
v -0.102478 0.125467 -0.159514
v -0.085356 0.138296 -0.102400
v -0.122707 0.183847 0.059670
v -0.080859 0.204840 -0.118643
v -0.129028 0.167964 -0.091223
v -0.157328 0.172244 0.112747
v -0.125575 0.193118 0.104948
v -0.249946 -0.165293 -0.059096
v -0.157840 0.029146 -0.185127
v -0.149559 0.074681 -0.073044
v -0.207486 -0.158044 0.074960
v -0.207195 -0.197619 0.005277
v -0.193113 -0.181597 -0.113577
v -0.114896 0.081730 -0.098667
v -0.161610 0.193245 -0.127082
v -0.180098 0.088810 -0.016934
v -0.186521 0.114123 0.113185
v -0.220285 0.014375 0.114829
v -0.168031 0.135299 -0.094937
v -0.240645 0.089176 -0.035297
v -0.276668 -0.134918 0.006546
v -0.258795 -0.127078 0.053246
v -0.253239 -0.125838 -0.122804
v -0.183634 0.129848 0.037292
v -0.181434 0.182673 0.080920
v -0.167896 0.177269 0.051132
v -0.232851 0.089158 -0.057992
v -0.294021 -0.055270 0.052889
v -0.223588 0.109612 0.085622
v -0.190638 0.091872 -0.092307
v -0.139916 0.132005 -0.166803
v -0.202475 0.104938 0.018487
v -0.261429 0.032685 0.095164
v -0.241438 -0.060333 -0.164423
v -0.219882 0.027679 -0.178460
v -0.204701 0.161950 0.049239
v -0.302210 -0.087821 -0.064006
v -0.181567 0.186406 -0.105763
v -0.177796 0.152258 -0.142141
v -0.260580 0.085087 0.041081
v -0.295580 -0.089005 0.029851
v -0.193083 0.149166 -0.103168
v -0.195194 0.124703 -0.158202
v -0.300177 -0.006832 0.061121
v -0.273444 -0.069949 -0.145710
v -0.230236 0.095603 -0.124662
v -0.227998 0.071632 -0.159367
v -0.295742 -0.053710 -0.117727
v -0.268607 0.025463 -0.164905
v -0.297219 0.041118 0.057667
v -0.299239 0.036903 -0.135810
v -0.318135 -0.023971 -0.053462
v -0.312914 0.008217 -0.090417
v -0.331657 0.065094 -0.008332
v -0.296427 0.069994 -0.027829
v -0.302133 0.071397 -0.059503
v -0.334452 -0.001621 -0.084420
v -0.314701 -0.012169 -0.014436
v -0.325526 0.008928 -0.005279
v -0.341546 0.087471 -0.036867
v -0.331412 0.066089 -0.085310
v -0.356888 -0.008000 -0.040926
v -0.370697 0.041799 -0.027750
v -0.368366 0.039614 -0.069768
f 164 176 173
f 173 176 194
f 206 217 221
f 132 109 158
f 117 132 163
f 199 210 209
f 229 210 216
f 163 132 199
f 137 139 195
f 137 195 176
f 157 137 145
f 145 137 176
f 164 145 176
f 173 183 181
f 183 173 194
f 205 183 194
f 140 151 183
f 140 183 188
f 188 183 205
f 135 151 140
f 188 205 206
f 206 205 217
f 131 135 140
f 131 140 161
f 161 140 188
f 161 188 206
f 158 122 131
f 131 161 158
f 206 221 232
f 161 206 132
f 132 158 161
f 199 132 206
f 197 185 223
f 170 167 197
f 170 133 167
f 92 133 138
f 170 138 133
f 136 126 138
f 126 92 138
f 231 197 223
f 148 138 170
f 138 148 136
f 67 73 77
f 55 57 67
f 35 57 55
f 219 197 231
f 162 197 219
f 162 170 197
f 148 170 162
f 77 73 103
f 80 84 103
f 84 77 103
f 40 35 55
f 25 35 29
f 31 22 35
f 25 31 35
f 12 28 22
f 12 22 31
f 189 162 219
f 212 228 224
f 174 162 189
f 156 162 174
f 156 148 162
f 14 10 12
f 19 12 18
f 13 10 21
f 85 96 93
f 13 17 18
f 13 21 17
f 75 85 93
f 79 75 93
f 18 17 19
f 19 17 21
f 79 78 95
f 14 12 19
f 10 14 21
f 78 79 93
f 21 14 19
f 85 80 103
f 191 164 212
f 214 212 224
f 76 72 88
f 101 88 113
f 164 181 212
f 212 220 228
f 59 70 76
f 101 76 88
f 181 160 171
f 181 171 212
f 217 224 228
f 59 76 86
f 76 94 86
f 76 101 94
f 121 142 135
f 171 152 175
f 54 59 86
f 94 107 97
f 97 107 121
f 122 121 131
f 238 228 243
f 86 94 97
f 54 86 109
f 86 97 109
f 42 54 109
f 240 216 246
f 246 216 232
f 68 42 109
f 68 109 117
f 209 210 229
f 117 163 153
f 29 35 40
f 12 9 28
f 10 9 12
f 189 219 178
f 168 189 178
f 96 103 112
f 96 85 103
f 84 80 85
f 55 56 51
f 51 40 55
f 41 29 40
f 29 41 33
f 13 18 20
f 9 13 20
f 10 13 9
f 165 168 178
f 150 165 169
f 150 143 165
f 96 112 106
f 78 96 106
f 89 82 106
f 83 84 85
f 85 75 83
f 51 56 62
f 38 41 51
f 41 40 51
f 33 41 38
f 82 78 106
f 82 95 78
f 83 75 82
f 79 95 82
f 75 79 82
f 38 51 53
f 18 12 31
f 78 93 96
f 228 208 243
f 54 48 59
f 220 208 228
f 220 171 208
f 171 204 208
f 171 175 204
f 152 141 175
f 121 124 142
f 121 107 124
f 107 115 124
f 98 115 107
f 94 98 107
f 59 48 64
f 171 220 212
f 142 141 152
f 142 124 141
f 98 94 101
f 64 70 59
f 105 98 113
f 98 101 113
f 72 69 114
f 104 98 105
f 114 104 105
f 123 114 105
f 123 105 128
f 108 114 123
f 127 123 128
f 127 108 123
f 177 154 200
f 120 134 154
f 196 209 225
f 242 243 248
f 210 206 216
f 210 199 206
f 43 23 38
f 159 143 146
f 23 25 29
f 185 201 187
f 185 187 222
f 149 201 167
f 167 201 185
f 52 50 43
f 43 36 23
f 66 50 62
f 159 146 180
f 146 172 180
f 172 192 186
f 180 172 186
f 186 192 203
f 168 159 190
f 159 180 190
f 190 180 193
f 180 186 193
f 207 186 226
f 186 203 226
f 6 23 26
f 26 23 24
f 66 62 63
f 87 84 89
f 100 89 106
f 193 179 190
f 179 193 207
f 207 193 186
f 230 207 226
f 226 203 227
f 226 227 230
f 23 6 27
f 25 23 30
f 23 27 30
f 71 84 87
f 156 179 202
f 179 207 202
f 202 207 218
f 63 77 71
f 71 77 84
f 117 109 132
f 206 232 216
f 109 122 158
f 232 221 238
f 221 217 238
f 131 121 135
f 160 152 171
f 151 152 160
f 151 135 152
f 135 142 152
f 151 181 183
f 151 160 181
f 205 194 217
f 181 164 173
f 217 194 213
f 166 157 164
f 157 145 164
f 137 157 139
f 194 195 213
f 176 195 194
f 195 139 166
f 139 157 166
f 200 199 209
f 200 163 199
f 153 163 200
f 109 97 122
f 97 121 122
f 217 228 238
f 166 191 195
f 70 72 76
f 70 69 72
f 217 213 224
f 213 214 224
f 214 191 212
f 166 164 191
f 113 110 128
f 88 110 113
f 191 214 213
f 195 191 213
f 110 127 128
f 110 108 127
f 72 108 110
f 88 72 110
f 72 114 108
f 154 153 200
f 154 134 153
f 196 200 209
f 153 134 117
f 134 102 117
f 225 209 229
f 68 117 102
f 99 68 102
f 229 216 240
f 229 240 225
f 247 251 250
f 246 247 250
f 232 247 246
f 251 242 248
f 247 242 251
f 247 243 242
f 247 238 243
f 232 238 247
f 105 113 128
f 177 200 196
f 240 246 250
f 60 42 68
f 227 231 230
f 227 219 231
f 179 174 189
f 156 174 179
f 130 126 136
f 231 235 234
f 112 90 119
f 129 61 91
f 100 112 119
f 130 119 126
f 130 136 147
f 147 156 202
f 234 218 230
f 230 231 234
f 30 39 37
f 39 49 37
f 119 90 92
f 119 92 126
f 234 235 239
f 239 235 237
f 37 49 81
f 49 46 81
f 222 233 237
f 61 81 91
f 91 116 118
f 118 116 149
f 167 118 149
f 187 211 233
f 222 187 233
f 149 116 144
f 149 144 201
f 187 201 211
f 2 4 5
f 5 4 6
f 36 43 44
f 44 43 50
f 6 4 7
f 55 63 56
f 28 25 30
f 9 20 25
f 28 9 25
f 203 178 227
f 178 219 227
f 168 179 189
f 168 190 179
f 106 112 100
f 56 63 62
f 165 159 168
f 165 143 159
f 84 83 89
f 23 29 33
f 192 178 203
f 192 169 178
f 172 169 192
f 146 150 172
f 146 143 150
f 38 23 33
f 50 52 62
f 53 51 62
f 52 53 62
f 43 53 52
f 43 38 53
f 197 167 185
f 133 129 167
f 18 31 20
f 165 178 169
f 83 82 89
f 150 169 172
f 120 102 134
f 65 68 99
f 65 46 68
f 245 250 252
f 240 250 245
f 60 68 46
f 250 251 252
f 46 45 60
f 60 45 42
f 248 252 251
f 248 249 252
f 42 45 54
f 45 48 54
f 243 244 248
f 243 208 244
f 204 198 208
f 175 141 204
f 47 64 48
f 141 182 204
f 124 125 141
f 115 125 124
f 98 104 115
f 69 64 71
f 64 58 71
f 70 64 69
f 48 34 47
f 69 74 104
f 114 69 104
f 125 182 141
f 11 2 8
f 11 3 2
f 71 66 63
f 87 89 100
f 30 27 32
f 30 32 39
f 184 202 198
f 237 236 239
f 44 50 66
f 5 6 26
f 5 26 8
f 24 23 36
f 100 104 87
f 104 100 111
f 6 16 27
f 74 71 87
f 74 87 104
f 111 100 119
f 125 119 130
f 182 130 147
f 218 207 230
f 182 147 184
f 147 202 184
f 218 198 202
f 198 218 215
f 215 218 234
f 49 39 46
f 236 241 239
f 81 46 65
f 81 65 99
f 1 2 3
f 177 196 201
f 154 177 155
f 155 120 154
f 116 120 155
f 211 196 225
f 99 102 120
f 116 99 120
f 236 211 225
f 241 240 245
f 241 236 240
f 249 245 252
f 241 245 249
f 244 241 249
f 244 239 241
f 39 45 46
f 244 249 248
f 234 239 244
f 208 215 244
f 215 234 244
f 39 32 45
f 198 215 208
f 182 184 198
f 45 32 48
f 204 182 198
f 182 125 130
f 236 225 240
f 111 119 125
f 115 111 125
f 69 71 74
f 47 58 64
f 32 34 48
f 32 27 34
f 27 16 34
f 16 15 34
f 15 24 34
f 115 104 111
f 47 44 58
f 34 44 47
f 34 24 36
f 8 24 15
f 11 8 15
f 16 11 15
f 16 7 11
f 6 7 16
f 34 36 44
f 7 3 11
f 7 1 3
f 4 1 7
f 2 1 4
f 144 177 201
f 144 155 177
f 201 196 211
f 116 155 144
f 233 211 236
f 99 116 91
f 233 236 237
f 81 99 91
f 58 66 71
f 58 44 66
f 24 8 26
f 8 2 5
f 118 167 129
f 92 129 133
f 25 20 31
f 28 37 22
f 37 28 30
f 22 37 35
f 55 67 77
f 63 55 77
f 103 73 112
f 136 148 156
f 147 136 156
f 35 37 57
f 73 90 112
f 231 223 235
f 67 57 61
f 73 67 90
f 223 237 235
f 37 81 57
f 57 81 61
f 67 61 90
f 61 92 90
f 237 223 222
f 92 61 129
f 223 185 222
f 91 118 129
