v 0.456366 -0.016052 -0.119973
v 0.471496 -0.046283 -0.115159
v 0.434833 -0.044417 -0.145963
v 0.441427 -0.078041 -0.124280
v 0.455340 -0.018812 -0.067419
v 0.451681 -0.054971 -0.063337
v 0.438235 -0.033545 -0.034713
v 0.416326 0.028088 -0.034082
v 0.413638 -0.078175 -0.023005
v 0.378764 -0.073274 -0.136449
v 0.395909 -0.060643 -0.000437
v 0.384450 0.020017 0.006369
v 0.364157 -0.025791 0.009474
v 0.402345 0.027497 -0.109387
v 0.343383 0.038920 -0.010004
v 0.379891 -0.162243 0.133392
v 0.392135 -0.098226 -0.098580
v 0.312573 -0.019301 -0.143037
v 0.386415 -0.111211 0.086150
v 0.409366 -0.007845 -0.146668
v 0.358535 -0.050172 0.035554
v 0.340463 0.065601 -0.052161
v 0.400444 -0.129740 0.132731
v 0.319614 -0.084803 0.001710
v 0.359504 -0.092339 -0.020179
v 0.324330 0.045301 -0.103022
v 0.377583 -0.184759 0.160675
v 0.354105 -0.104008 0.103617
v 0.291087 -0.076841 -0.112562
v 0.319523 0.052939 -0.022301
v 0.351743 -0.171757 0.092957
v 0.364950 -0.072437 0.073659
v 0.275782 0.061905 -0.110316
v 0.323562 -0.083584 0.036219
v 0.353919 -0.010995 0.010121
v 0.336989 -0.130799 0.097475
v 0.324219 0.029458 0.014874
v 0.310764 0.096718 0.041494
v 0.315649 -0.106985 0.054535
v 0.312380 0.083928 0.081758
v 0.297521 -0.089568 -0.009448
v 0.320707 0.035271 0.051101
v 0.314737 0.105545 0.025516
v 0.321519 -0.058788 0.026455
v 0.322378 -0.020108 0.004139
v 0.296513 0.026476 -0.005932
v 0.239272 0.039758 -0.148247
v 0.215916 -0.063077 -0.153416
v 0.284856 -0.057275 0.003186
v 0.285534 -0.041035 -0.147952
v 0.298811 -0.110738 -0.046430
v 0.246565 -0.102791 -0.109644
v 0.248683 -0.009124 0.004784
v 0.281325 0.085224 0.074288
v 0.273983 0.072292 -0.066652
v 0.245606 -0.108023 -0.043837
v 0.174656 -0.005598 -0.162021
v 0.255028 0.055955 -0.011642
v 0.191116 -0.132859 -0.096296
v 0.239431 0.078041 -0.036600
v 0.296429 0.112615 0.040791
v 0.249462 -0.081236 -0.002676
v 0.297589 0.171908 0.068806
v 0.274787 0.170041 0.063032
v 0.192236 -0.097136 -0.126109
v 0.196996 -0.111900 -0.016479
v 0.183069 0.071811 -0.149308
v 0.135530 -0.266375 -0.244054
v 0.173038 0.065233 0.021930
v 0.166657 -0.126028 -0.135014
v 0.201442 0.058819 -0.122828
v 0.170502 0.044238 -0.165821
v 0.205780 0.096872 -0.102755
v 0.228415 0.172337 0.081609
v 0.153486 -0.065555 -0.170774
v 0.135952 -0.241712 -0.199895
v 0.117507 -0.167034 -0.199457
v 0.238814 0.148934 0.106504
v 0.166829 0.109758 -0.122984
v 0.110015 -0.285164 -0.232477
v 0.145243 0.143836 -0.169798
v 0.254467 0.158660 0.085559
v 0.126290 -0.157800 -0.174119
v 0.140203 -0.279948 -0.189367
v 0.138597 0.105849 -0.074830
v 0.215395 0.047673 0.033975
v 0.123280 0.275299 -0.192569
v 0.211702 -0.016654 0.053360
v 0.161238 0.148156 -0.135408
v 0.116062 -0.091105 -0.191366
v 0.125935 0.154406 -0.191008
v 0.114628 -0.186105 -0.164036
v 0.123861 0.218627 -0.190962
v 0.077966 -0.233832 -0.218649
v 0.076398 -0.135765 -0.199222
v 0.117465 0.177906 -0.151590
v 0.119421 -0.144033 -0.106059
v 0.099349 -0.074565 -0.172995
v 0.129644 -0.117804 -0.053639
v 0.131068 0.049536 -0.170025
v 0.102226 -0.271119 -0.193994
v 0.104902 0.246147 -0.162372
v 0.214234 -0.080445 0.030693
v 0.076118 -0.176447 -0.168751
v 0.078288 0.074810 -0.145734
v 0.067070 0.238770 -0.169027
v 0.096622 0.127850 -0.196020
v 0.093111 -0.109198 -0.067555
v 0.068017 0.148881 -0.189355
v 0.055444 -0.151998 -0.178808
v 0.114388 0.089275 0.012401
v 0.080583 -0.002292 -0.177994
v 0.080463 0.239447 -0.207413
v 0.103057 0.088315 -0.057896
v 0.023319 -0.013812 -0.172123
v 0.137708 -0.023925 0.094246
v 0.086767 0.113994 -0.116725
v 0.049391 -0.090460 -0.095594
v 0.050087 0.066632 -0.089866
v 0.017256 0.026679 -0.144401
v 0.068858 0.094055 -0.022081
v 0.086989 -0.118283 0.045333
v 0.128928 0.033209 0.088470
v 0.056154 -0.077630 -0.145620
v 0.113333 -0.070702 0.086512
v 0.051721 -0.103418 0.109131
v 0.036174 -0.127815 0.001374
v -0.005440 0.068617 -0.105227
v -0.055934 0.017370 -0.146221
v -0.006284 -0.055230 -0.132756
v 0.092973 0.041417 0.123677
v 0.034865 -0.009876 0.189957
v -0.000372 -0.084286 -0.101350
v -0.066022 0.112918 -0.093011
v 0.078072 0.092407 0.073479
v -0.068607 -0.038155 -0.141492
v -0.061602 -0.152541 -0.064224
v -0.044101 -0.098257 -0.108468
v 0.037464 0.126036 0.047356
v 0.003607 -0.154105 0.055341
v -0.049038 -0.108875 0.173838
v 0.050247 0.051131 0.151257
v -0.055804 -0.175987 -0.023778
v -0.047662 0.159143 -0.036712
v -0.049977 0.148781 0.107222
v -0.054877 0.142626 -0.065356
v -0.086689 -0.107078 -0.097851
v -0.030482 0.154651 0.046564
v -0.140682 -0.201940 -0.085137
v 0.058144 -0.058038 0.153882
v -0.014133 0.006589 0.213845
v -0.122518 -0.178367 -0.012035
v -0.103199 0.181605 -0.070901
v -0.137396 0.084066 -0.106680
v -0.027179 0.101759 0.158483
v -0.118354 0.170377 -0.116019
v -0.110507 -0.002187 -0.138052
v -0.107797 0.166999 -0.006766
v -0.151950 -0.006758 -0.120360
v -0.120646 0.139593 -0.115032
v -0.117694 -0.169437 -0.107230
v -0.068262 0.134971 0.146189
v -0.063095 -0.152708 0.128739
v -0.039714 -0.043327 0.208341
v -0.151169 -0.114394 -0.093946
v -0.187579 -0.155908 -0.121089
v -0.173154 0.089786 -0.088809
v -0.190817 0.147136 -0.127887
v -0.127419 -0.128363 0.162073
v -0.055458 -0.072576 0.196046
v -0.160439 0.159635 0.029543
v -0.184437 0.195898 -0.092763
v -0.194448 -0.213454 -0.069071
v -0.181316 0.167134 -0.044572
v -0.111565 0.128005 0.153058
v -0.199475 -0.058444 -0.075583
v -0.068805 0.070589 0.197231
v -0.229955 0.190048 -0.054350
v -0.233079 0.179450 -0.134744
v -0.249326 -0.232115 -0.113564
v -0.240918 -0.114652 -0.083627
v -0.090885 -0.003809 0.222437
v -0.259825 -0.155458 0.005434
v -0.235008 -0.245349 -0.080340
v -0.233740 0.127877 -0.089287
v -0.219056 -0.171128 -0.024667
v -0.238482 0.135243 0.037307
v -0.249463 0.260481 -0.143478
v -0.265860 -0.000196 -0.050927
v -0.265233 0.331821 -0.195836
v -0.252721 0.199653 -0.153341
v -0.267131 0.273177 -0.199669
v -0.231011 0.216466 -0.112567
v -0.220975 0.058515 -0.063415
v -0.267947 -0.302141 -0.098996
v -0.292024 -0.346102 -0.134292
v -0.274503 -0.303107 -0.072099
v -0.251332 0.316122 -0.166840
v -0.260530 0.157452 -0.015017
v -0.270922 -0.071230 -0.036746
v -0.175034 0.116121 0.161790
v -0.269818 -0.356390 -0.089345
v -0.228619 -0.119122 0.128224
v -0.302270 -0.275351 -0.121275
v -0.285377 0.262735 -0.192260
v -0.174456 0.075673 0.188646
v -0.306465 0.323140 -0.207256
v -0.268787 -0.152137 -0.018280
v -0.285393 0.270411 -0.128551
v -0.270800 0.109556 -0.070592
v -0.176537 0.005081 0.206644
v -0.292169 -0.173811 -0.100571
v -0.288413 0.220904 -0.090150
v -0.319558 -0.370505 -0.120829
v -0.245492 -0.139638 0.043359
v -0.294754 0.340375 -0.167822
v -0.301653 0.183555 -0.140301
v -0.317783 0.259728 -0.173129
v -0.261752 -0.211039 -0.047072
v -0.316212 -0.350754 -0.077329
v -0.327814 -0.010843 -0.011244
v -0.307001 -0.149762 -0.076226
v -0.279255 -0.122703 0.075896
v -0.290904 -0.171473 -0.049787
v -0.312371 0.036972 -0.022387
v -0.314520 -0.243643 -0.057895
v -0.283897 -0.132841 0.007669
v -0.186286 -0.079271 0.188526
v -0.334908 -0.269717 -0.107803
v -0.289282 0.157480 -0.054972
v -0.315355 0.225328 -0.110145
v -0.319377 -0.180123 -0.078351
v -0.310218 0.174445 -0.073575
v -0.243111 0.101517 0.136927
v -0.290907 0.091806 -0.025002
v -0.264036 0.125968 0.084546
v -0.318191 0.144239 -0.086737
v -0.298107 -0.090664 -0.020974
v -0.262823 0.062023 0.143593
v -0.296057 0.111011 0.039295
v -0.309802 -0.092792 0.042400
v -0.270130 0.002379 0.153335
v -0.263580 -0.082908 0.138866
v -0.323879 0.040946 0.018099
v -0.341590 -0.044332 0.018925
v -0.353732 0.026797 0.001181
v -0.301767 -0.020892 0.094764
v -0.369618 -0.029415 0.053154
v -0.300868 0.037954 0.086421
v -0.356266 0.049316 0.028667
v -0.380590 0.004130 0.004801
v -0.378286 0.008967 0.068772
f 142 155 177
f 63 64 74
f 23 32 28
f 132 131 142
f 132 142 151
f 151 142 177
f 42 40 54
f 54 40 82
f 54 82 78
f 74 54 78
f 78 82 74
f 63 74 82
f 23 16 19
f 36 27 28
f 16 27 31
f 16 23 27
f 27 23 28
f 93 91 113
f 168 185 179
f 193 168 179
f 172 168 193
f 156 168 172
f 106 113 109
f 113 107 109
f 113 91 107
f 230 233 237
f 237 210 230
f 217 210 237
f 185 210 217
f 185 168 167
f 168 160 167
f 156 160 168
f 115 130 136
f 129 115 136
f 159 157 165
f 147 165 157
f 129 136 157
f 112 124 115
f 238 200 222
f 200 181 222
f 181 212 222
f 233 231 237
f 185 217 179
f 202 195 197
f 196 195 202
f 202 220 214
f 202 197 220
f 196 202 214
f 209 198 216
f 209 216 231
f 188 198 209
f 218 217 231
f 188 191 205
f 193 191 188
f 217 237 231
f 179 217 191
f 193 179 191
f 212 204 229
f 94 68 80
f 180 195 204
f 229 214 220
f 229 196 214
f 204 196 229
f 195 196 204
f 207 218 216
f 216 190 207
f 198 190 216
f 190 192 207
f 216 218 231
f 207 205 218
f 192 205 207
f 192 198 188
f 190 198 192
f 205 217 218
f 205 191 217
f 192 188 205
f 165 166 181
f 161 166 165
f 90 77 95
f 93 113 87
f 81 67 72
f 81 72 91
f 72 107 91
f 72 100 107
f 100 105 107
f 105 100 112
f 107 105 109
f 109 105 117
f 128 129 134
f 154 134 157
f 154 157 159
f 154 159 167
f 167 159 194
f 167 194 210
f 185 167 210
f 194 189 210
f 210 225 235
f 199 230 235
f 146 134 156
f 156 134 160
f 160 134 154
f 160 154 167
f 230 210 235
f 81 91 93
f 81 93 96
f 89 81 96
f 96 93 102
f 96 106 109
f 96 109 117
f 153 146 156
f 153 156 172
f 174 153 172
f 174 172 178
f 178 172 193
f 199 178 230
f 230 178 233
f 178 213 233
f 96 102 106
f 93 87 102
f 222 232 224
f 222 212 232
f 180 212 181
f 166 173 180
f 94 110 95
f 94 104 110
f 94 101 104
f 77 68 95
f 76 77 83
f 232 229 226
f 212 229 232
f 180 204 212
f 80 101 94
f 95 68 94
f 68 77 76
f 84 68 76
f 229 220 226
f 220 219 226
f 180 184 195
f 80 84 101
f 68 84 80
f 234 236 239
f 69 60 111
f 60 85 111
f 69 58 60
f 30 60 58
f 30 55 60
f 30 22 55
f 15 22 30
f 14 26 22
f 8 22 15
f 46 58 53
f 46 30 58
f 8 14 22
f 5 14 8
f 5 2 1
f 6 9 17
f 6 17 4
f 2 5 6
f 99 66 122
f 62 103 66
f 56 62 66
f 41 62 56
f 51 41 56
f 17 25 51
f 203 228 243
f 127 122 140
f 140 163 143
f 145 158 171
f 111 121 139
f 4 2 6
f 223 203 243
f 186 163 169
f 126 125 150
f 41 39 44
f 41 24 39
f 24 34 39
f 28 44 39
f 163 141 169
f 39 34 31
f 175 187 201
f 162 145 175
f 120 115 129
f 130 133 138
f 176 181 200
f 200 238 221
f 57 65 75
f 98 75 90
f 98 124 112
f 124 118 130
f 124 130 115
f 130 138 136
f 136 147 157
f 159 165 176
f 189 176 200
f 189 200 221
f 75 98 112
f 100 75 112
f 159 176 189
f 194 159 189
f 225 189 221
f 225 221 246
f 72 57 75
f 72 75 100
f 120 105 112
f 112 115 120
f 105 120 119
f 128 120 129
f 129 157 134
f 210 189 225
f 135 139 145
f 239 206 234
f 206 201 234
f 234 201 236
f 123 135 131
f 135 69 111
f 43 30 61
f 15 30 43
f 38 15 43
f 211 239 242
f 211 206 239
f 123 69 135
f 86 69 123
f 86 58 69
f 88 58 86
f 53 58 88
f 37 30 46
f 30 37 61
f 12 8 15
f 7 8 12
f 116 88 86
f 62 53 88
f 163 126 141
f 145 139 148
f 111 139 135
f 49 53 62
f 49 46 53
f 45 46 49
f 45 37 46
f 37 45 42
f 45 35 42
f 13 7 12
f 11 7 13
f 7 5 8
f 6 5 7
f 243 228 242
f 228 211 242
f 103 116 125
f 66 103 125
f 103 88 116
f 103 62 88
f 41 44 49
f 44 45 49
f 13 34 24
f 11 24 25
f 24 11 13
f 9 11 25
f 11 9 7
f 6 7 9
f 169 228 203
f 140 122 126
f 125 126 122
f 122 66 125
f 215 169 203
f 140 126 163
f 201 187 236
f 148 158 145
f 41 49 62
f 51 24 41
f 25 24 51
f 25 17 9
f 186 169 215
f 127 140 143
f 152 163 186
f 143 163 152
f 158 174 171
f 144 153 158
f 236 187 240
f 195 184 197
f 161 149 166
f 193 188 209
f 178 193 213
f 193 209 213
f 213 209 231
f 233 213 231
f 106 87 113
f 220 197 219
f 101 76 92
f 84 76 101
f 180 173 184
f 184 173 219
f 197 184 219
f 226 219 224
f 92 76 83
f 101 92 104
f 92 97 104
f 166 149 173
f 149 186 173
f 219 208 224
f 226 224 232
f 83 77 90
f 138 137 147
f 147 161 165
f 208 238 224
f 222 224 238
f 75 83 90
f 98 90 95
f 98 95 124
f 124 95 110
f 124 110 118
f 136 138 147
f 176 165 181
f 174 199 187
f 171 174 187
f 114 85 117
f 73 79 85
f 121 119 128
f 114 119 121
f 114 117 119
f 73 71 79
f 73 33 71
f 33 73 55
f 249 250 252
f 249 244 250
f 240 244 249
f 33 18 47
f 26 18 33
f 26 20 18
f 247 252 248
f 20 3 18
f 245 247 248
f 245 241 247
f 50 52 48
f 50 29 52
f 18 29 50
f 18 10 29
f 3 10 18
f 3 4 10
f 241 245 221
f 164 151 182
f 182 151 177
f 132 151 164
f 116 132 150
f 170 164 182
f 150 132 164
f 28 32 44
f 150 164 170
f 34 19 16
f 34 21 19
f 32 19 21
f 19 32 23
f 36 31 27
f 64 61 74
f 74 61 54
f 40 38 82
f 64 43 61
f 63 43 64
f 38 43 63
f 116 131 132
f 169 170 182
f 141 170 169
f 36 28 39
f 31 36 39
f 16 31 34
f 155 145 162
f 135 145 155
f 177 201 206
f 177 175 201
f 162 175 177
f 155 162 177
f 142 131 155
f 131 135 155
f 61 37 54
f 37 42 54
f 40 35 38
f 70 97 83
f 83 97 92
f 75 70 83
f 246 221 251
f 102 87 106
f 149 137 143
f 137 149 161
f 149 152 186
f 173 186 219
f 219 186 208
f 70 59 97
f 104 97 108
f 108 118 104
f 133 143 137
f 138 133 137
f 147 137 161
f 208 186 183
f 208 183 227
f 238 208 227
f 183 215 227
f 65 70 75
f 104 118 110
f 238 227 241
f 221 238 241
f 57 48 65
f 130 118 133
f 221 245 251
f 251 245 248
f 18 50 47
f 47 50 57
f 50 48 57
f 244 225 246
f 250 251 252
f 251 248 252
f 71 33 47
f 47 57 71
f 71 57 72
f 67 71 72
f 211 182 206
f 182 177 206
f 35 40 42
f 35 15 38
f 116 123 131
f 21 13 35
f 228 182 211
f 150 125 116
f 32 35 45
f 32 45 44
f 32 21 35
f 13 21 34
f 169 182 228
f 126 150 141
f 150 170 141
f 35 12 15
f 13 12 35
f 116 86 123
f 227 223 241
f 118 127 133
f 97 99 108
f 65 52 59
f 48 52 65
f 29 51 52
f 215 223 227
f 183 186 215
f 127 143 133
f 59 99 97
f 149 143 152
f 174 178 199
f 174 158 153
f 144 146 153
f 89 96 85
f 79 89 85
f 199 240 187
f 128 146 144
f 117 85 96
f 67 89 79
f 235 225 240
f 199 235 240
f 128 134 146
f 119 120 128
f 117 105 119
f 67 81 89
f 71 67 79
f 246 251 250
f 240 225 244
f 250 244 246
f 65 59 70
f 148 144 158
f 175 171 187
f 175 145 171
f 139 144 148
f 139 128 144
f 139 121 128
f 236 240 239
f 4 17 10
f 247 249 252
f 14 20 26
f 215 203 223
f 10 17 29
f 29 17 51
f 52 51 56
f 52 56 59
f 59 56 66
f 59 66 99
f 108 99 122
f 108 122 127
f 118 108 127
f 223 243 241
f 2 4 3
f 241 243 247
f 247 243 242
f 1 2 3
f 1 3 20
f 1 20 14
f 1 14 5
f 242 249 247
f 242 239 249
f 239 240 249
f 22 26 33
f 22 33 55
f 60 55 73
f 60 73 85
f 111 85 114
f 111 114 121
f 38 63 82
f 181 166 180
