v 0.459214 -0.184496 0.115372
v 0.450071 -0.190337 0.069783
v 0.428996 -0.120680 0.083957
v 0.423410 -0.203622 0.114290
v 0.404817 -0.181957 0.072601
v 0.403344 -0.087310 0.126107
v 0.418297 -0.138832 0.063879
v 0.342589 -0.031688 0.094906
v 0.393629 -0.070375 -0.139886
v 0.360450 -0.123101 0.084039
v 0.383385 -0.145120 0.134388
v 0.351773 -0.024398 0.132037
v 0.359623 -0.062293 -0.098398
v 0.390895 -0.040745 -0.108139
v 0.372061 -0.128412 -0.108054
v 0.378245 0.075392 -0.060600
v 0.394437 0.063288 0.005942
v 0.371479 0.134853 0.017714
v 0.343320 0.038641 -0.000844
v 0.343162 -0.082666 -0.170140
v 0.332289 -0.171120 -0.147592
v 0.345567 0.049828 -0.053289
v 0.310801 -0.118479 0.129409
v 0.307297 -0.206842 -0.102021
v 0.306531 -0.028138 -0.098352
v 0.327906 0.007386 -0.102085
v 0.322266 0.020480 -0.143126
v 0.332761 0.079797 0.031865
v 0.320772 0.080174 -0.143030
v 0.344897 -0.012990 -0.136182
v 0.312448 0.019522 0.050888
v 0.349508 -0.004301 0.111578
v 0.335355 -0.137544 -0.091349
v 0.307815 -0.124041 -0.162468
v 0.383710 0.140639 -0.037433
v 0.309983 -0.089693 0.103761
v 0.294890 -0.010648 0.080378
v 0.348657 -0.067258 0.161749
v 0.287506 0.093669 -0.170932
v 0.249264 0.165960 -0.135910
v 0.307245 -0.016528 -0.175460
v 0.311878 0.124885 0.030057
v 0.315067 0.123727 -0.071845
v 0.305481 0.032295 0.107218
v 0.302367 -0.105652 -0.116762
v 0.295874 -0.170058 -0.160009
v 0.304913 -0.009164 -0.084193
v 0.278714 -0.254826 -0.153216
v 0.287136 -0.118603 0.148735
v 0.305957 0.005678 0.137909
v 0.283609 -0.262572 -0.122322
v 0.276946 -0.165247 -0.098163
v 0.251046 -0.189727 -0.132356
v 0.286513 -0.020280 -0.012859
v 0.255461 0.108773 0.129303
v 0.257714 -0.218382 -0.157771
v 0.265166 -0.226957 -0.095912
v 0.296374 0.108894 0.102157
v 0.252830 -0.251792 -0.127395
v 0.291133 -0.071297 0.167085
v 0.276783 -0.124346 -0.169952
v 0.249407 0.043294 0.150044
v 0.267133 -0.124653 -0.135703
v 0.299149 0.154859 -0.025019
v 0.230597 -0.100364 0.158755
v 0.236491 0.179051 0.068033
v 0.238169 -0.100185 0.115881
v 0.240358 -0.032717 0.045835
v 0.175546 0.158860 -0.169677
v 0.245664 0.190302 0.003857
v 0.185956 -0.119903 -0.118566
v 0.195568 -0.083123 0.085028
v 0.196813 -0.146208 -0.179241
v 0.237785 0.013883 -0.199995
v 0.130711 0.067243 -0.205070
v 0.238882 -0.064467 -0.096734
v 0.146508 -0.098202 -0.207134
v 0.211195 -0.054666 -0.206088
v 0.214992 0.203352 -0.075804
v 0.180660 0.217100 0.001483
v 0.220632 -0.090300 0.003105
v 0.115428 0.003456 -0.217365
v 0.192509 -0.118932 0.125042
v 0.157992 -0.119452 0.133484
v 0.143891 0.198562 -0.133720
v 0.187794 0.025445 0.161102
v 0.122042 -0.022215 0.168024
v 0.191264 -0.123060 -0.031909
v 0.141350 0.210785 0.051526
v 0.160267 0.187040 0.086878
v 0.152964 -0.146407 0.021946
v 0.157998 -0.102371 0.164915
v 0.065731 0.222958 -0.010535
v 0.126902 -0.129774 -0.175932
v 0.132178 -0.139758 -0.086677
v 0.093584 0.076305 0.142943
v 0.145688 -0.103026 0.064658
v 0.141237 0.223275 -0.067171
v 0.097509 -0.107610 0.125255
v 0.096907 -0.180711 -0.024190
v 0.142039 -0.135731 -0.142062
v 0.080243 -0.141257 -0.184601
v 0.057185 -0.160568 -0.117178
v 0.029977 -0.076093 0.122120
v 0.023919 -0.191713 -0.020251
v 0.053586 -0.122203 0.096843
v 0.024541 0.116662 -0.200012
v 0.036844 0.210906 -0.096431
v 0.051341 -0.013655 0.156747
v 0.057711 0.159309 -0.175749
v 0.046262 -0.084336 -0.205054
v 0.038797 0.150552 0.101617
v 0.077181 -0.181219 0.019562
v 0.026715 -0.131869 -0.147465
v -0.015173 0.126445 0.105099
v 0.025459 0.181180 0.072839
v 0.017792 -0.112568 0.087134
v 0.010869 0.009105 -0.209768
v 0.001546 -0.167889 -0.070538
v 0.008253 -0.189263 0.020746
v -0.019292 -0.202493 -0.024666
v -0.016260 -0.139885 -0.107812
v -0.020462 -0.068290 -0.162457
v 0.007882 0.202616 0.023492
v -0.026458 0.164875 -0.123045
v -0.056696 0.088472 0.077726
v -0.025413 0.006075 0.111584
v -0.068989 0.152537 -0.007590
v -0.064349 -0.134007 0.061853
v -0.074145 -0.019580 0.090758
v -0.083978 -0.073141 -0.131833
v -0.106709 0.045714 0.078062
v -0.050252 0.186285 -0.060610
v -0.053464 -0.204881 0.030652
v -0.064216 0.057402 -0.160028
v -0.087126 -0.133774 -0.096791
v -0.107833 -0.201479 -0.051310
v -0.092852 -0.117326 0.071494
v -0.102829 -0.018791 -0.148488
v -0.112024 -0.177600 0.058390
v -0.137333 0.078985 -0.096969
v -0.121201 0.291239 0.017389
v -0.124481 -0.204427 -0.080752
v -0.143085 -0.079376 -0.132924
v -0.136074 0.103800 -0.039002
v -0.158903 -0.198904 -0.027461
v -0.187013 -0.186946 0.022159
v -0.132512 0.212603 -0.184139
v -0.142298 0.260454 0.033994
v -0.156224 0.179767 -0.198655
v -0.118335 -0.136689 -0.110583
v -0.156391 -0.277900 -0.066714
v -0.166448 -0.210762 -0.037282
v -0.119742 0.094210 0.022828
v -0.131500 0.236576 0.048669
v -0.120169 0.020077 -0.141034
v -0.136261 -0.044219 0.094202
v -0.145663 0.226728 -0.189955
v -0.163917 0.208640 0.010166
v -0.141855 0.311974 0.024175
v -0.152008 -0.207940 0.113720
v -0.156687 -0.254248 0.062425
v -0.179628 0.157627 0.039628
v -0.165976 -0.270903 0.096888
v -0.152214 -0.244088 -0.098949
v -0.193771 0.186428 -0.116385
v -0.189288 -0.118740 0.124746
v -0.197553 -0.273495 0.076801
v -0.184284 0.170482 -0.202016
v -0.265748 0.034827 -0.104446
v -0.216798 0.139143 0.030264
v -0.182479 -0.290388 -0.051162
v -0.199943 -0.349971 -0.088156
v -0.233662 0.109665 0.019518
v -0.217136 -0.345575 0.091608
v -0.238442 0.069524 -0.060002
v -0.189708 0.234416 0.000964
v -0.209044 -0.154008 -0.140920
v -0.192069 -0.238140 -0.124402
v -0.201589 -0.355671 -0.059964
v -0.214813 -0.246492 -0.062379
v -0.193382 -0.283450 -0.104902
v -0.231777 -0.180475 -0.041542
v -0.220721 -0.260445 0.093628
v -0.218254 -0.096272 -0.138555
v -0.201875 -0.326320 0.132433
v -0.225458 -0.204181 -0.127417
v -0.199563 -0.229943 0.128099
v -0.226816 -0.302397 -0.062043
v -0.204381 -0.217810 0.060350
v -0.235740 -0.158698 0.036081
v -0.229254 -0.290693 0.127078
v -0.224890 -0.092258 0.115663
v -0.222174 -0.245111 -0.101532
v -0.187545 0.171881 -0.169276
v -0.240523 -0.029217 0.097780
v -0.216378 -0.210604 0.107133
v -0.190071 0.249510 0.017370
v -0.204210 -0.346905 0.114649
v -0.243785 -0.322368 -0.098087
v -0.252590 -0.373454 -0.093873
v -0.230358 0.073889 0.027316
v -0.258785 -0.356142 -0.048101
v -0.227070 -0.001782 -0.129057
v -0.233735 0.179460 0.006198
v -0.251309 -0.119143 0.079912
v -0.260403 -0.132993 -0.088912
v -0.214704 0.184566 -0.117341
v -0.240569 0.151785 -0.002472
v -0.242137 -0.157644 -0.001815
v -0.258219 0.120356 -0.061008
v -0.281731 0.130766 -0.046231
v -0.253805 -0.022551 -0.131779
v -0.270488 -0.088476 0.083770
v -0.277261 0.108903 -0.095908
v -0.248173 0.097053 0.051950
v -0.261329 0.121718 0.026164
v -0.201009 0.141198 -0.138763
v -0.263992 0.079593 -0.077433
v -0.290430 -0.347065 -0.076537
v -0.266217 -0.317657 0.093907
v -0.285031 0.082703 -0.097854
v -0.267193 -0.341486 0.128321
v -0.265689 0.122748 -0.026907
v -0.252284 0.018901 0.075756
v -0.299204 -0.111190 -0.090283
v -0.311052 -0.129162 0.003765
v -0.298529 0.027802 0.077962
v -0.273079 0.134186 -0.006704
v -0.319520 0.167537 0.035397
v -0.328145 0.085600 -0.102541
v -0.293198 0.099645 0.076043
v -0.319011 0.153754 -0.050878
v -0.361893 -0.079527 -0.051183
v -0.328737 0.022224 -0.109464
v -0.326216 -0.063196 0.066970
v -0.352966 0.163498 -0.058489
v -0.334515 -0.038850 -0.117894
v -0.367481 0.179063 -0.012471
v -0.369584 -0.072456 -0.000736
v -0.394789 0.177527 0.029868
v -0.373867 0.003114 -0.048412
v -0.383302 0.125345 -0.067210
v -0.407479 0.080792 -0.059027
v -0.417592 0.117998 0.072387
v -0.385937 0.000729 0.011731
v -0.366301 -0.001448 0.037186
v -0.462340 0.119700 -0.015991
v -0.440484 0.174765 0.011608
v -0.435540 0.086062 0.058070
v -0.458044 0.146548 0.044117
v -0.448516 0.076170 -0.006482
f 67 83 72
f 1 6 11
f 32 12 8
f 236 228 247
f 247 250 246
f 252 246 250
f 252 250 248
f 248 250 251
f 228 250 247
f 251 249 248
f 140 138 161
f 138 157 161
f 241 249 251
f 241 239 249
f 138 130 157
f 157 132 196
f 132 225 196
f 225 216 232
f 225 202 216
f 230 239 241
f 129 130 138
f 130 132 157
f 132 202 225
f 132 154 202
f 202 174 216
f 216 171 217
f 216 217 232
f 232 217 230
f 106 104 117
f 117 127 129
f 129 127 130
f 163 216 174
f 106 99 104
f 104 127 117
f 130 127 132
f 126 154 132
f 163 171 216
f 84 92 99
f 127 126 132
f 163 155 171
f 155 149 171
f 84 72 83
f 67 49 65
f 67 65 83
f 155 142 149
f 23 11 60
f 36 23 67
f 23 49 67
f 23 60 49
f 112 116 115
f 142 160 149
f 6 38 11
f 11 38 60
f 96 90 112
f 90 116 112
f 38 6 12
f 12 50 38
f 12 32 50
f 50 32 44
f 50 55 62
f 50 44 55
f 55 90 96
f 90 89 116
f 44 58 55
f 55 66 90
f 55 58 66
f 175 223 221
f 175 199 223
f 199 186 223
f 186 192 223
f 223 192 221
f 186 188 192
f 192 184 221
f 192 197 184
f 186 164 188
f 164 161 188
f 188 197 192
f 161 167 188
f 197 188 206
f 206 188 193
f 188 167 193
f 193 214 206
f 214 193 196
f 214 228 236
f 214 196 228
f 196 225 228
f 228 245 250
f 250 245 251
f 161 157 167
f 167 196 193
f 228 232 245
f 241 245 232
f 251 245 241
f 157 196 167
f 225 232 228
f 232 230 241
f 104 109 127
f 99 109 104
f 92 109 99
f 127 115 126
f 127 109 115
f 83 65 92
f 83 92 84
f 92 87 109
f 65 60 92
f 92 86 87
f 87 86 96
f 87 96 109
f 109 96 115
f 49 60 65
f 60 86 92
f 86 55 96
f 96 112 115
f 38 62 60
f 60 62 86
f 62 55 86
f 38 50 62
f 15 33 24
f 110 107 125
f 57 33 52
f 125 107 135
f 76 95 71
f 24 33 57
f 52 53 57
f 166 148 158
f 218 148 166
f 101 71 95
f 148 218 150
f 195 169 222
f 169 150 222
f 150 218 222
f 141 135 156
f 135 139 156
f 101 95 103
f 102 101 103
f 139 123 131
f 123 122 131
f 123 114 122
f 114 119 122
f 114 103 119
f 139 144 156
f 139 131 144
f 131 136 144
f 122 136 131
f 156 185 204
f 204 185 213
f 156 144 185
f 144 178 185
f 144 151 179
f 144 179 178
f 178 179 187
f 40 69 85
f 40 39 69
f 29 39 40
f 39 29 27
f 26 30 27
f 14 30 25
f 14 9 30
f 15 9 14
f 15 14 13
f 69 110 85
f 110 69 107
f 63 76 71
f 61 34 63
f 34 45 63
f 45 76 63
f 34 46 45
f 45 46 53
f 52 45 53
f 21 15 24
f 63 71 73
f 46 56 53
f 48 21 51
f 21 24 51
f 158 169 195
f 107 118 135
f 71 101 73
f 94 73 101
f 56 59 53
f 59 57 53
f 56 48 59
f 51 24 57
f 51 57 59
f 48 51 59
f 94 101 102
f 135 118 139
f 118 111 123
f 118 123 139
f 111 114 123
f 102 114 111
f 102 103 114
f 39 75 69
f 27 41 39
f 27 30 41
f 39 74 75
f 39 41 74
f 41 78 74
f 41 20 78
f 9 20 41
f 9 21 20
f 9 15 21
f 69 75 107
f 75 74 82
f 74 78 82
f 20 21 34
f 61 20 34
f 21 46 34
f 20 61 78
f 78 61 73
f 158 148 150
f 75 118 107
f 118 75 82
f 78 77 82
f 78 73 77
f 61 63 73
f 21 48 46
f 46 48 56
f 150 169 158
f 82 111 118
f 82 77 111
f 111 77 102
f 102 77 94
f 214 236 227
f 210 206 214
f 191 206 210
f 191 197 206
f 140 161 164
f 162 140 164
f 240 236 247
f 191 190 197
f 190 184 197
f 190 168 184
f 162 164 175
f 162 175 168
f 184 168 221
f 164 186 175
f 175 186 199
f 175 221 168
f 58 42 66
f 66 80 90
f 90 80 89
f 28 58 44
f 89 93 124
f 32 37 44
f 31 44 37
f 32 8 37
f 6 8 12
f 6 3 8
f 1 3 6
f 116 89 124
f 37 67 72
f 8 36 37
f 8 10 36
f 5 11 10
f 5 4 11
f 10 11 23
f 1 11 4
f 68 37 72
f 36 67 37
f 10 23 36
f 115 116 124
f 149 160 198
f 142 177 160
f 198 160 177
f 142 155 159
f 177 142 159
f 115 124 128
f 126 115 128
f 97 72 84
f 159 155 163
f 126 128 154
f 97 84 99
f 177 205 198
f 159 209 177
f 149 198 171
f 159 163 174
f 159 174 209
f 97 99 106
f 113 97 106
f 205 177 209
f 171 205 229
f 120 106 117
f 217 229 230
f 229 233 230
f 230 233 239
f 217 171 229
f 205 209 229
f 229 209 224
f 209 174 224
f 174 202 224
f 120 117 129
f 113 106 120
f 239 233 237
f 120 129 134
f 239 243 249
f 134 129 138
f 134 138 140
f 243 248 249
f 252 242 246
f 210 214 227
f 147 190 191
f 140 162 147
f 147 162 190
f 240 247 246
f 240 246 242
f 227 236 240
f 234 227 240
f 162 168 190
f 80 66 70
f 64 70 42
f 66 42 70
f 28 18 42
f 17 18 28
f 19 17 28
f 28 42 58
f 89 80 93
f 31 28 44
f 19 28 31
f 3 7 8
f 7 10 8
f 1 2 3
f 31 68 54
f 31 37 68
f 3 2 7
f 2 5 7
f 7 5 10
f 2 1 4
f 2 4 5
f 108 124 93
f 81 68 97
f 68 72 97
f 124 133 128
f 91 81 97
f 91 97 113
f 128 133 145
f 154 128 145
f 202 145 176
f 154 145 202
f 229 212 233
f 224 211 212
f 229 224 212
f 219 211 224
f 239 237 243
f 202 219 224
f 176 170 202
f 105 120 121
f 121 134 137
f 121 120 134
f 243 244 248
f 134 140 147
f 146 134 147
f 137 134 146
f 248 244 252
f 244 242 252
f 147 191 210
f 153 146 147
f 153 147 183
f 234 240 242
f 226 227 234
f 183 210 207
f 183 147 210
f 54 68 81
f 88 81 91
f 233 212 215
f 207 210 227
f 207 227 226
f 35 64 18
f 42 18 64
f 17 35 18
f 64 79 70
f 52 33 45
f 15 13 33
f 13 14 25
f 25 30 26
f 22 27 29
f 29 40 43
f 187 179 194
f 187 207 178
f 151 165 179
f 144 136 151
f 76 45 25
f 25 47 76
f 108 110 125
f 33 13 45
f 13 25 45
f 108 85 110
f 25 26 47
f 26 27 22
f 79 40 85
f 43 22 29
f 43 40 64
f 79 64 40
f 201 220 200
f 173 180 201
f 200 173 201
f 182 173 200
f 189 194 200
f 152 173 182
f 179 182 200
f 179 200 194
f 152 182 165
f 165 182 179
f 194 181 207
f 187 194 207
f 165 143 152
f 178 207 226
f 178 226 238
f 185 178 238
f 151 143 165
f 151 137 143
f 213 185 238
f 235 213 238
f 136 121 137
f 136 137 151
f 170 213 235
f 204 213 170
f 222 170 235
f 122 121 136
f 119 121 122
f 215 222 231
f 218 211 222
f 100 105 103
f 103 105 119
f 170 156 204
f 170 141 156
f 141 170 176
f 195 222 215
f 195 215 208
f 103 95 100
f 88 100 95
f 125 135 141
f 208 158 195
f 166 158 208
f 76 88 95
f 108 125 133
f 76 54 88
f 47 54 76
f 47 19 54
f 26 22 47
f 98 85 108
f 16 19 22
f 98 79 85
f 16 17 19
f 16 22 43
f 64 35 43
f 35 17 16
f 35 16 43
f 203 220 201
f 201 180 203
f 203 189 220
f 189 200 220
f 180 172 203
f 203 172 189
f 173 172 180
f 152 172 173
f 189 181 194
f 172 181 189
f 152 153 172
f 172 153 181
f 153 183 181
f 181 183 207
f 238 226 234
f 242 238 234
f 143 153 152
f 235 238 242
f 153 143 146
f 143 137 146
f 244 235 242
f 235 244 243
f 231 235 243
f 231 222 235
f 231 243 237
f 119 105 121
f 219 170 222
f 202 170 219
f 211 219 222
f 233 231 237
f 215 231 233
f 105 113 120
f 176 145 141
f 166 212 211
f 218 166 211
f 100 113 105
f 212 208 215
f 166 208 212
f 100 91 113
f 100 88 91
f 133 141 145
f 141 133 125
f 54 81 88
f 124 108 133
f 93 98 108
f 19 31 54
f 22 19 47
f 80 79 98
f 70 79 80
f 80 98 93
f 9 41 30
f 73 94 77
f 198 205 171
