v 0.432165 -0.151931 -0.112291
v 0.448288 -0.134243 0.046663
v 0.420662 -0.121089 0.061320
v 0.439106 -0.131343 -0.077961
v 0.424563 -0.129222 -0.099792
v 0.394117 0.101608 -0.012309
v 0.405215 -0.071921 0.032979
v 0.397320 0.077564 -0.036538
v 0.372662 0.135738 -0.001086
v 0.342515 0.075387 0.030890
v 0.391648 -0.067434 -0.074472
v 0.432990 -0.146083 0.077872
v 0.373975 0.020421 -0.048269
v 0.365927 -0.039690 -0.055776
v 0.371818 0.139188 -0.053288
v 0.401914 -0.133284 -0.097319
v 0.371757 0.023118 0.013327
v 0.396434 -0.070929 0.020413
v 0.357316 -0.049712 0.007497
v 0.397024 -0.121060 0.078467
v 0.341452 -0.082634 -0.092389
v 0.376512 -0.099282 -0.070307
v 0.314602 0.128642 -0.056488
v 0.383703 -0.109961 -0.122026
v 0.375325 -0.064836 -0.053578
v 0.362721 -0.035400 0.010234
v 0.382952 -0.113152 0.050237
v 0.338594 0.025610 0.035656
v 0.344474 -0.009097 -0.052620
v 0.352263 0.031934 -0.083605
v 0.339429 -0.072613 0.056558
v 0.379343 -0.092411 0.025816
v 0.323644 -0.044239 -0.080848
v 0.299337 0.088236 0.032451
v 0.322111 -0.026057 0.024534
v 0.367260 -0.085568 0.052159
v 0.314313 -0.033426 0.023984
v 0.336237 0.109248 -0.079384
v 0.332652 -0.018233 -0.019385
v 0.308580 -0.005768 0.041891
v 0.304677 0.025342 0.054034
v 0.310580 -0.013370 -0.087230
v 0.315170 -0.039005 -0.071578
v 0.331414 0.139827 -0.001136
v 0.244600 0.097139 -0.026806
v 0.294568 -0.022647 -0.026862
v 0.282249 -0.029394 -0.064196
v 0.285800 -0.017414 0.038363
v 0.240372 -0.032384 0.042026
v 0.189525 0.219339 -0.089640
v 0.233876 0.085038 -0.001351
v 0.181709 0.188582 -0.095311
v 0.228805 -0.005489 0.060110
v 0.272923 0.021360 -0.105717
v 0.238939 0.081238 -0.058518
v 0.239015 -0.040448 -0.085121
v 0.250670 0.049522 0.044085
v 0.194546 0.050675 0.057665
v 0.237291 -0.062037 -0.024499
v 0.201204 0.200384 -0.125084
v 0.211810 0.044423 -0.105323
v 0.174899 0.073266 0.039649
v 0.162463 -0.095918 -0.072996
v 0.230092 -0.012374 -0.106577
v 0.167968 0.098348 -0.025161
v 0.126013 0.150931 -0.132076
v 0.206780 -0.067290 0.035016
v 0.135045 0.209786 -0.088414
v 0.178475 0.041059 0.076734
v 0.158193 0.232026 -0.122344
v 0.153681 0.161972 -0.115234
v 0.171933 0.067138 -0.095089
v 0.140189 -0.056037 -0.109547
v 0.113941 0.186499 -0.098801
v 0.168027 -0.038423 0.064033
v 0.135572 0.181025 -0.084430
v 0.137195 0.062745 -0.136374
v 0.147927 0.092512 -0.110136
v 0.182334 0.029779 -0.127367
v 0.180464 -0.097746 -0.019026
v 0.137514 0.105772 -0.055817
v 0.138940 0.126615 -0.094599
v 0.127363 0.130220 0.016567
v 0.107818 -0.003930 -0.120316
v 0.106807 0.158939 -0.119734
v 0.104993 0.116602 -0.002878
v 0.084912 0.095742 -0.129444
v 0.081245 0.160884 -0.090766
v 0.058582 0.117847 -0.043381
v 0.097544 -0.077306 0.070308
v 0.092581 0.166030 -0.075717
v 0.108906 0.140158 0.077428
v 0.112997 0.005218 0.071540
v 0.065446 0.130379 -0.108904
v 0.075928 -0.157998 0.027472
v 0.053520 0.179436 0.053827
v 0.047051 0.148715 0.070867
v 0.093655 0.115025 -0.054041
v 0.110547 0.073423 0.081545
v 0.065423 0.166496 0.039837
v 0.127750 -0.108882 0.030524
v 0.039902 0.111265 0.013072
v 0.036083 0.237861 0.025799
v 0.079369 -0.098877 -0.115404
v 0.042777 0.242107 0.066306
v 0.058446 0.143229 0.013177
v 0.055796 -0.030722 0.071434
v 0.056382 0.069148 0.057315
v 0.036502 0.089880 -0.076165
v 0.020312 0.098723 0.003344
v 0.067184 -0.048805 -0.118810
v 0.009719 0.249747 0.052397
v 0.015856 0.197249 0.067727
v 0.014654 0.142570 0.038649
v 0.055732 0.021983 0.056912
v 0.103902 -0.129100 -0.069060
v 0.050388 0.018630 -0.103321
v -0.000569 0.209975 0.023438
v 0.133797 -0.126036 -0.024733
v 0.006359 0.159018 0.024424
v 0.004345 0.048230 0.034893
v -0.015828 0.207413 0.050405
v 0.039583 -0.204246 -0.020429
v 0.063988 -0.114546 0.068331
v 0.042609 -0.184538 -0.067870
v 0.034333 -0.154191 -0.104762
v -0.007250 0.046395 -0.092856
v 0.014672 -0.046278 0.091801
v -0.047209 0.066160 -0.085880
v 0.022506 -0.090558 0.098150
v -0.025385 0.046143 0.061609
v -0.013676 0.085695 -0.005802
v 0.019655 -0.193319 0.032539
v 0.012737 -0.056633 -0.138699
v -0.039123 -0.151940 -0.145000
v -0.023462 -0.183472 0.069280
v 0.002212 -0.223425 -0.003832
v -0.020722 0.088051 -0.042150
v -0.042701 -0.196394 -0.108290
v -0.054538 0.008490 -0.161526
v -0.040047 -0.046564 -0.172957
v -0.038959 -0.020520 0.122042
v -0.010983 -0.102788 -0.156032
v -0.051605 0.063727 0.043418
v -0.028271 -0.229522 -0.047777
v -0.074357 0.021270 0.127112
v -0.073103 0.028754 -0.173678
v -0.036925 -0.061340 0.125169
v -0.077191 0.043510 -0.119807
v -0.087669 0.053520 0.068678
v -0.093946 0.055977 -0.131828
v -0.062760 -0.233051 0.018985
v -0.111957 0.076664 0.097981
v -0.064957 -0.140561 0.119510
v -0.136024 0.064729 -0.170064
v -0.090163 -0.179198 0.104120
v -0.121975 0.073850 -0.041484
v -0.103783 0.080314 -0.007256
v -0.127815 0.071954 0.117184
v -0.107574 -0.004304 -0.183443
v -0.127317 0.033706 -0.079567
v -0.071681 -0.132264 -0.163250
v -0.140013 0.071642 -0.123646
v -0.136540 0.074492 -0.149712
v -0.157182 0.045919 0.052436
v -0.168679 0.036438 -0.104929
v -0.194267 0.082639 0.112960
v -0.121709 0.039787 0.031215
v -0.076082 -0.245767 -0.018611
v -0.179254 0.087267 0.072584
v -0.187006 0.045033 -0.027816
v -0.207627 0.051578 -0.115724
v -0.104137 -0.222876 -0.084302
v -0.217041 0.095920 -0.122045
v -0.164883 0.023925 -0.175358
v -0.137981 -0.013211 0.135842
v -0.220220 0.098366 -0.153265
v -0.175046 0.021447 0.123908
v -0.095805 -0.185268 -0.140660
v -0.177671 -0.182035 0.086611
v -0.156120 -0.231568 -0.016363
v -0.229661 0.210559 -0.141712
v -0.238209 0.057926 -0.169621
v -0.181536 -0.203117 -0.103572
v -0.237043 0.150413 -0.139220
v -0.225203 -0.056208 -0.164259
v -0.232715 0.120670 0.061206
v -0.153468 -0.028297 -0.180502
v -0.258816 0.205113 0.104784
v -0.267199 0.231948 -0.152097
v -0.217922 0.103579 0.097481
v -0.257740 0.143561 -0.107164
v -0.257787 0.196959 -0.170083
v -0.249762 0.202255 0.048292
v -0.157254 -0.211952 0.048200
v -0.249815 0.160700 0.098116
v -0.251466 0.208219 -0.111870
v -0.182651 0.021401 0.019677
v -0.243417 0.223369 0.080167
v -0.247846 0.145551 -0.161120
v -0.179249 0.019598 -0.071333
v -0.283380 0.232549 0.092779
v -0.250144 0.001903 -0.086998
v -0.245779 0.015480 -0.098311
v -0.288045 0.220443 0.056112
v -0.272165 0.082624 -0.105851
v -0.236305 0.057977 0.116601
v -0.271791 0.022722 -0.141783
v -0.200647 -0.201790 0.034150
v -0.271622 -0.001531 0.036799
v -0.230637 -0.059168 0.114516
v -0.284636 0.189235 -0.144651
v -0.286414 0.125912 0.046447
v -0.243510 -0.118706 -0.135999
v -0.215162 -0.121494 0.098915
v -0.289717 0.156284 -0.109852
v -0.248469 0.024434 0.048520
v -0.297786 0.165209 0.080283
v -0.247548 -0.160614 0.052938
v -0.285102 0.152017 0.098089
v -0.277443 0.117002 -0.160410
v -0.294652 0.110466 -0.147350
v -0.216681 -0.203208 -0.024243
v -0.273050 0.099046 0.107423
v -0.245144 0.015955 -0.024158
v -0.270278 -0.000861 0.058774
v -0.293995 0.082836 0.093193
v -0.247509 -0.009218 -0.158368
v -0.272901 -0.011183 -0.104645
v -0.289717 0.056827 -0.148239
v -0.248183 -0.004601 0.109578
v -0.293127 0.079118 0.056847
v -0.273854 0.040208 0.094773
v -0.257312 -0.160392 -0.074820
v -0.267606 -0.114138 0.066528
v -0.291075 0.052535 -0.112081
v -0.280265 -0.062874 -0.133963
v -0.248973 -0.152898 -0.108246
v -0.269198 -0.066632 0.099884
v -0.262070 -0.166371 -0.017344
v -0.285942 -0.056488 0.072727
v -0.297059 -0.013417 -0.027477
v -0.299584 -0.053131 0.022979
v -0.295502 -0.083391 -0.062272
v -0.328109 -0.009579 -0.013331
v -0.335181 -0.088027 -0.049291
v -0.326304 -0.037994 -0.067114
v -0.287966 -0.103729 0.007315
v -0.292254 -0.111948 -0.023233
v -0.340270 -0.036977 0.011646
v -0.340171 -0.088777 -0.000968
v -0.356963 -0.039528 -0.028675
f 207 227 233
f 189 202 220
f 196 189 220
f 191 196 224
f 224 196 220
f 167 191 224
f 207 167 224
f 207 224 227
f 159 153 167
f 167 153 191
f 178 167 207
f 176 146 159
f 178 159 167
f 178 207 231
f 231 207 233
f 146 153 159
f 176 159 178
f 142 131 146
f 176 178 211
f 211 178 231
f 142 176 148
f 176 142 146
f 128 142 148
f 148 176 154
f 154 176 215
f 215 176 211
f 130 128 148
f 154 130 148
f 154 215 156
f 216 190 212
f 197 182 190
f 162 135 179
f 162 143 135
f 162 179 186
f 143 162 141
f 188 162 186
f 160 162 188
f 160 141 162
f 134 141 140
f 175 188 186
f 160 188 175
f 147 141 160
f 140 141 147
f 175 186 228
f 183 228 208
f 183 175 228
f 155 160 175
f 147 160 155
f 164 151 155
f 151 147 155
f 183 208 230
f 221 183 230
f 177 155 183
f 164 155 177
f 155 175 183
f 200 183 221
f 200 177 183
f 193 200 221
f 182 200 193
f 212 190 193
f 190 182 193
f 115 110 121
f 115 108 110
f 115 99 108
f 232 226 233
f 170 165 217
f 168 165 150
f 144 158 168
f 102 108 114
f 108 99 114
f 62 83 92
f 226 232 217
f 213 187 217
f 187 170 217
f 99 97 114
f 92 83 100
f 213 217 232
f 97 113 114
f 120 114 122
f 114 113 122
f 96 105 113
f 105 96 103
f 213 232 218
f 213 194 187
f 113 112 122
f 205 213 218
f 205 194 213
f 105 103 112
f 199 194 205
f 133 136 152
f 137 133 152
f 103 96 100
f 143 104 126
f 186 179 214
f 134 143 141
f 134 111 143
f 111 104 143
f 237 214 238
f 144 150 131
f 93 115 107
f 90 75 93
f 195 156 180
f 69 62 92
f 131 150 146
f 153 146 150
f 231 233 226
f 93 69 99
f 128 121 131
f 128 131 142
f 211 231 239
f 231 226 241
f 239 231 241
f 53 58 69
f 69 93 75
f 93 99 115
f 235 239 241
f 90 93 107
f 130 90 107
f 130 107 128
f 211 239 215
f 219 215 235
f 215 239 235
f 124 90 130
f 124 130 154
f 219 180 215
f 136 124 154
f 136 154 156
f 156 215 180
f 20 3 36
f 20 36 31
f 12 3 20
f 186 214 237
f 228 186 237
f 229 228 237
f 127 134 140
f 228 229 208
f 140 147 151
f 149 140 151
f 87 77 84
f 78 79 77
f 66 77 87
f 66 78 77
f 163 164 174
f 163 151 164
f 85 66 87
f 236 222 230
f 174 177 185
f 185 177 200
f 221 222 212
f 212 193 221
f 200 182 185
f 174 164 177
f 221 230 222
f 172 174 206
f 74 85 88
f 74 70 85
f 70 66 85
f 71 52 82
f 60 71 66
f 60 52 71
f 236 216 222
f 206 216 236
f 206 192 216
f 174 192 206
f 174 185 192
f 70 74 68
f 50 60 70
f 60 50 52
f 212 222 216
f 192 197 216
f 182 197 192
f 50 70 68
f 197 190 216
f 214 179 184
f 135 139 179
f 143 126 135
f 5 24 33
f 184 238 214
f 70 60 66
f 185 182 192
f 123 133 137
f 2 27 32
f 181 195 209
f 95 133 123
f 95 124 133
f 18 2 32
f 7 2 18
f 121 132 144
f 198 210 217
f 150 144 168
f 217 210 226
f 131 121 144
f 165 198 217
f 226 210 243
f 226 243 241
f 58 62 69
f 115 121 107
f 28 10 41
f 57 41 34
f 41 57 58
f 107 121 128
f 248 235 243
f 243 235 241
f 48 40 41
f 48 41 53
f 53 41 58
f 53 69 75
f 49 48 53
f 67 49 53
f 67 53 75
f 67 75 101
f 101 75 90
f 248 219 235
f 36 35 40
f 36 40 31
f 31 40 48
f 37 31 48
f 124 101 90
f 180 219 209
f 37 27 31
f 195 180 209
f 3 7 36
f 101 124 95
f 32 27 37
f 19 32 37
f 36 7 35
f 18 32 19
f 80 67 101
f 59 49 67
f 2 3 12
f 35 7 26
f 26 18 19
f 7 18 26
f 219 248 240
f 28 41 40
f 35 28 40
f 39 28 35
f 17 28 39
f 10 28 17
f 248 243 251
f 8 10 17
f 243 250 251
f 57 62 58
f 57 51 62
f 57 34 51
f 10 34 41
f 243 245 250
f 80 59 67
f 210 242 243
f 198 225 210
f 165 168 198
f 110 132 121
f 10 44 34
f 6 9 10
f 9 44 10
f 168 158 198
f 144 132 158
f 108 102 110
f 86 110 102
f 83 62 81
f 120 102 114
f 106 86 102
f 100 83 106
f 83 86 106
f 120 106 102
f 118 106 120
f 100 106 118
f 103 100 118
f 122 118 120
f 112 118 122
f 112 103 118
f 169 195 181
f 169 152 195
f 137 152 169
f 181 209 223
f 119 95 123
f 223 209 219
f 119 101 95
f 80 101 119
f 34 44 51
f 68 74 91
f 76 50 68
f 52 50 76
f 5 4 1
f 3 2 7
f 227 232 233
f 27 20 31
f 133 124 136
f 136 156 152
f 12 20 27
f 195 152 156
f 27 2 12
f 189 199 202
f 199 205 202
f 220 202 218
f 202 205 218
f 105 112 113
f 194 199 196
f 194 196 187
f 196 199 189
f 191 187 196
f 220 218 227
f 224 220 227
f 227 218 232
f 100 96 92
f 92 96 97
f 97 96 113
f 170 187 191
f 99 92 97
f 153 150 165
f 153 165 170
f 153 170 191
f 99 69 92
f 1 4 16
f 184 179 173
f 139 169 173
f 139 173 179
f 126 139 135
f 126 125 139
f 24 16 21
f 21 16 22
f 11 5 33
f 104 125 126
f 104 116 125
f 42 33 21
f 33 24 21
f 104 63 116
f 73 63 104
f 21 43 42
f 73 104 111
f 64 63 73
f 64 56 63
f 64 47 56
f 47 64 42
f 43 47 42
f 238 234 237
f 84 73 111
f 79 73 84
f 24 1 16
f 79 64 73
f 64 54 42
f 54 30 42
f 117 111 134
f 84 111 117
f 79 61 64
f 61 54 64
f 55 54 61
f 38 30 54
f 87 84 117
f 72 79 78
f 72 61 79
f 203 204 229
f 203 166 204
f 129 140 149
f 129 127 140
f 204 236 208
f 204 208 229
f 166 172 204
f 163 172 166
f 161 151 166
f 166 151 163
f 149 151 161
f 157 149 161
f 157 129 149
f 94 87 117
f 82 78 66
f 204 206 236
f 204 172 206
f 172 163 174
f 88 85 94
f 85 87 94
f 71 82 66
f 77 79 84
f 230 208 236
f 223 219 240
f 39 19 37
f 26 19 39
f 240 248 249
f 46 49 59
f 46 48 49
f 37 48 46
f 39 37 46
f 14 11 33
f 25 43 22
f 56 59 63
f 25 11 14
f 21 22 43
f 63 80 116
f 238 184 223
f 238 223 234
f 4 5 25
f 5 11 25
f 4 25 22
f 4 22 16
f 116 119 125
f 173 169 184
f 125 123 145
f 139 125 145
f 139 145 169
f 89 138 110
f 158 138 157
f 86 81 98
f 86 98 89
f 138 89 109
f 157 161 171
f 35 26 39
f 39 29 17
f 248 251 249
f 8 17 13
f 8 6 10
f 251 250 252
f 250 245 252
f 243 242 245
f 210 225 242
f 62 65 81
f 62 51 65
f 45 65 51
f 44 45 51
f 9 15 44
f 6 15 9
f 198 171 225
f 198 158 171
f 158 157 171
f 132 138 158
f 110 138 132
f 110 86 89
f 83 81 86
f 251 252 246
f 225 203 242
f 6 8 15
f 184 169 181
f 137 169 145
f 123 137 145
f 184 181 223
f 125 119 123
f 234 223 240
f 63 59 80
f 56 46 59
f 25 39 43
f 25 14 39
f 47 46 56
f 47 43 46
f 43 39 46
f 14 29 39
f 13 17 29
f 234 240 249
f 246 249 251
f 247 246 252
f 245 247 252
f 245 242 247
f 203 229 242
f 81 65 72
f 45 55 65
f 45 23 55
f 171 201 225
f 44 23 45
f 15 23 44
f 15 38 23
f 80 119 116
f 55 72 65
f 42 29 33
f 29 14 33
f 30 29 42
f 30 13 29
f 8 13 30
f 247 244 246
f 244 249 246
f 244 234 249
f 94 117 109
f 117 134 127
f 55 38 54
f 237 234 244
f 76 68 91
f 82 52 76
f 98 76 91
f 91 74 88
f 82 76 98
f 98 91 88
f 88 94 109
f 81 78 82
f 81 82 98
f 98 88 109
f 98 109 89
f 138 127 129
f 129 157 138
f 81 72 78
f 109 117 138
f 127 138 117
f 161 166 201
f 161 201 171
f 203 201 166
f 201 203 225
f 242 229 237
f 8 38 15
f 38 55 23
f 72 55 61
f 242 237 244
f 242 244 247
f 38 8 30
f 5 1 24
