v 0.460802 -0.148223 -0.116495
v 0.465936 -0.143052 0.051049
v 0.446692 -0.129348 -0.115853
v 0.399378 0.110438 -0.007543
v 0.443431 -0.117903 0.043666
v 0.374573 0.137040 0.010708
v 0.424716 -0.120782 -0.083145
v 0.390366 0.089426 -0.035198
v 0.375242 0.147789 -0.034994
v 0.418866 -0.134809 -0.121643
v 0.393906 0.065423 -0.012235
v 0.430716 -0.108866 0.027426
v 0.329044 0.148316 -0.007019
v 0.369632 0.040580 0.027092
v 0.419613 -0.091885 -0.072369
v 0.366233 -0.051728 0.007118
v 0.358936 -0.073741 -0.098201
v 0.397858 -0.059650 -0.075476
v 0.426075 -0.150686 0.062060
v 0.414575 -0.125695 0.066894
v 0.415032 -0.108914 -0.141459
v 0.397786 -0.060495 0.024015
v 0.364228 0.013345 -0.047886
v 0.330665 0.102863 -0.076147
v 0.334486 -0.008965 -0.044627
v 0.373715 0.046712 -0.068626
v 0.368998 -0.090589 -0.082300
v 0.338250 0.111731 0.037815
v 0.362179 -0.045823 -0.051249
v 0.376473 -0.095033 0.049103
v 0.398331 -0.108376 0.024857
v 0.329717 -0.037736 0.027903
v 0.297507 0.122263 -0.049347
v 0.306241 0.004711 -0.090708
v 0.336676 -0.008396 -0.004009
v 0.369451 0.018205 0.016251
v 0.355055 -0.081414 -0.109549
v 0.297072 0.032970 -0.100707
v 0.312452 -0.020270 0.032932
v 0.328089 -0.016984 -0.027461
v 0.348604 -0.081469 0.058387
v 0.353434 -0.090638 0.042916
v 0.307637 -0.023629 0.044634
v 0.289224 -0.022866 -0.061839
v 0.315140 -0.030402 -0.069859
v 0.307914 -0.017454 -0.022016
v 0.317302 -0.036040 0.022328
v 0.282383 -0.026600 0.016713
v 0.288162 -0.000717 -0.089317
v 0.276907 -0.008196 0.048840
v 0.249312 0.015392 -0.103026
v 0.299317 0.028582 0.059060
v 0.237774 0.079481 -0.062718
v 0.207694 0.235765 -0.109645
v 0.243579 -0.038696 0.018724
v 0.241658 -0.028921 -0.087126
v 0.201975 0.211740 -0.119027
v 0.187539 0.039395 -0.121455
v 0.227801 0.024064 0.065673
v 0.252579 0.049290 0.049716
v 0.197949 0.200687 -0.087052
v 0.233558 0.094957 -0.016929
v 0.164678 0.226113 -0.110716
v 0.238796 0.080354 0.021242
v 0.251632 -0.047617 -0.018945
v 0.182438 0.033167 0.079714
v 0.151608 0.168409 -0.097490
v 0.184116 -0.028837 -0.110814
v 0.139539 0.116444 0.067884
v 0.198884 -0.033651 0.061649
v 0.179700 0.235355 -0.067881
v 0.154581 -0.109105 -0.027657
v 0.170688 0.077606 -0.086563
v 0.203182 -0.072181 0.029747
v 0.172034 0.071525 0.047740
v 0.148927 0.102915 -0.026552
v 0.140555 0.112333 0.015616
v 0.139463 0.118841 -0.095163
v 0.149902 0.245458 -0.092994
v 0.108055 -0.012274 0.072577
v 0.126604 0.133221 -0.066981
v 0.130188 0.111065 -0.125561
v 0.088615 0.178659 -0.062582
v 0.144308 0.187375 -0.070362
v 0.136303 0.112518 -0.049200
v 0.127448 0.187526 -0.109546
v 0.104773 0.120211 0.008033
v 0.197601 -0.069859 -0.082884
v 0.116376 0.068425 -0.130177
v 0.096011 0.147618 0.051433
v 0.127789 -0.016159 -0.117925
v 0.077051 0.157987 -0.099649
v 0.112956 0.117078 0.091571
v 0.121681 -0.065968 0.062217
v 0.072780 0.125020 -0.052413
v 0.101430 0.146705 -0.050930
v 0.085457 0.103942 -0.122738
v 0.113567 0.066692 0.091069
v 0.071631 0.120388 -0.020232
v 0.045828 0.186245 0.068002
v 0.048149 0.116216 -0.089864
v 0.069147 0.144603 0.090898
v 0.120939 -0.109346 -0.080753
v 0.034847 0.163355 0.036894
v 0.041469 0.048489 -0.093106
v 0.123234 -0.133434 -0.027802
v 0.074897 -0.095544 0.070315
v 0.046822 0.098897 0.020339
v 0.068865 0.025177 -0.110681
v 0.039857 0.103778 -0.066273
v 0.062426 -0.170511 0.014864
v 0.044671 0.145145 0.086119
v 0.012716 0.055050 0.033588
v 0.041170 0.090415 0.062821
v 0.009086 0.141902 0.035029
v 0.058734 0.022374 0.062406
v 0.006987 0.228042 0.045051
v 0.101305 -0.127893 0.019402
v 0.002468 0.234805 0.083922
v 0.060431 -0.032109 -0.122629
v 0.074361 -0.090440 -0.124601
v 0.004140 0.168750 0.060462
v 0.052530 -0.190699 -0.032014
v -0.003554 0.010890 0.061736
v 0.017681 -0.035383 -0.136450
v 0.046914 -0.034133 0.070738
v 0.015275 -0.100069 0.094383
v 0.009546 0.060323 -0.074049
v 0.028881 -0.152889 0.057248
v 0.009148 -0.055283 0.091632
v 0.000381 -0.087359 -0.158656
v 0.053248 -0.172926 -0.079915
v -0.053993 0.067390 0.041457
v -0.023477 0.053264 0.051712
v -0.009456 0.099602 -0.009077
v -0.000816 0.017831 -0.107839
v -0.094911 0.085349 0.005937
v -0.003606 -0.216848 0.000515
v -0.048416 0.057751 -0.113404
v -0.021462 0.092708 -0.036533
v -0.052233 0.018912 -0.158432
v -0.059679 -0.003678 0.122752
v -0.038609 -0.024597 -0.174624
v 0.000410 -0.221213 -0.049442
v -0.079181 0.092313 -0.036682
v -0.048248 -0.055497 0.125283
v -0.129679 -0.020148 0.136403
v -0.053619 -0.195537 0.064814
v -0.078223 0.043806 -0.173319
v -0.074829 0.052437 -0.134940
v -0.077147 0.041511 0.086534
v -0.034511 -0.223818 -0.074263
v -0.077760 0.022687 0.128779
v -0.101340 0.051227 -0.099440
v -0.134153 0.138394 0.081927
v -0.131849 0.172077 0.105076
v -0.154687 0.121840 0.107795
v -0.135783 0.060023 0.126516
v -0.120717 0.084171 -0.154021
v -0.105316 0.043945 0.054566
v -0.059715 -0.096469 -0.176263
v -0.161045 0.168535 0.071783
v 0.009044 -0.161140 -0.120212
v -0.138296 0.033169 0.029162
v -0.093290 -0.244761 -0.035422
v -0.181802 0.074825 0.123426
v -0.072147 -0.157989 0.106372
v -0.177580 0.116377 0.062452
v -0.147147 0.085800 -0.119719
v -0.144498 0.076606 0.079796
v -0.192751 0.130738 0.115846
v -0.081497 -0.202593 -0.124153
v -0.143924 0.075001 -0.027854
v -0.150926 0.039482 -0.067073
v -0.143178 0.048094 -0.101116
v -0.069626 -0.147685 -0.168895
v -0.133580 0.000840 -0.186564
v -0.161379 0.074763 -0.170060
v -0.198124 0.037733 -0.100365
v -0.175511 0.038774 0.057599
v -0.091109 -0.226983 0.029054
v -0.179815 0.161899 0.100952
v -0.190111 0.018954 0.025038
v -0.119317 -0.175276 -0.153292
v -0.099383 -0.185965 0.090472
v -0.188301 0.024606 -0.173067
v -0.197764 0.020243 -0.072013
v -0.211433 0.078758 0.073915
v -0.210918 0.061912 -0.112782
v -0.175192 0.092219 -0.156757
v -0.207396 0.142521 0.061289
v -0.191299 0.011912 0.124707
v -0.221780 0.077157 0.112352
v -0.248270 0.012535 0.048023
v -0.226890 0.108811 -0.113871
v -0.176256 -0.065748 0.120872
v -0.249179 0.092923 0.115601
v -0.237429 0.220130 -0.141199
v -0.260117 0.247618 -0.120636
v -0.243182 0.162498 -0.105643
v -0.235512 0.059556 -0.169221
v -0.276302 0.149244 -0.095288
v -0.252283 0.215072 -0.095953
v -0.259441 0.163657 -0.151757
v -0.251012 0.047521 0.121816
v -0.272597 0.241692 -0.143341
v -0.227691 0.113135 -0.151302
v -0.175599 -0.204572 -0.108472
v -0.189917 -0.189135 0.069468
v -0.283821 0.219229 -0.099934
v -0.257207 -0.006005 0.109347
v -0.257635 0.119593 0.098278
v -0.196535 -0.211060 0.018005
v -0.252362 0.005357 0.036520
v -0.231967 -0.037064 -0.170741
v -0.238046 -0.052390 0.115809
v -0.239038 0.021793 -0.023403
v -0.254221 0.008645 -0.157022
v -0.274519 0.087971 -0.100245
v -0.295019 0.180335 -0.131703
v -0.290410 0.041201 0.094211
v -0.286892 0.089855 0.103406
v -0.184069 -0.179903 -0.138656
v -0.264829 0.107367 0.059390
v -0.244844 0.014930 -0.095192
v -0.274399 0.086171 -0.158285
v -0.304009 0.067760 0.064009
v -0.282877 0.159321 -0.147533
v -0.257990 -0.157531 0.047613
v -0.212440 -0.206430 -0.042941
v -0.276223 -0.008083 0.060444
v -0.299815 0.093214 -0.106860
v -0.306087 -0.015090 -0.013795
v -0.294928 -0.052902 0.055075
v -0.273947 0.003830 -0.109000
v -0.275641 -0.074820 0.093740
v -0.293353 -0.048638 -0.116298
v -0.297835 0.073332 -0.143818
v -0.300722 -0.012583 -0.044753
v -0.312644 0.043497 0.072978
v -0.256620 -0.152347 -0.111652
v -0.271965 -0.066689 -0.153117
v -0.266910 -0.166585 -0.034297
v -0.299202 -0.086118 0.016575
v -0.300789 -0.077192 -0.072333
v -0.335898 -0.009095 -0.043878
v -0.297175 -0.107405 -0.038057
v -0.325394 -0.093362 0.000474
v -0.342577 -0.030103 0.008911
v -0.342551 -0.045876 -0.066781
v -0.328119 -0.103819 -0.047240
v -0.368103 -0.062970 -0.027853
f 158 170 166
f 236 211 231
f 2 20 19
f 171 156 182
f 156 171 157
f 157 171 193
f 193 171 197
f 222 197 212
f 205 197 222
f 192 166 205
f 205 166 193
f 193 197 205
f 153 151 158
f 158 151 170
f 158 166 192
f 211 192 205
f 211 205 221
f 142 151 153
f 192 147 158
f 147 192 216
f 216 192 211
f 147 142 153
f 142 147 146
f 147 153 158
f 196 147 216
f 216 211 236
f 124 142 130
f 130 142 146
f 167 146 147
f 167 127 146
f 167 147 196
f 185 167 196
f 210 206 220
f 199 206 210
f 199 198 206
f 203 198 199
f 131 176 161
f 143 131 161
f 215 184 223
f 176 184 215
f 177 161 176
f 143 161 177
f 125 131 143
f 177 176 215
f 149 143 177
f 186 177 215
f 141 143 149
f 186 218 201
f 218 186 215
f 177 186 178
f 150 141 149
f 178 186 201
f 178 149 177
f 159 149 178
f 149 159 150
f 201 218 226
f 226 207 201
f 207 190 201
f 190 178 201
f 159 178 190
f 204 226 228
f 204 207 226
f 206 204 228
f 198 204 206
f 121 163 131
f 120 121 131
f 223 241 242
f 125 120 131
f 215 223 242
f 218 242 237
f 215 242 218
f 136 125 143
f 89 58 91
f 136 143 141
f 139 141 150
f 89 109 97
f 82 89 97
f 58 89 82
f 73 58 82
f 218 235 238
f 154 159 169
f 154 150 159
f 226 218 238
f 195 190 207
f 169 159 190
f 92 86 97
f 86 82 97
f 86 67 82
f 228 226 238
f 232 220 238
f 220 228 238
f 207 200 195
f 54 57 63
f 200 207 204
f 200 198 203
f 206 228 220
f 198 200 204
f 194 180 183
f 170 160 180
f 245 251 250
f 44 65 56
f 15 25 29
f 144 132 123
f 173 174 187
f 173 187 217
f 4 8 9
f 8 24 9
f 13 33 62
f 33 53 62
f 62 53 73
f 62 73 76
f 64 62 76
f 217 225 239
f 249 246 252
f 246 250 252
f 11 8 4
f 8 11 26
f 252 250 251
f 26 11 23
f 11 36 23
f 245 247 251
f 25 23 40
f 40 46 45
f 45 46 44
f 44 46 65
f 247 241 243
f 29 40 45
f 29 25 40
f 65 72 88
f 103 72 106
f 241 230 243
f 106 123 132
f 208 213 230
f 151 133 160
f 224 194 227
f 224 188 194
f 188 180 194
f 188 170 180
f 212 224 227
f 224 168 188
f 191 168 224
f 168 157 188
f 114 112 122
f 102 100 112
f 102 90 100
f 182 191 224
f 162 168 191
f 162 155 168
f 119 117 122
f 122 112 119
f 100 119 112
f 119 100 117
f 12 2 31
f 5 2 12
f 165 181 213
f 111 129 138
f 100 90 104
f 63 67 86
f 63 61 67
f 57 61 63
f 54 61 57
f 210 220 232
f 219 202 232
f 202 210 232
f 195 200 202
f 63 86 79
f 54 71 61
f 79 54 63
f 71 54 79
f 202 203 210
f 200 203 202
f 203 199 210
f 3 1 10
f 3 21 17
f 3 10 21
f 184 172 208
f 176 172 184
f 21 37 17
f 37 21 10
f 223 184 208
f 131 163 176
f 31 42 47
f 16 12 31
f 5 12 16
f 213 229 243
f 148 185 181
f 114 98 112
f 151 160 170
f 231 221 240
f 69 93 98
f 80 98 116
f 116 98 114
f 142 134 151
f 211 221 231
f 66 75 69
f 66 69 98
f 66 98 80
f 124 134 142
f 236 231 234
f 59 66 80
f 209 216 236
f 236 234 244
f 130 126 124
f 229 209 236
f 107 126 127
f 127 126 130
f 127 130 146
f 129 107 127
f 129 127 167
f 196 216 209
f 148 129 167
f 185 196 209
f 181 185 209
f 19 20 41
f 20 30 41
f 148 167 185
f 106 118 111
f 72 74 118
f 65 55 74
f 47 16 31
f 30 22 32
f 55 70 74
f 50 70 55
f 48 50 55
f 48 47 50
f 35 36 39
f 243 229 244
f 36 14 52
f 14 28 52
f 248 244 249
f 244 233 249
f 244 234 233
f 60 75 66
f 234 231 233
f 60 64 75
f 60 28 64
f 4 28 14
f 55 65 48
f 46 47 48
f 32 35 39
f 16 46 35
f 32 16 35
f 36 35 23
f 247 248 251
f 247 244 248
f 243 244 247
f 36 11 14
f 248 249 252
f 251 248 252
f 4 14 11
f 233 246 249
f 233 239 246
f 231 214 233
f 214 217 233
f 183 217 214
f 64 76 75
f 64 13 62
f 28 13 64
f 6 13 28
f 6 28 4
f 6 9 13
f 4 9 6
f 183 173 217
f 137 173 183
f 164 137 183
f 135 140 137
f 133 135 137
f 99 135 108
f 108 87 99
f 77 85 87
f 77 76 85
f 75 76 77
f 137 145 173
f 137 140 145
f 144 165 152
f 65 46 48
f 40 35 46
f 40 23 35
f 217 239 233
f 180 164 183
f 5 22 30
f 182 162 191
f 155 157 168
f 222 227 240
f 118 107 129
f 111 118 129
f 213 209 229
f 19 41 42
f 138 129 148
f 181 138 148
f 181 209 213
f 2 5 20
f 2 19 31
f 20 5 30
f 31 19 42
f 156 155 162
f 182 156 162
f 155 156 157
f 171 182 212
f 182 224 212
f 171 212 197
f 222 212 227
f 93 69 90
f 93 90 102
f 98 93 102
f 98 102 112
f 166 170 188
f 166 188 193
f 205 222 221
f 240 221 222
f 160 137 164
f 133 137 160
f 113 135 133
f 113 108 135
f 114 108 113
f 90 77 87
f 69 77 90
f 69 75 77
f 115 114 122
f 115 108 114
f 104 108 115
f 104 87 108
f 90 87 104
f 117 115 122
f 117 104 115
f 100 104 117
f 165 138 181
f 144 138 165
f 123 138 144
f 123 111 138
f 106 111 123
f 230 213 243
f 72 118 106
f 72 65 74
f 46 16 47
f 208 165 213
f 7 10 1
f 18 3 17
f 1 15 7
f 1 3 15
f 176 163 172
f 121 132 163
f 37 10 27
f 10 7 27
f 223 208 241
f 37 27 49
f 17 37 49
f 91 103 121
f 34 17 49
f 120 91 121
f 91 68 103
f 68 88 103
f 56 88 68
f 51 56 68
f 51 49 56
f 58 68 91
f 58 51 68
f 135 110 140
f 99 85 95
f 87 85 99
f 13 9 33
f 160 164 180
f 194 183 214
f 52 28 60
f 47 43 50
f 118 74 94
f 194 231 240
f 227 194 240
f 116 114 113
f 124 113 134
f 134 113 133
f 151 134 133
f 214 231 194
f 59 60 66
f 126 116 113
f 126 113 124
f 52 60 59
f 80 116 126
f 229 236 244
f 39 36 52
f 39 52 50
f 50 52 59
f 50 59 70
f 59 80 70
f 107 80 126
f 32 39 43
f 43 39 50
f 74 70 94
f 94 70 80
f 94 80 107
f 30 32 41
f 41 32 43
f 41 43 42
f 42 43 47
f 118 94 107
f 99 95 135
f 85 96 95
f 208 172 165
f 172 152 165
f 163 152 172
f 132 152 163
f 132 144 152
f 15 3 18
f 103 106 132
f 208 230 241
f 103 132 121
f 15 29 27
f 7 15 27
f 103 88 72
f 56 65 88
f 25 17 34
f 27 29 45
f 25 18 17
f 15 18 25
f 49 44 56
f 49 45 44
f 23 25 34
f 49 27 45
f 241 247 245
f 26 23 34
f 241 245 237
f 26 34 38
f 24 8 26
f 239 245 250
f 237 245 239
f 24 53 33
f 239 250 246
f 239 235 237
f 239 225 235
f 217 187 225
f 179 225 187
f 174 175 187
f 154 175 174
f 76 78 85
f 76 73 78
f 33 9 24
f 154 174 173
f 145 154 173
f 145 139 154
f 140 139 145
f 140 128 139
f 140 110 128
f 110 105 128
f 110 101 105
f 135 95 110
f 81 96 85
f 85 78 81
f 83 101 110
f 95 83 110
f 95 96 83
f 84 83 96
f 81 84 96
f 61 71 84
f 83 79 86
f 83 71 79
f 71 83 84
f 24 26 38
f 128 105 136
f 53 58 73
f 187 175 179
f 101 83 92
f 61 84 67
f 38 49 51
f 38 34 49
f 242 241 237
f 109 91 120
f 58 53 51
f 38 51 53
f 169 190 195
f 89 91 109
f 136 120 125
f 219 195 202
f 189 195 219
f 67 84 81
f 78 67 81
f 67 78 82
f 92 97 105
f 101 92 105
f 175 169 179
f 169 195 189
f 225 189 219
f 219 232 225
f 225 232 235
f 232 238 235
f 78 73 82
f 154 139 150
f 154 169 175
f 179 169 189
f 179 189 225
f 105 97 109
f 128 136 139
f 139 136 141
f 235 218 237
f 109 120 105
f 105 120 136
f 24 38 53
f 22 5 16
f 22 16 32
f 188 157 193
f 83 86 92
