v -0.433099 -0.047685 0.038537
v -0.412444 -0.049933 -0.008571
v -0.405867 -0.012952 0.018993
v -0.407314 -0.018891 0.067682
v -0.405667 -0.113505 0.026084
v -0.418641 -0.067821 0.077281
v -0.353327 -0.129790 0.053907
v -0.376144 0.075918 -0.116046
v -0.365119 -0.048916 -0.012175
v -0.363166 -0.019542 0.068765
v -0.359126 0.096159 0.158688
v -0.367136 0.090690 0.131798
v -0.349081 -0.102619 0.091060
v -0.345578 0.119532 -0.121566
v -0.372490 0.063171 -0.087158
v -0.342445 -0.078428 -0.089836
v -0.321332 0.006549 -0.124198
v -0.319492 0.020505 0.093645
v -0.357185 -0.035472 0.093826
v -0.354834 -0.107378 -0.007050
v -0.314200 0.167498 0.116599
v -0.294668 -0.205093 0.046816
v -0.319531 0.023118 0.153334
v -0.355704 -0.005499 0.024689
v -0.315061 -0.116901 -0.107894
v -0.335185 0.098903 0.118315
v -0.305677 -0.175543 -0.059622
v -0.307385 -0.049486 -0.131677
v -0.295414 -0.168254 0.142495
v -0.330275 -0.007486 -0.074800
v -0.321523 0.100864 -0.082885
v -0.318510 0.066064 -0.152817
v -0.331773 -0.054160 0.170928
v -0.302412 -0.083846 0.190086
v -0.250821 -0.011066 0.209729
v -0.333613 0.153267 0.162271
v -0.282269 0.047647 0.197091
v -0.309610 0.133377 0.185106
v -0.311887 0.032644 0.118717
v -0.263520 -0.223668 -0.021017
v -0.216968 -0.176627 0.182609
v -0.304223 0.132555 0.114154
v -0.232417 0.031403 -0.043206
v -0.242588 0.218897 0.122282
v -0.294008 0.153771 -0.145482
v -0.246261 0.129910 0.134346
v -0.215467 0.055632 0.062240
v -0.245261 0.078076 -0.163644
v -0.300055 0.018846 -0.064370
v -0.264284 0.202000 0.158258
v -0.278300 0.052887 0.116240
v -0.227157 0.103801 0.197517
v -0.288353 0.029277 0.027175
v -0.221438 0.052118 0.096035
v -0.247671 0.158477 -0.156296
v -0.197856 0.084723 0.010507
v -0.227858 -0.247008 0.071923
v -0.224361 0.175523 0.170314
v -0.234088 0.208401 0.102754
v -0.306109 0.153939 -0.091634
v -0.245207 0.085976 -0.104342
v -0.182209 0.156579 -0.144593
v -0.252960 0.101288 -0.144733
v -0.237591 -0.003550 -0.160312
v -0.149573 -0.046029 0.217786
v -0.184873 0.183483 -0.098965
v -0.238393 0.132108 -0.094467
v -0.224342 -0.056955 -0.155805
v -0.172975 0.191685 0.149714
v -0.209672 0.133625 0.154619
v -0.206488 -0.224851 0.145771
v -0.170575 0.095138 -0.118641
v -0.197176 0.188153 0.105471
v -0.208130 -0.240451 -0.057373
v -0.187820 0.179065 -0.167720
v -0.145392 -0.148570 -0.132456
v -0.168563 0.248262 0.114577
v -0.207437 0.210131 -0.137739
v -0.204108 0.127964 0.190036
v -0.178993 0.239051 0.165071
v -0.165466 0.204946 -0.120234
v -0.157059 0.059746 -0.053222
v -0.127250 0.036802 0.219547
v -0.096733 -0.248989 0.130861
v -0.151022 0.230383 0.145955
v -0.186718 -0.265168 0.020975
v -0.188841 0.056449 -0.076186
v -0.171535 0.119001 0.132589
v -0.247298 -0.178027 -0.096451
v -0.116452 0.085451 0.105875
v -0.161859 0.075252 -0.168939
v -0.159848 -0.116951 0.205502
v -0.141537 0.127590 0.175212
v -0.109966 0.123176 0.042786
v -0.121536 -0.041821 -0.170244
v -0.100084 0.050504 -0.162336
v -0.084716 -0.205777 0.183799
v -0.098990 0.120517 -0.012952
v -0.076883 -0.196705 -0.123005
v -0.111292 0.070337 -0.108940
v -0.117127 -0.267986 -0.019769
v -0.084100 0.005397 -0.169582
v -0.095281 -0.234553 -0.089684
v -0.066473 -0.157335 0.207896
v -0.104471 0.106016 0.148669
v -0.126648 -0.267206 0.085754
v -0.063852 -0.280904 0.032569
v -0.096449 0.089592 0.197276
v -0.021472 -0.263019 0.003269
v -0.005216 -0.186127 0.158140
v -0.074075 0.080536 0.150830
v -0.020285 0.132126 -0.010503
v -0.047692 0.000249 0.214438
v -0.038108 -0.263234 0.094043
v -0.051572 0.034985 -0.130201
v -0.065213 0.068076 -0.106415
v -0.002609 0.099776 0.092566
v -0.014959 -0.111226 -0.144239
v -0.018677 0.143518 0.024362
v -0.030158 0.053155 0.159180
v -0.016621 -0.216651 -0.072194
v 0.018773 -0.041964 -0.121215
v 0.005970 0.071393 -0.068193
v 0.022442 -0.030445 0.172370
v 0.023956 0.118262 0.075093
v 0.024262 -0.082077 0.187403
v 0.021901 -0.164598 -0.096836
v 0.046608 -0.235311 -0.000424
v 0.044875 0.070900 -0.069580
v 0.049998 0.166278 -0.007045
v 0.031119 0.037751 0.127921
v 0.088376 -0.007054 0.143734
v 0.046812 0.141813 -0.050548
v 0.052205 0.152538 0.076188
v 0.050515 0.227445 -0.055936
v 0.057621 -0.093206 -0.112783
v 0.065669 0.148684 0.113244
v 0.126835 -0.091570 -0.079683
v 0.072082 0.345044 -0.081036
v 0.059347 0.264408 -0.076395
v 0.101554 -0.185398 -0.020721
v 0.061366 0.270816 0.085533
v 0.108793 0.053937 -0.100834
v 0.053273 0.236348 0.072889
v 0.059009 0.204340 -0.092776
v 0.089849 0.238979 -0.115160
v 0.088396 0.284686 0.119035
v 0.066154 0.215905 0.116092
v 0.078914 0.139226 -0.100887
v 0.063396 -0.109764 0.158151
v 0.063099 0.267602 0.070637
v 0.073041 0.340421 -0.110629
v 0.069954 0.340671 0.107335
v 0.090973 -0.172420 0.102183
v 0.103297 0.045608 0.132264
v 0.070138 0.285748 -0.063529
v 0.104062 0.284898 0.076054
v 0.044531 -0.244211 0.051644
v 0.120432 0.378756 0.115894
v 0.087574 0.179476 0.039871
v 0.109770 0.208130 -0.038283
v 0.109174 0.179628 -0.015334
v 0.132429 0.344688 -0.076179
v 0.103417 0.299721 -0.120859
v 0.114919 0.203277 0.049104
v 0.140101 0.355844 -0.121021
v 0.104613 0.360054 0.070114
v 0.112853 0.278350 -0.078197
v 0.134217 0.215777 -0.072004
v 0.136889 0.228985 0.087353
v 0.116226 0.272565 0.115374
v 0.081565 -0.025724 -0.098101
v 0.136322 0.136744 -0.126254
v 0.148888 0.354985 0.116445
v 0.138700 -0.057462 0.136389
v 0.148889 0.360731 0.080092
v 0.154613 0.183382 0.042226
v 0.147729 0.214947 0.137042
v 0.130395 0.211272 -0.121723
v 0.197626 -0.109069 0.025988
v 0.121327 0.175771 0.145333
v 0.166424 0.022661 -0.100989
v 0.207853 0.152344 0.075747
v 0.171079 -0.103157 0.085248
v 0.171859 0.172826 -0.021353
v 0.208385 0.123222 -0.095681
v 0.212537 0.083014 -0.110601
v 0.149363 -0.057654 -0.087201
v 0.206367 0.139615 -0.064136
v 0.183269 0.134794 0.145965
v 0.226771 -0.221345 -0.126841
v 0.274811 -0.028883 -0.053696
v 0.164122 -0.111813 -0.035271
v 0.217087 -0.253067 -0.094973
v 0.244029 -0.215640 -0.102031
v 0.224536 -0.258688 0.135015
v 0.257618 0.015582 0.116043
v 0.228300 -0.000421 -0.088570
v 0.225395 0.066633 0.133831
v 0.239154 -0.184921 -0.075212
v 0.246125 -0.206116 0.123585
v 0.245044 -0.285049 0.115700
v 0.251867 -0.304012 0.145494
v 0.255302 -0.040647 0.088523
v 0.256454 0.109337 0.122305
v 0.238987 -0.163254 0.105603
v 0.267762 -0.198981 0.086563
v 0.271734 -0.045488 0.102629
v 0.230259 0.172410 0.005737
v 0.273060 -0.260632 0.102258
v 0.284404 -0.009346 -0.067209
v 0.271195 -0.210048 -0.055105
v 0.280835 -0.078956 0.073203
v 0.258456 -0.140911 0.110140
v 0.298445 -0.069831 0.033872
v 0.273289 -0.124631 -0.085812
v 0.285337 0.029448 0.127535
v 0.250518 0.142097 -0.060701
v 0.268367 -0.091952 0.107475
v 0.297892 0.138706 0.079765
v 0.291131 -0.219139 0.105470
v 0.305528 0.076186 -0.095380
v 0.304337 -0.086981 -0.015851
v 0.308458 -0.083867 0.017885
v 0.300474 -0.126084 0.066024
v 0.299249 -0.054797 0.113131
v 0.324646 0.119699 -0.053278
v 0.299089 -0.113529 0.080284
v 0.308316 -0.091920 -0.042717
v 0.321277 -0.089867 0.059620
v 0.312796 -0.057556 -0.048218
v 0.275953 -0.163956 -0.026603
v 0.326749 0.017258 -0.072718
v 0.331122 -0.091661 0.016289
v 0.352297 -0.052178 -0.050527
v 0.325913 0.151540 0.012715
v 0.397240 -0.014745 0.130263
v 0.369973 0.062012 -0.016471
v 0.351556 0.080811 0.072109
v 0.378158 -0.087362 0.107195
v 0.446215 0.026898 0.104719
v 0.377758 -0.102026 0.074570
v 0.402802 -0.098523 0.002738
v 0.449671 0.024931 0.008178
v 0.480750 -0.076888 0.067400
v 0.410514 -0.020678 -0.032481
v 0.470642 -0.055081 0.097586
v 0.379318 0.081999 0.042380
v 0.424456 -0.047688 -0.015275
v 0.490356 0.015214 0.057337
v 0.497870 -0.013630 0.097669
v 0.500431 -0.010162 0.032406
f 197 204 208
f 226 242 240
f 214 201 221
f 203 202 210
f 59 44 77
f 69 73 85
f 170 171 178
f 46 73 69
f 137 155 181
f 183 190 205
f 217 208 226
f 197 208 217
f 175 204 197
f 241 237 251
f 237 247 251
f 217 226 237
f 208 219 226
f 184 204 175
f 41 29 71
f 240 247 237
f 237 226 240
f 208 214 219
f 213 206 208
f 206 214 208
f 150 154 175
f 150 110 154
f 206 201 214
f 97 114 110
f 97 71 84
f 206 196 201
f 221 201 203
f 196 202 203
f 176 159 174
f 159 147 174
f 153 147 159
f 147 171 174
f 171 157 174
f 153 142 147
f 77 80 85
f 77 44 80
f 50 80 44
f 80 69 85
f 44 21 50
f 21 36 50
f 171 181 178
f 171 147 181
f 147 148 181
f 58 46 69
f 46 79 70
f 12 36 21
f 36 11 38
f 12 11 36
f 148 137 181
f 88 93 105
f 70 93 88
f 46 70 88
f 178 190 183
f 178 181 190
f 90 105 111
f 90 88 105
f 11 23 37
f 181 155 190
f 111 120 117
f 108 120 111
f 105 108 111
f 190 199 205
f 117 120 131
f 37 23 33
f 199 197 205
f 190 155 199
f 155 132 199
f 131 124 132
f 120 124 131
f 113 124 120
f 33 34 35
f 34 33 29
f 132 175 199
f 124 175 132
f 126 175 124
f 126 150 175
f 92 34 41
f 41 34 29
f 104 150 126
f 92 97 104
f 41 97 92
f 104 110 150
f 104 97 110
f 97 41 71
f 80 58 69
f 50 58 80
f 36 38 50
f 50 38 58
f 58 38 46
f 38 79 46
f 38 52 79
f 70 79 93
f 38 37 52
f 11 37 38
f 93 108 105
f 79 108 93
f 79 83 108
f 79 52 83
f 52 35 83
f 37 35 52
f 37 33 35
f 120 108 113
f 108 83 113
f 83 35 65
f 113 83 65
f 124 113 126
f 65 104 113
f 92 65 35
f 34 92 35
f 113 104 126
f 65 92 104
f 20 16 27
f 143 182 172
f 182 187 198
f 198 187 222
f 9 16 20
f 172 122 123
f 123 129 172
f 172 129 143
f 182 173 187
f 187 186 222
f 16 9 30
f 115 116 123
f 129 149 143
f 149 173 143
f 143 173 182
f 173 186 187
f 15 30 49
f 61 49 87
f 49 43 87
f 87 100 72
f 100 87 82
f 100 82 98
f 100 98 116
f 173 179 186
f 179 189 186
f 31 15 49
f 31 49 61
f 133 145 149
f 60 15 31
f 31 61 67
f 149 145 146
f 149 146 173
f 173 146 179
f 60 31 67
f 66 60 67
f 179 146 164
f 179 164 168
f 78 60 66
f 78 66 81
f 140 152 146
f 146 152 164
f 164 166 168
f 164 152 166
f 191 194 200
f 103 99 121
f 191 200 216
f 191 216 195
f 195 216 229
f 103 89 99
f 121 99 127
f 27 89 74
f 74 89 103
f 99 118 127
f 118 136 127
f 25 89 27
f 122 172 136
f 27 16 25
f 25 16 28
f 96 115 102
f 102 115 122
f 122 115 123
f 16 30 28
f 28 30 17
f 96 100 115
f 115 100 116
f 15 8 30
f 30 8 17
f 63 61 72
f 72 61 87
f 63 72 91
f 91 72 100
f 14 8 15
f 60 14 15
f 67 61 63
f 63 62 67
f 66 67 62
f 45 8 14
f 45 14 60
f 60 78 45
f 45 78 55
f 66 62 81
f 75 81 62
f 78 81 75
f 194 191 195
f 194 195 212
f 89 76 99
f 89 25 68
f 89 68 76
f 76 68 95
f 76 95 99
f 99 95 118
f 118 102 122
f 118 122 136
f 95 102 118
f 25 28 68
f 68 64 95
f 28 17 64
f 28 64 68
f 95 64 91
f 95 91 102
f 102 91 96
f 17 8 32
f 17 32 64
f 32 48 64
f 64 48 91
f 32 63 48
f 91 48 63
f 96 91 100
f 32 8 45
f 32 45 55
f 32 55 63
f 63 55 62
f 62 55 75
f 55 78 75
f 217 237 241
f 241 251 250
f 199 175 197
f 205 197 217
f 205 217 239
f 239 217 241
f 239 241 248
f 13 29 33
f 131 132 155
f 125 131 155
f 220 205 239
f 19 33 23
f 19 23 39
f 125 117 131
f 125 155 137
f 183 205 220
f 11 12 23
f 12 26 39
f 23 12 39
f 18 39 51
f 51 46 88
f 51 88 54
f 90 54 88
f 90 111 94
f 134 125 137
f 134 137 148
f 39 26 51
f 26 42 51
f 51 42 46
f 148 144 134
f 170 178 183
f 26 12 21
f 26 21 42
f 42 73 46
f 165 157 170
f 59 21 44
f 42 21 59
f 42 59 73
f 59 77 73
f 73 77 85
f 142 144 148
f 151 144 142
f 142 148 147
f 157 171 170
f 142 153 151
f 157 151 167
f 157 167 176
f 174 157 176
f 153 167 151
f 167 153 159
f 167 159 176
f 203 210 221
f 196 207 202
f 202 207 210
f 97 84 114
f 114 158 110
f 196 206 207
f 210 207 225
f 221 210 225
f 221 225 228
f 71 106 84
f 110 158 154
f 207 206 225
f 228 219 214
f 206 213 225
f 214 221 228
f 240 242 245
f 240 245 247
f 29 57 71
f 154 184 175
f 230 219 228
f 226 219 230
f 228 225 230
f 226 230 242
f 247 245 251
f 245 252 251
f 184 180 204
f 204 213 208
f 250 251 252
f 248 241 250
f 33 19 13
f 236 239 248
f 6 13 19
f 10 6 19
f 4 6 10
f 236 220 239
f 10 19 18
f 18 19 39
f 220 236 209
f 53 18 47
f 18 51 54
f 18 54 47
f 90 47 54
f 94 47 90
f 119 94 111
f 111 117 119
f 117 125 119
f 185 177 183
f 209 183 220
f 119 125 134
f 119 134 160
f 160 134 165
f 134 144 165
f 144 151 165
f 160 165 177
f 177 165 170
f 177 170 183
f 151 157 165
f 106 86 107
f 106 107 114
f 84 106 114
f 114 107 158
f 57 106 71
f 57 86 106
f 154 158 180
f 184 154 180
f 234 243 242
f 242 243 245
f 29 22 57
f 225 213 215
f 225 215 230
f 230 215 234
f 234 215 224
f 230 234 242
f 243 249 245
f 249 252 245
f 204 180 192
f 213 204 215
f 244 248 250
f 252 244 250
f 13 7 29
f 29 7 22
f 238 248 244
f 6 5 7
f 6 7 13
f 238 236 248
f 1 6 4
f 1 4 3
f 4 10 24
f 10 18 24
f 53 24 18
f 3 4 24
f 47 56 53
f 136 172 188
f 152 139 166
f 198 222 233
f 211 198 233
f 192 198 211
f 188 182 198
f 182 188 172
f 192 188 198
f 138 188 193
f 138 136 188
f 127 136 138
f 40 27 74
f 229 216 235
f 141 138 193
f 127 138 141
f 141 121 127
f 212 195 229
f 216 200 223
f 128 121 141
f 109 103 121
f 107 103 109
f 74 103 101
f 200 194 232
f 194 212 232
f 163 168 166
f 166 139 163
f 139 156 163
f 140 139 152
f 139 140 156
f 163 156 168
f 179 168 169
f 156 161 168
f 145 140 146
f 140 135 156
f 145 135 140
f 168 161 169
f 179 169 189
f 189 169 185
f 161 185 169
f 133 135 145
f 129 133 149
f 129 112 133
f 123 112 129
f 116 112 123
f 116 98 112
f 56 98 82
f 87 43 82
f 43 56 82
f 49 53 43
f 49 30 53
f 222 218 227
f 186 218 222
f 186 189 218
f 9 24 30
f 20 2 9
f 238 222 227
f 233 222 238
f 20 5 2
f 22 20 27
f 233 246 235
f 211 233 235
f 231 211 235
f 192 211 231
f 40 22 27
f 235 246 249
f 216 231 235
f 216 223 231
f 192 231 223
f 193 188 192
f 141 193 180
f 40 74 86
f 234 212 229
f 200 232 223
f 109 121 128
f 101 103 107
f 86 74 101
f 156 135 161
f 185 161 162
f 135 162 161
f 135 133 162
f 130 162 133
f 112 130 133
f 112 119 130
f 98 119 112
f 56 94 98
f 189 185 209
f 43 53 56
f 218 236 227
f 218 209 236
f 30 24 53
f 9 2 24
f 2 3 24
f 2 1 3
f 227 236 238
f 5 1 2
f 6 1 5
f 7 20 22
f 7 5 20
f 244 252 246
f 233 244 246
f 233 238 244
f 201 196 203
f 246 252 249
f 224 215 223
f 215 192 223
f 180 193 192
f 243 235 249
f 229 235 243
f 234 229 243
f 224 232 234
f 223 232 224
f 57 40 86
f 57 22 40
f 232 212 234
f 158 141 180
f 158 128 141
f 109 128 158
f 107 109 158
f 86 101 107
f 162 177 185
f 162 160 177
f 130 160 162
f 130 119 160
f 98 94 119
f 185 183 209
f 56 47 94
f 204 192 215
f 218 189 209
