v 0.482285 -0.103311 -0.108145
v 0.483432 -0.103296 -0.045374
v 0.483951 -0.152900 -0.052405
v 0.484803 -0.067605 -0.070338
v 0.473869 -0.101446 -0.082143
v 0.450773 -0.108039 -0.115745
v 0.447557 -0.055995 -0.088317
v 0.470052 0.017970 0.086627
v 0.483734 -0.040914 0.101976
v 0.483451 -0.052951 0.072358
v 0.446564 0.043881 0.049889
v 0.468130 -0.024691 0.079767
v 0.452073 -0.024761 -0.100330
v 0.448839 -0.038736 -0.126436
v 0.475858 -0.007709 0.039433
v 0.435694 -0.005173 0.039503
v 0.458266 -0.060906 0.066265
v 0.450495 -0.015897 0.113244
v 0.378100 -0.020601 -0.119063
v 0.396143 0.005452 -0.000765
v 0.435318 0.029239 0.024497
v 0.400099 -0.072570 -0.028739
v 0.405383 -0.136059 0.017753
v 0.378045 -0.022967 -0.103747
v 0.360251 -0.003933 -0.003883
v 0.397211 -0.010762 -0.058493
v 0.362943 -0.015517 -0.043646
v 0.386650 -0.057866 0.055334
v 0.356685 -0.195566 0.016444
v 0.415323 0.047404 0.056069
v 0.373431 0.037635 0.018215
v 0.391298 -0.123926 0.046723
v 0.325528 0.032620 0.029768
v 0.345349 -0.066855 -0.088173
v 0.321651 -0.002752 -0.077790
v 0.391150 -0.041890 0.035217
v 0.309669 -0.014759 0.067188
v 0.348159 -0.165354 0.074646
v 0.330294 -0.000943 -0.035607
v 0.327914 -0.153742 -0.043304
v 0.319375 -0.082149 -0.099752
v 0.335420 -0.186109 0.044813
v 0.325558 -0.115886 0.081076
v 0.298041 -0.027152 -0.107534
v 0.244651 -0.013631 -0.135352
v 0.308592 0.028808 -0.005282
v 0.263424 0.066371 -0.055694
v 0.300741 -0.174872 0.005567
v 0.252049 -0.096105 -0.072222
v 0.265879 -0.043049 0.060782
v 0.294313 0.017317 0.047110
v 0.253599 0.064560 0.014859
v 0.277496 0.042090 -0.049810
v 0.251815 0.044176 -0.120911
v 0.242950 -0.068724 -0.117908
v 0.297204 -0.151730 0.058647
v 0.201165 -0.166705 -0.151236
v 0.198330 0.025270 -0.151555
v 0.213864 -0.191584 -0.096069
v 0.199338 0.124278 -0.074984
v 0.190309 -0.064449 -0.144577
v 0.235198 0.000987 0.061333
v 0.238236 -0.110778 -0.008718
v 0.152155 0.095013 -0.143958
v 0.184928 -0.223296 -0.140819
v 0.167360 -0.087841 -0.085775
v 0.161546 -0.228010 -0.106975
v 0.190837 -0.165019 -0.103979
v 0.237060 -0.156650 0.093937
v 0.231625 -0.081902 0.027398
v 0.202184 0.119163 -0.006260
v 0.116874 -0.082527 -0.166099
v 0.170162 -0.176533 -0.136733
v 0.174968 -0.029555 0.055471
v 0.207935 -0.141586 0.099596
v 0.110162 0.013962 -0.163782
v 0.179634 -0.213371 0.072025
v 0.097168 -0.207329 -0.120779
v 0.190394 0.069959 0.042268
v 0.194042 -0.173021 0.064252
v 0.105323 -0.196751 -0.093235
v 0.161378 0.139234 -0.014739
v 0.148127 -0.089742 -0.150969
v 0.139660 -0.134195 -0.136983
v 0.116665 0.164195 -0.089249
v 0.172669 0.111372 -0.133019
v 0.193339 -0.201355 0.113555
v 0.153553 -0.080769 -0.006162
v 0.126637 -0.175749 -0.101828
v 0.148307 -0.140339 0.063984
v 0.177163 0.006027 0.075383
v 0.133225 -0.111519 -0.072592
v 0.108311 -0.168692 -0.158023
v 0.137606 -0.050577 0.074753
v 0.123933 -0.095160 0.024096
v 0.075735 0.102518 -0.172084
v 0.062338 -0.103599 -0.134192
v 0.163129 -0.158359 0.102565
v 0.092339 -0.119315 -0.069643
v 0.103757 -0.066332 -0.164464
v 0.059354 0.050740 -0.169883
v 0.104225 0.024729 0.057810
v 0.080510 0.127915 0.038050
v 0.057292 0.154420 -0.140321
v 0.076279 -0.195576 -0.089175
v 0.115199 -0.122362 0.099480
v 0.054769 -0.034460 -0.138714
v 0.118469 -0.165979 0.045194
v 0.063801 -0.171313 -0.115582
v 0.140084 -0.176564 0.094054
v 0.088098 0.169491 -0.016123
v 0.078304 0.194460 -0.072237
v 0.046698 -0.089664 -0.104442
v 0.088486 -0.176913 0.053090
v 0.110110 -0.026664 0.081509
v 0.076302 -0.112060 0.005806
v -0.023257 0.050815 -0.182555
v -0.000840 -0.103984 -0.057943
v 0.018585 -0.043080 -0.120510
v 0.054292 0.036713 0.047956
v 0.031377 -0.047330 0.024053
v -0.010880 0.169538 -0.163540
v 0.055656 -0.091071 0.060681
v 0.014381 0.188024 0.035106
v 0.023918 -0.104989 -0.018083
v -0.004565 0.233485 -0.014142
v -0.025582 0.252512 -0.057247
v 0.030962 0.130417 0.066574
v 0.024187 0.058631 0.059663
v 0.020834 0.204404 -0.125681
v 0.002071 -0.037396 0.030947
v -0.055643 0.102065 -0.202576
v -0.027131 -0.100177 -0.055312
v -0.030070 -0.052901 -0.125109
v 0.003145 -0.067982 0.006299
v -0.042284 0.233510 -0.116394
v -0.033052 -0.042864 0.073015
v -0.061258 -0.095038 0.004795
v -0.037283 0.012621 0.118596
v -0.022795 -0.205348 0.106055
v -0.040543 -0.171588 0.134521
v -0.034435 0.057791 0.127292
v -0.038911 -0.025051 0.133282
v -0.081558 -0.058027 0.076269
v -0.087806 0.272464 -0.051265
v -0.125478 0.207864 -0.152103
v -0.102996 -0.068416 -0.133694
v -0.102081 -0.030497 -0.193234
v -0.060033 -0.063248 0.119423
v -0.086515 -0.107661 -0.040966
v -0.090072 0.007767 0.154431
v -0.094674 0.018349 -0.210277
v -0.134714 -0.108783 -0.149085
v -0.119309 -0.056867 0.045134
v -0.058608 -0.185977 0.087392
v -0.094488 0.228345 0.056216
v -0.103686 -0.161579 0.124446
v -0.078806 -0.219254 0.090165
v -0.117771 -0.168780 0.093935
v -0.045823 -0.220949 0.135602
v -0.062362 -0.196852 0.154253
v -0.119989 -0.203943 0.145159
v -0.160184 -0.109242 -0.176851
v -0.206327 -0.015869 -0.192753
v -0.084987 0.180668 0.109438
v -0.153336 0.149085 -0.195595
v -0.084784 -0.082920 0.134449
v -0.162504 -0.271202 -0.149215
v -0.136266 -0.082086 0.160502
v -0.102909 -0.177994 0.147912
v -0.185756 -0.269938 -0.167129
v -0.140689 -0.095809 -0.039789
v -0.193268 -0.079748 -0.092719
v -0.156762 -0.049959 -0.198446
v -0.151226 -0.062453 -0.074277
v -0.229221 -0.077882 -0.001961
v -0.159765 0.198333 0.100794
v -0.223188 -0.129722 -0.163417
v -0.158311 0.242476 -0.103136
v -0.148943 -0.098726 0.110460
v -0.167187 0.265921 -0.041533
v -0.190751 -0.236540 -0.106667
v -0.138446 -0.095455 0.003398
v -0.199321 0.223700 -0.110814
v -0.170964 -0.229392 -0.158657
v -0.225534 -0.249630 -0.093794
v -0.171436 0.239288 0.036229
v -0.251599 -0.053744 -0.043926
v -0.150984 -0.210980 0.131895
v -0.197860 -0.163615 0.156677
v -0.183178 -0.190434 0.085987
v -0.169070 -0.058251 0.077133
v -0.230112 -0.151308 -0.105524
v -0.236921 -0.247335 -0.158489
v -0.242380 -0.161531 -0.150557
v -0.218792 -0.212439 -0.135754
v -0.188399 0.175557 -0.174455
v -0.209054 -0.133282 -0.115021
v -0.219469 0.056027 -0.181229
v -0.262643 -0.247720 -0.107112
v -0.121438 0.088528 0.142106
v -0.194247 -0.106543 0.166458
v -0.219763 -0.277127 -0.130461
v -0.228508 -0.105396 0.089279
v -0.146615 0.015940 0.161665
v -0.217037 -0.043100 0.059502
v -0.229112 0.185153 0.100417
v -0.243316 -0.154596 0.132316
v -0.233448 -0.064075 -0.171362
v -0.279275 0.156224 -0.132250
v -0.291932 -0.139194 -0.146535
v -0.263393 0.195319 -0.096396
v -0.278598 -0.236544 -0.132571
v -0.308330 -0.008380 -0.149740
v -0.242611 0.028119 0.161154
v -0.288752 -0.209450 -0.076486
v -0.311360 -0.070967 -0.125388
v -0.227297 -0.162106 0.101885
v -0.282370 0.163116 0.083401
v -0.254801 0.200242 0.047914
v -0.283940 -0.080048 -0.066442
v -0.283651 -0.173294 -0.076891
v -0.300558 -0.046831 0.019105
v -0.253339 -0.067945 0.154262
v -0.258319 -0.115940 0.100939
v -0.260995 0.214493 -0.018808
v -0.328134 -0.028071 -0.119590
v -0.280282 -0.039987 0.107620
v -0.321596 -0.059444 -0.076425
v -0.315946 0.051037 0.129891
v -0.331122 -0.152811 -0.112616
v -0.272714 -0.009308 0.144193
v -0.314420 0.166324 -0.014449
v -0.258530 -0.048114 0.080425
v -0.318383 -0.155089 -0.075459
v -0.327402 0.121795 -0.105505
v -0.323619 -0.102931 -0.071585
v -0.292615 0.051650 0.144351
v -0.351052 -0.004913 0.045522
v -0.324618 0.102672 0.066114
v -0.347817 0.097484 -0.014840
v -0.347316 0.004257 -0.123049
v -0.358777 -0.009662 0.009894
v -0.362929 0.046437 -0.075753
v -0.379981 0.039360 -0.028833
v -0.346058 0.072824 0.061644
v -0.410022 -0.011827 0.042922
v -0.388854 0.028478 0.074781
v -0.400135 -0.007826 0.003754
v -0.375096 0.097543 0.034948
v -0.422751 0.052446 0.009542
v -0.404398 0.063463 0.057311
f 214 217 227
f 185 171 194
f 196 185 194
f 196 194 195
f 213 195 194
f 211 195 213
f 211 213 231
f 178 198 193
f 195 178 193
f 178 195 211
f 163 153 178
f 209 163 178
f 217 211 231
f 148 153 163
f 148 163 174
f 174 163 209
f 209 178 211
f 209 211 217
f 209 217 214
f 152 148 174
f 164 174 209
f 164 209 214
f 152 174 164
f 214 227 242
f 117 152 132
f 166 152 164
f 166 164 199
f 164 214 199
f 132 152 166
f 197 166 199
f 11 15 21
f 205 224 202
f 205 215 224
f 169 205 202
f 169 151 205
f 143 151 169
f 37 36 33
f 28 36 37
f 15 16 20
f 15 17 16
f 190 202 224
f 167 143 169
f 149 143 167
f 106 94 115
f 50 43 37
f 28 37 43
f 23 36 28
f 90 94 106
f 43 50 56
f 32 28 43
f 38 32 43
f 32 23 28
f 162 170 202
f 98 106 110
f 87 75 98
f 38 43 56
f 161 170 162
f 161 141 170
f 160 141 161
f 87 98 110
f 69 87 77
f 42 38 56
f 29 38 42
f 29 32 38
f 23 32 29
f 12 30 16
f 17 12 16
f 10 15 11
f 15 10 17
f 87 69 75
f 8 30 18
f 8 11 30
f 9 8 18
f 9 11 8
f 9 10 11
f 18 12 17
f 10 9 17
f 140 141 160
f 108 80 77
f 77 110 114
f 80 69 77
f 29 42 48
f 42 56 48
f 190 162 202
f 98 90 106
f 50 62 70
f 74 91 94
f 94 91 115
f 160 161 162
f 140 155 141
f 189 162 190
f 189 190 208
f 48 56 63
f 69 80 75
f 80 90 75
f 98 75 90
f 90 80 108
f 114 110 106
f 114 106 123
f 141 155 159
f 170 141 157
f 141 159 157
f 170 157 202
f 56 50 70
f 94 90 95
f 202 157 180
f 202 180 169
f 190 224 208
f 208 224 225
f 23 22 36
f 88 70 74
f 144 149 167
f 144 167 180
f 180 167 169
f 70 62 74
f 106 115 123
f 137 139 144
f 143 149 139
f 139 149 144
f 224 215 232
f 21 15 20
f 160 162 189
f 158 160 189
f 140 160 158
f 201 165 177
f 142 165 201
f 128 165 142
f 201 177 215
f 205 201 215
f 151 201 205
f 151 142 201
f 139 142 151
f 33 30 31
f 30 21 31
f 143 139 151
f 30 12 18
f 74 62 91
f 62 79 91
f 51 79 62
f 37 33 51
f 50 37 51
f 50 51 62
f 77 87 110
f 11 21 30
f 41 34 40
f 5 7 6
f 99 125 118
f 116 125 99
f 99 92 95
f 41 40 49
f 18 17 9
f 145 181 187
f 156 145 187
f 156 126 145
f 187 226 220
f 124 111 126
f 111 112 126
f 230 219 240
f 111 82 112
f 82 60 85
f 71 60 82
f 47 60 71
f 248 246 252
f 239 246 248
f 230 246 239
f 230 240 246
f 234 228 239
f 39 35 53
f 26 35 39
f 4 1 14
f 99 95 116
f 49 63 66
f 187 220 207
f 95 74 94
f 88 74 95
f 2 4 7
f 5 2 7
f 63 88 66
f 126 112 127
f 125 135 138
f 133 125 138
f 150 138 183
f 154 183 138
f 14 7 24
f 19 13 14
f 19 14 24
f 19 44 35
f 19 24 44
f 44 24 34
f 44 34 41
f 44 41 55
f 176 183 154
f 154 206 176
f 176 206 223
f 35 44 53
f 234 239 223
f 223 239 243
f 53 44 54
f 53 54 47
f 247 239 248
f 247 248 252
f 246 240 250
f 240 241 250
f 246 250 252
f 219 233 240
f 240 233 241
f 82 85 112
f 219 226 233
f 218 208 225
f 204 218 225
f 180 191 204
f 114 123 121
f 63 70 88
f 63 56 70
f 40 22 23
f 3 1 2
f 2 1 4
f 204 191 218
f 180 159 191
f 157 159 180
f 116 108 114
f 95 90 108
f 23 29 40
f 218 191 208
f 191 189 208
f 158 189 191
f 159 158 191
f 155 158 159
f 140 158 155
f 108 77 114
f 40 29 48
f 192 144 180
f 153 173 198
f 133 150 147
f 100 72 97
f 83 84 72
f 235 221 237
f 222 221 235
f 222 198 221
f 193 198 222
f 72 93 97
f 72 84 93
f 216 222 235
f 97 93 109
f 93 78 109
f 73 93 84
f 73 65 93
f 182 216 186
f 182 222 216
f 93 65 78
f 181 184 226
f 179 184 181
f 181 145 179
f 136 179 145
f 226 212 233
f 226 184 212
f 146 179 136
f 136 122 146
f 130 122 136
f 130 104 122
f 85 104 130
f 104 64 96
f 86 64 104
f 241 245 251
f 241 244 245
f 64 58 96
f 245 249 251
f 243 249 245
f 245 244 243
f 58 76 96
f 45 72 58
f 221 223 229
f 86 104 85
f 250 241 251
f 252 251 247
f 54 64 86
f 54 86 60
f 47 54 60
f 251 249 247
f 64 54 58
f 54 45 58
f 44 45 54
f 182 193 222
f 231 235 237
f 117 134 152
f 203 200 213
f 182 185 196
f 182 196 193
f 200 186 216
f 213 200 216
f 193 196 195
f 213 216 231
f 231 216 235
f 178 153 198
f 217 231 237
f 134 147 148
f 153 148 147
f 217 229 227
f 152 134 148
f 227 229 242
f 210 199 214
f 210 214 242
f 210 242 236
f 242 244 236
f 122 132 166
f 197 210 184
f 197 199 210
f 146 166 197
f 146 197 184
f 185 168 171
f 168 203 171
f 194 171 203
f 194 203 213
f 243 247 249
f 243 239 247
f 229 223 243
f 188 223 221
f 188 176 223
f 44 55 45
f 172 183 176
f 150 183 172
f 133 138 150
f 99 118 113
f 84 66 92
f 55 66 61
f 55 49 66
f 118 125 133
f 92 99 105
f 81 92 105
f 89 92 81
f 81 59 89
f 59 68 89
f 187 181 226
f 126 127 145
f 220 226 219
f 55 41 49
f 173 188 221
f 175 176 188
f 175 147 172
f 134 118 133
f 119 118 134
f 107 113 119
f 61 83 72
f 45 61 72
f 150 172 147
f 119 113 118
f 107 97 113
f 83 66 84
f 61 66 83
f 99 113 105
f 97 109 113
f 109 105 113
f 89 84 92
f 89 73 84
f 68 73 89
f 68 57 73
f 57 65 73
f 68 59 57
f 59 65 57
f 78 105 109
f 78 81 105
f 67 81 78
f 59 81 67
f 78 65 67
f 59 67 65
f 145 127 136
f 127 130 136
f 127 112 130
f 85 130 112
f 85 60 86
f 252 250 251
f 45 55 61
f 175 172 176
f 1 3 5
f 156 187 177
f 219 207 220
f 124 156 165
f 124 126 156
f 36 25 33
f 25 30 33
f 224 232 228
f 20 16 25
f 25 16 30
f 21 20 31
f 20 25 31
f 33 46 51
f 91 79 102
f 91 102 115
f 115 102 123
f 31 46 33
f 51 46 52
f 79 51 52
f 102 103 120
f 215 238 232
f 102 79 103
f 120 103 128
f 120 128 129
f 129 128 142
f 129 142 139
f 79 82 103
f 215 177 207
f 215 207 238
f 238 207 230
f 103 124 128
f 128 124 165
f 230 207 219
f 165 156 177
f 177 187 207
f 103 111 124
f 82 111 103
f 79 52 71
f 52 47 71
f 53 47 52
f 232 238 230
f 46 53 52
f 46 39 53
f 239 232 230
f 137 131 139
f 131 129 139
f 120 129 131
f 121 120 131
f 123 102 121
f 102 120 121
f 31 39 46
f 25 27 39
f 31 25 39
f 27 26 39
f 228 232 239
f 154 144 192
f 137 144 154
f 131 137 135
f 27 7 26
f 4 26 7
f 225 224 228
f 234 225 228
f 192 180 204
f 71 82 79
f 36 27 25
f 36 22 27
f 206 234 223
f 206 204 234
f 154 192 206
f 135 121 131
f 24 27 34
f 27 22 34
f 13 19 35
f 26 13 35
f 24 7 27
f 13 26 4
f 138 137 154
f 125 121 135
f 116 121 125
f 88 95 92
f 66 88 92
f 14 6 7
f 13 4 14
f 121 116 114
f 95 108 116
f 22 40 34
f 49 40 48
f 6 1 5
f 206 192 204
f 204 225 234
f 135 137 138
f 49 48 63
f 203 186 200
f 168 186 203
f 182 186 168
f 168 185 182
f 198 173 221
f 107 76 100
f 100 97 107
f 134 133 147
f 153 147 175
f 173 153 175
f 188 173 175
f 237 221 229
f 217 237 229
f 76 58 72
f 76 72 100
f 101 107 119
f 119 134 117
f 242 229 243
f 76 107 101
f 101 119 117
f 242 243 244
f 101 96 76
f 132 101 117
f 101 132 96
f 236 244 241
f 96 122 104
f 122 96 132
f 233 236 241
f 146 122 166
f 184 210 212
f 212 210 236
f 233 212 236
f 179 146 184
f 3 2 5
f 1 6 14
