v 0.461067 -0.087998 0.035211
v 0.448311 -0.061772 0.004717
v 0.458757 -0.138664 -0.111894
v 0.445986 -0.098485 -0.082293
v 0.461682 -0.062088 0.022079
v 0.430791 -0.111568 -0.073961
v 0.397446 -0.067292 0.071141
v 0.386633 -0.041747 0.006991
v 0.416779 -0.127852 -0.103918
v 0.390270 -0.066492 -0.058772
v 0.393382 -0.043702 0.020414
v 0.371168 0.084936 -0.016990
v 0.360093 0.133981 -0.022129
v 0.352773 0.024888 0.006496
v 0.406838 -0.072219 0.038920
v 0.381503 -0.073402 0.020261
v 0.327729 0.129060 -0.060595
v 0.339021 -0.070651 -0.098939
v 0.332799 -0.041424 0.032881
v 0.360394 0.084068 -0.045677
v 0.367188 -0.084784 -0.067231
v 0.401342 -0.102309 -0.095234
v 0.394423 -0.060330 -0.071996
v 0.333368 0.036833 0.032215
v 0.315999 0.076824 0.033388
v 0.354833 -0.049398 -0.049142
v 0.334391 0.000208 -0.018211
v 0.334350 -0.060071 0.047138
v 0.354259 0.029431 -0.060004
v 0.316103 -0.016274 -0.025685
v 0.320441 -0.011690 -0.043120
v 0.324758 0.057705 -0.078038
v 0.323607 0.130530 0.013220
v 0.321358 -0.010558 -0.001493
v 0.308533 -0.031748 0.015753
v 0.297661 -0.012403 0.040423
v 0.296641 -0.006958 -0.084660
v 0.297935 -0.020816 -0.022937
v 0.327185 -0.068069 -0.087627
v 0.313117 -0.035014 -0.057845
v 0.281862 0.019808 -0.099660
v 0.282253 0.020625 0.056123
v 0.269049 -0.011777 0.044160
v 0.277352 -0.029520 -0.060137
v 0.214630 0.080417 -0.013062
v 0.255734 0.086316 0.020722
v 0.302164 0.141752 -0.015316
v 0.268168 -0.031891 0.015158
v 0.272804 0.103131 -0.063824
v 0.230821 0.015034 -0.101557
v 0.256740 -0.021922 -0.087583
v 0.220620 0.005363 0.060015
v 0.241724 0.035716 0.046857
v 0.235996 -0.034524 0.046838
v 0.218489 0.061910 -0.063143
v 0.169690 0.144140 0.067380
v 0.216719 -0.073589 0.027174
v 0.173946 0.143345 0.103087
v 0.211722 -0.041092 -0.099411
v 0.176051 0.053957 0.035412
v 0.153635 0.053456 -0.082568
v 0.146738 0.191081 0.090791
v 0.236451 -0.063955 -0.035538
v 0.173005 -0.050418 0.062719
v 0.173195 -0.105805 -0.071067
v 0.149691 -0.113163 0.031635
v 0.193608 0.163404 0.061064
v 0.144625 0.071595 -0.030326
v 0.144343 0.170177 0.096137
v 0.169579 0.012908 -0.121204
v 0.172465 0.018889 0.074954
v 0.133997 0.224063 -0.127281
v 0.179110 -0.111956 -0.011825
v 0.129607 0.078218 -0.052909
v 0.136000 0.058027 0.075382
v 0.114246 0.213689 -0.161899
v 0.146374 0.194899 -0.145110
v 0.137545 0.049708 -0.120631
v 0.133434 0.087950 0.071052
v 0.136769 0.078990 0.000270
v 0.124665 0.125250 0.063055
v 0.076319 0.212177 -0.113949
v 0.085710 0.170198 -0.104193
v 0.124165 0.082625 -0.128644
v 0.101523 0.153365 0.048011
v 0.115598 0.178170 -0.138580
v 0.149076 -0.069100 -0.105952
v 0.107988 0.156812 -0.112524
v 0.142243 0.196066 0.061412
v 0.098503 0.124521 -0.136046
v 0.101443 0.130075 0.090498
v 0.109428 0.117368 -0.093980
v 0.115113 0.046366 0.080890
v 0.072152 -0.096220 0.069916
v 0.088366 0.191969 -0.151611
v 0.106235 0.032571 -0.128175
v 0.088304 0.093144 0.007215
v 0.082938 0.123129 -0.135123
v 0.070784 0.123961 -0.074427
v 0.091208 -0.022247 0.069335
v 0.103150 0.115112 0.017348
v 0.072132 0.204985 -0.142988
v 0.066508 0.109657 0.069063
v 0.064556 0.174112 -0.109325
v 0.110741 -0.027042 -0.115009
v 0.064897 0.143622 0.040640
v 0.060454 0.138787 0.059412
v 0.078532 0.088672 -0.054168
v 0.055377 0.076096 0.024732
v 0.042375 0.089689 -0.037494
v 0.048307 0.121136 -0.087358
v 0.070114 0.005666 -0.109069
v 0.060752 0.145273 -0.114132
v 0.048071 0.073777 -0.069600
v 0.110930 -0.150005 -0.019948
v 0.016745 -0.192535 0.025609
v 0.044703 0.030866 -0.095144
v 0.047880 0.032330 0.046964
v 0.084338 -0.142608 -0.070384
v 0.026960 0.010540 0.046680
v 0.077645 -0.140822 0.032227
v -0.027521 -0.099642 0.110100
v 0.040773 -0.048106 0.071319
v 0.056054 -0.060108 -0.115814
v 0.029971 0.018495 -0.088206
v 0.067435 -0.113321 -0.111032
v -0.011635 -0.220519 -0.028699
v 0.008241 -0.063415 -0.133941
v 0.002406 0.071285 -0.048663
v -0.008993 0.058437 0.022684
v 0.007000 -0.060774 0.088983
v 0.014443 -0.163152 -0.099192
v -0.001311 0.001369 0.060513
v -0.000052 -0.199778 -0.068406
v 0.011566 -0.155717 0.063279
v -0.046514 -0.030204 -0.168825
v -0.013620 -0.106653 -0.148367
v -0.057843 0.005792 0.117801
v -0.035231 0.043983 -0.108873
v -0.003984 0.030757 -0.096500
v -0.004946 0.079314 -0.016012
v -0.082344 0.047622 0.050981
v -0.052772 0.011031 -0.158394
v -0.050140 -0.029896 0.123318
v -0.061486 -0.223561 0.013585
v -0.066068 0.075403 -0.059510
v -0.062659 0.040711 0.080672
v -0.051115 0.074608 0.012123
v -0.119204 0.069867 -0.006116
v -0.074472 -0.040296 -0.174981
v -0.115747 0.079934 -0.031235
v -0.100099 0.072753 -0.146981
v -0.057432 -0.185739 0.066078
v -0.106846 0.081639 0.094649
v -0.081763 0.040146 -0.170280
v -0.031307 -0.184094 -0.100262
v -0.089608 0.049248 0.116820
v -0.087337 -0.235625 -0.034124
v -0.076687 0.045232 -0.110383
v -0.125897 0.040241 0.023596
v -0.096993 0.060580 0.066669
v -0.100891 -0.022702 0.128282
v -0.146954 0.090751 0.067968
v -0.085750 -0.155397 -0.151353
v -0.097707 -0.110767 0.116696
v -0.151497 0.055031 -0.107701
v -0.153481 0.040591 0.119853
v -0.145983 0.083874 0.113780
v -0.097767 -0.197173 -0.110863
v -0.154534 0.085963 -0.164965
v -0.169103 0.232093 -0.127975
v -0.146505 0.191461 -0.138320
v -0.111842 -0.213831 0.039050
v -0.163989 0.202523 -0.163202
v -0.167989 0.052521 0.051774
v -0.139362 -0.171898 -0.134745
v -0.163808 0.193107 -0.105896
v -0.136937 -0.228007 -0.020539
v -0.195111 -0.168823 -0.120494
v -0.182549 0.031961 0.020755
v -0.190013 0.214910 -0.146468
v -0.181257 0.143911 -0.127553
v -0.212365 0.058210 -0.166873
v -0.183245 0.053441 -0.026215
v -0.186646 0.101384 -0.118403
v -0.148378 -0.063916 -0.166320
v -0.100955 -0.165713 0.101671
v -0.229882 -0.037729 0.108636
v -0.210106 0.195852 0.074480
v -0.202253 0.116844 0.058736
v -0.203111 0.122423 0.096493
v -0.190823 0.108204 -0.149009
v -0.216084 -0.180609 -0.076730
v -0.207645 0.143885 -0.103711
v -0.198244 0.134145 -0.157561
v -0.146725 -0.208033 -0.079045
v -0.228551 0.216127 0.046125
v -0.150120 -0.014418 -0.176498
v -0.224802 -0.184642 -0.025509
v -0.242012 0.173564 0.098949
v -0.242742 0.254125 0.091595
v -0.196155 -0.164875 0.077037
v -0.169842 0.031095 -0.070923
v -0.214218 0.230795 0.096693
v -0.219874 0.072333 0.112053
v -0.224669 0.251131 0.064583
v -0.228976 -0.043681 -0.157416
v -0.206096 -0.183403 0.044865
v -0.253781 0.113302 0.102704
v -0.160333 -0.008074 0.125987
v -0.220700 0.159257 -0.152511
v -0.237950 0.029505 0.034671
v -0.254997 0.221373 0.053569
v -0.230027 0.045494 -0.099498
v -0.254616 -0.126909 0.061743
v -0.237965 0.093774 -0.159407
v -0.243541 0.103345 -0.103989
v -0.242482 0.022702 0.103410
v -0.233856 0.049910 0.047582
v -0.238185 0.009859 -0.157046
v -0.264486 0.087032 0.048718
v -0.250467 0.139989 -0.141821
v -0.246995 0.146901 -0.104285
v -0.252816 -0.085403 0.087080
v -0.260798 0.031387 0.055134
v -0.263851 0.104068 -0.148315
v -0.258868 0.017009 -0.105285
v -0.273322 0.136693 0.047180
v -0.272855 0.075066 0.083668
v -0.234676 0.036566 -0.026157
v -0.267961 0.180685 0.081672
v -0.285425 -0.021349 0.054836
v -0.275888 -0.079351 0.060233
v -0.273100 0.082390 -0.108819
v -0.286401 0.012453 -0.008732
v -0.273929 -0.135646 -0.020382
v -0.263729 -0.053393 -0.144302
v -0.270818 0.063351 -0.134983
v -0.257846 -0.131138 -0.099066
v -0.270171 -0.036167 0.089634
v -0.294502 -0.078575 -0.028660
v -0.275085 -0.009688 -0.108986
v -0.287050 0.014806 -0.028953
v -0.280868 -0.050561 -0.110629
v -0.292637 -0.004997 -0.059385
v -0.307916 -0.036478 -0.067459
v -0.299035 -0.064476 0.008536
v -0.342985 -0.003171 -0.047147
v -0.328319 0.023583 -0.015663
v -0.311880 -0.015597 0.018617
v -0.346489 -0.029589 -0.003610
v -0.331121 -0.065994 -0.039053
f 163 175 219
f 190 163 219
f 225 229 221
f 218 225 232
f 64 71 100
f 94 100 123
f 209 231 229
f 231 228 229
f 91 79 81
f 93 91 103
f 154 161 163
f 154 163 168
f 168 163 190
f 75 79 91
f 93 75 91
f 93 103 100
f 161 147 142
f 147 161 154
f 225 218 229
f 71 75 93
f 130 147 138
f 240 218 232
f 100 71 93
f 120 133 123
f 123 133 131
f 224 188 240
f 233 240 232
f 224 240 233
f 94 123 131
f 94 131 122
f 215 224 233
f 135 94 122
f 202 188 224
f 202 224 215
f 153 135 187
f 187 135 122
f 208 173 187
f 187 188 202
f 187 202 208
f 186 164 176
f 150 164 186
f 150 137 164
f 137 150 136
f 198 186 207
f 198 150 186
f 220 198 207
f 155 150 198
f 155 136 150
f 143 136 155
f 183 198 220
f 183 170 198
f 152 143 155
f 183 220 238
f 216 183 238
f 155 198 170
f 226 216 238
f 192 170 216
f 152 155 170
f 195 192 216
f 195 216 211
f 211 174 195
f 76 86 95
f 76 77 86
f 72 77 76
f 104 83 82
f 72 82 83
f 223 177 171
f 164 169 176
f 176 169 179
f 164 156 169
f 137 156 164
f 132 156 137
f 22 3 9
f 170 183 216
f 237 179 239
f 176 179 237
f 126 132 137
f 22 9 18
f 207 176 237
f 124 137 128
f 124 126 137
f 244 237 239
f 136 128 137
f 242 237 244
f 220 237 242
f 220 207 237
f 172 171 177
f 176 207 186
f 140 136 143
f 219 225 221
f 189 204 200
f 191 189 200
f 200 231 209
f 200 204 201
f 200 201 231
f 58 62 69
f 191 200 209
f 168 191 205
f 191 209 205
f 205 209 229
f 147 154 157
f 157 154 168
f 157 168 167
f 168 205 167
f 167 205 218
f 218 205 229
f 138 147 157
f 138 157 162
f 162 157 167
f 210 167 218
f 133 138 144
f 162 167 210
f 188 210 218
f 188 218 240
f 131 133 144
f 144 138 162
f 188 162 210
f 165 162 188
f 122 131 144
f 144 162 165
f 122 144 165
f 187 122 165
f 187 165 188
f 161 180 175
f 161 160 180
f 163 161 175
f 161 142 160
f 130 142 147
f 130 148 142
f 228 221 229
f 190 219 221
f 85 81 101
f 85 56 81
f 67 56 85
f 197 221 228
f 197 190 221
f 89 85 106
f 89 106 107
f 89 67 85
f 189 190 197
f 213 228 231
f 213 197 228
f 206 197 213
f 206 213 201
f 178 173 208
f 145 153 173
f 116 153 145
f 53 42 46
f 103 109 118
f 107 109 103
f 107 106 109
f 115 121 116
f 115 66 121
f 208 215 236
f 73 57 66
f 236 215 233
f 15 11 19
f 5 8 11
f 15 5 11
f 1 2 5
f 241 233 247
f 54 48 43
f 48 35 43
f 36 19 34
f 16 28 35
f 19 11 34
f 247 250 251
f 34 24 36
f 14 24 34
f 250 249 251
f 247 235 250
f 247 232 235
f 2 1 16
f 27 14 34
f 5 2 8
f 241 247 252
f 57 63 54
f 48 54 63
f 63 38 48
f 35 48 38
f 57 54 64
f 206 189 197
f 19 36 28
f 28 36 43
f 5 15 7
f 35 28 43
f 57 64 66
f 66 64 94
f 1 7 16
f 121 66 94
f 121 94 135
f 116 121 135
f 208 202 215
f 116 135 153
f 153 187 173
f 189 206 204
f 204 206 201
f 201 213 231
f 191 190 189
f 67 89 62
f 91 62 107
f 62 89 107
f 67 58 56
f 56 58 69
f 56 69 91
f 56 91 81
f 69 62 91
f 91 107 103
f 191 168 190
f 34 16 35
f 8 16 34
f 11 8 34
f 252 247 251
f 27 34 35
f 252 251 248
f 249 248 251
f 250 235 249
f 235 243 249
f 235 230 243
f 212 230 235
f 180 230 212
f 180 184 230
f 180 149 184
f 160 149 180
f 148 151 149
f 45 68 60
f 46 47 45
f 25 12 33
f 12 13 33
f 148 141 151
f 141 97 110
f 33 13 47
f 27 35 38
f 29 14 27
f 149 151 184
f 140 128 136
f 96 70 105
f 159 139 143
f 143 139 140
f 117 96 112
f 84 78 96
f 78 70 96
f 238 220 227
f 96 117 98
f 90 84 96
f 234 226 238
f 185 152 170
f 185 159 152
f 98 117 113
f 90 96 98
f 223 226 234
f 223 222 226
f 182 185 192
f 185 170 192
f 95 98 113
f 90 98 95
f 88 90 86
f 222 211 226
f 174 182 195
f 102 95 113
f 95 86 90
f 86 77 88
f 223 181 222
f 181 211 222
f 172 182 174
f 102 113 104
f 82 102 104
f 76 95 102
f 77 83 88
f 77 72 83
f 171 181 223
f 181 174 211
f 171 172 174
f 82 76 102
f 82 72 76
f 171 174 181
f 143 152 159
f 211 216 226
f 182 192 195
f 10 23 31
f 244 241 246
f 246 245 244
f 29 31 37
f 245 246 248
f 110 114 129
f 44 40 38
f 196 178 193
f 134 127 158
f 110 97 108
f 141 129 146
f 80 68 74
f 80 74 108
f 80 108 97
f 108 114 110
f 141 110 129
f 151 203 184
f 184 203 230
f 12 29 20
f 230 227 243
f 227 245 243
f 243 245 249
f 249 245 248
f 12 14 29
f 248 246 252
f 29 27 30
f 31 29 30
f 30 27 38
f 10 31 26
f 30 26 31
f 40 26 30
f 30 38 40
f 44 38 63
f 241 252 246
f 65 63 73
f 65 73 115
f 193 199 236
f 193 178 199
f 32 29 37
f 230 203 227
f 129 140 139
f 129 125 140
f 74 68 61
f 20 29 32
f 146 203 151
f 146 159 203
f 146 129 139
f 129 114 117
f 17 41 49
f 32 41 17
f 17 20 32
f 114 111 117
f 108 111 114
f 108 99 111
f 74 92 99
f 92 83 99
f 169 156 158
f 179 196 193
f 169 196 179
f 169 158 196
f 32 37 41
f 117 125 129
f 49 50 55
f 55 61 68
f 45 55 68
f 45 49 55
f 20 17 13
f 13 12 20
f 151 141 146
f 47 49 45
f 47 17 49
f 13 17 47
f 196 158 178
f 156 134 158
f 132 134 156
f 119 134 132
f 134 115 127
f 119 115 134
f 119 65 115
f 241 239 236
f 193 236 239
f 21 10 26
f 21 6 10
f 10 4 23
f 6 4 10
f 59 63 65
f 21 26 40
f 21 40 39
f 23 22 18
f 51 63 59
f 51 44 63
f 39 40 44
f 18 37 31
f 31 23 18
f 39 44 51
f 108 74 99
f 12 24 14
f 175 180 212
f 120 118 130
f 71 60 80
f 105 70 87
f 41 51 50
f 112 124 125
f 117 112 125
f 125 128 140
f 227 242 245
f 37 39 51
f 41 37 51
f 50 51 59
f 50 59 70
f 96 105 112
f 112 105 124
f 128 125 124
f 242 244 245
f 18 39 37
f 59 65 87
f 59 87 70
f 105 87 124
f 239 241 244
f 87 126 124
f 4 22 23
f 9 21 39
f 9 39 18
f 87 65 126
f 126 65 119
f 3 4 6
f 3 6 9
f 9 6 21
f 126 119 132
f 179 193 239
f 60 68 80
f 60 53 45
f 24 12 25
f 142 149 160
f 148 130 141
f 118 141 130
f 118 109 141
f 109 97 141
f 101 80 97
f 79 80 101
f 46 45 53
f 42 25 46
f 25 33 46
f 106 97 109
f 101 97 106
f 81 79 101
f 106 85 101
f 158 173 178
f 158 145 173
f 158 127 145
f 127 116 145
f 178 208 199
f 115 116 127
f 199 208 236
f 73 66 115
f 233 241 236
f 63 57 73
f 8 2 16
f 142 148 149
f 46 33 47
f 50 70 61
f 227 220 242
f 203 214 227
f 55 50 61
f 49 41 50
f 214 234 227
f 166 214 203
f 159 166 203
f 139 159 146
f 74 84 92
f 61 84 74
f 84 61 78
f 238 227 234
f 214 217 234
f 166 185 214
f 217 223 234
f 185 217 214
f 185 194 217
f 185 182 194
f 111 113 117
f 104 113 111
f 99 104 111
f 99 83 104
f 92 88 83
f 217 194 223
f 182 177 194
f 194 177 223
f 70 78 61
f 166 159 185
f 88 92 90
f 92 84 90
f 172 177 182
f 7 19 28
f 15 19 7
f 16 7 28
f 24 25 42
f 36 24 42
f 233 232 247
f 71 80 75
f 75 80 79
f 118 100 103
f 120 130 133
f 133 130 138
f 175 212 219
f 219 212 225
f 225 212 235
f 225 235 232
f 42 52 43
f 52 42 53
f 52 53 60
f 52 60 71
f 36 42 43
f 54 52 64
f 52 71 64
f 100 118 123
f 123 118 120
f 54 43 52
f 64 100 94
f 1 5 7
f 58 67 62
f 4 3 22
