# centred copy of data/rabbit/cohort/T127.obj: shared offset [0.04219600558280945, 0.05817648768424988, -0.007244497537612915] subtracted
v 0.760934 0.127827 -0.047542
v 0.773553 0.116009 0.045655
v 0.771883 0.001261 -0.011917
v 0.661622 0.150113 0.056710
v 0.666973 0.073724 0.114556
v 0.658035 0.151089 -0.038990
v 0.645129 -0.044535 0.118518
v 0.697916 -0.005676 -0.078260
v 0.588351 0.088169 -0.107067
v 0.682168 -0.087018 0.080939
v 0.596864 -0.068445 -0.115015
v 0.649383 0.052876 -0.113781
v 0.497841 0.140508 0.033293
v 0.518747 0.136411 -0.022437
v 0.682236 -0.082491 -0.075489
v 0.564163 -0.217320 0.123005
v 0.681103 -0.460795 0.150320
v 0.550690 -0.165322 0.100290
v 0.653502 -0.390891 0.152341
v 0.672994 -0.350966 0.093817
v 0.696465 -0.412369 -0.119624
v 0.671779 -0.288314 -0.103705
v 0.616280 -0.252553 -0.068259
v 0.564798 -0.128744 0.071410
v 0.537910 -0.031295 0.159085
v 0.559710 -0.065220 -0.136253
v 0.484886 0.073473 -0.106109
v 0.558065 -0.237846 -0.162014
v 0.488897 0.021910 0.150741
v 0.600152 -0.312360 -0.095035
v 0.596943 -0.299722 0.194263
v 0.569381 -0.134948 0.005405
v 0.547714 -0.164041 -0.101064
v 0.644563 -0.379803 -0.157789
v 0.600048 -0.297336 0.085389
v 0.543568 -0.159737 -0.075594
v 0.616945 -0.399200 0.166295
v 0.652174 -0.420111 0.206969
v 0.649455 -0.443357 -0.166662
v 0.617348 -0.378023 -0.204260
v 0.549582 -0.157423 0.074244
v 0.542319 -0.248440 0.136119
v 0.477525 -0.109981 -0.072797
v 0.508380 -0.122101 0.097671
v 0.546764 -0.261059 -0.136967
v 0.493202 -0.071705 -0.129726
v 0.411443 0.085768 0.154475
v 0.536828 -0.094844 0.130536
v 0.508661 -0.008576 -0.152285
v 0.325303 0.127177 0.133869
v 0.334114 0.063506 -0.190161
v 0.203979 0.431851 0.207487
v 0.254623 0.192662 -0.022487
v 0.339053 0.153144 -0.096747
v 0.225809 0.452421 -0.216463
v 0.486840 -0.077789 0.134837
v 0.206590 0.363270 0.298561
v 0.316571 0.073799 0.208191
v 0.315094 0.178263 0.045421
v 0.237834 0.365995 0.219528
v 0.231718 0.406312 0.294546
v 0.396784 -0.073354 -0.139821
v 0.387740 -0.116164 0.119303
v 0.336472 -0.157691 -0.110700
v 0.286101 0.178676 0.141636
v 0.154813 0.463286 -0.247788
v 0.184542 0.496821 -0.197168
v 0.248508 0.206780 -0.073187
v 0.204859 0.263360 0.125685
v 0.161997 0.455086 -0.157381
v 0.139880 0.433197 0.253819
v 0.169092 0.373985 -0.189125
v 0.266527 0.148745 -0.177963
v 0.158611 0.352839 -0.155081
v 0.114359 0.379943 0.181008
v 0.243192 0.207401 0.060575
v 0.155252 0.291393 0.216645
v 0.101144 0.371430 -0.135809
v 0.161927 0.218314 -0.043170
v 0.190534 0.269372 -0.153617
v 0.236673 -0.164038 0.136062
v 0.191901 0.340610 0.252846
v 0.402694 -0.120405 0.028380
v 0.334313 -0.161263 0.114040
v 0.076905 0.312317 0.132537
v 0.190997 0.243068 0.241218
v 0.189473 0.108957 -0.201634
v 0.096756 0.266465 0.233925
v 0.145942 0.314027 0.181846
v 0.082521 0.462315 -0.213541
v 0.113681 0.293706 -0.088847
v 0.160762 0.226012 0.067373
v 0.381387 -0.055994 0.166781
v 0.086418 0.363040 -0.191554
v 0.127980 0.292720 -0.214193
v 0.161253 -0.244296 -0.092060
v 0.064789 0.306361 -0.104984
v 0.203240 0.131689 0.220823
v 0.158052 -0.006531 -0.179597
v 0.033685 0.298774 0.165868
v 0.306633 -0.203846 0.004912
v 0.127346 0.387141 0.263099
v 0.053697 0.206400 -0.155129
v 0.236469 -0.111207 -0.164255
v 0.054305 0.185562 -0.081572
v 0.077653 0.180014 0.171150
v 0.079706 0.192332 0.099569
v 0.159028 0.009340 0.193919
v 0.017486 0.207376 0.048053
v 0.010173 0.116144 0.116225
v 0.058766 -0.039773 -0.174937
v 0.073540 0.222932 -0.034994
v 0.058965 0.067417 -0.138278
v 0.151647 -0.247504 0.106424
v 0.166007 -0.282683 0.003542
v 0.059252 -0.278993 -0.163942
v 0.129780 -0.165124 -0.177791
v 0.151184 -0.148521 0.185174
v 0.121941 -0.310741 0.095603
v 0.058092 -0.173052 0.222152
v -0.046164 0.180797 -0.030993
v -0.000646 -0.099920 -0.219682
v 0.063012 -0.293540 0.163967
v -0.118621 0.164130 0.040877
v -0.066218 0.083634 0.151212
v -0.134097 0.009589 -0.240910
v 0.033632 -0.094174 0.210652
v -0.069999 0.094451 -0.124082
v -0.012750 -0.181655 -0.244408
v -0.149854 0.079999 -0.176570
v -0.137866 -0.347517 0.259165
v -0.130439 -0.056422 -0.283570
v 0.067314 -0.381121 0.073486
v 0.083299 -0.378275 -0.019256
v -0.145826 0.004918 0.271547
v -0.204295 0.082908 -0.145775
v 0.015372 -0.404987 -0.082442
v -0.245774 0.087834 -0.266618
v -0.072980 -0.480862 0.021918
v -0.102779 -0.172883 -0.278675
v -0.066066 -0.181898 0.283260
v -0.130386 -0.419419 0.183539
v -0.165918 0.069311 0.209888
v -0.233307 0.085385 0.254234
v -0.120894 -0.066860 0.300705
v -0.218812 0.137468 0.069700
v -0.305996 0.121307 -0.233882
v -0.194015 0.030291 0.304359
v -0.288301 0.069387 0.190274
v -0.200089 0.154872 -0.029791
v -0.260615 0.017710 -0.293299
v -0.192341 -0.461628 0.120083
v -0.028007 -0.358151 -0.160423
v -0.301844 0.089100 0.295731
v -0.300631 0.035146 -0.093107
v -0.171961 -0.463288 -0.104194
v -0.140710 -0.418721 -0.170370
v -0.232974 -0.104829 -0.296032
v -0.268668 0.083348 -0.174965
v -0.364321 0.075174 -0.024875
v -0.383502 -0.122170 -0.288635
v -0.365331 0.073946 0.050507
v -0.454303 -0.000257 -0.129947
v -0.310882 0.117030 0.253381
v -0.453677 0.085749 -0.278388
v -0.144904 -0.347202 -0.248482
v -0.451116 0.082281 0.298371
v -0.321488 0.023785 0.109918
v -0.187717 -0.496821 0.004497
v -0.337884 0.107721 0.207268
v -0.406063 0.107685 -0.184006
v -0.283640 -0.065367 0.322670
v -0.140188 -0.282104 0.282730
v -0.412418 -0.013229 0.299982
v -0.456889 -0.040287 0.128087
v -0.547032 0.003820 -0.140168
v -0.325548 -0.476812 0.006752
v -0.472914 -0.184714 0.278684
v -0.518110 0.133508 0.212431
v -0.314443 -0.452231 0.136529
v -0.432724 -0.010342 -0.272449
v -0.334229 -0.448956 -0.120221
v -0.540560 0.140728 -0.203329
v -0.430448 -0.024631 -0.085958
v -0.338088 -0.408661 0.211450
v -0.463424 0.053652 0.194485
v -0.508030 0.018150 0.302049
v -0.632603 0.307260 0.216807
v -0.515380 0.122601 0.282265
v -0.582432 0.221224 0.256100
v -0.604930 0.328172 0.299702
v -0.555721 -0.079598 0.010101
v -0.600309 0.203679 0.297673
v -0.509465 0.026108 -0.279510
v -0.602605 0.209963 0.206593
v -0.331940 -0.401016 -0.201473
v -0.536717 0.129020 -0.275701
v -0.668609 0.363883 0.280766
v -0.624385 0.180019 -0.296647
v -0.603299 0.085450 0.185349
v -0.653463 0.189265 0.300341
v -0.497895 -0.286169 -0.210634
v -0.643192 0.214265 -0.207861
v -0.514728 -0.083184 -0.247324
v -0.560432 -0.027605 -0.233631
v -0.454336 -0.425688 0.004270
v -0.472718 -0.178018 -0.258716
v -0.531867 -0.060460 -0.109255
v -0.656056 0.263695 -0.282127
v -0.561319 -0.034999 0.256571
v -0.594513 0.059928 0.295175
v -0.718582 0.329175 -0.294174
v -0.676183 0.307480 0.332179
v -0.510773 -0.089438 0.270167
v -0.696034 0.330577 0.244925
v -0.627507 0.022745 0.190013
v -0.629040 0.033317 -0.177143
v -0.593841 -0.035988 -0.152201
v -0.450372 -0.410618 0.107902
v -0.435821 -0.408151 -0.126301
v -0.678963 0.170141 0.273970
v -0.670249 0.129633 0.194295
v -0.518455 -0.044890 0.151583
v -0.621395 0.075768 -0.280634
v -0.626729 0.021265 0.260417
v -0.438938 -0.387881 0.187762
v -0.622636 0.083345 -0.167342
v -0.618090 0.001609 -0.226265
v -0.536366 -0.204156 0.254835
v -0.694022 0.175134 -0.299940
v -0.566944 -0.083013 0.174938
v -0.710930 0.292857 -0.223616
v -0.559683 -0.218514 -0.215917
v -0.566792 -0.281568 0.169529
v -0.552398 -0.323697 0.084859
v -0.685358 0.100746 -0.179807
v -0.724162 0.156682 -0.266290
v -0.774919 0.305879 -0.255953
v -0.695235 0.255308 -0.332179
v -0.553517 -0.303968 -0.128585
v -0.614797 -0.233067 0.090515
v -0.548248 -0.349165 0.001045
v -0.583286 -0.118120 -0.137064
v -0.609142 -0.234528 -0.084440
v -0.580847 -0.303708 -0.070394
v -0.664545 -0.222999 -0.059735
v -0.604288 -0.357837 -0.038518
v -0.634536 -0.180690 0.012665
v -0.698686 -0.264694 -0.048665
v -0.707871 -0.218269 0.043923
v -0.687039 -0.345794 0.006113
v -0.675895 -0.280398 0.086271
f 98 106 108
f 125 143 135
f 29 47 58
f 118 93 108
f 52 60 75
f 60 82 89
f 89 82 77
f 82 88 77
f 88 102 100
f 164 170 167
f 167 170 179
f 170 186 179
f 179 186 200
f 216 225 222
f 221 222 225
f 86 65 69
f 86 69 77
f 86 77 88
f 98 86 88
f 88 100 106
f 144 149 170
f 164 144 170
f 210 211 225
f 210 225 231
f 216 231 225
f 106 98 88
f 135 143 144
f 231 214 210
f 65 86 58
f 58 86 98
f 214 231 229
f 229 231 241
f 125 145 127
f 145 125 135
f 234 229 241
f 93 58 108
f 58 98 108
f 209 203 199
f 197 199 203
f 183 197 203
f 67 66 90
f 67 55 66
f 237 232 238
f 203 209 232
f 209 212 232
f 232 212 238
f 132 140 158
f 151 132 158
f 204 181 161
f 181 151 161
f 151 158 161
f 151 138 132
f 165 194 197
f 165 181 194
f 165 151 181
f 138 151 165
f 197 194 224
f 224 237 230
f 199 224 230
f 199 197 224
f 239 199 230
f 209 199 239
f 239 230 237
f 209 239 212
f 238 239 237
f 238 212 239
f 149 146 168
f 143 146 149
f 144 143 149
f 223 231 216
f 200 223 216
f 186 223 200
f 186 175 223
f 186 149 175
f 170 149 186
f 77 69 89
f 200 216 222
f 89 85 75
f 75 60 89
f 75 100 102
f 75 85 100
f 18 16 20
f 16 19 20
f 139 152 169
f 142 152 139
f 139 133 142
f 42 41 35
f 152 180 177
f 169 152 177
f 41 42 44
f 35 41 32
f 32 20 35
f 18 20 32
f 32 24 18
f 177 180 219
f 115 114 119
f 115 84 114
f 106 107 110
f 100 107 106
f 69 85 89
f 115 119 133
f 166 153 157
f 166 116 153
f 60 57 82
f 88 82 102
f 178 214 229
f 141 127 145
f 60 52 61
f 60 61 57
f 57 102 82
f 167 189 187
f 167 179 189
f 189 211 187
f 225 211 221
f 148 144 154
f 144 164 154
f 167 154 164
f 154 167 174
f 167 187 174
f 187 211 210
f 144 148 135
f 172 148 154
f 172 154 174
f 214 174 187
f 214 187 210
f 214 172 174
f 172 214 178
f 135 148 145
f 141 145 172
f 145 148 172
f 173 172 178
f 173 141 172
f 141 173 131
f 131 173 185
f 140 129 166
f 129 116 166
f 207 196 202
f 207 161 196
f 158 166 161
f 122 117 129
f 132 122 129
f 204 207 233
f 233 207 202
f 126 122 132
f 161 207 204
f 194 204 205
f 181 204 194
f 147 136 138
f 136 126 138
f 224 205 228
f 138 165 147
f 228 236 237
f 228 217 236
f 224 228 237
f 66 95 94
f 66 72 95
f 165 197 183
f 90 66 94
f 55 72 66
f 140 166 158
f 132 129 140
f 126 132 138
f 194 205 224
f 196 157 156
f 196 156 182
f 157 196 166
f 116 137 153
f 196 220 202
f 117 116 129
f 96 116 117
f 220 240 202
f 99 104 117
f 51 104 99
f 51 62 104
f 51 49 62
f 111 117 122
f 99 117 111
f 27 49 51
f 233 240 244
f 111 122 126
f 87 51 99
f 73 51 87
f 54 51 73
f 243 204 233
f 128 111 126
f 95 87 113
f 113 87 99
f 73 87 95
f 143 124 146
f 125 124 143
f 109 124 110
f 109 110 107
f 85 107 100
f 85 92 107
f 118 108 127
f 118 127 120
f 141 120 127
f 185 178 229
f 226 185 229
f 226 229 234
f 123 118 120
f 131 123 120
f 120 141 131
f 185 173 178
f 123 131 142
f 142 131 185
f 37 31 42
f 38 19 31
f 38 31 37
f 17 38 37
f 17 19 38
f 213 191 198
f 213 198 215
f 201 213 221
f 213 215 221
f 193 190 191
f 191 213 193
f 193 213 201
f 211 201 221
f 57 61 102
f 102 61 71
f 189 179 190
f 189 190 193
f 211 189 193
f 211 193 201
f 85 69 92
f 134 133 139
f 115 133 134
f 15 10 32
f 177 219 206
f 101 84 115
f 83 84 101
f 43 44 83
f 32 44 43
f 44 32 41
f 32 10 24
f 15 3 10
f 3 1 2
f 247 235 251
f 2 1 4
f 251 235 252
f 4 14 13
f 6 14 4
f 1 6 4
f 252 250 251
f 250 249 251
f 250 248 249
f 223 192 248
f 65 59 76
f 53 76 59
f 13 53 59
f 107 112 109
f 134 139 137
f 96 101 115
f 64 83 101
f 195 179 200
f 190 179 195
f 71 75 102
f 71 52 75
f 61 52 71
f 195 200 222
f 188 195 222
f 215 222 221
f 188 222 215
f 188 190 195
f 188 191 190
f 198 188 215
f 191 188 198
f 35 17 37
f 20 19 17
f 35 37 42
f 31 19 16
f 16 48 42
f 31 16 42
f 180 152 185
f 152 142 185
f 133 123 142
f 133 119 123
f 48 44 42
f 16 18 48
f 180 185 226
f 35 20 17
f 219 180 226
f 83 63 84
f 24 48 18
f 10 7 24
f 10 5 7
f 137 96 134
f 124 121 150
f 76 68 79
f 240 242 245
f 1 8 12
f 1 12 9
f 240 206 242
f 245 242 247
f 1 3 8
f 64 62 83
f 220 206 240
f 8 3 15
f 15 32 11
f 32 33 11
f 36 32 43
f 62 43 83
f 96 64 101
f 182 177 220
f 220 177 206
f 22 33 32
f 22 32 23
f 23 32 36
f 96 115 134
f 156 169 177
f 23 36 30
f 137 139 156
f 156 139 169
f 107 92 112
f 109 112 121
f 109 121 124
f 124 150 146
f 162 146 150
f 162 150 160
f 76 79 92
f 162 160 192
f 175 192 223
f 10 3 5
f 206 219 242
f 44 56 83
f 3 2 5
f 219 235 242
f 2 4 5
f 235 241 252
f 235 234 241
f 4 13 29
f 252 248 250
f 241 248 252
f 50 13 59
f 175 162 192
f 175 168 162
f 110 124 125
f 69 76 92
f 65 76 69
f 146 162 168
f 50 59 65
f 114 123 119
f 114 118 123
f 114 81 118
f 44 48 56
f 24 7 48
f 81 93 118
f 63 93 81
f 63 81 84
f 63 56 93
f 56 25 93
f 48 25 56
f 7 25 48
f 25 5 29
f 7 5 25
f 235 219 234
f 93 29 58
f 25 29 93
f 5 4 29
f 219 226 234
f 13 47 29
f 127 110 125
f 127 108 110
f 47 50 58
f 47 13 50
f 231 248 241
f 231 223 248
f 108 106 110
f 50 65 58
f 114 84 81
f 83 56 63
f 149 168 175
f 218 205 243
f 208 218 243
f 205 204 243
f 136 147 159
f 130 126 136
f 128 126 130
f 95 113 103
f 80 73 95
f 192 208 243
f 240 245 244
f 33 22 34
f 21 22 23
f 21 23 30
f 30 45 39
f 22 21 34
f 21 30 39
f 79 91 97
f 79 112 92
f 112 79 97
f 112 97 105
f 112 105 121
f 121 128 150
f 150 155 160
f 76 53 68
f 79 68 91
f 105 113 121
f 160 184 192
f 192 184 208
f 248 192 243
f 243 244 248
f 249 248 246
f 13 14 54
f 54 14 27
f 54 53 13
f 244 245 246
f 244 246 248
f 1 9 6
f 14 6 9
f 246 245 249
f 249 245 247
f 249 247 251
f 68 73 80
f 218 217 228
f 176 217 218
f 205 218 228
f 171 176 163
f 163 159 171
f 94 95 103
f 72 74 80
f 217 227 236
f 176 227 217
f 176 183 227
f 171 183 176
f 171 165 183
f 159 147 171
f 72 80 95
f 227 183 203
f 78 94 97
f 74 70 78
f 72 70 74
f 55 70 72
f 236 227 232
f 227 203 232
f 90 94 78
f 70 90 78
f 70 67 90
f 70 55 67
f 34 40 28
f 161 166 196
f 171 147 165
f 236 232 237
f 30 36 45
f 33 34 28
f 156 177 182
f 156 153 137
f 45 36 46
f 28 45 46
f 26 28 46
f 220 196 182
f 116 96 137
f 104 64 96
f 46 36 43
f 28 26 33
f 26 11 33
f 8 15 11
f 117 104 96
f 62 64 104
f 46 43 62
f 49 46 62
f 49 26 46
f 12 11 26
f 12 8 11
f 9 49 27
f 9 12 49
f 14 9 27
f 153 156 157
f 49 12 26
f 99 111 113
f 27 51 54
f 243 233 244
f 113 111 128
f 73 68 53
f 54 73 53
f 218 163 176
f 163 218 208
f 233 202 240
f 45 40 39
f 74 78 91
f 97 91 78
f 97 94 103
f 97 103 105
f 68 80 91
f 80 74 91
f 150 136 155
f 105 103 113
f 113 128 121
f 150 128 130
f 150 130 136
f 155 136 159
f 155 159 163
f 160 155 184
f 155 163 184
f 184 163 208
f 247 242 235
f 40 34 39
f 28 40 45
f 21 39 34
