# centred copy of data/rabbit/cohort/T365.obj: shared offset [0.04219600558280945, 0.05817648768424988, -0.007244497537612915] subtracted
v 0.720051 -0.320206 -0.153315
v 0.747590 -0.297224 0.129901
v 0.698691 -0.273986 0.156346
v 0.732519 -0.285558 -0.091267
v 0.706947 -0.280355 -0.130042
v 0.657268 0.125657 0.036707
v 0.672635 -0.184920 0.108394
v 0.662640 0.084131 -0.007497
v 0.619833 0.186164 0.058174
v 0.564635 0.078103 0.111613
v 0.649652 -0.171206 -0.082245
v 0.719863 -0.319472 0.184570
v 0.620006 -0.016177 -0.031426
v 0.604427 -0.122317 -0.047874
v 0.618902 0.194949 -0.034328
v 0.666611 -0.287174 -0.126056
v 0.615549 -0.014458 0.078038
v 0.657182 -0.182322 0.086060
v 0.588316 -0.143114 0.063866
v 0.656553 -0.274262 0.186581
v 0.560340 -0.196135 -0.115262
v 0.622017 -0.227605 -0.076600
v 0.517090 0.177697 -0.041044
v 0.635031 -0.244106 -0.168892
v 0.620528 -0.167280 -0.045166
v 0.598212 -0.117970 0.069499
v 0.632008 -0.258475 0.136745
v 0.556505 -0.010407 0.117514
v 0.566993 -0.067682 -0.040905
v 0.582041 0.006544 -0.093761
v 0.555575 -0.185840 0.149642
v 0.626296 -0.220338 0.094413
v 0.529474 -0.128157 -0.092982
v 0.488235 0.101818 0.114658
v 0.526173 -0.101182 0.095004
v 0.604746 -0.209249 0.141420
v 0.512164 -0.114057 0.093585
v 0.555287 0.143937 -0.082485
v 0.545480 -0.085312 0.017526
v 0.502440 -0.065738 0.126727
v 0.496096 -0.011040 0.149828
v 0.507031 -0.072740 -0.102860
v 0.514458 -0.119142 -0.076334
v 0.546677 0.194366 0.057932
v 0.391791 0.121871 0.009438
v 0.477822 -0.091898 0.003697
v 0.456143 -0.101704 -0.063028
v 0.461757 -0.085711 0.119675
v 0.380714 -0.111433 0.125021
v 0.297335 0.343227 -0.096388
v 0.372235 0.099347 0.053919
v 0.282815 0.289096 -0.108084
v 0.360611 -0.064343 0.158388
v 0.441117 -0.009296 -0.134244
v 0.381676 0.095380 -0.047714
v 0.379316 -0.119280 -0.101115
v 0.400829 0.033618 0.132923
v 0.301063 0.036258 0.156598
v 0.375198 -0.160633 0.005393
v 0.317981 0.311107 -0.160168
v 0.333110 0.033018 -0.132909
v 0.266853 0.077720 0.125591
v 0.242009 -0.216612 -0.083074
v 0.364305 -0.068156 -0.137857
v 0.255719 0.125683 0.011749
v 0.183405 0.225394 -0.175747
v 0.320340 -0.172274 0.110511
v 0.200362 0.327450 -0.095171
v 0.272128 0.018590 0.189820
v 0.242289 0.368118 -0.154074
v 0.232630 0.243508 -0.145047
v 0.262713 0.073732 -0.113936
v 0.203698 -0.143460 -0.146132
v 0.162459 0.287121 -0.114978
v 0.251901 -0.121616 0.163149
v 0.200612 0.276183 -0.089555
v 0.201314 0.068817 -0.187753
v 0.220796 0.120082 -0.139572
v 0.280642 0.008813 -0.173042
v 0.273428 -0.223000 0.012800
v 0.202094 0.141108 -0.042562
v 0.205461 0.180038 -0.110337
v 0.183940 0.181073 0.087088
v 0.147490 -0.049681 -0.162887
v 0.149364 0.239422 -0.153599
v 0.144090 0.158394 0.051683
v 0.109149 0.128232 -0.174235
v 0.103743 0.241991 -0.102299
v 0.062082 0.163715 -0.020561
v 0.125800 -0.189346 0.171699
v 0.123849 0.250105 -0.075224
v 0.150818 0.196055 0.195474
v 0.155093 -0.043274 0.178210
v 0.075169 0.189120 -0.136183
v 0.085996 -0.329921 0.091372
v 0.053571 0.268236 0.155086
v 0.041229 0.212986 0.183720
v 0.124402 0.158444 -0.039322
v 0.152187 0.077347 0.199409
v 0.074548 0.245702 0.129698
v 0.179101 -0.244072 0.099736
v 0.028232 0.149599 0.079157
v 0.024188 0.373762 0.108141
v 0.094782 -0.217820 -0.159233
v 0.035790 0.379096 0.180324
v 0.061882 0.205910 0.081129
v 0.052704 -0.105760 0.175697
v 0.056132 0.072221 0.155706
v 0.022549 0.116234 -0.080371
v -0.006748 0.128276 0.061081
v 0.074305 -0.128487 -0.162846
v -0.022612 0.394117 0.155731
v -0.013041 0.300012 0.180335
v -0.016138 0.204450 0.125932
v 0.053917 -0.011466 0.152591
v 0.137230 -0.274375 -0.078281
v 0.045856 -0.009185 -0.132075
v -0.041507 0.325218 0.102215
v 0.189972 -0.271863 0.000825
v -0.030363 0.234557 0.101440
v -0.036537 0.037413 0.114386
v -0.068914 0.319652 0.149825
v 0.020861 -0.408762 0.003673
v 0.065389 -0.254586 0.166008
v 0.027125 -0.371445 -0.079519
v 0.013459 -0.315520 -0.143541
v -0.055970 0.040887 -0.112592
v -0.020865 -0.133466 0.210704
v -0.126548 0.076531 -0.099554
v -0.008012 -0.212567 0.219798
v -0.089630 0.033034 0.161447
v -0.067311 0.106388 0.043886
v -0.014779 -0.391592 0.098084
v -0.022372 -0.140134 -0.199025
v -0.116556 -0.307810 -0.215501
v -0.091469 -0.374989 0.163431
v -0.046092 -0.442793 0.031837
v -0.079429 0.112571 -0.020582
v -0.124258 -0.388498 -0.152619
v -0.140155 -0.021842 -0.236832
v -0.115557 -0.119320 -0.259793
v -0.115807 -0.088050 0.265227
v -0.065372 -0.220645 -0.232345
v -0.135624 0.065766 0.129818
v -0.099948 -0.450695 -0.046750
v -0.177771 -0.013317 0.276040
v -0.172551 0.015168 -0.257538
v -0.113145 -0.160714 0.268725
v -0.179983 0.038726 -0.161194
v -0.200134 0.047192 0.173826
v -0.209342 0.061848 -0.182048
v -0.161900 -0.459553 0.071286
v -0.243017 0.087346 0.226809
v -0.164659 -0.300413 0.254414
v -0.283508 0.080279 -0.249849
v -0.210147 -0.367643 0.224913
v -0.259562 0.089641 -0.021005
v -0.227431 0.098967 0.040245
v -0.271464 0.078375 0.260520
v -0.234420 -0.042232 -0.276854
v -0.269597 0.020430 -0.090694
v -0.173757 -0.271216 -0.247185
v -0.290872 0.090292 -0.167130
v -0.284396 0.096591 -0.213227
v -0.323595 0.036109 0.144001
v -0.342747 0.027508 -0.135941
v -0.389190 0.099073 0.252984
v -0.260540 0.025488 0.106327
v -0.185492 -0.479918 0.003783
v -0.362046 0.108990 0.181672
v -0.375823 0.039279 0.001228
v -0.411469 0.055818 -0.154675
v -0.234178 -0.435317 -0.111917
v -0.427125 0.135065 -0.163729
v -0.335628 0.008775 -0.261569
v -0.291615 -0.073514 0.289232
v -0.432423 0.141060 -0.219056
v -0.356540 -0.010542 0.269482
v -0.218005 -0.365897 -0.209982
v -0.365443 -0.369796 0.192922
v -0.327323 -0.453001 0.007794
v -0.446765 0.339845 -0.192935
v -0.465127 0.070513 -0.250300
v -0.370997 -0.397502 -0.145799
v -0.461254 0.233121 -0.191629
v -0.444657 -0.132654 -0.246460
v -0.456122 0.170080 0.162702
v -0.316486 -0.083924 -0.273250
v -0.500975 0.318364 0.244118
v -0.512845 0.379194 -0.210614
v -0.430578 0.137566 0.226360
v -0.498464 0.219809 -0.135251
v -0.496752 0.317782 -0.244236
v -0.484431 0.315944 0.143766
v -0.329501 -0.421422 0.123394
v -0.485931 0.239659 0.230107
v -0.485820 0.334678 -0.140269
v -0.369067 -0.005173 0.084378
v -0.472987 0.351664 0.201479
v -0.480343 0.225846 -0.230847
v -0.362213 -0.003844 -0.077247
v -0.543865 0.368233 0.223985
v -0.488361 -0.032843 -0.106573
v -0.480197 -0.008269 -0.125929
v -0.552078 0.348708 0.158238
v -0.525467 0.111902 -0.136137
v -0.464431 0.056071 0.257827
v -0.525817 0.007380 -0.202961
v -0.406198 -0.401683 0.098589
v -0.527741 -0.044716 0.112832
v -0.456989 -0.151898 0.248232
v -0.544844 0.303395 -0.199714
v -0.551223 0.181357 0.136297
v -0.478842 -0.244608 -0.199621
v -0.430769 -0.262097 0.217509
v -0.554936 0.243258 -0.139656
v -0.486149 0.000253 0.135159
v -0.570849 0.249660 0.198259
v -0.488732 -0.328472 0.133621
v -0.548790 0.225051 0.229310
v -0.533552 0.175808 -0.231293
v -0.564382 0.163938 -0.208592
v -0.434154 -0.400877 -0.005285
v -0.528671 0.130275 0.243298
v -0.479754 -0.011196 0.005738
v -0.525546 -0.044670 0.151890
v -0.566097 0.102700 0.217029
v -0.483263 -0.049032 -0.233811
v -0.528902 -0.054659 -0.138764
v -0.556820 0.068656 -0.212848
v -0.486870 -0.054385 0.242081
v -0.564298 0.097920 0.152326
v -0.531307 0.026490 0.217847
v -0.504866 -0.321386 -0.093253
v -0.523430 -0.246202 0.159930
v -0.559668 0.059237 -0.148889
v -0.542870 -0.144764 -0.193496
v -0.489574 -0.306582 -0.152137
v -0.525497 -0.163527 0.221540
v -0.513990 -0.334801 0.008436
v -0.554748 -0.143762 0.173699
v -0.572577 -0.061980 -0.002098
v -0.578430 -0.134974 0.085437
v -0.571064 -0.184466 -0.067403
v -0.627761 -0.055175 0.022939
v -0.641752 -0.192447 -0.044941
v -0.624692 -0.102934 -0.073964
v -0.558794 -0.224262 0.055163
v -0.566308 -0.237208 0.000479
v -0.650210 -0.104796 0.065783
v -0.651085 -0.196110 0.040762
v -0.679533 -0.106903 -0.006072
f 207 227 233
f 189 202 220
f 196 189 220
f 191 196 224
f 224 196 220
f 167 191 224
f 207 167 224
f 207 224 227
f 159 153 167
f 167 153 191
f 178 167 207
f 176 146 159
f 178 159 167
f 178 207 231
f 231 207 233
f 146 153 159
f 176 159 178
f 142 131 146
f 176 178 211
f 211 178 231
f 142 176 148
f 176 142 146
f 128 142 148
f 148 176 154
f 154 176 215
f 215 176 211
f 130 128 148
f 154 130 148
f 154 215 156
f 216 190 212
f 197 182 190
f 162 135 179
f 162 143 135
f 162 179 186
f 143 162 141
f 188 162 186
f 160 162 188
f 160 141 162
f 134 141 140
f 175 188 186
f 160 188 175
f 147 141 160
f 140 141 147
f 175 186 228
f 183 228 208
f 183 175 228
f 155 160 175
f 147 160 155
f 164 151 155
f 151 147 155
f 183 208 230
f 221 183 230
f 177 155 183
f 164 155 177
f 155 175 183
f 200 183 221
f 200 177 183
f 193 200 221
f 182 200 193
f 212 190 193
f 190 182 193
f 115 110 121
f 115 108 110
f 115 99 108
f 232 226 233
f 170 165 217
f 168 165 150
f 144 158 168
f 102 108 114
f 108 99 114
f 62 83 92
f 226 232 217
f 213 187 217
f 187 170 217
f 99 97 114
f 92 83 100
f 213 217 232
f 97 113 114
f 120 114 122
f 114 113 122
f 96 105 113
f 105 96 103
f 213 232 218
f 213 194 187
f 113 112 122
f 205 213 218
f 205 194 213
f 105 103 112
f 199 194 205
f 133 136 152
f 137 133 152
f 103 96 100
f 143 104 126
f 186 179 214
f 134 143 141
f 134 111 143
f 111 104 143
f 237 214 238
f 144 150 131
f 93 115 107
f 90 75 93
f 195 156 180
f 69 62 92
f 131 150 146
f 153 146 150
f 231 233 226
f 93 69 99
f 128 121 131
f 128 131 142
f 211 231 239
f 231 226 241
f 239 231 241
f 53 58 69
f 69 93 75
f 93 99 115
f 235 239 241
f 90 93 107
f 130 90 107
f 130 107 128
f 211 239 215
f 219 215 235
f 215 239 235
f 124 90 130
f 124 130 154
f 219 180 215
f 136 124 154
f 136 154 156
f 156 215 180
f 20 3 36
f 20 36 31
f 12 3 20
f 186 214 237
f 228 186 237
f 229 228 237
f 127 134 140
f 228 229 208
f 140 147 151
f 149 140 151
f 87 77 84
f 78 79 77
f 66 77 87
f 66 78 77
f 163 164 174
f 163 151 164
f 85 66 87
f 236 222 230
f 174 177 185
f 185 177 200
f 221 222 212
f 212 193 221
f 200 182 185
f 174 164 177
f 221 230 222
f 172 174 206
f 74 85 88
f 74 70 85
f 70 66 85
f 71 52 82
f 60 71 66
f 60 52 71
f 236 216 222
f 206 216 236
f 206 192 216
f 174 192 206
f 174 185 192
f 70 74 68
f 50 60 70
f 60 50 52
f 212 222 216
f 192 197 216
f 182 197 192
f 50 70 68
f 197 190 216
f 214 179 184
f 135 139 179
f 143 126 135
f 5 24 33
f 184 238 214
f 70 60 66
f 185 182 192
f 123 133 137
f 2 27 32
f 181 195 209
f 95 133 123
f 95 124 133
f 18 2 32
f 7 2 18
f 121 132 144
f 198 210 217
f 150 144 168
f 217 210 226
f 131 121 144
f 165 198 217
f 226 210 243
f 226 243 241
f 58 62 69
f 115 121 107
f 28 10 41
f 57 41 34
f 41 57 58
f 107 121 128
f 248 235 243
f 243 235 241
f 48 40 41
f 48 41 53
f 53 41 58
f 53 69 75
f 49 48 53
f 67 49 53
f 67 53 75
f 67 75 101
f 101 75 90
f 248 219 235
f 36 35 40
f 36 40 31
f 31 40 48
f 37 31 48
f 124 101 90
f 180 219 209
f 37 27 31
f 195 180 209
f 3 7 36
f 101 124 95
f 32 27 37
f 19 32 37
f 36 7 35
f 18 32 19
f 80 67 101
f 59 49 67
f 2 3 12
f 35 7 26
f 26 18 19
f 7 18 26
f 219 248 240
f 28 41 40
f 35 28 40
f 39 28 35
f 17 28 39
f 10 28 17
f 248 243 251
f 8 10 17
f 243 250 251
f 57 62 58
f 57 51 62
f 57 34 51
f 10 34 41
f 243 245 250
f 80 59 67
f 210 242 243
f 198 225 210
f 165 168 198
f 110 132 121
f 10 44 34
f 6 9 10
f 9 44 10
f 168 158 198
f 144 132 158
f 108 102 110
f 86 110 102
f 83 62 81
f 120 102 114
f 106 86 102
f 100 83 106
f 83 86 106
f 120 106 102
f 118 106 120
f 100 106 118
f 103 100 118
f 122 118 120
f 112 118 122
f 112 103 118
f 169 195 181
f 169 152 195
f 137 152 169
f 181 209 223
f 119 95 123
f 223 209 219
f 119 101 95
f 80 101 119
f 34 44 51
f 68 74 91
f 76 50 68
f 52 50 76
f 5 4 1
f 3 2 7
f 227 232 233
f 27 20 31
f 133 124 136
f 136 156 152
f 12 20 27
f 195 152 156
f 27 2 12
f 189 199 202
f 199 205 202
f 220 202 218
f 202 205 218
f 105 112 113
f 194 199 196
f 194 196 187
f 196 199 189
f 191 187 196
f 220 218 227
f 224 220 227
f 227 218 232
f 100 96 92
f 92 96 97
f 97 96 113
f 170 187 191
f 99 92 97
f 153 150 165
f 153 165 170
f 153 170 191
f 99 69 92
f 1 4 16
f 184 179 173
f 139 169 173
f 139 173 179
f 126 139 135
f 126 125 139
f 24 16 21
f 21 16 22
f 11 5 33
f 104 125 126
f 104 116 125
f 42 33 21
f 33 24 21
f 104 63 116
f 73 63 104
f 21 43 42
f 73 104 111
f 64 63 73
f 64 56 63
f 64 47 56
f 47 64 42
f 43 47 42
f 238 234 237
f 84 73 111
f 79 73 84
f 24 1 16
f 79 64 73
f 64 54 42
f 54 30 42
f 117 111 134
f 84 111 117
f 79 61 64
f 61 54 64
f 55 54 61
f 38 30 54
f 87 84 117
f 72 79 78
f 72 61 79
f 203 204 229
f 203 166 204
f 129 140 149
f 129 127 140
f 204 236 208
f 204 208 229
f 166 172 204
f 163 172 166
f 161 151 166
f 166 151 163
f 149 151 161
f 157 149 161
f 157 129 149
f 94 87 117
f 82 78 66
f 204 206 236
f 204 172 206
f 172 163 174
f 88 85 94
f 85 87 94
f 71 82 66
f 77 79 84
f 230 208 236
f 223 219 240
f 39 19 37
f 26 19 39
f 240 248 249
f 46 49 59
f 46 48 49
f 37 48 46
f 39 37 46
f 14 11 33
f 25 43 22
f 56 59 63
f 25 11 14
f 21 22 43
f 63 80 116
f 238 184 223
f 238 223 234
f 4 5 25
f 5 11 25
f 4 25 22
f 4 22 16
f 116 119 125
f 173 169 184
f 125 123 145
f 139 125 145
f 139 145 169
f 89 138 110
f 158 138 157
f 86 81 98
f 86 98 89
f 138 89 109
f 157 161 171
f 35 26 39
f 39 29 17
f 248 251 249
f 8 17 13
f 8 6 10
f 251 250 252
f 250 245 252
f 243 242 245
f 210 225 242
f 62 65 81
f 62 51 65
f 45 65 51
f 44 45 51
f 9 15 44
f 6 15 9
f 198 171 225
f 198 158 171
f 158 157 171
f 132 138 158
f 110 138 132
f 110 86 89
f 83 81 86
f 251 252 246
f 225 203 242
f 6 8 15
f 184 169 181
f 137 169 145
f 123 137 145
f 184 181 223
f 125 119 123
f 234 223 240
f 63 59 80
f 56 46 59
f 25 39 43
f 25 14 39
f 47 46 56
f 47 43 46
f 43 39 46
f 14 29 39
f 13 17 29
f 234 240 249
f 246 249 251
f 247 246 252
f 245 247 252
f 245 242 247
f 203 229 242
f 81 65 72
f 45 55 65
f 45 23 55
f 171 201 225
f 44 23 45
f 15 23 44
f 15 38 23
f 80 119 116
f 55 72 65
f 42 29 33
f 29 14 33
f 30 29 42
f 30 13 29
f 8 13 30
f 247 244 246
f 244 249 246
f 244 234 249
f 94 117 109
f 117 134 127
f 55 38 54
f 237 234 244
f 76 68 91
f 82 52 76
f 98 76 91
f 91 74 88
f 82 76 98
f 98 91 88
f 88 94 109
f 81 78 82
f 81 82 98
f 98 88 109
f 98 109 89
f 138 127 129
f 129 157 138
f 81 72 78
f 109 117 138
f 127 138 117
f 161 166 201
f 161 201 171
f 203 201 166
f 201 203 225
f 242 229 237
f 8 38 15
f 38 55 23
f 72 55 61
f 242 237 244
f 242 244 247
f 38 8 30
f 5 1 24
