# centred copy of data/rabbit/T90.obj: shared offset [0.04219600558280945, 0.05817648768424988, -0.007244497537612915] subtracted
v 0.773828 -0.202617 0.112492
v 0.751172 -0.156041 0.058335
v 0.769724 -0.292599 -0.148761
v 0.747043 -0.221242 -0.096192
v 0.774919 -0.156601 0.089171
v 0.720058 -0.244477 -0.081395
v 0.660839 -0.165843 0.176302
v 0.641634 -0.120476 0.062373
v 0.695173 -0.273398 -0.134596
v 0.648094 -0.164423 -0.054420
v 0.653620 -0.123948 0.086213
v 0.614170 0.104509 0.019784
v 0.594500 0.191612 0.010657
v 0.581501 -0.002135 0.061495
v 0.677518 -0.174594 0.119080
v 0.632524 -0.176694 0.085942
v 0.537023 0.182871 -0.057658
v 0.557078 -0.171809 -0.125755
v 0.546027 -0.119903 0.108354
v 0.595035 0.102968 -0.031163
v 0.607101 -0.196908 -0.069443
v 0.667757 -0.228032 -0.119176
v 0.655470 -0.153480 -0.077906
v 0.547038 0.019080 0.107171
v 0.516190 0.090103 0.109253
v 0.585159 -0.134065 -0.037318
v 0.548854 -0.045965 0.017616
v 0.548781 -0.153020 0.133674
v 0.584140 0.005934 -0.056607
v 0.516375 -0.075238 0.004342
v 0.524079 -0.067096 -0.026622
v 0.531747 0.056148 -0.088636
v 0.529702 0.185483 0.073436
v 0.525708 -0.065085 0.047306
v 0.502931 -0.102719 0.077934
v 0.483623 -0.068362 0.121748
v 0.481811 -0.058692 -0.100396
v 0.484110 -0.083303 0.009222
v 0.536057 -0.167223 -0.105664
v 0.511073 -0.108519 -0.052773
v 0.455564 -0.011157 -0.127035
v 0.456259 -0.009705 0.149632
v 0.432809 -0.067250 0.128385
v 0.447555 -0.098761 -0.056844
v 0.336163 0.096484 0.026759
v 0.409162 0.106959 0.086760
v 0.491620 0.205413 0.022757
v 0.431245 -0.102972 0.076877
v 0.439477 0.136822 -0.063391
v 0.364917 -0.019635 -0.130404
v 0.410949 -0.085268 -0.105586
v 0.346800 -0.036811 0.156542
v 0.384281 0.017096 0.133174
v 0.374107 -0.107648 0.133141
v 0.343016 0.063615 -0.062182
v 0.256351 0.209653 0.169622
v 0.339873 -0.177026 0.098219
v 0.263908 0.208241 0.233037
v 0.330998 -0.119314 -0.126593
v 0.267647 0.049491 0.112849
v 0.227838 0.048601 -0.096680
v 0.215589 0.293019 0.211200
v 0.374915 -0.159917 -0.013157
v 0.262238 -0.135876 0.161345
v 0.262575 -0.234241 -0.076256
v 0.220833 -0.247309 0.106142
v 0.298828 0.243865 0.158405
v 0.211836 0.080815 -0.003900
v 0.211335 0.255895 0.220694
v 0.256153 -0.023411 -0.165297
v 0.261278 -0.012788 0.183075
v 0.192961 0.351594 -0.176089
v 0.273080 -0.245165 0.028956
v 0.185165 0.092577 -0.044007
v 0.196518 0.056719 0.183833
v 0.157884 0.333171 -0.237571
v 0.214941 0.299799 -0.207754
v 0.199262 0.041944 -0.164279
v 0.191961 0.109861 0.176144
v 0.197884 0.093948 0.050437
v 0.176387 0.176106 0.161941
v 0.090526 0.330485 -0.152412
v 0.107205 0.255931 -0.135086
v 0.175499 0.100404 -0.178510
v 0.135287 0.226037 0.135223
v 0.160285 0.270090 -0.196156
v 0.219741 -0.169054 -0.138210
v 0.146769 0.232157 -0.149880
v 0.207605 0.301873 0.159024
v 0.129924 0.174811 -0.191657
v 0.135146 0.184674 0.210680
v 0.149327 0.162107 -0.116949
v 0.159424 0.036010 0.193615
v 0.083125 -0.217219 0.174128
v 0.111922 0.294596 -0.219298
v 0.143657 0.011510 -0.177677
v 0.111811 0.119086 0.062771
v 0.102282 0.172339 -0.190017
v 0.080696 0.173816 -0.082222
v 0.116968 -0.085845 0.173094
v 0.138178 0.158100 0.080767
v 0.083090 0.317712 -0.203984
v 0.073102 0.148412 0.172613
v 0.069636 0.262883 -0.144200
v 0.151658 -0.094361 -0.154295
v 0.070242 0.208733 0.122132
v 0.062351 0.200147 0.155472
v 0.094456 0.111143 -0.046243
v 0.053334 0.088810 0.093881
v 0.030243 0.112950 -0.016630
v 0.040777 0.168798 -0.105188
v 0.079507 -0.036272 -0.143744
v 0.062880 0.211666 -0.152736
v 0.040358 0.084690 -0.073650
v 0.151994 -0.312740 0.014531
v -0.015275 -0.388272 0.095440
v 0.034378 0.008482 -0.119015
v 0.040019 0.011083 0.133364
v 0.104768 -0.299603 -0.075042
v 0.002866 -0.027616 0.132859
v 0.092881 -0.296431 0.107192
v -0.093890 -0.223297 0.245492
v 0.027397 -0.131769 0.176619
v 0.054537 -0.153085 -0.155723
v 0.008214 -0.013489 -0.106693
v 0.074748 -0.247589 -0.147232
v -0.065678 -0.437972 -0.001011
v -0.030379 -0.158959 -0.187917
v -0.040741 0.080265 -0.036467
v -0.060985 0.057447 0.090244
v -0.032583 -0.154267 0.207989
v -0.019364 -0.336088 -0.126204
v -0.047342 -0.043903 0.157428
v -0.045107 -0.401134 -0.071530
v -0.024473 -0.322885 0.162340
v -0.127621 -0.099976 -0.249869
v -0.069203 -0.235747 -0.213537
v -0.147741 -0.036049 0.259169
v -0.107583 0.031777 -0.143397
v -0.052090 0.008289 -0.121423
v -0.053798 0.094525 0.021521
v -0.191254 0.038240 0.140500
v -0.138736 -0.026745 -0.231346
v -0.134061 -0.099430 0.268966
v -0.154211 -0.443372 0.074085
v -0.162349 0.087579 -0.055730
v -0.156294 0.025967 0.193229
v -0.135793 0.086166 0.071487
v -0.256716 0.077746 0.039095
v -0.177274 -0.117900 -0.260803
v -0.250577 0.095625 -0.005515
v -0.222787 0.082872 -0.211075
v -0.147012 -0.376201 0.167312
v -0.234770 0.098654 0.218052
v -0.190222 0.024963 -0.252454
v -0.100615 -0.373280 -0.128104
v -0.204155 0.041128 0.257427
v -0.200122 -0.464798 -0.010645
v -0.181208 0.033996 -0.146078
v -0.268603 0.025132 0.091864
v -0.217270 0.061254 0.168360
v -0.224194 -0.086653 0.277783
v -0.306000 0.114836 0.170667
v -0.197304 -0.322316 -0.218841
v -0.218539 -0.243053 0.257208
v -0.314068 0.051398 -0.141317
v -0.317592 0.025753 0.262812
v -0.304276 0.102622 0.252028
v -0.218646 -0.396509 -0.146931
v -0.319462 0.106332 -0.243015
v -0.345336 0.365856 -0.177322
v -0.305202 0.293694 -0.195694
v -0.243642 -0.426093 0.119310
v -0.336253 0.313340 -0.239884
v -0.343358 0.046941 0.141907
v -0.292517 -0.351620 -0.189346
v -0.335932 0.296618 -0.138110
v -0.288210 -0.451268 0.013481
v -0.391526 -0.346161 -0.164035
v -0.369216 0.010427 0.086818
v -0.382472 0.335339 -0.210165
v -0.366921 0.209247 -0.176572
v -0.422168 0.057045 -0.246404
v -0.370451 0.048575 0.003400
v -0.376492 0.133720 -0.160323
v -0.308529 -0.159848 -0.245421
v -0.224307 -0.340637 0.230522
v -0.453277 -0.113340 0.242893
v -0.418156 0.301491 0.182232
v -0.404210 0.161177 0.154271
v -0.405733 0.171085 0.221327
v -0.383910 0.145832 -0.214677
v -0.428772 -0.367091 -0.086312
v -0.413785 0.209200 -0.134231
v -0.397089 0.191902 -0.229866
v -0.305593 -0.415796 -0.090424
v -0.450914 0.337499 0.131875
v -0.311623 -0.071941 -0.263496
v -0.444256 -0.374254 0.004655
v -0.474820 0.261909 0.225688
v -0.476116 0.404984 0.212628
v -0.393379 -0.339148 0.186773
v -0.346648 0.008889 -0.076000
v -0.425459 0.363550 0.221683
v -0.435503 0.082126 0.248960
v -0.444020 0.399666 0.164655
v -0.451668 -0.123912 -0.229608
v -0.411034 -0.372054 0.129637
v -0.495722 0.154886 0.232357
v -0.329761 -0.060675 0.273708
v -0.436970 0.236501 -0.220897
v -0.467606 0.006065 0.111532
v -0.497881 0.346816 0.145095
v -0.453535 0.034461 -0.126748
v -0.497204 -0.271721 0.159612
v -0.467633 0.120205 -0.233145
v -0.477535 0.137202 -0.134723
v -0.475654 -0.006016 0.233611
v -0.460336 0.042303 0.134461
v -0.468023 -0.028826 -0.228951
v -0.514734 0.108231 0.136479
v -0.489835 0.202281 -0.201912
v -0.483670 0.214556 -0.135248
v -0.494007 -0.198008 0.204609
v -0.508183 0.009407 0.147873
v -0.513606 0.138487 -0.213445
v -0.504755 -0.016128 -0.137025
v -0.530426 0.196428 0.133749
v -0.529597 0.086980 0.198549
v -0.461792 0.018606 0.003504
v -0.520905 0.274557 0.195004
v -0.551920 -0.084250 0.147345
v -0.534982 -0.187260 0.156929
v -0.530032 0.099988 -0.143302
v -0.553654 -0.024219 0.034450
v -0.531503 -0.287238 0.013759
v -0.513388 -0.141160 -0.206318
v -0.525979 0.066174 -0.189769
v -0.502940 -0.279233 -0.125979
v -0.524830 -0.110566 0.209146
v -0.568040 -0.185882 -0.000942
v -0.533556 -0.063540 -0.143597
v -0.554807 -0.020040 -0.001462
v -0.543828 -0.136129 -0.146516
v -0.564728 -0.055210 -0.055509
v -0.591863 -0.111119 -0.069848
v -0.576091 -0.160843 0.065117
v -0.654145 -0.051967 -0.033775
v -0.628098 -0.004452 0.022140
v -0.598904 -0.074035 0.083021
v -0.660368 -0.098884 0.043547
v -0.633075 -0.163538 -0.019400
f 163 175 219
f 190 163 219
f 225 229 221
f 218 225 232
f 64 71 100
f 94 100 123
f 209 231 229
f 231 228 229
f 91 79 81
f 93 91 103
f 154 161 163
f 154 163 168
f 168 163 190
f 75 79 91
f 93 75 91
f 93 103 100
f 161 147 142
f 147 161 154
f 225 218 229
f 71 75 93
f 130 147 138
f 240 218 232
f 100 71 93
f 120 133 123
f 123 133 131
f 224 188 240
f 233 240 232
f 224 240 233
f 94 123 131
f 94 131 122
f 215 224 233
f 135 94 122
f 202 188 224
f 202 224 215
f 153 135 187
f 187 135 122
f 208 173 187
f 187 188 202
f 187 202 208
f 186 164 176
f 150 164 186
f 150 137 164
f 137 150 136
f 198 186 207
f 198 150 186
f 220 198 207
f 155 150 198
f 155 136 150
f 143 136 155
f 183 198 220
f 183 170 198
f 152 143 155
f 183 220 238
f 216 183 238
f 155 198 170
f 226 216 238
f 192 170 216
f 152 155 170
f 195 192 216
f 195 216 211
f 211 174 195
f 76 86 95
f 76 77 86
f 72 77 76
f 104 83 82
f 72 82 83
f 223 177 171
f 164 169 176
f 176 169 179
f 164 156 169
f 137 156 164
f 132 156 137
f 22 3 9
f 170 183 216
f 237 179 239
f 176 179 237
f 126 132 137
f 22 9 18
f 207 176 237
f 124 137 128
f 124 126 137
f 244 237 239
f 136 128 137
f 242 237 244
f 220 237 242
f 220 207 237
f 172 171 177
f 176 207 186
f 140 136 143
f 219 225 221
f 189 204 200
f 191 189 200
f 200 231 209
f 200 204 201
f 200 201 231
f 58 62 69
f 191 200 209
f 168 191 205
f 191 209 205
f 205 209 229
f 147 154 157
f 157 154 168
f 157 168 167
f 168 205 167
f 167 205 218
f 218 205 229
f 138 147 157
f 138 157 162
f 162 157 167
f 210 167 218
f 133 138 144
f 162 167 210
f 188 210 218
f 188 218 240
f 131 133 144
f 144 138 162
f 188 162 210
f 165 162 188
f 122 131 144
f 144 162 165
f 122 144 165
f 187 122 165
f 187 165 188
f 161 180 175
f 161 160 180
f 163 161 175
f 161 142 160
f 130 142 147
f 130 148 142
f 228 221 229
f 190 219 221
f 85 81 101
f 85 56 81
f 67 56 85
f 197 221 228
f 197 190 221
f 89 85 106
f 89 106 107
f 89 67 85
f 189 190 197
f 213 228 231
f 213 197 228
f 206 197 213
f 206 213 201
f 178 173 208
f 145 153 173
f 116 153 145
f 53 42 46
f 103 109 118
f 107 109 103
f 107 106 109
f 115 121 116
f 115 66 121
f 208 215 236
f 73 57 66
f 236 215 233
f 15 11 19
f 5 8 11
f 15 5 11
f 1 2 5
f 241 233 247
f 54 48 43
f 48 35 43
f 36 19 34
f 16 28 35
f 19 11 34
f 247 250 251
f 34 24 36
f 14 24 34
f 250 249 251
f 247 235 250
f 247 232 235
f 2 1 16
f 27 14 34
f 5 2 8
f 241 247 252
f 57 63 54
f 48 54 63
f 63 38 48
f 35 48 38
f 57 54 64
f 206 189 197
f 19 36 28
f 28 36 43
f 5 15 7
f 35 28 43
f 57 64 66
f 66 64 94
f 1 7 16
f 121 66 94
f 121 94 135
f 116 121 135
f 208 202 215
f 116 135 153
f 153 187 173
f 189 206 204
f 204 206 201
f 201 213 231
f 191 190 189
f 67 89 62
f 91 62 107
f 62 89 107
f 67 58 56
f 56 58 69
f 56 69 91
f 56 91 81
f 69 62 91
f 91 107 103
f 191 168 190
f 34 16 35
f 8 16 34
f 11 8 34
f 252 247 251
f 27 34 35
f 252 251 248
f 249 248 251
f 250 235 249
f 235 243 249
f 235 230 243
f 212 230 235
f 180 230 212
f 180 184 230
f 180 149 184
f 160 149 180
f 148 151 149
f 45 68 60
f 46 47 45
f 25 12 33
f 12 13 33
f 148 141 151
f 141 97 110
f 33 13 47
f 27 35 38
f 29 14 27
f 149 151 184
f 140 128 136
f 96 70 105
f 159 139 143
f 143 139 140
f 117 96 112
f 84 78 96
f 78 70 96
f 238 220 227
f 96 117 98
f 90 84 96
f 234 226 238
f 185 152 170
f 185 159 152
f 98 117 113
f 90 96 98
f 223 226 234
f 223 222 226
f 182 185 192
f 185 170 192
f 95 98 113
f 90 98 95
f 88 90 86
f 222 211 226
f 174 182 195
f 102 95 113
f 95 86 90
f 86 77 88
f 223 181 222
f 181 211 222
f 172 182 174
f 102 113 104
f 82 102 104
f 76 95 102
f 77 83 88
f 77 72 83
f 171 181 223
f 181 174 211
f 171 172 174
f 82 76 102
f 82 72 76
f 171 174 181
f 143 152 159
f 211 216 226
f 182 192 195
f 10 23 31
f 244 241 246
f 246 245 244
f 29 31 37
f 245 246 248
f 110 114 129
f 44 40 38
f 196 178 193
f 134 127 158
f 110 97 108
f 141 129 146
f 80 68 74
f 80 74 108
f 80 108 97
f 108 114 110
f 141 110 129
f 151 203 184
f 184 203 230
f 12 29 20
f 230 227 243
f 227 245 243
f 243 245 249
f 249 245 248
f 12 14 29
f 248 246 252
f 29 27 30
f 31 29 30
f 30 27 38
f 10 31 26
f 30 26 31
f 40 26 30
f 30 38 40
f 44 38 63
f 241 252 246
f 65 63 73
f 65 73 115
f 193 199 236
f 193 178 199
f 32 29 37
f 230 203 227
f 129 140 139
f 129 125 140
f 74 68 61
f 20 29 32
f 146 203 151
f 146 159 203
f 146 129 139
f 129 114 117
f 17 41 49
f 32 41 17
f 17 20 32
f 114 111 117
f 108 111 114
f 108 99 111
f 74 92 99
f 92 83 99
f 169 156 158
f 179 196 193
f 169 196 179
f 169 158 196
f 32 37 41
f 117 125 129
f 49 50 55
f 55 61 68
f 45 55 68
f 45 49 55
f 20 17 13
f 13 12 20
f 151 141 146
f 47 49 45
f 47 17 49
f 13 17 47
f 196 158 178
f 156 134 158
f 132 134 156
f 119 134 132
f 134 115 127
f 119 115 134
f 119 65 115
f 241 239 236
f 193 236 239
f 21 10 26
f 21 6 10
f 10 4 23
f 6 4 10
f 59 63 65
f 21 26 40
f 21 40 39
f 23 22 18
f 51 63 59
f 51 44 63
f 39 40 44
f 18 37 31
f 31 23 18
f 39 44 51
f 108 74 99
f 12 24 14
f 175 180 212
f 120 118 130
f 71 60 80
f 105 70 87
f 41 51 50
f 112 124 125
f 117 112 125
f 125 128 140
f 227 242 245
f 37 39 51
f 41 37 51
f 50 51 59
f 50 59 70
f 96 105 112
f 112 105 124
f 128 125 124
f 242 244 245
f 18 39 37
f 59 65 87
f 59 87 70
f 105 87 124
f 239 241 244
f 87 126 124
f 4 22 23
f 9 21 39
f 9 39 18
f 87 65 126
f 126 65 119
f 3 4 6
f 3 6 9
f 9 6 21
f 126 119 132
f 179 193 239
f 60 68 80
f 60 53 45
f 24 12 25
f 142 149 160
f 148 130 141
f 118 141 130
f 118 109 141
f 109 97 141
f 101 80 97
f 79 80 101
f 46 45 53
f 42 25 46
f 25 33 46
f 106 97 109
f 101 97 106
f 81 79 101
f 106 85 101
f 158 173 178
f 158 145 173
f 158 127 145
f 127 116 145
f 178 208 199
f 115 116 127
f 199 208 236
f 73 66 115
f 233 241 236
f 63 57 73
f 8 2 16
f 142 148 149
f 46 33 47
f 50 70 61
f 227 220 242
f 203 214 227
f 55 50 61
f 49 41 50
f 214 234 227
f 166 214 203
f 159 166 203
f 139 159 146
f 74 84 92
f 61 84 74
f 84 61 78
f 238 227 234
f 214 217 234
f 166 185 214
f 217 223 234
f 185 217 214
f 185 194 217
f 185 182 194
f 111 113 117
f 104 113 111
f 99 104 111
f 99 83 104
f 92 88 83
f 217 194 223
f 182 177 194
f 194 177 223
f 70 78 61
f 166 159 185
f 88 92 90
f 92 84 90
f 172 177 182
f 7 19 28
f 15 19 7
f 16 7 28
f 24 25 42
f 36 24 42
f 233 232 247
f 71 80 75
f 75 80 79
f 118 100 103
f 120 130 133
f 133 130 138
f 175 212 219
f 219 212 225
f 225 212 235
f 225 235 232
f 42 52 43
f 52 42 53
f 52 53 60
f 52 60 71
f 36 42 43
f 54 52 64
f 52 71 64
f 100 118 123
f 123 118 120
f 54 43 52
f 64 100 94
f 1 5 7
f 58 67 62
f 4 3 22
