v 0.437308 -0.120755 0.039290
v 0.424551 -0.094530 0.008796
v 0.434997 -0.171422 -0.107814
v 0.422226 -0.131243 -0.078214
v 0.437922 -0.094845 0.026159
v 0.407032 -0.144326 -0.069882
v 0.373687 -0.100049 0.075220
v 0.362873 -0.074504 0.011070
v 0.393020 -0.160610 -0.099838
v 0.366511 -0.099249 -0.054693
v 0.369622 -0.076459 0.024493
v 0.347409 0.052179 -0.012911
v 0.336333 0.101224 -0.018050
v 0.329014 -0.007870 0.010575
v 0.383079 -0.104976 0.043000
v 0.357744 -0.106159 0.024341
v 0.303970 0.096302 -0.056516
v 0.315262 -0.103408 -0.094860
v 0.309040 -0.074181 0.036960
v 0.336635 0.051311 -0.041598
v 0.343429 -0.117541 -0.063152
v 0.377582 -0.135066 -0.091156
v 0.370664 -0.093088 -0.067918
v 0.309609 0.004076 0.036294
v 0.292239 0.044067 0.037467
v 0.331074 -0.082156 -0.045064
v 0.310631 -0.032549 -0.014132
v 0.310590 -0.092829 0.051217
v 0.330500 -0.003326 -0.055925
v 0.292343 -0.049032 -0.021606
v 0.296681 -0.044447 -0.039041
v 0.300999 0.024948 -0.073959
v 0.299847 0.097773 0.017299
v 0.297598 -0.043315 0.002586
v 0.284773 -0.064506 0.019832
v 0.273902 -0.045160 0.044502
v 0.272881 -0.039715 -0.080581
v 0.274176 -0.053573 -0.018858
v 0.303426 -0.100826 -0.083547
v 0.289358 -0.067771 -0.053766
v 0.258102 -0.012950 -0.095581
v 0.258494 -0.012132 0.060203
v 0.245290 -0.044534 0.048239
v 0.253593 -0.062277 -0.056058
v 0.190871 0.047660 -0.008984
v 0.231975 0.053558 0.024801
v 0.278404 0.108995 -0.011237
v 0.244409 -0.064648 0.019237
v 0.249044 0.070373 -0.059745
v 0.207061 -0.017723 -0.097478
v 0.232981 -0.054679 -0.083503
v 0.196860 -0.027395 0.064094
v 0.217965 0.002959 0.050936
v 0.212236 -0.067281 0.050917
v 0.194730 0.029153 -0.059064
v 0.145931 0.111383 0.071459
v 0.192960 -0.106346 0.031254
v 0.150186 0.110587 0.107166
v 0.187963 -0.073850 -0.095332
v 0.152291 0.021200 0.039491
v 0.129876 0.020699 -0.078489
v 0.122979 0.158324 0.094870
v 0.212691 -0.096712 -0.031459
v 0.149246 -0.083175 0.066798
v 0.149436 -0.138562 -0.066988
v 0.125932 -0.145920 0.035715
v 0.169849 0.130646 0.065143
v 0.120866 0.038837 -0.026247
v 0.120584 0.137420 0.100216
v 0.145819 -0.019849 -0.117125
v 0.148705 -0.013868 0.079034
v 0.110238 0.191306 -0.123202
v 0.155351 -0.144713 -0.007746
v 0.105848 0.045460 -0.048830
v 0.112241 0.025270 0.079461
v 0.090487 0.180932 -0.157821
v 0.122614 0.162141 -0.141031
v 0.113786 0.016950 -0.116552
v 0.109675 0.055192 0.075131
v 0.113010 0.046232 0.004349
v 0.100905 0.092493 0.067134
v 0.052559 0.179420 -0.109870
v 0.061951 0.137440 -0.100114
v 0.100405 0.049867 -0.124565
v 0.077763 0.120608 0.052090
v 0.091839 0.145413 -0.134501
v 0.125317 -0.101857 -0.101873
v 0.084228 0.124054 -0.108444
v 0.118483 0.163309 0.065491
v 0.074743 0.091764 -0.131968
v 0.077684 0.097318 0.094577
v 0.085669 0.084611 -0.089902
v 0.091354 0.013609 0.084968
v 0.048392 -0.128977 0.073996
v 0.064607 0.159212 -0.147531
v 0.082476 -0.000186 -0.124096
v 0.064544 0.060387 0.011294
v 0.059179 0.090372 -0.131044
v 0.047024 0.091204 -0.070348
v 0.067448 -0.055004 0.073414
v 0.079391 0.082354 0.021427
v 0.048372 0.172228 -0.138909
v 0.042748 0.076899 0.073143
v 0.040797 0.141355 -0.105246
v 0.086981 -0.059799 -0.110930
v 0.041138 0.110864 0.044718
v 0.036695 0.106030 0.063491
v 0.054772 0.055914 -0.050089
v 0.031618 0.043339 0.028811
v 0.018616 0.056932 -0.033415
v 0.024547 0.088378 -0.083279
v 0.046355 -0.027091 -0.104989
v 0.036993 0.112516 -0.110052
v 0.024311 0.041019 -0.065521
v 0.087170 -0.182763 -0.015869
v -0.007014 -0.225293 0.029689
v 0.020944 -0.001891 -0.091065
v 0.024120 -0.000427 0.051043
v 0.060579 -0.175366 -0.066305
v 0.003201 -0.022217 0.050758
v 0.053885 -0.173580 0.036306
v -0.051280 -0.132400 0.114179
v 0.017013 -0.080863 0.075399
v 0.032295 -0.092865 -0.111734
v 0.006212 -0.014263 -0.084127
v 0.043675 -0.146078 -0.106953
v -0.035395 -0.253277 -0.024620
v -0.015519 -0.096173 -0.129862
v -0.021353 0.038528 -0.044584
v -0.032752 0.025679 0.026763
v -0.016760 -0.093531 0.093062
v -0.009317 -0.195909 -0.095113
v -0.025070 -0.031388 0.064593
v -0.023812 -0.232535 -0.064327
v -0.012193 -0.188475 0.067358
v -0.070273 -0.062961 -0.164745
v -0.037380 -0.139410 -0.144288
v -0.081602 -0.026966 0.121880
v -0.058990 0.011225 -0.104794
v -0.027744 -0.002000 -0.092421
v -0.028705 0.046557 -0.011933
v -0.106103 0.014865 0.055061
v -0.076532 -0.021727 -0.154315
v -0.073899 -0.062654 0.127397
v -0.085245 -0.256318 0.017664
v -0.089828 0.042646 -0.055431
v -0.086418 0.007954 0.084751
v -0.074875 0.041850 0.016202
v -0.142963 0.037109 -0.002037
v -0.098231 -0.073054 -0.170902
v -0.139506 0.047176 -0.027156
v -0.123859 0.039996 -0.142901
v -0.081192 -0.218496 0.070158
v -0.130606 0.048882 0.098728
v -0.105522 0.007389 -0.166201
v -0.055067 -0.216851 -0.096183
v -0.113367 0.016491 0.120899
v -0.111096 -0.268382 -0.030045
v -0.100447 0.012475 -0.106303
v -0.149656 0.007484 0.027675
v -0.120752 0.027823 0.070748
v -0.124651 -0.055459 0.132361
v -0.170713 0.057994 0.072047
v -0.109510 -0.188155 -0.147274
v -0.121467 -0.143524 0.120776
v -0.175256 0.022273 -0.103623
v -0.177241 0.007833 0.123931
v -0.169743 0.051116 0.117859
v -0.121527 -0.229931 -0.106784
v -0.178294 0.053205 -0.160886
v -0.192862 0.199336 -0.123896
v -0.170264 0.158704 -0.134241
v -0.135601 -0.246589 0.043129
v -0.187748 0.169766 -0.159123
v -0.191749 0.019764 0.055853
v -0.163122 -0.204655 -0.130666
v -0.187567 0.160350 -0.101817
v -0.160696 -0.260764 -0.016460
v -0.218871 -0.201581 -0.116414
v -0.206309 -0.000796 0.024834
v -0.213773 0.182153 -0.142389
v -0.205016 0.111154 -0.123474
v -0.236124 0.025453 -0.162794
v -0.207004 0.020684 -0.022136
v -0.210406 0.068627 -0.114324
v -0.172137 -0.096673 -0.162241
v -0.124714 -0.198471 0.105750
v -0.253641 -0.070486 0.112716
v -0.233865 0.163094 0.078559
v -0.226013 0.084087 0.062815
v -0.226870 0.089666 0.100572
v -0.214582 0.075447 -0.144930
v -0.239843 -0.213366 -0.072651
v -0.231404 0.111127 -0.099633
v -0.222003 0.101387 -0.153482
v -0.170484 -0.240791 -0.074966
v -0.252311 0.183369 0.050204
v -0.173880 -0.047175 -0.172418
v -0.248562 -0.217400 -0.021430
v -0.265771 0.140806 0.103028
v -0.266501 0.221368 0.095674
v -0.219914 -0.197632 0.081116
v -0.193601 -0.001662 -0.066844
v -0.237978 0.198038 0.100773
v -0.243633 0.039576 0.116132
v -0.248429 0.218374 0.068662
v -0.252735 -0.076439 -0.153337
v -0.229855 -0.216161 0.048944
v -0.277541 0.080545 0.106783
v -0.184093 -0.040832 0.130067
v -0.244459 0.126500 -0.148432
v -0.261709 -0.003252 0.038750
v -0.278756 0.188615 0.057648
v -0.253786 0.012737 -0.095419
v -0.278375 -0.159666 0.065822
v -0.261725 0.061017 -0.155328
v -0.267300 0.070587 -0.099910
v -0.266241 -0.010055 0.107489
v -0.257616 0.017152 0.051661
v -0.261944 -0.022898 -0.152967
v -0.288246 0.054275 0.052797
v -0.274226 0.107232 -0.137742
v -0.270755 0.114143 -0.100205
v -0.276575 -0.118160 0.091159
v -0.284557 -0.001371 0.059212
v -0.287611 0.071311 -0.144236
v -0.282627 -0.015749 -0.101206
v -0.297082 0.103936 0.051260
v -0.296615 0.042309 0.087747
v -0.258436 0.003809 -0.022078
v -0.291721 0.147928 0.085751
v -0.309184 -0.054106 0.058915
v -0.299647 -0.112108 0.064312
v -0.296860 0.049633 -0.104740
v -0.310161 -0.020304 -0.004653
v -0.297688 -0.168403 -0.016303
v -0.287488 -0.086151 -0.140223
v -0.294578 0.030593 -0.130905
v -0.281605 -0.163896 -0.094986
v -0.293931 -0.068924 0.093714
v -0.318261 -0.111332 -0.024581
v -0.298844 -0.042445 -0.104906
v -0.310810 -0.017951 -0.024874
v -0.304628 -0.083318 -0.106550
v -0.316396 -0.037755 -0.055306
v -0.331675 -0.069235 -0.063380
v -0.322794 -0.097234 0.012615
v -0.366744 -0.035929 -0.043069
v -0.352078 -0.009174 -0.011584
v -0.335640 -0.048354 0.022696
v -0.370248 -0.062346 0.000469
v -0.354880 -0.098751 -0.034974
f 163 175 219
f 190 163 219
f 225 229 221
f 218 225 232
f 64 71 100
f 94 100 123
f 209 231 229
f 231 228 229
f 91 79 81
f 93 91 103
f 154 161 163
f 154 163 168
f 168 163 190
f 75 79 91
f 93 75 91
f 93 103 100
f 161 147 142
f 147 161 154
f 225 218 229
f 71 75 93
f 130 147 138
f 240 218 232
f 100 71 93
f 120 133 123
f 123 133 131
f 224 188 240
f 233 240 232
f 224 240 233
f 94 123 131
f 94 131 122
f 215 224 233
f 135 94 122
f 202 188 224
f 202 224 215
f 153 135 187
f 187 135 122
f 208 173 187
f 187 188 202
f 187 202 208
f 186 164 176
f 150 164 186
f 150 137 164
f 137 150 136
f 198 186 207
f 198 150 186
f 220 198 207
f 155 150 198
f 155 136 150
f 143 136 155
f 183 198 220
f 183 170 198
f 152 143 155
f 183 220 238
f 216 183 238
f 155 198 170
f 226 216 238
f 192 170 216
f 152 155 170
f 195 192 216
f 195 216 211
f 211 174 195
f 76 86 95
f 76 77 86
f 72 77 76
f 104 83 82
f 72 82 83
f 223 177 171
f 164 169 176
f 176 169 179
f 164 156 169
f 137 156 164
f 132 156 137
f 22 3 9
f 170 183 216
f 237 179 239
f 176 179 237
f 126 132 137
f 22 9 18
f 207 176 237
f 124 137 128
f 124 126 137
f 244 237 239
f 136 128 137
f 242 237 244
f 220 237 242
f 220 207 237
f 172 171 177
f 176 207 186
f 140 136 143
f 219 225 221
f 189 204 200
f 191 189 200
f 200 231 209
f 200 204 201
f 200 201 231
f 58 62 69
f 191 200 209
f 168 191 205
f 191 209 205
f 205 209 229
f 147 154 157
f 157 154 168
f 157 168 167
f 168 205 167
f 167 205 218
f 218 205 229
f 138 147 157
f 138 157 162
f 162 157 167
f 210 167 218
f 133 138 144
f 162 167 210
f 188 210 218
f 188 218 240
f 131 133 144
f 144 138 162
f 188 162 210
f 165 162 188
f 122 131 144
f 144 162 165
f 122 144 165
f 187 122 165
f 187 165 188
f 161 180 175
f 161 160 180
f 163 161 175
f 161 142 160
f 130 142 147
f 130 148 142
f 228 221 229
f 190 219 221
f 85 81 101
f 85 56 81
f 67 56 85
f 197 221 228
f 197 190 221
f 89 85 106
f 89 106 107
f 89 67 85
f 189 190 197
f 213 228 231
f 213 197 228
f 206 197 213
f 206 213 201
f 178 173 208
f 145 153 173
f 116 153 145
f 53 42 46
f 103 109 118
f 107 109 103
f 107 106 109
f 115 121 116
f 115 66 121
f 208 215 236
f 73 57 66
f 236 215 233
f 15 11 19
f 5 8 11
f 15 5 11
f 1 2 5
f 241 233 247
f 54 48 43
f 48 35 43
f 36 19 34
f 16 28 35
f 19 11 34
f 247 250 251
f 34 24 36
f 14 24 34
f 250 249 251
f 247 235 250
f 247 232 235
f 2 1 16
f 27 14 34
f 5 2 8
f 241 247 252
f 57 63 54
f 48 54 63
f 63 38 48
f 35 48 38
f 57 54 64
f 206 189 197
f 19 36 28
f 28 36 43
f 5 15 7
f 35 28 43
f 57 64 66
f 66 64 94
f 1 7 16
f 121 66 94
f 121 94 135
f 116 121 135
f 208 202 215
f 116 135 153
f 153 187 173
f 189 206 204
f 204 206 201
f 201 213 231
f 191 190 189
f 67 89 62
f 91 62 107
f 62 89 107
f 67 58 56
f 56 58 69
f 56 69 91
f 56 91 81
f 69 62 91
f 91 107 103
f 191 168 190
f 34 16 35
f 8 16 34
f 11 8 34
f 252 247 251
f 27 34 35
f 252 251 248
f 249 248 251
f 250 235 249
f 235 243 249
f 235 230 243
f 212 230 235
f 180 230 212
f 180 184 230
f 180 149 184
f 160 149 180
f 148 151 149
f 45 68 60
f 46 47 45
f 25 12 33
f 12 13 33
f 148 141 151
f 141 97 110
f 33 13 47
f 27 35 38
f 29 14 27
f 149 151 184
f 140 128 136
f 96 70 105
f 159 139 143
f 143 139 140
f 117 96 112
f 84 78 96
f 78 70 96
f 238 220 227
f 96 117 98
f 90 84 96
f 234 226 238
f 185 152 170
f 185 159 152
f 98 117 113
f 90 96 98
f 223 226 234
f 223 222 226
f 182 185 192
f 185 170 192
f 95 98 113
f 90 98 95
f 88 90 86
f 222 211 226
f 174 182 195
f 102 95 113
f 95 86 90
f 86 77 88
f 223 181 222
f 181 211 222
f 172 182 174
f 102 113 104
f 82 102 104
f 76 95 102
f 77 83 88
f 77 72 83
f 171 181 223
f 181 174 211
f 171 172 174
f 82 76 102
f 82 72 76
f 171 174 181
f 143 152 159
f 211 216 226
f 182 192 195
f 10 23 31
f 244 241 246
f 246 245 244
f 29 31 37
f 245 246 248
f 110 114 129
f 44 40 38
f 196 178 193
f 134 127 158
f 110 97 108
f 141 129 146
f 80 68 74
f 80 74 108
f 80 108 97
f 108 114 110
f 141 110 129
f 151 203 184
f 184 203 230
f 12 29 20
f 230 227 243
f 227 245 243
f 243 245 249
f 249 245 248
f 12 14 29
f 248 246 252
f 29 27 30
f 31 29 30
f 30 27 38
f 10 31 26
f 30 26 31
f 40 26 30
f 30 38 40
f 44 38 63
f 241 252 246
f 65 63 73
f 65 73 115
f 193 199 236
f 193 178 199
f 32 29 37
f 230 203 227
f 129 140 139
f 129 125 140
f 74 68 61
f 20 29 32
f 146 203 151
f 146 159 203
f 146 129 139
f 129 114 117
f 17 41 49
f 32 41 17
f 17 20 32
f 114 111 117
f 108 111 114
f 108 99 111
f 74 92 99
f 92 83 99
f 169 156 158
f 179 196 193
f 169 196 179
f 169 158 196
f 32 37 41
f 117 125 129
f 49 50 55
f 55 61 68
f 45 55 68
f 45 49 55
f 20 17 13
f 13 12 20
f 151 141 146
f 47 49 45
f 47 17 49
f 13 17 47
f 196 158 178
f 156 134 158
f 132 134 156
f 119 134 132
f 134 115 127
f 119 115 134
f 119 65 115
f 241 239 236
f 193 236 239
f 21 10 26
f 21 6 10
f 10 4 23
f 6 4 10
f 59 63 65
f 21 26 40
f 21 40 39
f 23 22 18
f 51 63 59
f 51 44 63
f 39 40 44
f 18 37 31
f 31 23 18
f 39 44 51
f 108 74 99
f 12 24 14
f 175 180 212
f 120 118 130
f 71 60 80
f 105 70 87
f 41 51 50
f 112 124 125
f 117 112 125
f 125 128 140
f 227 242 245
f 37 39 51
f 41 37 51
f 50 51 59
f 50 59 70
f 96 105 112
f 112 105 124
f 128 125 124
f 242 244 245
f 18 39 37
f 59 65 87
f 59 87 70
f 105 87 124
f 239 241 244
f 87 126 124
f 4 22 23
f 9 21 39
f 9 39 18
f 87 65 126
f 126 65 119
f 3 4 6
f 3 6 9
f 9 6 21
f 126 119 132
f 179 193 239
f 60 68 80
f 60 53 45
f 24 12 25
f 142 149 160
f 148 130 141
f 118 141 130
f 118 109 141
f 109 97 141
f 101 80 97
f 79 80 101
f 46 45 53
f 42 25 46
f 25 33 46
f 106 97 109
f 101 97 106
f 81 79 101
f 106 85 101
f 158 173 178
f 158 145 173
f 158 127 145
f 127 116 145
f 178 208 199
f 115 116 127
f 199 208 236
f 73 66 115
f 233 241 236
f 63 57 73
f 8 2 16
f 142 148 149
f 46 33 47
f 50 70 61
f 227 220 242
f 203 214 227
f 55 50 61
f 49 41 50
f 214 234 227
f 166 214 203
f 159 166 203
f 139 159 146
f 74 84 92
f 61 84 74
f 84 61 78
f 238 227 234
f 214 217 234
f 166 185 214
f 217 223 234
f 185 217 214
f 185 194 217
f 185 182 194
f 111 113 117
f 104 113 111
f 99 104 111
f 99 83 104
f 92 88 83
f 217 194 223
f 182 177 194
f 194 177 223
f 70 78 61
f 166 159 185
f 88 92 90
f 92 84 90
f 172 177 182
f 7 19 28
f 15 19 7
f 16 7 28
f 24 25 42
f 36 24 42
f 233 232 247
f 71 80 75
f 75 80 79
f 118 100 103
f 120 130 133
f 133 130 138
f 175 212 219
f 219 212 225
f 225 212 235
f 225 235 232
f 42 52 43
f 52 42 53
f 52 53 60
f 52 60 71
f 36 42 43
f 54 52 64
f 52 71 64
f 100 118 123
f 123 118 120
f 54 43 52
f 64 100 94
f 1 5 7
f 58 67 62
f 4 3 22
