v 0.449669 -0.077138 0.081605
v 0.451464 -0.081779 0.125136
v 0.443311 -0.040129 -0.103506
v 0.442107 -0.072632 0.100966
v 0.398257 -0.051770 -0.127785
v 0.436584 -0.093480 0.110285
v 0.396188 -0.014964 0.066466
v 0.421091 -0.044532 -0.118727
v 0.367042 -0.029838 -0.086703
v 0.433405 -0.061242 -0.114396
v 0.371444 -0.050081 0.114890
v 0.371441 -0.054436 0.081725
v 0.364380 0.135057 -0.006255
v 0.369316 -0.016035 -0.031241
v 0.374960 0.112174 0.007303
v 0.360475 0.057059 -0.013394
v 0.365137 -0.036233 0.089294
v 0.352747 0.050959 0.052890
v 0.396454 -0.012935 -0.069723
v 0.357317 0.082067 0.066830
v 0.343799 0.175038 -0.012407
v 0.348647 0.008550 -0.011848
v 0.359079 -0.009654 0.049358
v 0.364551 -0.042792 -0.078904
v 0.364224 0.174019 0.021474
v 0.337329 0.087841 -0.040516
v 0.335193 0.026682 0.028214
v 0.361412 0.113397 0.042979
v 0.319501 0.014171 0.018589
v 0.333865 -0.026761 -0.075314
v 0.312356 0.176945 0.015893
v 0.318652 0.037407 -0.039352
v 0.279666 0.020930 0.083196
v 0.278292 0.057817 0.098810
v 0.305440 0.035244 0.083307
v 0.312690 0.007067 0.079765
v 0.325912 -0.002692 -0.036464
v 0.290304 0.051461 -0.059618
v 0.321245 -0.004708 -0.023593
v 0.312285 0.003794 0.055822
v 0.286966 0.017617 -0.047090
v 0.312409 0.124933 -0.042205
v 0.312383 0.141710 0.067831
v 0.237208 0.070664 -0.047958
v 0.280471 -0.001018 -0.017696
v 0.289694 0.158879 -0.011900
v 0.238080 0.036586 0.097591
v 0.279036 0.001600 0.057611
v 0.281271 0.150557 0.045679
v 0.244274 -0.011753 0.066984
v 0.234846 0.124346 0.015407
v 0.191583 0.036879 -0.077773
v 0.229696 -0.009720 -0.054812
v 0.231954 -0.041128 -0.018508
v 0.246740 -0.030170 0.032209
v 0.200148 0.068537 0.094070
v 0.187708 -0.072843 -0.035407
v 0.221306 0.102484 0.048117
v 0.180909 -0.088746 0.023944
v 0.161125 0.105528 0.009582
v 0.174504 0.047452 0.116290
v 0.196997 -0.013561 0.102028
v 0.153415 -0.067889 -0.046246
v 0.166067 0.079768 0.080057
v 0.143705 0.212513 -0.134404
v 0.114145 0.058982 -0.090262
v 0.161675 0.080153 -0.045902
v 0.112971 0.206483 0.189730
v 0.114668 -0.000665 -0.076095
v 0.141018 0.078057 -0.083788
v 0.123208 0.197390 0.211209
v 0.135771 0.111785 0.107344
v 0.141879 0.083561 0.115327
v 0.109343 0.188571 -0.109368
v 0.111931 -0.126518 0.020255
v 0.103438 0.162179 0.130008
v 0.120844 0.130685 -0.068469
v 0.138589 0.112835 0.040998
v 0.116838 0.226466 -0.147598
v 0.117915 0.179862 0.176386
v 0.133866 0.108473 -0.014933
v 0.130055 0.195546 -0.174071
v 0.196657 -0.062392 0.076480
v 0.093525 0.152762 0.074782
v 0.115704 0.171414 -0.129049
v 0.106251 0.147561 0.145830
v 0.108844 0.115075 0.141654
v 0.139161 0.173848 0.202940
v 0.093779 0.138862 -0.110615
v 0.086658 0.128825 0.148831
v 0.087247 0.133772 0.056789
v 0.176993 -0.031785 -0.065360
v 0.066760 0.165264 -0.057360
v 0.092497 0.174970 -0.149238
v 0.092215 0.119319 -0.015743
v 0.072802 0.194088 0.198828
v 0.114604 -0.053356 0.108056
v 0.069622 0.191691 -0.106362
v 0.077943 0.166877 0.211181
v 0.068290 0.076071 -0.075339
v 0.076796 0.180435 0.148683
v 0.061697 -0.039090 0.114520
v 0.120117 0.071854 0.120699
v 0.112927 0.003256 0.111263
v 0.077272 0.193156 -0.156511
v 0.048280 0.165281 0.119405
v 0.066511 -0.082744 0.114022
v 0.081919 -0.084953 -0.067396
v 0.098583 -0.116615 -0.028258
v 0.058413 0.159745 0.145484
v 0.061520 0.115069 0.111579
v 0.063404 0.005022 0.106082
v 0.054868 0.105742 0.065872
v 0.055314 0.057867 0.091090
v 0.054300 -0.036945 -0.078449
v 0.053344 0.137346 -0.085837
v 0.036059 0.117147 0.026089
v 0.042304 -0.156565 0.067315
v 0.033759 -0.165345 -0.021967
v 0.012360 0.091029 0.048200
v 0.089922 -0.114996 0.072102
v 0.047145 0.099414 -0.031453
v 0.025335 0.052806 0.078272
v 0.060359 0.027285 -0.063147
v 0.007759 -0.038855 0.136683
v 0.004103 0.033104 0.097375
v -0.031365 -0.070111 0.158021
v 0.006124 0.057947 -0.050923
v 0.000872 -0.082804 -0.104121
v 0.021086 -0.126558 0.107249
v -0.008327 0.108514 0.020677
v 0.000487 0.104429 -0.001562
v -0.035039 0.071854 -0.069171
v -0.031727 0.080573 0.090408
v -0.040019 -0.019240 -0.129256
v 0.024177 -0.137820 -0.060006
v -0.042368 0.032585 0.146500
v -0.087710 -0.168343 0.118322
v -0.063246 0.105903 -0.014478
v -0.045896 0.021873 -0.121886
v -0.007360 -0.200093 0.021488
v -0.030141 -0.169154 0.086420
v -0.066275 0.050300 -0.133586
v -0.090021 0.090497 -0.112353
v -0.053385 -0.201229 0.056330
v -0.066964 0.074584 0.100262
v -0.068327 0.111198 0.031237
v -0.071949 -0.194412 -0.031913
v -0.061924 0.017399 0.165954
v -0.067250 0.068143 -0.081279
v -0.069142 0.063665 0.160710
v -0.077625 -0.125761 -0.114508
v -0.110599 0.014547 -0.141558
v -0.080374 0.071061 -0.059291
v -0.104300 0.107298 0.135066
v -0.126578 0.104848 -0.084416
v -0.078504 -0.118049 0.154532
v -0.080015 -0.214641 0.016688
v -0.119543 -0.191112 0.077024
v -0.083170 -0.174626 -0.073281
v -0.126047 -0.145914 0.138444
v -0.102400 -0.012674 0.169120
v -0.162637 0.114722 -0.116463
v -0.120623 -0.155032 -0.096421
v -0.124952 0.092482 -0.130396
v -0.124850 0.101998 0.020556
v -0.118383 0.104602 0.107981
v -0.120723 0.063852 -0.037590
v -0.134967 0.108446 0.154141
v -0.218057 0.062759 0.013550
v -0.144845 0.068971 -0.060467
v -0.173986 0.046944 -0.131212
v -0.125406 0.066188 0.064642
v -0.175700 0.003643 0.165083
v -0.199509 0.138924 0.102877
v -0.165399 -0.046708 -0.123347
v -0.176921 0.107592 -0.127749
v -0.141177 -0.187113 -0.038779
v -0.198517 0.245719 -0.109321
v -0.201238 0.135133 -0.080878
v -0.214777 0.265879 -0.097975
v -0.184314 0.055988 0.057056
v -0.222543 0.097635 0.154160
v -0.194653 0.094202 0.100207
v -0.202863 0.140409 -0.114249
v -0.209376 0.252616 0.118081
v -0.177690 0.053497 -0.037262
v -0.208725 0.194152 -0.093305
v -0.175074 0.072183 0.086852
v -0.206751 0.145364 0.141455
v -0.217669 0.196801 0.110766
v -0.198060 -0.161774 0.092881
v -0.220189 0.092351 -0.128942
v -0.142329 0.062393 0.164142
v -0.235579 0.265447 0.141744
v -0.235487 0.258513 -0.122809
v -0.223817 0.184207 -0.070706
v -0.153568 0.006251 -0.137858
v -0.226022 0.257692 0.087171
v -0.236184 0.204350 0.136201
v -0.229296 0.216217 -0.127307
v -0.217137 0.240738 -0.071884
v -0.193408 -0.142517 0.120607
v -0.237642 0.163277 -0.123888
v -0.239622 -0.110968 -0.082350
v -0.238971 0.052162 0.080856
v -0.164876 -0.196656 0.024814
v -0.254168 0.264491 0.091060
v -0.238262 0.046643 -0.047314
v -0.255579 0.151155 -0.064440
v -0.230978 -0.012039 0.151056
v -0.255725 0.262170 0.127136
v -0.234590 0.205966 0.085583
v -0.204565 -0.165988 -0.041768
v -0.252298 0.133386 0.087566
v -0.241501 -0.071721 0.130547
v -0.247706 0.243895 -0.077879
v -0.241886 0.038475 0.146245
v -0.272784 0.155582 -0.068901
v -0.239943 0.032020 -0.117787
v -0.262094 -0.027991 -0.107694
v -0.274568 0.182639 0.088242
v -0.267188 0.033343 -0.064419
v -0.266028 0.185806 -0.104282
v -0.257793 0.134977 0.142536
v -0.267051 0.066893 0.094272
v -0.227863 -0.159962 0.020545
v -0.264258 0.055988 -0.069986
v -0.251033 -0.105191 0.107655
v -0.271207 0.203023 0.123556
v -0.279216 0.120188 0.121662
v -0.288582 0.036445 0.009031
v -0.241908 0.066863 -0.060004
v -0.277805 0.085887 -0.073494
v -0.273283 0.103929 -0.105954
v -0.262704 0.083039 0.127294
v -0.270520 -0.119615 0.019341
v -0.267215 0.040502 0.091064
v -0.271505 -0.016396 0.134452
v -0.283916 -0.010272 -0.070358
v -0.271279 -0.075545 -0.062790
v -0.275371 -0.051541 0.110123
v -0.292495 -0.046684 0.052779
v -0.295429 0.005579 0.053456
v -0.299357 -0.006804 -0.034430
v -0.292962 -0.032024 -0.025475
v -0.315413 0.044505 0.024977
v -0.293925 -0.061025 0.013860
v -0.335179 0.027410 0.036818
v -0.323365 -0.043747 -0.009029
v -0.349349 0.014372 -0.005576
v -0.348324 -0.015309 0.034695
f 137 151 149
f 127 125 149
f 127 162 157
f 157 162 174
f 174 211 161
f 216 161 211
f 157 174 161
f 80 76 68
f 68 76 101
f 96 68 101
f 68 88 80
f 86 80 88
f 80 86 76
f 86 88 90
f 90 88 99
f 90 99 110
f 96 101 110
f 99 96 110
f 110 101 106
f 194 151 169
f 149 151 194
f 162 194 174
f 149 194 162
f 127 149 162
f 88 68 71
f 96 71 68
f 71 96 99
f 88 71 99
f 193 172 220
f 165 172 177
f 165 143 153
f 144 143 165
f 144 150 143
f 193 220 235
f 177 172 193
f 163 165 177
f 144 165 163
f 204 193 235
f 185 193 204
f 185 177 193
f 163 177 185
f 94 89 105
f 94 85 89
f 74 79 98
f 65 79 74
f 65 74 85
f 201 185 204
f 98 79 105
f 196 201 224
f 179 201 196
f 10 8 3
f 8 5 9
f 82 94 105
f 79 82 105
f 82 85 94
f 65 85 82
f 65 82 79
f 196 224 217
f 188 179 202
f 217 181 196
f 181 179 196
f 179 181 202
f 152 160 164
f 152 164 176
f 153 152 176
f 135 152 153
f 135 129 152
f 30 5 24
f 9 5 30
f 221 176 205
f 220 198 221
f 198 176 221
f 198 153 176
f 220 172 198
f 153 198 172
f 143 135 153
f 140 135 143
f 140 143 150
f 165 153 172
f 179 188 201
f 111 113 114
f 184 189 206
f 123 134 137
f 112 123 126
f 76 84 101
f 101 84 106
f 111 110 106
f 175 184 215
f 231 215 226
f 72 76 86
f 113 111 106
f 167 175 169
f 175 167 184
f 167 189 184
f 215 184 206
f 236 231 226
f 103 90 111
f 114 103 111
f 155 146 167
f 167 146 173
f 167 173 189
f 238 236 226
f 56 64 61
f 61 64 73
f 61 73 103
f 126 123 137
f 47 34 56
f 47 56 61
f 104 61 103
f 104 103 114
f 112 104 114
f 218 238 239
f 47 61 62
f 62 61 104
f 20 28 43
f 84 91 113
f 78 84 76
f 76 72 78
f 84 113 106
f 213 215 222
f 207 158 159
f 158 145 159
f 141 142 145
f 118 142 141
f 207 192 227
f 207 159 192
f 75 121 118
f 75 83 121
f 59 83 75
f 55 83 59
f 23 1 12
f 237 242 243
f 55 50 83
f 23 12 40
f 55 48 50
f 36 27 35
f 29 23 40
f 23 29 27
f 7 23 27
f 242 244 243
f 18 35 27
f 252 249 251
f 252 244 249
f 243 244 252
f 244 247 249
f 16 15 18
f 75 118 141
f 37 9 41
f 124 115 128
f 124 69 115
f 38 52 44
f 52 41 53
f 38 41 52
f 32 41 38
f 128 140 133
f 44 52 67
f 42 38 44
f 42 32 38
f 26 32 42
f 223 209 228
f 209 233 228
f 209 187 233
f 187 171 233
f 168 171 187
f 168 154 171
f 154 150 171
f 133 150 154
f 122 100 124
f 122 116 100
f 67 70 77
f 171 156 233
f 210 219 234
f 233 210 234
f 156 180 233
f 234 219 235
f 221 241 240
f 220 221 240
f 140 128 135
f 128 133 132
f 245 223 240
f 63 57 109
f 139 154 168
f 51 46 44
f 51 44 60
f 60 44 67
f 122 128 132
f 170 168 187
f 170 187 209
f 170 209 223
f 223 245 232
f 247 232 245
f 26 15 16
f 26 16 32
f 122 124 128
f 245 240 246
f 16 27 32
f 245 246 250
f 245 250 251
f 29 14 22
f 27 22 37
f 32 27 37
f 32 37 41
f 39 45 41
f 41 45 54
f 241 248 246
f 246 248 250
f 45 55 54
f 241 237 248
f 57 59 75
f 57 75 109
f 109 75 119
f 214 227 237
f 66 52 69
f 52 92 69
f 223 220 240
f 100 66 124
f 66 69 124
f 70 52 66
f 220 223 228
f 235 220 228
f 133 140 150
f 89 100 116
f 89 66 100
f 70 66 89
f 77 70 89
f 235 228 234
f 156 144 163
f 150 156 171
f 150 144 156
f 85 77 89
f 163 185 180
f 180 156 163
f 74 77 85
f 219 224 235
f 204 235 224
f 188 180 185
f 98 105 116
f 89 116 105
f 201 204 224
f 188 185 201
f 7 27 17
f 17 36 33
f 50 33 62
f 47 62 33
f 48 33 50
f 33 36 35
f 17 27 36
f 239 244 242
f 33 35 47
f 35 34 47
f 20 34 35
f 238 244 239
f 123 114 120
f 112 114 123
f 34 58 56
f 34 43 58
f 34 20 43
f 226 206 238
f 215 206 226
f 189 182 206
f 189 173 182
f 146 147 173
f 123 120 134
f 114 113 120
f 64 78 72
f 73 64 72
f 56 58 64
f 43 49 58
f 40 33 48
f 18 20 35
f 58 60 64
f 238 232 244
f 15 20 18
f 15 28 20
f 238 206 232
f 92 108 115
f 136 160 152
f 67 77 81
f 22 14 19
f 39 41 30
f 41 54 53
f 52 53 92
f 240 241 246
f 22 19 37
f 24 14 39
f 37 19 9
f 24 39 30
f 9 30 41
f 53 54 57
f 63 53 57
f 92 53 63
f 205 237 241
f 92 63 108
f 63 109 108
f 214 237 205
f 109 119 108
f 136 108 119
f 119 148 136
f 160 136 148
f 160 148 178
f 160 178 164
f 164 178 214
f 13 42 21
f 31 21 46
f 21 42 46
f 81 77 93
f 95 81 93
f 95 93 122
f 139 132 133
f 139 133 154
f 15 26 13
f 13 26 42
f 46 42 44
f 182 170 206
f 182 166 170
f 173 166 182
f 147 166 173
f 120 131 134
f 64 60 78
f 58 51 60
f 49 51 58
f 134 147 146
f 134 131 147
f 120 117 131
f 113 117 120
f 113 91 117
f 84 78 91
f 49 31 51
f 43 31 49
f 43 28 25
f 25 31 43
f 158 207 178
f 141 145 158
f 75 141 119
f 57 54 59
f 54 55 59
f 237 243 248
f 244 232 247
f 206 170 232
f 117 132 131
f 148 141 158
f 138 161 192
f 159 138 192
f 157 161 138
f 192 161 203
f 130 157 138
f 157 130 127
f 6 2 11
f 229 203 216
f 161 216 203
f 107 127 130
f 107 102 127
f 11 17 33
f 12 6 11
f 229 216 242
f 97 102 107
f 62 104 97
f 216 239 242
f 102 126 125
f 102 112 126
f 102 104 112
f 102 97 104
f 142 130 138
f 192 203 229
f 2 1 4
f 12 11 33
f 2 4 17
f 127 102 125
f 216 211 239
f 211 218 239
f 19 3 8
f 74 98 93
f 128 115 135
f 115 129 135
f 3 19 14
f 19 8 9
f 69 92 115
f 221 205 241
f 10 3 14
f 5 10 24
f 10 14 24
f 115 108 129
f 129 108 136
f 176 164 205
f 129 136 152
f 164 214 205
f 202 181 217
f 188 202 197
f 197 202 210
f 210 202 219
f 219 217 224
f 202 217 219
f 180 188 197
f 180 197 210
f 233 180 210
f 93 77 74
f 98 116 93
f 93 116 122
f 174 218 211
f 125 137 149
f 125 126 137
f 218 174 194
f 137 134 146
f 238 218 236
f 218 183 236
f 218 194 183
f 194 169 183
f 169 151 155
f 151 146 155
f 137 146 151
f 73 72 87
f 183 225 236
f 169 155 167
f 90 110 111
f 87 86 90
f 72 86 87
f 236 225 231
f 183 190 225
f 169 175 190
f 183 169 190
f 231 225 230
f 200 230 225
f 190 200 225
f 190 191 200
f 195 212 230
f 200 195 230
f 191 186 200
f 186 195 200
f 103 87 90
f 103 73 87
f 190 175 191
f 195 208 212
f 231 230 222
f 213 175 215
f 191 175 213
f 199 191 213
f 230 208 222
f 212 208 230
f 199 213 208
f 186 191 199
f 195 199 208
f 195 186 199
f 145 142 159
f 142 138 159
f 118 130 142
f 121 130 118
f 192 229 227
f 107 130 121
f 1 6 12
f 229 242 237
f 121 97 107
f 83 97 121
f 7 1 23
f 4 1 7
f 83 62 97
f 50 62 83
f 4 7 17
f 222 215 231
f 213 222 208
f 229 237 227
f 248 252 250
f 248 243 252
f 45 48 55
f 29 48 45
f 48 29 40
f 39 29 45
f 178 148 158
f 117 95 122
f 117 122 132
f 131 132 139
f 170 139 168
f 247 245 251
f 14 29 39
f 214 207 227
f 178 207 214
f 119 141 148
f 31 25 21
f 15 25 28
f 25 13 21
f 51 31 46
f 78 81 95
f 78 95 91
f 91 95 117
f 147 131 139
f 147 139 166
f 166 139 170
f 25 15 13
f 78 60 81
f 170 223 232
f 249 247 251
f 16 18 27
f 250 252 251
f 22 27 29
f 228 233 234
f 67 52 70
f 67 81 60
f 12 33 40
f 11 2 17
f 8 10 5
f 1 2 6
