v 0.455782 0.023288 0.086910
v 0.444014 -0.035182 0.093906
v 0.407435 0.023102 0.108719
v 0.438569 -0.036399 0.030084
v 0.457280 -0.005941 0.021484
v 0.435357 0.021972 0.019172
v 0.380282 -0.077519 0.061923
v 0.407538 0.048341 -0.011659
v 0.388071 -0.028522 0.110465
v 0.402114 0.054988 0.066541
v 0.404383 -0.169192 -0.172728
v 0.344732 0.067650 -0.011754
v 0.350763 -0.091768 -0.002552
v 0.389776 -0.208644 -0.166889
v 0.409443 0.099786 -0.173051
v 0.403586 0.149477 -0.203639
v 0.390659 0.130814 -0.169454
v 0.372397 -0.189546 -0.100787
v 0.398620 0.025522 -0.036566
v 0.380755 -0.171050 -0.134856
v 0.308743 0.015288 0.096518
v 0.394911 -0.122918 -0.114566
v 0.376145 0.149496 -0.175695
v 0.351691 -0.057743 -0.066160
v 0.393184 -0.053848 -0.034939
v 0.299207 -0.064681 0.073639
v 0.396922 0.070002 -0.121414
v 0.353506 0.132065 -0.133529
v 0.329912 -0.132766 -0.082658
v 0.351021 0.003601 -0.051072
v 0.358148 -0.072524 -0.093641
v 0.359759 -0.130278 -0.128954
v 0.358815 0.026885 -0.099471
v 0.329183 -0.051089 -0.060087
v 0.324944 -0.087943 -0.018976
v 0.314549 -0.099696 0.027849
v 0.332120 -0.103686 -0.066929
v 0.294169 0.068544 0.036009
v 0.359859 0.080837 -0.147676
v 0.231703 0.049324 0.098753
v 0.300729 -0.089639 -0.015699
v 0.328941 0.050208 -0.075210
v 0.314063 -0.011613 -0.041774
v 0.339806 0.097442 -0.104545
v 0.313321 0.050804 -0.045185
v 0.322658 0.075064 -0.097094
v 0.299869 -0.014728 0.106867
v 0.228515 -0.066731 0.108036
v 0.291609 -0.059271 -0.036721
v 0.255480 -0.095922 0.076968
v 0.198903 -0.088137 0.078729
v 0.305934 0.027358 -0.048684
v 0.243719 -0.107400 -0.000166
v 0.265828 0.068852 -0.009886
v 0.219978 0.094796 0.052375
v 0.247824 0.053381 -0.038288
v 0.207537 0.082624 -0.022653
v 0.252947 -0.085643 -0.027248
v 0.247804 -0.012415 -0.046232
v 0.166976 -0.045221 0.108913
v 0.173880 -0.098782 0.105214
v 0.173961 0.069071 0.107063
v 0.140658 0.217418 0.167536
v 0.162389 0.005353 0.119779
v 0.141074 -0.066323 0.123562
v 0.213027 -0.009806 -0.093920
v 0.143725 -0.172748 0.098685
v 0.149563 0.028483 0.129603
v 0.133379 0.212598 0.208866
v 0.133332 0.128955 0.122886
v 0.152061 0.113934 0.088001
v 0.149412 0.087101 -0.051249
v 0.157508 -0.137513 0.074870
v 0.191827 -0.063356 -0.092112
v 0.134626 0.164474 0.166111
v 0.124329 0.101875 0.149296
v 0.192094 -0.129640 0.055844
v 0.108696 -0.271193 0.128772
v 0.122839 -0.171270 0.135194
v 0.084847 -0.018865 0.133856
v 0.128876 -0.186670 0.078771
v 0.118266 -0.122271 0.013207
v 0.215439 0.053718 -0.071094
v 0.106147 -0.235823 0.145751
v 0.074029 -0.147881 0.140442
v 0.150198 -0.109444 -0.045052
v 0.120312 0.245605 0.173872
v 0.094390 0.187375 0.155029
v 0.091707 -0.200869 0.104778
v 0.076913 0.057912 0.130090
v 0.132783 -0.093793 0.138140
v 0.112813 0.156043 0.127728
v 0.085513 0.090906 0.159408
v 0.087080 -0.287456 0.159962
v 0.089189 0.210521 0.200237
v 0.051053 -0.266793 0.114616
v 0.080880 -0.179985 0.150732
v 0.079974 -0.142444 0.069121
v 0.087252 -0.275562 0.109528
v 0.058181 0.134924 0.171605
v 0.080690 0.122817 0.100587
v 0.065553 -0.055856 0.128065
v 0.122996 0.093258 0.022773
v 0.044489 0.004311 0.131046
v 0.058488 -0.172461 0.135405
v 0.045048 -0.253168 0.139964
v 0.062032 -0.096753 0.087838
v 0.059141 0.137347 0.155552
v 0.131760 -0.003934 -0.145658
v 0.064040 0.075324 0.046693
v 0.014461 -0.060268 0.082256
v 0.082699 -0.116393 -0.053125
v 0.059164 0.085422 0.001443
v 0.050543 0.053086 0.093286
v 0.087882 0.100210 -0.090715
v 0.054918 -0.093273 0.045713
v 0.019340 0.009562 0.120034
v 0.027405 0.052020 0.067015
v 0.123338 0.052666 -0.119007
v 0.119953 -0.062211 -0.130002
v 0.058654 0.087525 -0.149140
v 0.068744 -0.002343 -0.209184
v 0.033036 -0.101864 0.012483
v 0.077273 0.047000 -0.180787
v 0.088156 -0.113733 -0.098451
v 0.075743 -0.055127 -0.188503
v 0.014963 -0.149106 -0.100147
v -0.000859 0.066998 0.055575
v 0.060317 0.101802 -0.046347
v 0.016186 -0.142855 -0.057529
v -0.010250 -0.088412 0.054160
v -0.029823 -0.030433 0.100363
v -0.061591 0.103875 0.049983
v 0.002512 0.003759 -0.254335
v 0.039146 -0.108677 -0.158777
v -0.056387 -0.158228 0.006674
v -0.045282 0.033701 0.090507
v -0.031218 -0.102137 -0.213805
v -0.088624 0.008115 0.097548
v -0.079476 -0.026809 0.098177
v -0.052716 0.140366 0.017599
v -0.080924 -0.120554 0.046548
v -0.045035 -0.171557 -0.071790
v -0.089640 0.159329 0.046682
v -0.148262 -0.007289 0.076417
v -0.038870 0.159869 -0.031914
v -0.098945 -0.175964 0.041500
v 0.007015 0.140767 -0.097602
v -0.001099 -0.034728 -0.247295
v -0.076657 -0.177874 -0.014238
v -0.152105 -0.083647 0.057949
v -0.049550 0.053210 -0.248141
v -0.105464 0.167219 -0.028851
v -0.124416 0.172885 0.062245
v -0.060703 -0.154243 -0.175945
v -0.131427 0.189935 0.043512
v -0.133491 -0.162183 0.063379
v -0.111572 0.140159 0.059346
v -0.056096 0.141533 -0.177135
v -0.028854 0.096964 -0.211833
v -0.203155 -0.176487 0.062483
v -0.077364 -0.073676 -0.248478
v -0.148701 0.101903 0.050198
v -0.171408 -0.167212 -0.080447
v -0.087137 0.072228 -0.243659
v -0.184372 0.164831 -0.006995
v -0.190008 -0.144831 0.071541
v -0.176959 0.194455 0.032962
v -0.170437 0.131751 0.077766
v -0.244306 -0.187735 0.077094
v -0.164102 0.161062 -0.066873
v -0.119095 -0.178216 -0.043795
v -0.177848 -0.101990 0.037992
v -0.259075 0.126420 0.040601
v -0.146770 -0.122886 -0.214563
v -0.188749 -0.175443 -0.007061
v -0.234066 0.218715 0.068419
v -0.092834 -0.003016 -0.269309
v -0.226583 0.237632 0.040575
v -0.232389 -0.090654 0.014129
v -0.156687 -0.200583 0.048055
v -0.198553 0.171551 0.059636
v -0.241234 -0.128163 0.030921
v -0.270827 -0.259967 0.099470
v -0.259862 0.297890 0.029935
v -0.282861 -0.283892 0.138672
v -0.274663 -0.328848 0.111597
v -0.289240 -0.225903 0.107861
v -0.247172 -0.135868 -0.095217
v -0.256896 0.294020 0.063491
v -0.281410 -0.281987 0.075660
v -0.159911 -0.135509 -0.172651
v -0.295338 -0.321351 0.088739
v -0.154697 0.115209 -0.212203
v -0.304788 -0.338777 0.134370
v -0.259401 0.373156 0.051755
v -0.277801 -0.097140 0.013349
v -0.259313 0.357508 0.075830
v -0.253404 0.210116 0.003448
v -0.225297 -0.003963 0.021769
v -0.244418 -0.222841 0.053946
v -0.257547 0.154993 -0.028364
v -0.244942 0.067266 0.005789
v -0.281421 0.337049 0.095214
v -0.184847 -0.072985 -0.239257
v -0.181927 0.073277 -0.237168
v -0.216360 0.114320 -0.189260
v -0.228161 0.136869 -0.097346
v -0.313274 -0.299051 0.142870
v -0.265366 -0.197217 0.003291
v -0.268504 0.350236 0.028510
v -0.271078 -0.158404 -0.043756
v -0.320270 -0.306640 0.090996
v -0.301096 0.353148 0.038680
v -0.300825 0.384658 0.070322
v -0.291827 0.281375 0.079991
v -0.308121 0.271911 0.022126
v -0.269209 -0.009554 0.000276
v -0.281354 0.168012 -0.001583
v -0.313383 -0.172968 0.071088
v -0.288912 0.232581 0.005654
v -0.189785 -0.000743 -0.251366
v -0.326339 -0.215718 0.035263
v -0.312694 0.200717 0.038879
v -0.269743 0.120675 -0.137164
v -0.292961 0.087817 -0.025444
v -0.230946 -0.110085 -0.194487
v -0.304054 0.158799 0.039206
v -0.290373 0.175211 0.055862
v -0.320763 0.305103 0.066696
v -0.304317 -0.220108 0.027224
v -0.339203 -0.234289 0.097437
v -0.282127 0.128039 -0.067577
v -0.319880 -0.140905 0.021943
v -0.275991 -0.120357 -0.140655
v -0.299916 -0.091846 -0.033304
v -0.306340 -0.047069 -0.129143
v -0.306115 0.097132 -0.085979
v -0.263035 0.069204 -0.189101
v -0.268530 -0.013318 -0.205099
v -0.313222 -0.039948 -0.028455
v -0.305117 0.041346 -0.121502
v -0.303757 -0.111113 -0.086518
v -0.304280 0.000065 -0.146684
v -0.350094 -0.042972 -0.070439
v -0.320899 0.053018 -0.088826
v -0.367591 0.028966 -0.061742
v -0.327395 0.007543 -0.038857
v -0.340053 0.008450 -0.145239
v -0.380612 -0.011601 -0.061059
v -0.372981 0.026290 -0.112023
v -0.372042 -0.022710 -0.121371
f 155 192 175
f 160 152 165
f 109 126 122
f 22 37 20
f 31 32 34
f 29 18 37
f 18 20 37
f 155 175 162
f 17 28 44
f 40 55 64
f 28 23 39
f 15 27 33
f 42 27 17
f 15 33 39
f 33 52 39
f 42 17 44
f 39 46 28
f 124 122 134
f 124 134 152
f 165 178 206
f 134 122 126
f 134 126 149
f 149 162 134
f 152 134 178
f 134 162 178
f 165 152 178
f 149 126 138
f 138 162 149
f 24 22 31
f 32 31 11
f 32 29 34
f 181 161 201
f 106 97 105
f 89 106 105
f 84 79 97
f 183 234 220
f 167 173 183
f 170 167 183
f 161 167 170
f 161 157 167
f 167 157 173
f 97 85 105
f 151 140 145
f 145 140 139
f 140 137 139
f 132 117 140
f 117 137 140
f 117 132 104
f 102 104 132
f 102 132 111
f 102 80 104
f 145 133 163
f 145 139 133
f 80 90 104
f 90 100 114
f 90 93 100
f 228 174 229
f 203 163 174
f 169 182 174
f 169 174 163
f 163 158 169
f 174 182 229
f 211 196 185
f 196 190 185
f 190 196 198
f 187 193 191
f 213 232 223
f 191 193 213
f 191 213 231
f 201 191 231
f 184 187 191
f 223 232 234
f 220 234 232
f 184 170 188
f 170 183 220
f 188 170 220
f 201 170 184
f 100 95 88
f 69 87 95
f 229 216 230
f 216 204 230
f 216 190 204
f 190 198 204
f 204 215 230
f 204 198 215
f 198 196 215
f 193 195 213
f 195 209 213
f 193 187 195
f 195 186 209
f 187 186 195
f 213 209 232
f 186 188 209
f 184 186 187
f 209 220 232
f 209 188 220
f 186 184 188
f 76 75 93
f 228 224 219
f 224 221 219
f 229 224 228
f 137 128 133
f 133 158 163
f 145 163 200
f 174 228 203
f 203 228 226
f 203 226 248
f 68 93 90
f 68 90 80
f 90 114 117
f 104 90 117
f 117 114 118
f 117 118 137
f 118 128 137
f 139 137 133
f 200 163 203
f 200 203 218
f 218 203 248
f 60 64 68
f 65 68 80
f 218 248 241
f 61 65 91
f 61 60 65
f 65 60 68
f 80 102 91
f 107 102 111
f 107 111 116
f 111 132 131
f 142 132 140
f 142 140 151
f 151 145 200
f 169 154 182
f 158 154 169
f 88 108 100
f 88 92 108
f 93 95 100
f 69 95 93
f 88 63 92
f 93 75 69
f 224 230 217
f 229 230 224
f 229 177 216
f 182 177 229
f 87 88 95
f 87 63 88
f 63 69 75
f 69 63 87
f 190 179 185
f 177 190 216
f 190 177 179
f 217 230 214
f 211 217 214
f 211 185 217
f 215 196 214
f 196 211 214
f 230 215 214
f 162 175 205
f 138 155 162
f 135 155 138
f 126 125 135
f 24 37 22
f 178 205 222
f 205 178 162
f 138 126 135
f 109 120 126
f 30 43 33
f 222 206 178
f 109 122 124
f 119 109 124
f 33 43 52
f 27 30 33
f 27 42 30
f 165 206 194
f 159 165 194
f 159 160 165
f 124 152 160
f 121 124 160
f 46 52 45
f 127 130 143
f 112 123 130
f 123 112 82
f 86 82 112
f 86 77 82
f 91 102 107
f 131 132 142
f 173 151 200
f 180 173 200
f 180 200 218
f 65 80 91
f 85 91 107
f 85 107 105
f 98 105 107
f 142 151 157
f 157 151 173
f 173 180 183
f 183 180 197
f 180 218 197
f 234 183 197
f 197 218 241
f 236 197 241
f 234 197 236
f 212 234 236
f 67 61 79
f 79 61 91
f 79 91 85
f 97 79 85
f 89 105 98
f 147 142 157
f 212 210 234
f 210 223 234
f 79 84 67
f 67 84 89
f 106 89 96
f 147 157 181
f 157 161 181
f 210 176 181
f 181 201 210
f 84 78 89
f 89 78 99
f 89 99 96
f 53 77 86
f 36 77 53
f 36 50 77
f 36 7 26
f 7 9 26
f 2 9 7
f 244 237 249
f 2 3 9
f 2 1 3
f 5 1 2
f 242 244 249
f 242 239 244
f 239 242 238
f 1 6 10
f 3 1 10
f 238 225 239
f 113 103 129
f 71 57 103
f 55 57 71
f 55 54 57
f 38 54 55
f 10 12 38
f 38 3 10
f 208 207 225
f 208 171 194
f 237 235 243
f 30 34 43
f 34 24 31
f 30 25 34
f 34 25 24
f 5 25 19
f 239 206 222
f 83 109 119
f 83 66 109
f 83 59 66
f 56 59 83
f 52 43 59
f 45 30 42
f 12 30 45
f 12 19 30
f 12 8 19
f 30 19 25
f 8 5 19
f 5 8 6
f 207 206 239
f 207 194 206
f 119 124 121
f 115 119 121
f 72 119 115
f 72 83 119
f 72 56 83
f 45 52 54
f 45 42 44
f 208 194 207
f 148 121 159
f 227 189 235
f 192 189 227
f 192 164 189
f 155 172 164
f 155 143 172
f 127 143 155
f 127 112 130
f 125 112 127
f 240 227 235
f 103 113 110
f 62 55 71
f 40 38 55
f 233 208 225
f 128 146 141
f 70 71 92
f 64 62 68
f 248 250 245
f 248 247 250
f 99 78 94
f 99 94 96
f 141 146 144
f 144 146 153
f 144 153 156
f 156 153 166
f 153 171 166
f 166 171 202
f 171 208 202
f 199 166 202
f 62 71 70
f 92 71 101
f 101 103 110
f 202 208 233
f 226 202 233
f 226 233 238
f 55 62 64
f 108 110 114
f 110 113 118
f 114 110 118
f 118 113 128
f 133 128 141
f 226 238 248
f 248 238 246
f 21 40 47
f 47 40 64
f 248 246 247
f 48 47 64
f 48 64 60
f 241 248 245
f 250 247 251
f 252 245 250
f 250 251 252
f 48 60 51
f 71 103 101
f 176 210 212
f 164 176 212
f 172 176 164
f 181 176 172
f 150 181 172
f 147 181 150
f 98 81 89
f 81 67 89
f 147 136 142
f 136 147 150
f 82 81 98
f 73 81 82
f 73 67 81
f 61 67 73
f 243 212 236
f 136 131 142
f 98 107 116
f 73 77 61
f 51 61 77
f 237 243 245
f 236 241 243
f 123 111 131
f 116 111 123
f 61 51 60
f 243 241 245
f 125 86 112
f 86 58 53
f 41 53 58
f 41 36 53
f 41 35 36
f 13 36 35
f 240 237 244
f 240 235 237
f 13 7 36
f 4 2 7
f 5 2 4
f 239 240 244
f 222 240 239
f 52 59 56
f 54 52 56
f 6 8 10
f 207 239 225
f 129 72 115
f 129 103 72
f 56 72 57
f 54 56 57
f 12 45 54
f 38 12 54
f 10 8 12
f 115 121 148
f 129 115 148
f 146 148 159
f 235 189 243
f 5 6 1
f 103 57 72
f 143 150 172
f 130 150 143
f 11 20 14
f 16 15 39
f 17 15 16
f 201 184 191
f 223 231 213
f 185 221 217
f 221 224 217
f 63 75 92
f 76 70 75
f 93 68 76
f 201 161 170
f 210 231 223
f 84 97 94
f 94 97 106
f 210 201 231
f 94 78 84
f 94 106 96
f 177 182 168
f 177 168 179
f 179 168 199
f 185 179 199
f 185 199 221
f 75 70 92
f 108 92 101
f 158 144 154
f 154 144 156
f 154 156 168
f 156 166 168
f 182 154 168
f 168 166 199
f 199 202 219
f 221 199 219
f 62 70 76
f 101 110 108
f 141 144 133
f 133 144 158
f 219 202 226
f 228 219 226
f 68 62 76
f 114 100 108
f 31 20 11
f 22 20 31
f 23 16 39
f 27 15 17
f 28 17 23
f 14 20 18
f 32 14 29
f 11 14 32
f 44 46 45
f 44 28 46
f 39 52 46
f 121 160 159
f 175 192 227
f 164 192 155
f 155 135 127
f 175 227 205
f 125 127 135
f 126 120 125
f 74 125 120
f 74 86 125
f 41 34 29
f 37 41 29
f 37 35 41
f 205 240 222
f 205 227 240
f 74 120 109
f 66 74 109
f 58 86 74
f 66 58 74
f 49 34 41
f 24 35 37
f 25 13 35
f 25 7 13
f 25 4 7
f 5 4 25
f 59 58 66
f 43 58 59
f 49 58 43
f 43 34 49
f 49 41 58
f 171 159 194
f 129 148 146
f 128 129 146
f 153 159 171
f 153 146 159
f 247 246 251
f 50 48 51
f 113 129 128
f 233 225 238
f 9 3 21
f 3 38 21
f 21 38 40
f 238 242 246
f 246 242 251
f 251 242 249
f 47 9 21
f 237 252 249
f 251 249 252
f 9 47 26
f 26 47 48
f 36 26 50
f 50 26 48
f 252 237 245
f 50 51 77
f 82 98 116
f 82 116 123
f 130 123 131
f 77 73 82
f 130 131 136
f 130 136 150
f 164 212 189
f 189 212 243
f 14 18 29
f 24 25 35
f 17 16 23
