v 0.450486 -0.141241 0.155261
v 0.450976 -0.102548 0.096892
v 0.447005 -0.152355 0.126105
v 0.487705 -0.126396 0.120193
v 0.469403 -0.120827 0.154989
v 0.422060 -0.056255 0.164987
v 0.434125 -0.127159 0.097847
v 0.385130 -0.093249 0.136768
v 0.385090 -0.084887 -0.105417
v 0.402484 -0.061401 0.105609
v 0.374892 0.129511 -0.003098
v 0.383458 0.022556 -0.064194
v 0.407413 -0.031508 0.119249
v 0.378853 0.177189 0.007148
v 0.392487 0.003580 -0.099803
v 0.387793 -0.074172 -0.064602
v 0.358346 0.102793 0.031520
v 0.407266 -0.090770 0.168630
v 0.360696 -0.181912 -0.090554
v 0.371600 -0.032131 0.193893
v 0.375309 0.135028 0.073331
v 0.359889 -0.026182 -0.127700
v 0.376398 0.005283 0.167780
v 0.325806 -0.075694 0.169788
v 0.368274 -0.081069 -0.051926
v 0.330464 -0.100801 -0.058424
v 0.340890 0.005938 0.133683
v 0.344694 -0.101352 -0.121418
v 0.327951 0.065049 -0.064485
v 0.335478 0.114958 -0.013050
v 0.312507 -0.066206 0.147322
v 0.308357 0.027744 0.195383
v 0.325389 -0.188155 -0.120928
v 0.286560 0.188554 -0.014549
v 0.318443 -0.064445 -0.124550
v 0.348046 -0.039700 -0.061378
v 0.310332 0.048351 -0.034589
v 0.312837 0.046559 -0.125570
v 0.330288 0.114843 0.070748
v 0.311210 -0.090031 -0.098577
v 0.301926 -0.084181 0.176426
v 0.309618 0.066661 0.130211
v 0.340614 0.198158 0.056628
v 0.310318 -0.179350 -0.062344
v 0.286129 0.021194 0.123171
v 0.308444 0.137383 -0.094637
v 0.327713 -0.037382 0.203967
v 0.287891 -0.059289 -0.084571
v 0.303291 0.052454 0.072389
v 0.249775 -0.059988 0.150914
v 0.290981 0.063652 0.176811
v 0.285788 0.080322 -0.137005
v 0.298499 0.168140 0.079397
v 0.281805 0.144813 0.156285
v 0.260458 -0.088222 -0.124682
v 0.299770 0.022744 -0.056563
v 0.282802 0.195772 0.043446
v 0.276953 -0.016622 -0.147811
v 0.284862 0.021853 0.030516
v 0.214318 -0.083731 -0.150283
v 0.264179 0.154374 -0.121321
v 0.236180 0.077667 0.197501
v 0.250766 0.132912 0.178209
v 0.233765 -0.019096 -0.031958
v 0.228103 -0.079005 -0.084244
v 0.142802 0.014450 0.210478
v 0.233517 -0.060290 0.029841
v 0.245521 -0.071648 0.188377
v 0.231290 0.209848 -0.081095
v 0.214326 -0.030233 0.108462
v 0.208997 -0.086721 0.157307
v 0.236134 -0.000981 0.084375
v 0.199471 0.184667 0.159633
v 0.186511 -0.090283 0.184294
v 0.222958 0.058547 -0.157486
v 0.199861 0.242805 -0.002569
v 0.246241 -0.044315 0.205405
v 0.151397 0.203806 -0.114147
v 0.110052 0.123684 -0.151121
v 0.201850 0.227477 0.108103
v 0.134459 0.254971 0.018545
v 0.207714 -0.056035 -0.063914
v 0.199849 -0.102444 -0.130347
v 0.173174 -0.118925 0.041281
v 0.171295 -0.006220 -0.173149
v 0.164086 -0.095581 -0.100613
v 0.148309 -0.088075 0.144428
v 0.160060 -0.095558 -0.047347
v 0.144398 -0.079073 -0.160117
v 0.131484 -0.146803 -0.011037
v 0.127349 0.219184 0.131198
v 0.099690 -0.153271 0.041742
v 0.115786 -0.072640 0.198209
v 0.094490 -0.116569 -0.126512
v 0.136797 0.231668 -0.084074
v 0.152023 -0.080039 0.096667
v 0.083345 -0.094596 0.143377
v 0.105755 -0.057107 -0.164332
v 0.071296 -0.022983 0.201603
v 0.076972 0.056638 -0.169786
v 0.014066 0.195815 0.125448
v 0.044953 0.149143 0.160848
v 0.087387 0.098000 0.186886
v 0.105039 -0.130331 -0.068309
v 0.094339 0.240752 0.079422
v 0.060231 -0.066055 -0.160488
v 0.037262 0.204993 -0.100947
v 0.038568 -0.100343 0.111116
v 0.017834 0.130517 -0.153263
v 0.027133 -0.115438 -0.089906
v -0.009051 -0.028008 0.147992
v 0.020186 0.049639 0.185129
v 0.029798 -0.141703 -0.077398
v 0.033921 0.240527 -0.027854
v -0.012137 0.145332 -0.129178
v -0.019906 0.126439 0.158792
v -0.046336 -0.141378 0.091839
v 0.017048 0.236876 0.042554
v -0.038944 0.154721 0.123803
v -0.065393 -0.181807 0.081978
v 0.014482 -0.185048 0.053364
v 0.000754 0.032545 -0.160420
v 0.032284 -0.177581 0.012446
v -0.042542 -0.065408 0.124004
v -0.084460 0.007446 0.134082
v -0.087533 -0.006564 -0.105442
v -0.067113 0.177022 0.049737
v -0.030151 0.188139 -0.073003
v -0.078465 0.118205 -0.079143
v -0.026899 -0.145099 -0.041084
v -0.056922 -0.079915 -0.083425
v -0.039698 -0.203371 0.026795
v -0.046563 0.054392 0.152993
v -0.088766 -0.118011 -0.065388
v -0.096192 0.149835 -0.032204
v -0.099387 0.032620 -0.103566
v -0.085318 -0.188009 -0.019562
v -0.061688 0.199672 -0.004017
v -0.083017 -0.327230 0.190271
v -0.099854 0.052542 0.124318
v -0.076611 -0.240334 0.155549
v -0.088930 -0.297868 0.223675
v -0.084769 -0.248937 0.139975
v -0.099019 -0.073455 0.128157
v -0.099561 -0.172923 -0.066585
v -0.134157 0.111239 0.016246
v -0.105414 -0.205255 -0.022195
v -0.127281 -0.209193 0.084183
v -0.124139 -0.026596 0.136050
v -0.119186 -0.198736 0.038189
v -0.112231 -0.249933 -0.051168
v -0.089670 -0.151458 0.112906
v -0.175704 -0.145801 0.160456
v -0.108680 -0.212170 0.177353
v -0.125554 -0.343892 0.225557
v -0.129771 0.089994 0.076843
v -0.126921 -0.258903 0.195865
v -0.126584 -0.278981 -0.023756
v -0.127846 -0.240171 0.130036
v -0.150264 -0.201745 0.000862
v -0.135414 -0.331958 0.187363
v -0.142548 0.072940 -0.056942
v -0.151587 -0.234405 0.150979
v -0.150596 -0.164512 -0.098037
v -0.143873 -0.299020 -0.064001
v -0.143808 -0.315146 0.233295
v -0.158573 -0.365479 -0.051072
v -0.178056 -0.287185 -0.038495
v -0.160358 -0.258983 -0.087076
v -0.142014 -0.047081 -0.093725
v -0.187943 -0.183722 0.168147
v -0.188395 -0.218805 -0.025384
v -0.161405 -0.336571 -0.027214
v -0.194439 -0.223574 -0.077896
v -0.147875 -0.197439 0.048393
v -0.187746 -0.303175 -0.065237
v -0.204875 0.081697 0.020555
v -0.197437 -0.156609 -0.103627
v -0.203320 -0.191136 0.075834
v -0.214029 -0.186220 0.127252
v -0.214196 -0.170738 0.029745
v -0.206620 -0.370310 -0.084094
v -0.165155 0.033069 0.119592
v -0.158828 0.019278 -0.086921
v -0.208142 -0.091035 0.152639
v -0.239316 0.046489 -0.043788
v -0.222176 -0.366940 -0.031799
v -0.239317 0.104336 0.071120
v -0.231286 -0.345275 -0.074950
v -0.240687 0.165059 0.114495
v -0.258214 -0.017973 -0.081204
v -0.237179 0.184321 -0.069771
v -0.243510 0.214337 -0.108343
v -0.255491 0.087520 0.097518
v -0.252380 0.247127 -0.072874
v -0.233031 0.062871 0.062848
v -0.238844 0.043211 0.097054
v -0.243847 -0.111909 -0.085852
v -0.271296 0.076299 -0.025278
v -0.260612 0.222278 -0.054691
v -0.266435 0.109104 0.034263
v -0.261276 0.216483 0.141824
v -0.259992 0.145695 -0.097154
v -0.259229 0.135822 -0.013637
v -0.264899 0.221479 0.096011
v -0.275803 -0.155036 0.037000
v -0.256824 0.189094 -0.096998
v -0.267413 0.151742 0.060487
v -0.278317 0.202596 -0.127590
v -0.236632 -0.143044 -0.042423
v -0.268272 0.115007 0.054429
v -0.276600 0.115833 -0.017589
v -0.253627 0.149003 0.098252
v -0.261115 -0.012690 0.129203
v -0.296893 0.092509 -0.033235
v -0.306573 0.215958 0.092303
v -0.241617 -0.116232 0.120779
v -0.306173 0.291154 0.147731
v -0.280442 0.235251 0.121213
v -0.335640 0.111326 0.115950
v -0.308079 -0.053374 -0.077387
v -0.282858 0.288087 0.145851
v -0.303607 0.238512 0.085935
v -0.278026 0.110891 0.019812
v -0.295514 0.047120 -0.055073
v -0.303630 0.113997 0.104008
v -0.348741 -0.098146 -0.017332
v -0.286770 0.058470 0.128938
v -0.281271 0.263129 -0.109287
v -0.270511 0.229555 -0.097797
v -0.292510 0.287681 0.112706
v -0.297771 0.291747 -0.077640
v -0.290697 -0.119107 -0.050332
v -0.332855 0.071988 -0.050354
v -0.309190 -0.089790 0.112668
v -0.341010 0.008161 -0.051302
v -0.357268 -0.093543 0.030646
v -0.328554 0.146252 0.074573
v -0.354028 -0.005134 -0.032317
v -0.360346 0.142022 -0.000025
v -0.301906 0.002835 0.122521
v -0.430440 0.040935 0.104232
v -0.363247 -0.031032 0.077598
v -0.415285 0.077540 0.127524
v -0.408358 0.077984 -0.012144
v -0.381085 -0.031254 0.044544
v -0.412795 0.143630 0.085192
v -0.457595 0.074017 0.028708
v -0.424889 0.148503 0.061479
v -0.464154 0.122765 0.061549
v -0.456835 0.098572 0.109758
v -0.463196 0.056608 0.056574
f 133 119 127
f 32 23 51
f 159 143 161
f 241 244 242
f 251 250 252
f 152 144 153
f 214 228 241
f 251 244 247
f 185 144 149
f 214 197 228
f 220 247 244
f 251 247 250
f 247 249 250
f 238 249 247
f 117 124 144
f 124 149 144
f 185 149 183
f 183 197 214
f 183 156 197
f 197 194 228
f 228 194 220
f 194 226 220
f 194 211 226
f 220 238 247
f 220 226 238
f 124 125 149
f 149 125 183
f 125 140 183
f 197 188 194
f 213 211 194
f 188 190 194
f 194 190 213
f 111 108 97
f 97 99 111
f 108 111 124
f 124 111 125
f 125 111 133
f 125 133 140
f 190 188 205
f 190 202 213
f 202 190 205
f 213 219 216
f 87 93 97
f 111 112 133
f 112 116 133
f 133 127 140
f 231 205 223
f 222 202 205
f 223 216 218
f 219 218 216
f 231 223 218
f 71 74 87
f 87 74 93
f 116 119 133
f 41 68 50
f 71 68 74
f 68 71 50
f 31 41 50
f 24 41 31
f 24 47 41
f 41 77 68
f 41 47 77
f 116 101 119
f 116 102 101
f 24 18 47
f 18 20 47
f 73 102 103
f 102 91 101
f 6 20 18
f 20 32 47
f 20 23 32
f 20 6 23
f 32 51 62
f 62 51 63
f 62 73 103
f 62 63 73
f 51 54 63
f 91 102 73
f 54 80 73
f 63 54 73
f 143 139 161
f 141 139 143
f 161 157 163
f 159 161 163
f 157 171 163
f 163 171 180
f 142 139 141
f 142 141 154
f 157 153 171
f 157 154 153
f 171 217 180
f 171 153 217
f 217 153 185
f 244 251 242
f 144 185 153
f 185 214 235
f 214 241 235
f 228 244 241
f 185 183 214
f 228 220 244
f 219 213 202
f 97 93 99
f 99 112 111
f 219 202 218
f 202 222 218
f 222 205 231
f 77 93 74
f 93 66 99
f 218 222 231
f 68 77 74
f 77 66 93
f 66 112 99
f 103 116 112
f 103 102 116
f 77 62 66
f 66 62 103
f 66 103 112
f 47 32 77
f 77 32 62
f 155 166 161
f 139 155 161
f 157 161 166
f 155 142 166
f 139 142 155
f 166 142 157
f 142 154 157
f 65 56 64
f 48 56 65
f 26 25 36
f 128 107 115
f 65 64 82
f 25 26 44
f 128 115 129
f 82 64 88
f 193 229 195
f 115 122 129
f 122 136 129
f 86 82 88
f 86 88 104
f 229 193 209
f 192 203 193
f 209 193 203
f 230 209 207
f 209 203 207
f 136 184 162
f 136 126 184
f 126 110 131
f 104 113 110
f 126 170 184
f 126 131 170
f 131 134 170
f 110 130 131
f 130 110 113
f 184 170 191
f 170 178 191
f 178 198 191
f 134 164 170
f 170 164 178
f 164 134 145
f 178 164 169
f 169 174 178
f 145 169 164
f 69 78 95
f 69 61 78
f 46 61 69
f 46 29 38
f 12 15 29
f 29 15 38
f 16 15 12
f 25 12 36
f 95 78 107
f 78 61 79
f 16 12 25
f 79 109 78
f 107 78 109
f 40 36 48
f 26 36 40
f 35 40 55
f 107 109 115
f 48 65 55
f 55 40 48
f 44 26 40
f 9 16 19
f 19 16 25
f 55 65 83
f 65 82 86
f 83 65 86
f 40 33 44
f 44 19 25
f 33 19 44
f 115 109 122
f 94 86 104
f 122 106 126
f 89 86 94
f 122 126 136
f 106 110 126
f 106 94 110
f 94 104 110
f 46 52 61
f 52 75 61
f 46 38 52
f 52 38 58
f 15 22 38
f 61 75 79
f 52 58 75
f 38 22 58
f 15 16 9
f 22 15 9
f 22 9 28
f 79 100 109
f 79 75 85
f 22 35 58
f 28 35 22
f 35 28 40
f 79 85 100
f 75 58 85
f 60 58 35
f 35 55 60
f 28 33 40
f 28 9 19
f 28 19 33
f 109 100 122
f 100 85 98
f 58 60 85
f 60 55 83
f 100 98 122
f 122 98 106
f 98 85 89
f 85 60 89
f 60 83 89
f 89 83 86
f 89 94 98
f 98 94 106
f 154 152 153
f 141 152 154
f 141 143 152
f 242 251 252
f 246 242 252
f 243 242 246
f 243 241 242
f 235 241 243
f 217 185 235
f 179 180 217
f 179 163 180
f 159 163 179
f 54 53 80
f 54 39 53
f 91 80 105
f 73 80 91
f 42 39 54
f 51 42 54
f 23 42 51
f 23 27 42
f 91 105 101
f 42 27 45
f 23 13 27
f 6 13 23
f 6 4 13
f 5 4 6
f 1 5 6
f 4 5 1
f 27 31 45
f 45 31 50
f 10 31 27
f 10 8 31
f 8 18 24
f 31 8 24
f 1 6 18
f 1 18 8
f 3 1 8
f 101 118 119
f 118 127 119
f 72 45 70
f 45 50 70
f 50 71 70
f 70 87 96
f 70 71 87
f 140 127 156
f 96 87 97
f 205 188 208
f 208 223 205
f 183 140 156
f 216 223 211
f 213 216 211
f 188 201 208
f 223 208 211
f 208 201 211
f 188 224 201
f 156 177 196
f 108 124 117
f 92 97 108
f 226 201 238
f 226 211 201
f 197 196 188
f 156 196 197
f 121 108 117
f 238 240 249
f 249 240 250
f 152 117 144
f 120 117 152
f 250 245 248
f 150 120 148
f 120 152 148
f 152 143 148
f 250 248 252
f 239 252 248
f 179 217 181
f 148 143 159
f 148 159 175
f 237 243 246
f 237 235 243
f 237 206 235
f 206 217 235
f 181 217 206
f 175 159 179
f 21 43 53
f 80 76 81
f 53 57 80
f 43 57 53
f 21 53 39
f 80 81 105
f 49 39 42
f 49 42 72
f 72 42 45
f 27 13 10
f 13 2 10
f 4 2 13
f 101 105 118
f 59 49 72
f 10 7 8
f 10 2 7
f 2 4 7
f 4 3 7
f 4 1 3
f 7 3 8
f 118 138 127
f 67 72 96
f 96 72 70
f 146 127 138
f 67 96 84
f 156 127 146
f 84 96 92
f 156 146 177
f 96 97 92
f 204 212 224
f 201 224 238
f 224 240 238
f 240 224 215
f 188 196 224
f 196 177 186
f 196 199 224
f 121 92 108
f 121 117 120
f 121 120 132
f 123 92 121
f 240 245 250
f 132 120 150
f 245 239 248
f 239 246 252
f 239 227 246
f 160 150 175
f 150 148 175
f 227 237 246
f 237 227 206
f 233 206 227
f 181 175 179
f 43 34 57
f 105 81 118
f 199 204 224
f 132 123 121
f 181 160 175
f 21 14 43
f 57 76 80
f 17 21 39
f 145 151 169
f 195 229 232
f 114 107 128
f 48 36 56
f 56 37 64
f 12 56 36
f 12 29 56
f 56 29 37
f 95 107 114
f 30 29 46
f 69 95 76
f 34 30 46
f 34 46 69
f 167 187 182
f 189 182 187
f 187 176 189
f 182 189 176
f 167 173 187
f 165 167 182
f 158 173 167
f 165 182 169
f 165 158 167
f 168 176 187
f 176 169 182
f 174 169 176
f 176 172 174
f 151 158 165
f 169 151 165
f 198 210 233
f 174 210 198
f 198 178 174
f 221 233 227
f 221 198 233
f 221 227 236
f 151 147 158
f 147 151 145
f 191 198 221
f 225 221 236
f 145 137 147
f 191 221 225
f 234 225 236
f 134 137 145
f 130 137 134
f 131 130 134
f 199 191 225
f 215 225 234
f 113 123 130
f 104 123 113
f 186 184 191
f 186 162 184
f 203 225 215
f 203 199 225
f 207 203 215
f 212 207 215
f 104 90 123
f 192 199 203
f 104 88 90
f 129 136 162
f 135 129 162
f 200 207 212
f 192 195 200
f 207 200 230
f 192 193 195
f 200 195 232
f 230 200 232
f 67 84 88
f 64 67 88
f 128 129 135
f 138 128 135
f 59 67 64
f 114 128 138
f 37 59 64
f 59 37 49
f 81 95 114
f 17 49 37
f 30 17 37
f 29 30 37
f 81 76 95
f 11 17 30
f 14 11 30
f 14 30 34
f 57 34 76
f 34 69 76
f 14 17 11
f 21 17 14
f 43 14 34
f 173 168 187
f 173 158 168
f 168 158 160
f 176 168 172
f 168 160 172
f 172 160 181
f 174 172 210
f 172 181 210
f 206 233 210
f 210 181 206
f 158 147 160
f 147 137 160
f 137 150 160
f 236 227 239
f 236 239 245
f 123 132 137
f 137 132 150
f 234 236 245
f 130 123 137
f 196 191 199
f 215 234 240
f 240 234 245
f 229 209 230
f 224 212 215
f 90 92 123
f 146 186 177
f 146 162 186
f 192 204 199
f 212 204 200
f 90 84 92
f 135 162 146
f 204 192 200
f 88 84 90
f 138 135 146
f 67 59 72
f 118 114 138
f 118 81 114
f 17 39 49
f 232 229 230
f 196 186 191
