v 0.411177 -0.069772 -0.190080
v 0.431261 -0.099399 -0.194004
v 0.405216 0.130352 -0.003459
v 0.450852 -0.171838 0.068317
v 0.457425 -0.149994 0.033280
v 0.416627 -0.072782 -0.209941
v 0.414746 -0.082233 -0.137701
v 0.412316 -0.136113 0.041781
v 0.405274 0.078429 -0.027517
v 0.380290 0.031645 0.024766
v 0.401902 -0.074444 -0.167025
v 0.422872 -0.119559 0.014652
v 0.363431 0.039841 -0.075039
v 0.380701 0.132056 0.022695
v 0.383231 -0.073449 -0.179960
v 0.402577 -0.145721 0.068934
v 0.350222 -0.028861 -0.000568
v 0.339400 0.086450 0.047489
v 0.381944 0.012258 0.006676
v 0.393288 -0.116641 0.013622
v 0.319848 0.120092 0.023431
v 0.403937 -0.048607 -0.116617
v 0.434591 -0.171581 0.040645
v 0.373422 0.009148 -0.051298
v 0.358189 0.125499 -0.053875
v 0.335863 0.139965 -0.022816
v 0.354064 -0.028568 -0.058751
v 0.354285 -0.092574 0.056845
v 0.338511 -0.059010 0.029193
v 0.364122 -0.048732 -0.070762
v 0.291040 0.084728 -0.072634
v 0.331181 -0.032993 -0.092159
v 0.328730 -0.019756 0.018783
v 0.360562 -0.070392 -0.130927
v 0.334492 -0.036769 -0.120811
v 0.333774 -0.021158 -0.023206
v 0.353884 -0.105298 0.038582
v 0.352535 -0.050955 0.000186
v 0.330920 -0.010261 -0.062305
v 0.325526 -0.067606 0.043888
v 0.318723 -0.040115 0.014996
v 0.307294 -0.019635 0.041106
v 0.313319 -0.002416 -0.087187
v 0.293116 -0.005474 -0.088813
v 0.303106 -0.021894 -0.028692
v 0.312691 0.010737 0.058497
v 0.253486 0.098908 -0.010155
v 0.317738 -0.030020 -0.062346
v 0.257025 0.053491 0.042372
v 0.288537 -0.031636 0.014242
v 0.263210 0.050194 -0.093882
v 0.303866 0.034748 -0.099145
v 0.247093 0.090829 -0.039643
v 0.256499 -0.042202 -0.046549
v 0.275661 0.017905 0.061608
v 0.240924 -0.005976 0.060347
v 0.248958 -0.034206 0.041911
v 0.248318 0.087119 0.012119
v 0.177137 0.083521 -0.079590
v 0.179028 0.071240 0.045929
v 0.152026 0.101419 -0.015223
v 0.220976 -0.005921 -0.110332
v 0.220397 -0.053240 -0.089142
v 0.185106 0.047801 -0.121573
v 0.141097 0.234505 -0.144166
v 0.121982 0.225301 -0.189490
v 0.136336 0.202645 -0.183209
v 0.154013 0.105250 0.031979
v 0.131489 0.141341 0.210866
v 0.124996 0.139545 0.171578
v 0.106670 0.246696 -0.154171
v 0.148071 0.158008 0.188619
v 0.156741 0.095293 -0.095181
v 0.211002 -0.076695 0.024090
v 0.098611 0.126914 0.191557
v 0.150241 0.063429 0.091407
v 0.110946 0.192532 -0.146634
v 0.110195 0.151492 -0.077039
v 0.099101 0.121030 0.021324
v 0.107695 0.140820 0.109273
v 0.110067 0.176864 0.201245
v 0.183289 -0.100672 -0.033369
v 0.129555 0.129066 0.044229
v 0.139506 -0.073617 -0.100457
v 0.098033 0.217015 -0.125350
v 0.090229 0.153947 -0.130462
v 0.112393 0.119294 0.126318
v 0.190608 0.021172 0.082339
v 0.117723 0.127389 -0.124601
v 0.091439 0.105887 0.132393
v 0.075520 0.163512 0.189089
v 0.144006 -0.043483 -0.116932
v 0.124208 0.055906 0.093073
v 0.147870 -0.064351 0.058459
v 0.071801 0.217020 -0.170429
v 0.141098 0.112613 -0.035629
v 0.063922 0.177970 -0.116579
v 0.099374 0.160978 0.147250
v 0.086134 0.155942 -0.059515
v 0.110196 0.003979 -0.118366
v 0.065664 0.084424 0.078189
v 0.076373 0.139721 0.198918
v 0.048130 0.183309 -0.089975
v 0.075092 0.147491 0.080492
v 0.138551 -0.016216 0.072420
v 0.064474 0.134505 0.134566
v 0.050523 0.131639 -0.103185
v 0.108878 0.088568 -0.122212
v 0.051491 0.112053 -0.052028
v 0.051816 0.145197 0.117106
v 0.023093 0.104964 0.011080
v 0.080347 0.121529 0.037136
v 0.046104 0.044784 -0.088841
v 0.083982 0.008510 0.070413
v 0.025243 0.083331 0.028720
v 0.111413 -0.137603 -0.039745
v 0.055265 0.086026 0.045528
v 0.105427 -0.119366 -0.083702
v 0.048117 0.030383 0.054286
v 0.038873 -0.010359 0.066767
v 0.076679 -0.061830 0.070167
v 0.015748 0.109266 -0.020200
v 0.075799 -0.104099 0.064220
v 0.101453 -0.139282 0.001666
v -0.011095 0.055396 -0.090726
v -0.007421 0.057633 0.047971
v 0.058178 -0.159802 -0.090943
v 0.055114 -0.029830 -0.125722
v 0.008148 -0.027605 -0.143169
v 0.062042 -0.083229 -0.131866
v 0.019425 -0.055620 0.088692
v 0.050906 -0.180688 0.010307
v 0.035965 -0.140049 -0.121444
v -0.045533 -0.007219 -0.173452
v -0.024500 0.099608 -0.011148
v 0.038773 -0.203013 -0.045141
v -0.087807 0.084090 0.018155
v 0.010814 -0.108843 0.096770
v 0.045297 -0.154206 0.043249
v -0.068693 0.027132 -0.169774
v -0.072915 0.057144 -0.119424
v -0.000975 -0.067504 -0.160577
v -0.046354 0.079091 -0.074208
v -0.052188 0.001127 0.117749
v -0.040946 -0.042179 0.128909
v -0.056891 0.035120 0.091145
v -0.067369 -0.137737 -0.171766
v 0.007234 -0.221414 -0.029070
v -0.020126 -0.208830 -0.091157
v -0.074394 0.019879 0.135926
v -0.027333 -0.087405 -0.169685
v -0.113353 0.085428 -0.153739
v -0.037640 -0.239009 -0.040972
v -0.129688 0.083077 -0.122946
v -0.117872 0.058262 0.127760
v -0.123451 0.034322 0.044215
v -0.130777 0.075541 -0.171773
v -0.044251 -0.204935 0.052196
v -0.063608 -0.145555 0.109821
v -0.046455 -0.181761 -0.136002
v -0.086681 -0.216256 -0.107189
v -0.152321 0.038603 -0.172880
v -0.156040 0.069047 0.091313
v -0.063435 -0.173105 0.097259
v -0.100070 -0.047602 -0.178915
v -0.120471 0.057028 -0.082166
v -0.111854 0.049143 0.086957
v -0.131349 0.080098 -0.008430
v -0.097419 -0.164660 -0.161977
v -0.173270 0.037802 -0.063162
v -0.113607 -0.196828 0.079166
v -0.158767 0.051506 -0.095136
v -0.135477 -0.028324 0.141544
v -0.181006 0.068652 0.124762
v -0.184002 0.089504 -0.172248
v -0.206271 0.034418 -0.010884
v -0.157496 0.044592 0.137873
v -0.073407 -0.228850 0.019454
v -0.187293 0.000684 0.133909
v -0.179842 -0.174487 -0.142792
v -0.237943 0.030288 0.135166
v -0.198273 0.033838 0.073450
v -0.173566 -0.200425 0.064504
v -0.225046 0.085841 0.090546
v -0.230050 0.048931 -0.104210
v -0.250459 0.143171 0.106373
v -0.263465 0.205319 0.095463
v -0.232849 0.120448 -0.167606
v -0.185146 -0.199830 -0.108582
v -0.171048 -0.075561 0.125194
v -0.265101 0.138271 0.133635
v -0.234542 0.124463 -0.135212
v -0.111282 -0.240563 -0.046325
v -0.181290 -0.216953 0.026407
v -0.225546 0.053550 -0.174953
v -0.266294 0.171528 -0.171589
v -0.276385 0.157727 -0.194974
v -0.279339 0.189949 -0.152463
v -0.291540 0.183627 0.140898
v -0.275989 0.117472 0.077238
v -0.250974 0.010109 -0.077441
v -0.248079 0.013951 -0.013830
v -0.171639 -0.014696 -0.175516
v -0.258548 0.199771 0.136858
v -0.312467 0.135312 -0.182233
v -0.303429 0.233267 -0.172371
v -0.240974 0.079002 0.129375
v -0.283005 0.082468 0.131068
v -0.272193 0.215090 -0.204406
v -0.293115 0.195148 -0.218832
v -0.255858 0.024777 0.065095
v -0.314618 0.235127 -0.213303
v -0.299325 0.190438 0.096222
v -0.197938 -0.214445 -0.040569
v -0.238469 -0.057605 -0.155874
v -0.276008 0.050011 -0.148520
v -0.305136 0.142374 0.120832
v -0.216359 0.004574 0.037358
v -0.320646 0.196616 -0.202086
v -0.282818 0.113122 -0.119130
v -0.269550 0.086417 -0.171601
v -0.276788 0.035735 -0.108700
v -0.325798 0.204976 -0.167728
v -0.254302 0.003879 -0.156788
v -0.249646 -0.038369 0.118931
v -0.256950 -0.097596 0.100967
v -0.276805 0.000836 -0.097491
v -0.244234 -0.173907 0.040984
v -0.298186 0.082786 -0.122923
v -0.299582 0.060198 0.116829
v -0.306450 0.099199 0.079716
v -0.295452 0.043754 0.077097
v -0.260211 -0.171004 -0.035246
v -0.274967 -0.021443 0.067834
v -0.248632 -0.150477 -0.117187
v -0.271736 -0.084706 0.098556
v -0.282258 0.018497 0.097295
v -0.300401 -0.018220 -0.031754
v -0.292796 -0.097058 -0.064349
v -0.283624 -0.052267 -0.136543
v -0.275295 -0.110917 0.071783
v -0.302941 -0.022558 -0.006514
v -0.302721 -0.050362 0.014501
v -0.290956 -0.114543 -0.014067
v -0.298741 -0.095619 0.012780
v -0.322121 -0.115955 -0.011100
v -0.342300 -0.022022 -0.040964
v -0.344425 -0.017904 -0.008858
v -0.321292 -0.053669 -0.066451
v -0.327933 -0.049908 0.024865
v -0.349873 -0.070236 0.005814
v -0.361333 -0.076602 -0.037033
f 177 155 174
f 179 177 181
f 181 177 207
f 4 5 8
f 16 4 8
f 91 81 98
f 98 110 91
f 98 72 70
f 70 80 98
f 87 70 75
f 80 70 87
f 90 75 106
f 75 102 106
f 102 91 106
f 106 91 110
f 90 87 75
f 150 155 177
f 173 150 177
f 173 177 179
f 145 150 173
f 173 179 225
f 190 173 225
f 145 173 159
f 159 173 190
f 159 138 145
f 72 98 81
f 81 91 102
f 72 81 69
f 72 69 70
f 70 69 75
f 69 81 102
f 162 165 203
f 140 165 162
f 140 162 157
f 221 195 216
f 175 162 195
f 175 157 162
f 157 175 152
f 188 221 197
f 221 188 195
f 188 175 195
f 67 77 95
f 67 65 77
f 205 221 216
f 205 197 221
f 196 188 197
f 188 196 192
f 71 66 95
f 66 67 95
f 65 66 71
f 65 67 66
f 196 209 198
f 223 219 205
f 220 206 223
f 220 198 206
f 198 209 206
f 210 205 219
f 210 197 205
f 209 197 210
f 209 196 197
f 212 209 210
f 212 219 223
f 206 212 223
f 212 210 219
f 206 209 212
f 12 23 20
f 193 178 194
f 148 178 153
f 148 132 178
f 136 132 148
f 29 8 12
f 132 124 139
f 41 38 37
f 38 20 37
f 12 20 38
f 29 12 17
f 124 74 94
f 116 82 74
f 17 33 29
f 228 241 244
f 54 57 74
f 54 50 57
f 50 42 57
f 50 41 42
f 29 33 42
f 33 46 42
f 19 46 33
f 46 10 18
f 19 10 46
f 17 12 38
f 228 244 233
f 128 92 130
f 155 167 163
f 183 226 228
f 171 158 164
f 174 155 163
f 90 106 101
f 237 181 230
f 76 87 90
f 76 90 93
f 93 90 101
f 144 146 150
f 150 146 155
f 225 179 181
f 225 181 237
f 88 76 93
f 144 150 145
f 226 225 236
f 145 131 144
f 171 190 226
f 190 225 226
f 138 131 145
f 241 226 236
f 164 138 159
f 171 226 183
f 139 138 164
f 164 159 171
f 171 159 190
f 139 164 158
f 240 215 235
f 129 128 142
f 100 92 128
f 64 92 100
f 64 62 92
f 51 62 64
f 51 52 62
f 113 128 129
f 113 100 128
f 108 64 100
f 227 224 240
f 125 129 134
f 108 100 113
f 73 64 108
f 59 64 73
f 216 224 227
f 166 141 154
f 141 152 154
f 141 125 140
f 143 125 141
f 107 108 113
f 89 73 108
f 222 216 227
f 222 185 229
f 185 220 229
f 166 154 172
f 86 108 107
f 172 192 185
f 86 107 97
f 216 222 229
f 86 89 108
f 77 89 86
f 88 60 76
f 237 211 234
f 225 237 234
f 211 218 234
f 211 182 218
f 167 146 156
f 126 146 144
f 101 117 119
f 76 80 87
f 60 80 76
f 68 80 60
f 211 237 232
f 184 182 211
f 163 182 184
f 167 218 182
f 163 167 182
f 155 146 167
f 101 110 117
f 200 211 232
f 184 211 200
f 80 83 104
f 200 232 231
f 186 184 200
f 187 186 200
f 213 200 231
f 217 213 231
f 213 217 199
f 187 200 213
f 224 203 215
f 125 134 140
f 96 78 99
f 96 99 109
f 238 239 249
f 180 189 235
f 7 22 30
f 7 30 34
f 118 127 133
f 133 127 149
f 133 149 160
f 160 149 161
f 79 96 109
f 79 109 122
f 109 113 122
f 135 122 143
f 135 143 168
f 143 166 168
f 168 166 170
f 176 168 170
f 61 59 96
f 176 170 202
f 202 201 238
f 247 238 249
f 3 9 25
f 3 25 26
f 26 25 31
f 26 31 53
f 26 53 47
f 53 59 61
f 238 240 239
f 249 252 247
f 195 162 224
f 162 203 224
f 152 140 157
f 140 152 141
f 216 195 224
f 154 152 175
f 185 192 220
f 175 188 192
f 154 175 192
f 95 86 97
f 77 86 95
f 205 229 223
f 216 229 205
f 229 220 223
f 103 95 97
f 85 95 103
f 65 71 85
f 65 85 77
f 192 198 220
f 16 8 28
f 1 6 15
f 192 196 198
f 71 95 85
f 78 73 89
f 154 192 172
f 89 77 78
f 103 97 107
f 99 85 103
f 99 78 85
f 2 34 15
f 6 2 15
f 2 11 7
f 2 1 11
f 169 147 160
f 75 69 102
f 165 147 169
f 169 180 215
f 165 169 203
f 134 151 165
f 151 147 165
f 142 151 134
f 142 130 151
f 215 203 169
f 129 142 134
f 224 215 240
f 77 85 78
f 140 134 165
f 130 118 133
f 63 118 84
f 118 63 82
f 242 202 238
f 238 247 248
f 47 53 61
f 39 24 36
f 118 82 116
f 21 14 26
f 21 26 47
f 58 61 60
f 68 61 96
f 68 96 79
f 218 176 202
f 242 238 248
f 250 242 248
f 10 3 14
f 47 61 58
f 250 248 251
f 248 252 251
f 248 247 252
f 9 3 10
f 19 9 10
f 246 251 252
f 24 19 33
f 24 33 36
f 33 17 36
f 36 41 45
f 41 50 45
f 54 45 50
f 239 233 244
f 36 17 38
f 36 38 41
f 30 36 45
f 54 74 82
f 214 194 233
f 233 194 228
f 116 74 124
f 116 124 136
f 124 132 136
f 34 48 44
f 43 35 44
f 35 34 44
f 43 32 35
f 27 22 32
f 22 11 32
f 22 27 30
f 92 63 84
f 44 63 62
f 44 54 63
f 52 43 44
f 39 32 43
f 13 43 52
f 13 39 43
f 13 24 39
f 235 239 240
f 52 44 62
f 31 51 53
f 31 52 51
f 25 52 31
f 13 52 25
f 113 129 125
f 59 51 64
f 53 51 59
f 238 227 240
f 201 227 238
f 201 222 227
f 201 185 222
f 84 118 130
f 62 63 92
f 14 3 26
f 156 168 176
f 156 137 168
f 137 135 168
f 126 135 137
f 111 122 135
f 111 135 126
f 115 112 111
f 117 112 115
f 111 79 122
f 112 79 111
f 161 153 193
f 153 161 149
f 149 148 153
f 136 148 149
f 193 214 189
f 161 193 189
f 127 116 136
f 118 116 127
f 235 214 233
f 189 214 235
f 30 45 48
f 34 30 48
f 27 32 39
f 30 27 36
f 235 233 239
f 48 45 54
f 27 39 36
f 239 244 246
f 9 13 25
f 13 9 24
f 9 19 24
f 252 239 246
f 249 239 252
f 127 136 149
f 63 54 82
f 44 48 54
f 170 201 202
f 201 170 185
f 166 172 170
f 122 125 143
f 114 93 119
f 93 101 119
f 120 119 115
f 120 115 126
f 131 120 126
f 131 126 144
f 225 234 236
f 236 234 243
f 55 49 88
f 55 88 56
f 49 60 88
f 105 88 93
f 105 93 114
f 114 119 120
f 241 236 243
f 46 18 55
f 42 46 55
f 56 88 94
f 105 114 121
f 121 114 120
f 120 131 121
f 121 131 138
f 42 55 56
f 57 42 56
f 57 56 74
f 74 56 94
f 94 88 105
f 94 105 121
f 94 121 123
f 123 121 138
f 226 241 228
f 40 29 42
f 41 40 42
f 94 123 124
f 139 124 123
f 139 123 138
f 194 183 228
f 28 8 29
f 37 28 40
f 28 29 40
f 37 40 41
f 132 139 158
f 122 113 125
f 109 107 113
f 78 96 73
f 59 73 96
f 166 143 141
f 109 99 103
f 7 11 22
f 161 189 180
f 169 161 180
f 169 160 161
f 147 133 160
f 35 15 34
f 1 35 11
f 130 147 151
f 130 133 147
f 130 92 84
f 11 35 32
f 1 15 35
f 215 180 235
f 128 130 142
f 170 172 185
f 103 107 109
f 2 7 34
f 246 250 251
f 246 245 250
f 244 241 245
f 241 243 245
f 18 49 55
f 18 21 49
f 10 14 18
f 245 243 250
f 119 117 115
f 49 58 60
f 49 21 58
f 18 14 21
f 234 242 243
f 234 202 242
f 218 202 234
f 218 156 176
f 167 156 218
f 156 146 137
f 68 60 61
f 146 126 137
f 104 117 110
f 104 112 117
f 104 79 112
f 104 83 79
f 83 68 79
f 80 68 83
f 214 193 194
f 193 153 178
f 244 245 246
f 250 243 242
f 21 47 58
f 115 111 126
f 230 232 237
f 181 208 230
f 181 207 208
f 207 174 184
f 177 174 207
f 174 163 184
f 132 158 178
f 5 12 8
f 5 23 12
f 230 231 232
f 178 171 194
f 171 183 194
f 16 28 37
f 178 158 171
f 20 23 37
f 23 16 37
f 23 5 4
f 4 16 23
f 204 187 213
f 204 213 199
f 204 186 187
f 186 204 191
f 204 199 191
f 191 199 217
f 208 191 217
f 208 217 230
f 217 231 230
f 184 186 207
f 207 186 191
f 207 191 208
f 80 104 98
f 98 104 110
f 101 106 110
f 1 2 6
